<?xml version="1.0" encoding="utf-8"?>
<!-- Generator: Adobe Illustrator 25.3.1, SVG Export Plug-In . SVG Version: 6.00 Build 0)  -->
<svg version="1.1" id="Layer_1" xmlns:v="https://vecta.io/nano"
	 xmlns="http://www.w3.org/2000/svg" xmlns:xlink="http://www.w3.org/1999/xlink" x="0px" y="0px" viewBox="0 0 186 171"
	 style="enable-background:new 0 0 186 171;" xml:space="preserve">
<style type="text/css">
	.st0{fill:#2A6FF6;}
	.st1{fill:#F7931A;}
	.st2{opacity:0.1;fill:none;stroke:#191326;stroke-width:3;enable-background:new    ;}
	.st3{fill:#FFFFFF;}
	.st4{fill:#50AF95;}
	.st5{fillRule:evenodd;clipRule:evenodd;fill:#FFFFFF;}
</style>
<g>
	<path class="st0" d="M172.4,95c-1-7.8-6.2-14.9-13.3-18.2c-8.6-4-18.7-2.6-27.8-5.3c-11.8-3.5-20.4-13.3-30.9-19.8
		C88,44.1,73.2,41.4,58.8,38.8C49.2,37.1,39.1,35.5,30,39c-12.3,4.9-19.5,20-15.5,32.6c6.8,21.4,37,27.1,46.2,47.6
		c4.8,10.6,3.2,24.1,10.7,32.9c9,10.5,25.5,8.7,38.9,5.5c10.2-2.5,20.3-5.3,30.4-8.2c8.2-2.3,16.8-4.8,22.8-10.8
		c7.5-7.4,4.4-13.1,4.3-21.7C167.9,109.5,173.5,103.3,172.4,95z"/>
</g>
<path class="st1" d="M70.2,68.8c16,0,29-13,29-29s-13-29-29-29s-29,13-29,29C41.2,55.8,54.2,68.8,70.2,68.8z"/>
<circle class="st2" cx="70.2" cy="39.8" r="27.5"/>
<g id="Layer_x0020_1_2_">
	<g id="_1421344023328_1_">
		<path class="st3" d="M82.5,36.5c0.5-3.5-2.1-5.3-5.7-6.6l1.2-4.7l-2.9-0.7L74,29.1c-0.8-0.2-1.5-0.4-2.3-0.5l1.2-4.6L70,23.3
			L68.8,28c-0.6-0.1-1.2-0.3-1.8-0.4l0,0l-3.9-1l-0.8,3c0,0,2.1,0.5,2.1,0.5c1.2,0.3,1.3,1.1,1.3,1.6l-1.3,5.3
			c0.1,0,0.2,0.1,0.3,0.1c-0.1,0-0.2-0.1-0.3-0.1l-1.8,7.4c-0.1,0.4-0.5,0.9-1.3,0.7c0,0.1-2.1-0.5-2.1-0.5l-1.4,3.3l3.7,0.9
			c0.7,0.2,1.3,0.4,2.1,0.5l-1.2,4.8l2.9,0.7l1.2-4.7c0.8,0.2,1.5,0.4,2.3,0.6l-1.2,4.7l2.9,0.7l1.2-4.8c4.9,0.9,8.5,0.5,10.1-3.9
			c1.2-3.5-0.1-5.6-2.6-6.9C80.8,40.3,82.2,39,82.5,36.5L82.5,36.5L82.5,36.5z M76,45.7c-0.9,3.5-6.9,1.6-8.8,1.2l1.6-6.3
			C70.8,41,77,42,76,45.7L76,45.7z M76.9,36.5c-0.8,3.2-5.7,1.6-7.4,1.2l1.4-5.7C72.6,32.4,77.7,33.1,76.9,36.5L76.9,36.5z"/>
	</g>
</g>
<path class="st4" d="M120.5,127c24,0,43.3-19.3,43.3-43.3s-19.3-43.3-43.3-43.3S77.2,59.7,77.2,83.7S96.5,127,120.5,127z"/>
<circle class="st2" cx="120.5" cy="83.7" r="42.1"/>
<path class="st5" d="M125.1,84.8L125.1,84.8c-0.3,0-1.6,0.1-4.7,0.1c-2.4,0-4.2-0.1-4.8-0.1l0,0c-9.4-0.4-16.5-2.1-16.5-4
	s7.1-3.6,16.5-4v6.4c0.6,0,2.4,0.1,4.8,0.1c2.9,0,4.4-0.1,4.7-0.1v-6.4c9.4,0.4,16.5,2.1,16.5,4C141.6,82.7,134.5,84.3,125.1,84.8
	L125.1,84.8L125.1,84.8z M125.1,76v-5.8h13.2v-8.8h-35.8v8.8h13.2V76C105,76.5,97,78.6,97,81.1s8,4.7,18.7,5.1v18.4h9.5V86.3
	c10.7-0.5,18.7-2.6,18.7-5.1C143.8,78.6,135.8,76.5,125.1,76L125.1,76L125.1,76z M125.1,76L125.1,76z"/>
</svg>
