<?xml version="1.0" encoding="utf-8"?>
<!-- Generator: Adobe Illustrator 25.3.1, SVG Export Plug-In . SVG Version: 6.00 Build 0)  -->
<svg version="1.1" id="Layer_1" xmlns:v="https://vecta.io/nano"
	 xmlns="http://www.w3.org/2000/svg" xmlns:xlink="http://www.w3.org/1999/xlink" x="0px" y="0px" viewBox="0 0 186 171"
	 style="enable-background:new 0 0 186 171;" xml:space="preserve">
<style type="text/css">
	.st0{fill:#2A6FF6;}
	.st1{fillRule:evenodd;clipRule:evenodd;fill:#FFFFFF;}
	.st2{opacity:0.1;fill:none;stroke:#191326;stroke-width:3;enable-background:new    ;}
	.st3{fill:#F7931A;}
	.st4{fill:#FFFFFF;}
</style>
<g>
	<path class="st0" d="M172.4,95c-1-7.8-6.2-14.9-13.3-18.2c-8.6-4-18.7-2.6-27.8-5.3c-11.8-3.5-20.4-13.3-30.9-19.8
		C88,44.1,73.2,41.4,58.8,38.8C49.2,37.1,39.1,35.5,30,39c-12.3,4.9-19.5,20-15.5,32.6c6.8,21.4,37,27.1,46.2,47.6
		c4.8,10.6,3.2,24.1,10.7,32.9c9,10.5,25.5,8.7,38.9,5.5c10.2-2.5,20.3-5.3,30.4-8.2c8.2-2.3,16.8-4.8,22.8-10.8
		c7.5-7.4,4.4-13.1,4.3-21.7C167.9,109.5,173.5,103.3,172.4,95z"/>
</g>
<path class="st0" d="M70.2,68.8c16,0,29-13,29-29s-13-29-29-29s-29,13-29,29C41.2,55.8,54.2,68.8,70.2,68.8z"/>
<path class="st1" d="M72.4,34.2l6.5-3.8V38L72.4,34.2z M78.9,50.5l-8.7,5.1l-8.7-5.1v-8.9l8.7,5.1l8.7-5.1V50.5z M61.5,30.4l6.5,3.8
	L61.5,38V30.4z M71.3,36l6.5,3.8l-6.5,3.8V36z M69.1,43.6l-6.5-3.8l6.5-3.8V43.6z M77.8,28.6l-7.6,4.3l-7.6-4.3l7.6-4.5L77.8,28.6z
	 M59.3,27.8v23.7l10.9,6.2l10.9-6.2V27.8l-10.9-6.2L59.3,27.8z"/>
<circle class="st2" cx="70.2" cy="39.8" r="27.5"/>
<path class="st3" d="M120.5,127c24,0,43.3-19.3,43.3-43.3s-19.3-43.3-43.3-43.3S77.2,59.7,77.2,83.7S96.5,127,120.5,127z"/>
<circle class="st2" cx="120.5" cy="83.7" r="42.1"/>
<g id="Layer_x0020_1_1_">
	<g id="_1421344023328">
		<path class="st4" d="M141.6,78.2c0.9-5.9-3.6-9.1-9.8-11.2l2-8l-4.9-1.2l-1.9,7.8c-1.3-0.3-2.6-0.6-3.9-0.9l2-7.8l-4.9-1.2l-2,8
			c-1.1-0.2-2.1-0.5-3.1-0.7l0,0l-6.7-1.7l-1.3,5.2c0,0,3.6,0.8,3.5,0.9c2,0.5,2.3,1.8,2.3,2.8l-2.3,9.1c0.1,0,0.3,0.1,0.5,0.2
			c-0.2,0-0.3-0.1-0.5-0.1L107.5,92c-0.2,0.6-0.9,1.5-2.2,1.2c0,0.1-3.5-0.9-3.5-0.9l-2.4,5.6l6.3,1.6c1.2,0.3,2.3,0.6,3.5,0.9
			l-2,8.1l4.9,1.2l2-8c1.3,0.4,2.6,0.7,3.9,1l-2,8l4.9,1.2l2-8.1c8.3,1.6,14.5,0.9,17.2-6.6c2.1-6-0.1-9.5-4.5-11.8
			C138.6,84.6,141,82.5,141.6,78.2L141.6,78.2L141.6,78.2z M130.5,93.8c-1.5,6-11.7,2.8-15,2l2.7-10.7
			C121.5,85.9,132.1,87.5,130.5,93.8L130.5,93.8z M132,78.1c-1.4,5.5-9.8,2.7-12.6,2l2.4-9.7C124.6,71.1,133.4,72.4,132,78.1
			L132,78.1z"/>
	</g>
</g>
</svg>
