<?xml version="1.0" encoding="utf-8"?>
<!-- Generator: Adobe Illustrator 25.3.1, SVG Export Plug-In . SVG Version: 6.00 Build 0)  -->
<svg version="1.1" id="Layer_1" xmlns:v="https://vecta.io/nano"
	 xmlns="http://www.w3.org/2000/svg" xmlns:xlink="http://www.w3.org/1999/xlink" x="0px" y="0px" viewBox="0 0 186 171"
	 style="enable-background:new 0 0 186 171;" xml:space="preserve">
<style type="text/css">
	.st0{fill:#2A6FF6;}
	.st1{fill:#FFFFFF;}
	.st2{opacity:0.1;fill:none;stroke:#191326;stroke-width:3;enable-background:new    ;}
	.st3{fill:#343434;}
	.st4{fill:#8C8C8C;}
	.st5{fill:#3C3C3B;}
	.st6{fill:#141414;}
	.st7{fill:#393939;}
	.st8{fill:#50AF95;}
	.st9{fillRule:evenodd;clipRule:evenodd;fill:#FFFFFF;}
</style>
<g>
	<path class="st0" d="M172.4,95c-1-7.8-6.2-14.9-13.3-18.2c-8.6-4-18.7-2.6-27.8-5.3c-11.8-3.5-20.4-13.3-30.9-19.8
		C88,44.1,73.2,41.4,58.8,38.8C49.2,37.1,39.1,35.5,30,39c-12.3,4.9-19.5,20-15.5,32.6c6.8,21.4,37,27.1,46.2,47.6
		c4.8,10.6,3.2,24.1,10.7,32.9c9,10.5,25.5,8.7,38.9,5.5c10.2-2.5,20.3-5.3,30.4-8.2c8.2-2.3,16.8-4.8,22.8-10.8
		c7.5-7.4,4.4-13.1,4.3-21.7C167.9,109.5,173.5,103.3,172.4,95z"/>
</g>
<path class="st1" d="M70.2,68.8c16,0,29-13,29-29s-13-29-29-29s-29,13-29,29C41.2,55.8,54.2,68.8,70.2,68.8z"/>
<circle class="st2" cx="70.2" cy="39.8" r="27.5"/>
<g id="Layer_x0020_1_1_">
	<g id="_1421394342400_1_">
		<g>
			<polygon class="st3" points="70.2,19.8 70,20.7 70,45.8 70.2,46.1 81.8,39.2 			"/>
			<polygon class="st4" points="70.2,19.8 58.6,39.2 70.2,46.1 70.2,33.9 			"/>
			<polygon class="st5" points="70.2,48.3 70.1,48.5 70.1,57.4 70.2,57.8 81.8,41.4 			"/>
			<polygon class="st4" points="70.2,57.8 70.2,48.3 58.6,41.4 			"/>
			<polygon class="st6" points="70.2,46.1 81.8,39.2 70.2,33.9 			"/>
			<polygon class="st7" points="58.6,39.2 70.2,46.1 70.2,33.9 			"/>
		</g>
	</g>
</g>
<path class="st8" d="M120.5,127c24,0,43.3-19.3,43.3-43.3s-19.3-43.3-43.3-43.3S77.2,59.7,77.2,83.7S96.5,127,120.5,127z"/>
<circle class="st2" cx="120.5" cy="83.7" r="42.1"/>
<path class="st9" d="M125.1,84.8L125.1,84.8c-0.3,0-1.6,0.1-4.7,0.1c-2.4,0-4.2-0.1-4.8-0.1l0,0c-9.4-0.4-16.5-2.1-16.5-4
	s7.1-3.6,16.5-4v6.4c0.6,0,2.4,0.1,4.8,0.1c2.9,0,4.4-0.1,4.7-0.1v-6.4c9.4,0.4,16.5,2.1,16.5,4C141.6,82.7,134.5,84.3,125.1,84.8
	L125.1,84.8L125.1,84.8z M125.1,76v-5.8h13.2v-8.8h-35.8v8.8h13.2V76C105,76.5,97,78.6,97,81.1s8,4.7,18.7,5.1v18.4h9.5V86.3
	c10.7-0.5,18.7-2.6,18.7-5.1C143.8,78.6,135.8,76.5,125.1,76L125.1,76L125.1,76z M125.1,76L125.1,76z"/>
</svg>
