<svg version="1.2" baseProfile="tiny-ps" xmlns="http://www.w3.org/2000/svg" viewBox="0 0 186 171" width="186" height="171">
	<title>sing-ftm (1)-svg</title>
	<defs>
		<linearGradient id="grd1" gradientUnits="userSpaceOnUse"  x1="63.188" y1="63.504" x2="68.491" y2="75.166">
			<stop offset="0" stop-color="#ffffff"  />
			<stop offset="1" stop-color="#ffffff" stop-opacity="0" />
		</linearGradient>
		<linearGradient id="grd2" gradientUnits="userSpaceOnUse"  x1="66.5" y1="62.106" x2="71.803" y2="73.767">
			<stop offset="0" stop-color="#ffffff"  />
			<stop offset="1" stop-color="#ffffff" stop-opacity="0" />
		</linearGradient>
		<linearGradient id="grd3" gradientUnits="userSpaceOnUse"  x1="95.634" y1="58.611" x2="95.634" y2="42.39">
			<stop offset="0.225" stop-color="#ffffff"  />
			<stop offset="0.652" stop-color="#eb3d3d"  />
		</linearGradient>
		<linearGradient id="grd4" gradientUnits="userSpaceOnUse"  x1="139.146" y1="58.611" x2="139.146" y2="42.39">
			<stop offset="0.225" stop-color="#ffffff"  />
			<stop offset="0.652" stop-color="#eb3d3d"  />
		</linearGradient>
		<linearGradient id="grd5" gradientUnits="userSpaceOnUse"  x1="114.121" y1="83.387" x2="114.709" y2="83.387">
			<stop offset="0" stop-color="#ffffff" stop-opacity="0.7" />
			<stop offset="1" stop-color="#ffffff" stop-opacity="0" />
		</linearGradient>
		<linearGradient id="grd6" gradientUnits="userSpaceOnUse"  x1="115.635" y1="85.088" x2="116.491" y2="85.088">
			<stop offset="0" stop-color="#ffffff" stop-opacity="0.7" />
			<stop offset="1" stop-color="#ffffff" stop-opacity="0" />
		</linearGradient>
		<linearGradient id="grd7" gradientUnits="userSpaceOnUse"  x1="117.198" y1="83.594" x2="118.055" y2="83.594">
			<stop offset="0" stop-color="#ffffff" stop-opacity="0.7" />
			<stop offset="1" stop-color="#ffffff" stop-opacity="0" />
		</linearGradient>
		<linearGradient id="grd8" gradientUnits="userSpaceOnUse"  x1="118.993" y1="83.689" x2="119.85" y2="83.689">
			<stop offset="0" stop-color="#ffffff" stop-opacity="0.7" />
			<stop offset="1" stop-color="#ffffff" stop-opacity="0" />
		</linearGradient>
		<linearGradient id="grd9" gradientUnits="userSpaceOnUse"  x1="115.601" y1="86.564" x2="116.299" y2="86.564">
			<stop offset="0" stop-color="#ffffff" stop-opacity="0.7" />
			<stop offset="1" stop-color="#ffffff" stop-opacity="0" />
		</linearGradient>
		<linearGradient id="grd10" gradientUnits="userSpaceOnUse"  x1="125.888" y1="63.516" x2="130.172" y2="68.01">
			<stop offset="0" stop-color="#a4a4a4"  />
			<stop offset="0.058" stop-color="#8f8f8f"  />
			<stop offset="0.194" stop-color="#646464"  />
			<stop offset="0.331" stop-color="#404040"  />
			<stop offset="0.469" stop-color="#242424"  />
			<stop offset="0.607" stop-color="#101010"  />
			<stop offset="0.745" stop-color="#040404"  />
			<stop offset="0.885" stop-color="#000000"  />
		</linearGradient>
		<linearGradient id="grd11" gradientUnits="userSpaceOnUse"  x1="106.548" y1="64.553" x2="102.265" y2="69.047">
			<stop offset="0" stop-color="#a4a4a4"  />
			<stop offset="0.058" stop-color="#8f8f8f"  />
			<stop offset="0.194" stop-color="#646464"  />
			<stop offset="0.331" stop-color="#404040"  />
			<stop offset="0.469" stop-color="#242424"  />
			<stop offset="0.607" stop-color="#101010"  />
			<stop offset="0.745" stop-color="#040404"  />
			<stop offset="0.885" stop-color="#000000"  />
		</linearGradient>
	</defs>
	<style>
		tspan { white-space:pre }
		.shp0 { fill: #2a6ff6 } 
		.shp1 { fill: #ffffff } 
		.shp2 { opacity: 0.102;fill: none;stroke: #191326;stroke-width: 3 } 
		.shp3 { fill: #2b1818 } 
		.shp4 { fill: #ffd8b5 } 
		.shp5 { fill: #f2b6a9 } 
		.shp6 { fill: #956363 } 
		.shp7 { opacity: 0.58;fill: #ffffff } 
		.shp8 { fill: #ff0000 } 
		.shp9 { fill: none;stroke: #000000;stroke-width: 5.221 } 
		.shp10 { fill: #000000 } 
		.shp11 { fill: #c1272d } 
		.shp12 { opacity: 0.259;fill: #000000 } 
		.shp13 { fill: url(#grd1) } 
		.shp14 { fill: url(#grd2) } 
		.shp15 { fill: #f50570 } 
		.shp16 { opacity: 0.502;fill: #ffd8b5 } 
		.shp17 { fill: #ffeee1 } 
		.shp18 { fill: #fffaf7 } 
		.shp19 { fill: #020178 } 
		.shp20 { fill: none;stroke: #000000;stroke-width: 4.447 } 
		.shp21 { fill: #8a89c5 } 
		.shp22 { fill: none;stroke: #000000;stroke-width: 3.509 } 
		.shp23 { opacity: 0.502;fill: url(#grd3) } 
		.shp24 { opacity: 0.502;fill: url(#grd4) } 
		.shp25 { fill: url(#grd5) } 
		.shp26 { fill: url(#grd6) } 
		.shp27 { fill: url(#grd7) } 
		.shp28 { fill: url(#grd8) } 
		.shp29 { fill: url(#grd9) } 
		.shp30 { fill: #ffffff;stroke: #000000;stroke-width: 3.655 } 
		.shp31 { fill: #ffceca } 
		.shp32 { fill: #d3f7ff } 
		.shp33 { opacity: 0.502;fill: url(#grd10) } 
		.shp34 { fill: #76a8bd } 
		.shp35 { opacity: 0.502;fill: url(#grd11) } 
		.shp36 { opacity: 0.851;fill: #ffffff } 
	</style>
	<g id="Layer">
		<path id="Layer" class="shp0" d="M167.8 116.9C167.9 125.5 171 131.2 163.5 138.6C157.5 144.6 148.9 147.1 140.7 149.4C130.6 152.3 120.5 155.1 110.3 157.6C96.9 160.8 80.4 162.6 71.4 152.1C63.9 143.3 65.5 129.8 60.7 119.2C51.5 98.7 21.3 93 14.5 71.6C10.5 59 17.7 43.9 30 39C39.1 35.5 49.2 37.1 58.8 38.8C73.2 41.4 88 44.1 100.4 51.7C110.9 58.2 119.5 68 131.3 71.5C140.4 74.2 150.5 72.8 159.1 76.8C166.2 80.1 171.4 87.2 172.4 95C173.5 103.3 167.9 109.5 167.8 116.9Z" />
	</g>
	<path id="Layer" class="shp0" d="M41.2 39.8C41.2 23.8 54.2 10.8 70.2 10.8C86.2 10.8 99.2 23.8 99.2 39.8C99.2 55.8 86.2 68.8 70.2 68.8C54.2 68.8 41.2 55.8 41.2 39.8Z" />
	<path id="Layer" fillRule="evenodd" class="shp1" d="M70.2 21.6L81.1 27.8L81.1 51.5L70.2 57.7L59.3 51.5L59.3 27.8L70.2 21.6ZM78.9 41.6L70.2 46.7L61.5 41.6L61.5 50.5L70.2 55.6L78.9 50.5L78.9 41.6ZM61.5 38L68 34.2L61.5 30.4L61.5 38ZM71.3 43.6L77.8 39.8L71.3 36L71.3 43.6ZM69.1 36L62.6 39.8L69.1 43.6L69.1 36ZM70.2 24.1L62.6 28.6L70.2 32.9L77.8 28.6L70.2 24.1ZM78.9 38L78.9 30.4L72.4 34.2L78.9 38Z" />
	<path id="Layer" class="shp2" d="M118.5 126.8C95.22 126.8 76.4 107.98 76.4 84.7C76.4 61.42 95.22 42.6 118.5 42.6C141.78 42.6 160.6 61.42 160.6 84.7C160.6 107.98 141.78 126.8 118.5 126.8Z" />
	<g id="Layer">
		<g id="Layer">
			<g id="Layer">
				<g id="Layer">
					<path id="Layer" fillRule="evenodd" class="shp3" d="M100.7 88.43C100.61 89.76 100.49 91.1 100.37 92.43C100.32 93.1 100.25 93.77 100.19 94.44L100 96.44L99.98 96.68L99.7 96.73C99.14 96.84 98.6 96.91 98.05 96.97C97.5 97.03 96.95 97.09 96.4 97.13C95.85 97.17 95.29 97.19 94.74 97.21C94.19 97.22 93.63 97.22 93.08 97.21C92.52 97.19 91.97 97.17 91.41 97.13C91.14 97.11 90.86 97.08 90.58 97.05L90.17 97.01L89.75 96.96C89.2 96.9 88.65 96.8 88.1 96.7L87.28 96.53C87 96.47 86.73 96.4 86.46 96.33C86.19 96.27 85.92 96.18 85.65 96.1L85.25 95.98L84.86 95.84C84.59 95.75 84.32 95.67 84.07 95.55L83.29 95.23C82.78 94.99 82.27 94.76 81.79 94.47L81.42 94.26C81.31 94.19 81.19 94.11 81.07 94.03C80.84 93.88 80.6 93.73 80.38 93.56L79.72 93.05C79.5 92.88 79.3 92.69 79.09 92.5C78.99 92.41 78.88 92.32 78.78 92.22L78.5 91.92L78.21 91.62L78.07 91.47L77.94 91.31L77.42 90.66C77.26 90.45 77.11 90.21 76.96 89.99L76.73 89.65C76.66 89.53 76.6 89.41 76.53 89.29L76.14 88.58L76.02 88.37L76.1 88.12L77.48 83.19L78.18 80.73L78.89 78.27L78.23 77.55C78.23 77.55 80.63 78.83 81.7 79.58C82.07 79.89 85.32 82.21 85.72 82.49C86.12 82.77 86.53 83.03 86.93 83.31C87.35 83.57 87.76 83.83 88.17 84.09C88.6 84.33 89.01 84.6 89.44 84.83C89.86 85.07 90.28 85.31 90.73 85.54L91.39 85.88L92.06 86.18C92.5 86.4 92.96 86.57 93.41 86.76C93.64 86.86 93.87 86.93 94.11 87.01C94.34 87.09 94.57 87.18 94.81 87.25C95.29 87.39 95.76 87.54 96.25 87.64C96.49 87.7 96.73 87.77 96.98 87.82L97.71 87.96L98.08 88.04L98.46 88.1L99.2 88.22C99.7 88.29 100.2 88.35 100.7 88.43ZM100.7 88.43C100.19 88.41 99.69 88.4 99.18 88.37C98.68 88.33 98.17 88.31 97.67 88.24L96.91 88.15C96.66 88.12 96.41 88.07 96.15 88.04C95.65 87.97 95.15 87.84 94.65 87.74C94.4 87.69 94.16 87.61 93.91 87.54C93.67 87.47 93.42 87.42 93.18 87.33C92.7 87.17 92.21 87.02 91.74 86.83L91.02 86.54L90.34 86.23C89.88 86.04 89.43 85.81 88.98 85.59C88.52 85.37 88.08 85.12 87.64 84.89C87.19 84.65 86.76 84.39 86.33 84.14C85.91 83.88 85.47 83.62 85.05 83.35C84.63 83.08 84.21 82.81 83.8 82.53C83.39 82.25 82.99 81.96 82.58 81.67C82.17 81.38 81.78 81.08 81.38 80.78C80.99 80.47 80.6 80.16 80.22 79.85C79.83 79.53 79.46 79.22 79.07 78.88L79.29 79.56L79.58 81.06L78.91 83.53L77.64 88.21L77.87 88.64C77.93 88.74 77.99 88.85 78.05 88.96L78.25 89.27C78.39 89.47 78.51 89.68 78.66 89.88L79.12 90.45L79.23 90.6L79.36 90.73L79.87 91.28C79.95 91.37 80.05 91.45 80.14 91.53C80.33 91.7 80.5 91.87 80.7 92.03L81.29 92.5C81.49 92.65 81.71 92.78 81.92 92.93C82.02 93 82.12 93.07 82.23 93.14L82.56 93.33C82.99 93.6 83.46 93.83 83.92 94.06L84.63 94.37C84.86 94.48 85.11 94.56 85.36 94.66L85.72 94.8L86.09 94.92C86.34 95 86.59 95.09 86.85 95.15L87.61 95.36L88.38 95.54C88.9 95.65 89.42 95.76 89.95 95.84L90.34 95.91L90.74 95.96C91 95.99 91.27 96.03 91.53 96.06C92.07 96.12 92.6 96.16 93.13 96.2L93.94 96.24L94.75 96.26C95.28 96.27 95.82 96.28 96.36 96.27C96.9 96.26 97.44 96.24 97.98 96.2C98.43 96.17 98.88 96.14 99.32 96.09L99.62 94.37C99.73 93.71 99.84 93.05 99.97 92.39C100.2 91.07 100.44 89.74 100.7 88.43ZM77.64 88.21L77.52 87.99L77.57 88.46L77.64 88.21ZM99.32 96.09L99.28 96.35L99.58 96.06C99.49 96.07 99.41 96.08 99.32 96.09Z" />
				</g>
				<g id="Layer">
					<path id="Layer" class="shp4" d="M99.64 96.4C99.64 96.4 82.24 99.27 76.83 88.29L79.56 78.42C79.56 78.42 84.73 83.23 91.22 86.21C94.25 87.6 97.02 88.16 100.7 88.43L99.64 96.4Z" />
				</g>
				<path id="Layer" class="shp4" d="M100.49 89.99L99.64 96.4C99.64 96.4 82.24 99.27 76.83 88.29L80.08 82.02C82.69 83.93 85.8 89.28 90.91 90.1C94.93 90.75 97.53 90.48 100.49 89.99Z" />
			</g>
			<g id="Layer">
				<g id="Layer">
					<g id="Layer">
						<g id="Layer">
							<path id="Layer" class="shp4" d="M65.43 88.05C65.43 88.05 63.23 86.34 63.46 84.3C63.81 81.19 65.91 80.56 65.91 80.56L67.07 82.82L66.37 87.74L65.43 88.05Z" />
						</g>
						<g id="Layer">
							<path id="Layer" class="shp3" d="M63.74 86.42C63.3 85.76 63.05 84.93 63.18 84.13C63.28 83.37 63.52 82.6 63.98 81.94C64.43 81.29 65.11 80.74 65.91 80.56C65.21 80.94 64.73 81.54 64.39 82.16C64.06 82.8 63.87 83.49 63.78 84.2C63.66 84.88 63.84 85.56 64.15 86.21C64.48 86.86 64.91 87.48 65.43 88.05C64.76 87.64 64.16 87.08 63.74 86.42Z" />
						</g>
						<g id="Layer">
							<path id="Layer" class="shp5" d="M70.47 87.72C71.47 88.56 71.54 89.98 70.65 90.91C69.75 91.83 68.21 91.9 67.22 91.07C66.22 90.23 66.15 88.81 67.05 87.88C67.94 86.96 69.48 86.89 70.47 87.72Z" />
						</g>
						<g id="Layer">
							<path id="Layer" class="shp4" d="M70.26 87.58C70.33 87.63 70.4 87.67 70.47 87.72C71.46 88.56 71.54 89.98 70.64 90.91C69.74 91.83 68.21 91.9 67.22 91.07C66.82 90.73 66.58 90.3 66.48 89.85C67.32 90.72 68.83 91.05 69.92 89.93C70.67 89.16 70.66 88.28 70.26 87.58Z" />
						</g>
						<g id="Layer">
							<path id="Layer" class="shp4" d="M79.33 84.5L67.18 84.68L66.24 84.99C66.24 84.99 64.04 83.27 64.27 81.24C64.62 78.12 67.19 76.98 68.08 76.68C71.26 75.64 74.21 76.11 76.55 77C76.49 77.03 76.59 77.04 76.53 77.07C76.37 77.14 77.26 77.4 77.67 77.56C81.75 79.15 81.59 81.74 81.39 81.9C81.3 81.99 81.2 82.07 81.11 82.15C81.53 81.79 81.04 82.17 80.95 82.22C79.02 83.35 77.65 84.03 79.33 84.5Z" />
						</g>
						<g id="Layer">
							<path id="Layer" class="shp3" d="M64.28 82.53C64.09 82.04 64.04 81.47 64.12 80.96C64.19 80.44 64.32 79.92 64.54 79.43C64.96 78.45 65.76 77.61 66.71 77.02C67.18 76.73 67.72 76.49 68.25 76.34C68.79 76.17 69.33 76.04 69.89 75.95C72.11 75.6 74.42 75.92 76.46 76.73C78.51 77.54 80.37 78.73 81.85 80.23C81.69 80.09 81.51 79.96 81.34 79.83C80.66 79.32 79.95 78.86 79.21 78.45C78.28 77.93 77.31 77.48 76.29 77.13C74.28 76.44 72.09 76.16 69.99 76.51C68.94 76.68 67.89 76.94 67.02 77.47C66.13 77.98 65.41 78.73 64.96 79.61C64.74 80.05 64.58 80.53 64.49 81.01C64.39 81.5 64.42 81.97 64.56 82.45C64.83 83.41 65.48 84.26 66.24 84.98C65.38 84.35 64.66 83.52 64.28 82.53Z" />
						</g>
						<g id="Layer">
							<path id="Layer" class="shp3" d="M70.67 90.93C70.32 91.34 69.81 91.64 69.23 91.76C68.65 91.87 68.03 91.79 67.48 91.53C66.95 91.27 66.46 90.83 66.28 90.26C66.1 89.71 66.18 89.09 66.53 88.65L66.58 88.66C66.57 89.19 66.65 89.66 66.85 90.07C67.05 90.47 67.31 90.88 67.73 91.14C68.56 91.67 69.83 91.61 70.62 90.89L70.67 90.93Z" />
						</g>
						<g id="Layer">
							<path id="Layer" class="shp5" d="M80.16 81.98C82.93 84.3 83.14 88.27 80.64 90.84C78.14 93.41 73.86 93.61 71.09 91.28C69.34 89.81 68.61 87.67 68.95 85.65C67.98 85.81 66.94 85.57 66.15 84.91C64.79 83.77 64.68 81.82 65.91 80.56C69.03 77.36 76.48 78.89 80.16 81.98Z" />
						</g>
						<g id="Layer">
							<path id="Layer" class="shp6" d="M75.26 85.57C76.36 86.49 76.44 88.07 75.45 89.09C74.46 90.11 72.76 90.19 71.66 89.27C70.56 88.34 70.47 86.77 71.46 85.74C72.46 84.72 74.16 84.64 75.26 85.57Z" />
						</g>
						<g id="Layer">
							<path id="Layer" class="shp5" d="M69.82 84.2C71.06 85.24 71.16 87.02 70.04 88.17C68.91 89.33 67 89.42 65.75 88.37C64.51 87.33 64.41 85.55 65.54 84.4C66.66 83.24 68.58 83.15 69.82 84.2Z" />
						</g>
						<g id="Layer">
							<path id="Layer" class="shp3" d="M68.65 89.01C68.02 89.22 67.31 89.24 66.66 89.04C66 88.84 65.41 88.44 65.01 87.9C64.61 87.36 64.36 86.68 64.46 86.01C64.56 85.35 64.94 84.73 65.51 84.38L65.56 84.41C65.25 84.96 65.08 85.51 65.07 86.06C65.06 86.6 65.12 87.17 65.42 87.66C66 88.65 67.35 89.24 68.63 88.96L68.65 89.01Z" />
						</g>
						<g id="Layer">
							<path id="Layer" class="shp3" d="M73.71 92.5C75.59 93.01 77.7 92.69 79.28 91.65C80.07 91.13 80.74 90.45 81.23 89.68C81.71 88.91 82.01 88.04 82.08 87.15C82.25 85.37 81.51 83.54 80.11 82.32C78.7 81.08 76.91 80.21 75.05 79.65C73.18 79.09 71.17 78.85 69.25 79.16C68.29 79.32 67.36 79.65 66.6 80.2C66.22 80.48 65.87 80.8 65.64 81.18C65.4 81.56 65.25 81.99 65.21 82.44C65.12 83.32 65.5 84.25 66.21 84.86C66.93 85.49 67.96 85.79 68.95 85.65C67.98 85.85 66.88 85.6 66.11 84.98C65.32 84.36 64.86 83.39 64.92 82.42C64.94 81.93 65.09 81.45 65.34 81.02C65.6 80.59 65.97 80.23 66.36 79.93C67.16 79.31 68.15 78.93 69.16 78.73C71.18 78.34 73.27 78.61 75.21 79.16C77.15 79.73 79.01 80.6 80.53 81.92C82.05 83.26 82.83 85.26 82.63 87.19C82.46 89.12 81.29 90.95 79.54 92C77.81 93.07 75.58 93.35 73.62 92.76C71.68 92.18 70.05 90.76 69.37 89C70.18 90.7 71.81 92.02 73.71 92.5Z" />
						</g>
						<g id="Layer">
							<path id="Layer" class="shp4" d="M80.16 81.97C82.93 84.3 83.14 88.26 80.64 90.83C78.47 93.06 74.97 93.51 72.28 92.07C72.87 92.11 76.71 92.48 79.04 88.36C80.52 85.72 78.39 81.84 76.49 80C76.4 79.9 76.3 79.83 76.2 79.76C77.71 80.32 79.09 81.08 80.16 81.97Z" />
						</g>
					</g>
				</g>
			</g>
		</g>
		<g id="Layer">
			<path id="Layer" class="shp7" d="M76.63 64.23L76.63 70.47C76.63 74.44 73.17 77.67 68.89 77.67C64.61 77.67 61.14 74.44 61.14 70.47L61.14 64.23C61.14 63.81 61.31 63.44 61.6 63.17C61.9 62.88 62.32 62.7 62.79 62.7L74.99 62.7C75.9 62.7 76.63 63.38 76.63 64.23Z" />
			<path id="Layer" class="shp8" d="M76.63 66.64L76.63 70.47C76.63 74.44 73.17 77.67 68.89 77.67C64.61 77.67 61.14 74.44 61.14 70.47L61.14 68.25C62.46 68.56 66.02 69.27 68.14 68.51C70.45 67.67 73.11 66.23 76.63 66.64Z" />
			<path id="Layer" class="shp9" d="M68.89 77.66L68.89 85.94" />
			<path id="Layer" class="shp10" d="M69.05 86.72C67.06 86.72 65.44 86.43 65.44 86.06C65.44 85.7 67.06 85.41 69.05 85.41C71.05 85.41 72.66 85.7 72.66 86.06C72.66 86.43 71.05 86.72 69.05 86.72Z" />
			<path id="Layer" class="shp11" d="M69.02 68.17C68.72 68.29 68.42 68.4 68.14 68.51C66.03 69.27 62.46 68.56 61.14 68.25L61.14 66.61C63.15 66.48 66.66 66.53 69.02 68.17Z" />
			<path id="Layer" class="shp12" d="M76.63 64.23L76.63 70.47C76.63 74.44 73.17 77.67 68.89 77.67C66.57 77.67 64.49 76.72 63.08 75.23L67.05 75.23C70.77 75.23 73.78 72.43 73.78 68.98L73.78 62.7L74.99 62.7C75.9 62.7 76.63 63.38 76.63 64.23Z" />
			<path id="Layer" class="shp13" d="M69.79 74.91L67.84 75.74L61.6 63.17C61.9 62.88 62.32 62.7 62.79 62.7L63.73 62.7L69.79 74.91Z" />
			<path id="Layer" class="shp14" d="M73.55 74.19L71.41 75.11L65.26 62.7L67.84 62.7L73.55 74.19Z" />
			<path id="Layer" class="shp9" d="M76.63 64.23L76.63 70.47C76.63 74.44 73.17 77.67 68.89 77.67C64.61 77.67 61.14 74.44 61.14 70.47L61.14 64.23C61.14 63.81 61.31 63.44 61.6 63.17C61.9 62.88 62.32 62.7 62.79 62.7L74.99 62.7C75.9 62.7 76.63 63.38 76.63 64.23Z" />
		</g>
		<path id="Layer" class="shp5" d="M67.79 80.25C69.23 79.88 71.08 80.42 71.63 81.63C71.67 81.72 71.92 82.31 71.7 82.98C71.16 84.58 68.22 85.78 66.64 84.66C65.79 84.05 65.31 82.77 65.79 81.7C66.28 80.62 67.52 80.31 67.79 80.25Z" />
		<path id="Layer" class="shp5" d="M67.1 84.07C68.16 83.72 69.54 84.24 69.94 85.4C69.98 85.49 70.16 86.06 70 86.7C69.6 88.24 67.42 89.4 66.25 88.32C65.62 87.74 65.26 86.5 65.62 85.47C65.99 84.43 66.9 84.14 67.1 84.07Z" />
		<g id="Layer">
			<path id="Layer" class="shp4" d="M66.14 87.46C65.83 87 65.7 86.47 65.73 85.96C65.86 86.16 66.06 86.44 66.33 86.75C66.61 87.05 66.81 87.27 67.12 87.44C67.26 87.52 67.66 87.73 68.18 87.68C68.85 87.61 69.44 87.12 69.68 86.46C69.82 86.09 69.81 85.76 69.8 85.56C69.86 85.72 69.95 85.96 69.97 86.27C70.01 86.97 69.68 87.47 69.56 87.64C69.46 87.79 69.21 88.14 68.74 88.34C68.33 88.51 67.97 88.49 67.78 88.47C67.15 88.42 66.54 88.07 66.14 87.46Z" />
		</g>
		<g id="Layer">
			<path id="Layer" class="shp4" d="M66.15 84.91C65.86 84.68 65.62 84.34 65.6 84.32C65.33 83.93 65.16 83.5 65.09 83.06C65.34 83.28 65.73 83.59 66.24 83.9C66.75 84.2 67.12 84.42 67.65 84.53C67.87 84.58 68.56 84.72 69.33 84.46C70.33 84.13 71.09 83.26 71.26 82.3C71.36 81.77 71.25 81.32 71.17 81.06C71.31 81.22 71.53 81.52 71.63 81.94C71.79 82.6 71.54 83.14 71.39 83.45C71.03 84.19 70.46 84.61 70.21 84.77C68.96 85.59 67.09 85.66 66.15 84.91Z" />
		</g>
		<path id="Layer" class="shp15" d="M80.75 67.22C81.1 67.87 83.01 71.25 87.33 72.48C90.17 73.3 92.6 72.77 93.62 72.48C93.43 74.19 93.35 77.36 95.03 80.75C98.51 87.79 106.53 89.66 107.67 89.91C106.36 90.15 96.95 91.71 88.93 85.65C79.77 78.72 80.66 68.07 80.75 67.22Z" />
		<path id="Layer" class="shp15" d="M146.48 85.65C138.46 91.71 129.05 90.15 127.75 89.91C128.88 89.66 136.91 87.79 140.39 80.75C142.06 77.36 141.98 74.19 141.79 72.48C142.81 72.77 145.24 73.3 148.08 72.48C152.4 71.25 154.31 67.87 154.66 67.22C154.75 68.07 155.64 78.72 146.48 85.65Z" />
		<path id="Layer" class="shp16" d="M147.84 46.31C145.14 45.49 144.05 44.67 141.05 43.89C138.54 43.24 131.78 43.07 130.02 43.28C135.18 39.03 139.31 41.28 142.16 42.09C147.59 43.64 150.52 41.02 151.95 42.78C152.56 43.53 152.96 44.25 153.32 44.94C151.06 47.01 150.24 47.04 147.84 46.31Z" />
		<g id="Layer">
			<g id="Layer">
				<path id="Layer" fillRule="evenodd" class="shp3" d="M124.46 120.07C123.09 120.07 121.99 119.71 121.45 119C120.95 118.33 120.72 119.64 120.26 119.6C119.57 119.53 119.19 117.9 118.87 116.74C118.04 113.82 117.53 107.24 117.68 104.93C117.71 104.24 118.03 98.07 118.35 97.04C118.94 95.19 121.97 93.61 127.36 92.35C131.27 91.43 135.07 91.01 135.11 91.01L135.56 90.96L135.67 91.37C135.74 91.63 136.34 93.97 135.87 95.2C135.71 95.64 135.53 96.05 135.36 96.44C134.66 98.05 134.06 99.44 134.46 101.76C134.85 104.02 134.91 105.87 134.02 108.13C133.84 108.58 133.49 109.13 133.08 109.76C132.17 111.18 131.03 112.95 131.17 114.61C131.27 115.87 130.83 117.04 129.88 117.99C128.62 119.25 126.49 120.07 124.46 120.07ZM134.77 92.01C130.38 92.54 120.27 94.35 119.34 97.3C119.12 98 118.84 102.28 118.71 104.98C118.56 107.19 119.08 113.71 119.86 116.5C120.07 117.25 120.17 117.27 120.42 117.3C120.95 117.37 121.52 117.52 122.27 118.41C122.64 118.86 123.44 119.12 124.47 119.12C125.9 119.12 127.91 118.57 129.13 117.34C129.89 116.58 130.23 115.68 130.14 114.68C129.98 112.72 131.26 110.73 132.2 109.27C132.58 108.68 132.91 108.17 133.05 107.8C133.88 105.73 133.82 104.07 133.45 101.91C133 99.33 133.69 97.76 134.41 96.09C134.58 95.7 134.75 95.3 134.91 94.88C135.17 94.2 134.95 92.82 134.77 92.01Z" />
			</g>
			<g id="Layer">
				<path id="Layer" class="shp4" d="M121.86 118.7C120.42 116.97 119.93 118.63 119.36 116.62C118.55 113.73 118.05 107.17 118.19 104.96C118.19 104.96 118.53 98.18 118.85 97.17C120.12 93.13 135.17 91.48 135.17 91.48C135.17 91.48 135.82 93.91 135.39 95.04C134.55 97.22 133.43 98.79 133.95 101.83C134.35 104.14 134.37 105.86 133.54 107.97C132.99 109.34 130.44 112.07 130.66 114.64C131.04 119.16 123.57 120.78 121.86 118.7Z" />
			</g>
			<g id="Layer">
				<path id="Layer" class="shp4" d="M121.86 118.7C120.42 116.97 119.93 118.63 119.36 116.62C118.55 113.73 118.05 107.17 118.19 104.96C118.19 104.96 118.53 98.18 118.85 97.17C120.12 93.13 135.17 91.48 135.17 91.48C135.17 91.48 135.82 93.91 135.39 95.04C134.55 97.22 133.43 98.79 133.95 101.83C134.35 104.14 134.37 105.86 133.54 107.97C132.99 109.34 130.44 112.07 130.66 114.64C131.04 119.16 123.57 120.78 121.86 118.7Z" />
			</g>
			<g id="Layer">
				<g id="Layer">
					<g id="Layer">
						<g id="Layer">
							<g id="Layer">
								<path id="Layer" fillRule="evenodd" class="shp3" d="M109.82 118.67C107.81 118.67 105.72 117.89 104.47 116.67C103.54 115.76 103.08 114.62 103.14 113.38C103.23 111.72 102.04 109.99 101.08 108.59C100.66 107.97 100.29 107.43 100.1 106.99C99.13 104.75 99.14 102.89 99.46 100.62C99.79 98.3 99.14 96.92 98.4 95.33C98.22 94.94 98.48 94.54 98.3 94.11C97.79 92.89 97.87 90.53 97.93 90.27L98.03 89.86L98.48 89.89C98.52 89.9 102.33 90.22 106.27 91.03C111.7 92.15 114.77 93.65 115.41 95.48C115.77 96.51 116.27 102.66 116.33 103.36C116.55 105.66 116.23 112.25 115.5 115.19C115.21 116.36 115.3 118.72 114.61 118.83C114.3 118.88 113.52 116.83 112.99 117.51C112.42 118.25 111.26 118.67 109.82 118.67ZM98.85 90.89C98.7 91.7 98.52 93.09 98.8 93.76C98.98 94.18 99.16 94.57 99.34 94.95C100.11 96.6 100.84 98.16 100.48 100.74C100.17 102.92 100.16 104.58 101.05 106.63C101.2 106.99 101.55 107.49 101.95 108.08C102.93 109.51 104.27 111.47 104.16 113.43C104.11 114.41 104.46 115.28 105.21 116.01C106.27 117.05 108.08 117.72 109.81 117.72C110.91 117.72 111.78 117.43 112.15 116.95C112.87 116.03 113.44 115.87 113.96 115.79C114.22 115.75 114.31 115.73 114.5 114.97C115.2 112.16 115.51 105.63 115.3 103.44C115.09 100.73 114.68 96.47 114.44 95.77C113.42 92.85 103.25 91.3 98.85 90.89Z" />
							</g>
							<g id="Layer">
								<path id="Layer" class="shp4" d="M103.66 113.41C103.79 110.83 101.16 108.17 100.57 106.81C99.67 104.73 99.64 103 99.97 100.68C100.4 97.64 99.22 96.09 98.33 93.94C97.86 92.82 98.43 90.37 98.43 90.37C98.43 90.37 113.53 91.63 114.93 95.63C115.28 96.63 115.82 103.4 115.82 103.4C116.03 105.6 115.73 112.18 115 115.08C114.5 117.1 113.96 115.46 112.57 117.23C110.92 119.35 103.41 117.93 103.66 113.41Z" />
							</g>
							<g id="Layer">
								<path id="Layer" class="shp4" d="M115.82 103.4C116.03 105.6 115.73 112.18 115 115.09C114.5 117.1 113.96 115.46 112.57 117.24C111 119.26 104.09 118.05 103.67 114.01C108.1 112.03 112.07 109.9 111.22 104.28C110.27 98.02 103.97 90.37 98.42 90.44C98.43 90.4 98.43 90.37 98.43 90.37C98.43 90.37 113.53 91.63 114.93 95.63C115.28 96.63 115.82 103.4 115.82 103.4Z" />
							</g>
						</g>
					</g>
				</g>
			</g>
			<g id="Layer">
				<g id="Layer">
					<g id="Layer">
						<g id="Layer">
							<path id="Layer" class="shp4" d="M134.62 114.52C136.29 114.51 137.65 115.76 137.66 117.31C137.67 118.86 136.32 120.13 134.65 120.14C132.98 120.14 131.62 118.89 131.61 117.34C131.6 115.79 132.95 114.53 134.62 114.52Z" />
						</g>
					</g>
				</g>
				<g id="Layer">
					<g id="Layer">
						<g id="Layer">
							<g id="Layer">
								<path id="Layer" fillRule="evenodd" class="shp3" d="M131.33 117.34C131.32 115.65 132.8 114.27 134.62 114.26C136.44 114.25 137.93 115.62 137.94 117.31C137.95 119 136.47 120.38 134.65 120.39C132.83 120.4 131.34 119.03 131.33 117.34ZM131.89 117.34C131.89 118.75 133.13 119.89 134.65 119.88C136.17 119.87 137.39 118.72 137.38 117.31C137.38 115.91 136.14 114.77 134.62 114.77C133.11 114.78 131.88 115.93 131.89 117.34Z" />
							</g>
						</g>
					</g>
				</g>
				<g id="Layer">
					<g id="Layer">
						<g id="Layer">
							<path id="Layer" class="shp4" d="M132.4 113.72C134.49 113.72 136.19 115.28 136.2 117.22C136.21 119.16 134.53 120.74 132.44 120.75C130.35 120.76 128.65 119.19 128.64 117.26C128.63 115.32 130.31 113.74 132.4 113.72Z" />
						</g>
					</g>
				</g>
				<g id="Layer">
					<g id="Layer">
						<g id="Layer">
							<g id="Layer">
								<path id="Layer" class="shp3" d="M128.36 117.26C128.34 115.18 130.16 113.48 132.39 113.47C133.36 113.47 134.52 113.88 135.15 114.45C135.26 114.56 135.26 114.72 135.15 114.82C135.05 114.92 134.87 114.92 134.76 114.82C134.24 114.34 133.22 113.98 132.4 113.98C130.47 113.99 128.9 115.46 128.91 117.25C128.92 119.05 130.5 120.5 132.43 120.49C133.97 120.49 135.35 119.53 135.78 118.16C135.82 118.02 135.98 117.94 136.13 117.98C136.27 118.02 136.36 118.16 136.31 118.3C135.81 119.89 134.22 121 132.44 121.01C130.2 121.02 128.37 119.34 128.36 117.26Z" />
							</g>
						</g>
					</g>
				</g>
				<g id="Layer">
					<g id="Layer">
						<g id="Layer">
							<path id="Layer" class="shp4" d="M128.26 113.7C130.55 113.69 132.41 115.4 132.42 117.51C132.43 119.63 130.59 121.36 128.31 121.37C126.02 121.38 119.59 121.41 119.57 117.58C119.56 115.46 125.98 113.71 128.26 113.7Z" />
						</g>
					</g>
				</g>
				<g id="Layer">
					<g id="Layer">
						<g id="Layer">
							<path id="Layer" class="shp4" d="M128.24 119.17C129.25 119.17 131.37 119.12 132.42 117.42C133.37 118.76 135.29 118.44 135.9 118.05C135.93 118.05 135.95 118.05 135.98 118.06C136.93 118.35 137.52 117.4 137.48 116.41C137.59 116.69 137.66 116.99 137.66 117.31C137.67 118.86 136.32 120.13 134.65 120.14C134.62 120.14 134.6 120.13 134.57 120.13C133.96 120.52 133.23 120.75 132.44 120.75C131.91 120.75 131.41 120.65 130.95 120.47C130.23 121.03 129.31 121.37 128.31 121.37C126.03 121.38 119.59 121.41 119.57 117.58C119.57 117.34 119.65 117.12 119.79 116.89C120.43 118.49 122.88 119.2 128.24 119.17Z" />
						</g>
					</g>
				</g>
				<g id="Layer">
					<g id="Layer">
						<g id="Layer">
							<g id="Layer">
								<path id="Layer" class="shp3" d="M119.3 117.58C119.28 115.18 126.09 113.45 128.27 113.44C129.08 113.44 129.88 113.64 130.57 114.03C130.7 114.11 130.75 114.26 130.67 114.39C130.59 114.51 130.42 114.55 130.29 114.47C129.68 114.13 128.98 113.95 128.27 113.95C125.97 113.96 119.84 115.73 119.85 117.57C119.87 120.78 124.68 121.13 128.31 121.12C130.43 121.11 132.16 119.49 132.14 117.52C132.14 117.37 132.27 117.26 132.42 117.26C132.57 117.26 132.7 117.37 132.7 117.51C132.71 119.77 130.74 121.62 128.31 121.63C126.09 121.64 119.32 121.67 119.3 117.58Z" />
							</g>
						</g>
					</g>
				</g>
			</g>
			<g id="Layer">
				<g id="Layer">
					<g id="Layer">
						<g id="Layer">
							<path id="Layer" class="shp4" d="M102.95 117.01C102.94 118.56 101.58 119.81 99.91 119.81C98.24 119.8 96.89 118.54 96.9 116.98C96.91 115.43 98.27 114.18 99.94 114.19C101.61 114.2 102.96 115.46 102.95 117.01Z" />
						</g>
					</g>
				</g>
				<g id="Layer">
					<g id="Layer">
						<g id="Layer">
							<g id="Layer">
								<path id="Layer" fillRule="evenodd" class="shp3" d="M99.91 120.06C98.09 120.05 96.61 118.67 96.62 116.98C96.63 115.29 98.12 113.92 99.94 113.93C101.76 113.94 103.24 115.32 103.23 117.01C103.22 118.7 101.73 120.07 99.91 120.06ZM99.94 114.45C98.42 114.44 97.19 115.58 97.18 116.98C97.17 118.39 98.4 119.54 99.91 119.55C101.43 119.56 102.67 118.42 102.67 117.01C102.68 115.6 101.46 114.45 99.94 114.45Z" />
							</g>
						</g>
					</g>
				</g>
				<g id="Layer">
					<g id="Layer">
						<g id="Layer">
							<path id="Layer" class="shp4" d="M105.92 116.93C105.91 118.86 104.21 120.43 102.12 120.42C100.03 120.41 98.35 118.83 98.36 116.89C98.37 114.95 100.07 113.39 102.16 113.4C104.25 113.41 105.94 114.99 105.92 116.93Z" />
						</g>
					</g>
				</g>
				<g id="Layer">
					<g id="Layer">
						<g id="Layer">
							<g id="Layer">
								<path id="Layer" class="shp3" d="M102.12 120.68C100.34 120.67 98.75 119.56 98.25 117.97C98.2 117.83 98.29 117.69 98.43 117.65C98.58 117.61 98.74 117.69 98.78 117.83C99.21 119.2 100.59 120.16 102.13 120.16C104.06 120.17 105.64 118.72 105.65 116.92C105.66 115.13 104.1 113.66 102.16 113.65C101.34 113.65 100.32 114.01 99.8 114.49C99.69 114.59 99.52 114.59 99.41 114.49C99.3 114.39 99.3 114.22 99.41 114.13C100.03 113.55 101.19 113.14 102.16 113.14C104.4 113.15 106.21 114.85 106.2 116.93C106.19 119.01 104.36 120.69 102.12 120.68Z" />
							</g>
						</g>
					</g>
				</g>
				<g id="Layer">
					<g id="Layer">
						<g id="Layer">
							<path id="Layer" class="shp4" d="M114.99 117.25C114.97 121.08 108.54 121.05 106.25 121.04C103.97 121.03 102.13 119.3 102.14 117.19C102.15 115.07 104.01 113.36 106.3 113.37C108.58 113.38 115 115.13 114.99 117.25Z" />
						</g>
					</g>
				</g>
				<g id="Layer">
					<g id="Layer">
						<g id="Layer">
							<path id="Layer" class="shp4" d="M114.77 116.56C114.91 116.78 114.99 117.01 114.99 117.25C114.97 121.08 108.54 121.05 106.25 121.04C105.25 121.04 104.33 120.7 103.62 120.14C103.16 120.32 102.65 120.42 102.12 120.42C101.33 120.42 100.6 120.19 100 119.8C99.97 119.8 99.94 119.81 99.91 119.81C98.24 119.8 96.89 118.54 96.9 116.98C96.9 116.66 96.97 116.36 97.08 116.08C97.04 117.07 97.63 118.02 98.58 117.73C98.61 117.72 98.63 117.72 98.66 117.72C99.27 118.11 101.19 118.43 102.14 117.09C103.3 118.84 105.57 118.94 106.32 118.84C111.62 118.14 114.13 118.16 114.77 116.56Z" />
						</g>
					</g>
				</g>
				<g id="Layer">
					<g id="Layer">
						<g id="Layer">
							<g id="Layer">
								<path id="Layer" class="shp3" d="M106.25 121.3C103.82 121.29 101.85 119.44 101.86 117.19C101.86 117.04 101.99 116.93 102.14 116.93C102.29 116.93 102.42 117.05 102.42 117.19C102.41 119.16 104.13 120.78 106.25 120.78C109.88 120.8 114.7 120.45 114.71 117.24C114.72 115.4 108.59 113.63 106.29 113.62C105.58 113.62 104.88 113.8 104.27 114.14C104.15 114.21 103.98 114.18 103.89 114.05C103.81 113.93 103.86 113.78 103.99 113.7C104.68 113.31 105.48 113.1 106.3 113.11C108.47 113.12 115.28 114.85 115.27 117.24C115.24 121.34 108.48 121.31 106.25 121.3Z" />
							</g>
						</g>
					</g>
				</g>
			</g>
		</g>
		<g id="Layer">
			<g id="Layer">
				<path id="Layer" fillRule="evenodd" class="shp3" d="M116.91 111.35C111.45 111.35 106.5 109.71 102.98 106.73C99.19 103.52 97.18 98.98 97.18 93.59C97.18 88.2 99.23 83.3 102.96 79.78C106.59 76.35 111.55 74.46 116.91 74.46C122.27 74.46 127.23 76.35 130.86 79.78C134.59 83.3 136.64 88.2 136.64 93.59C136.64 98.98 134.64 103.52 130.84 106.73C127.32 109.71 122.37 111.35 116.91 111.35ZM116.91 75.36C106.22 75.36 98.16 83.2 98.16 93.59C98.16 103.67 105.69 110.44 116.91 110.44C128.13 110.44 135.66 103.67 135.66 93.59C135.66 83.2 127.6 75.36 116.91 75.36Z" />
			</g>
		</g>
		<g id="Layer">
			<path id="Layer" class="shp3" d="M136.14 93.92C136.14 94.14 136.13 94.45 136.11 94.87C136.05 95.7 135.94 96.91 135.55 98.42C135.15 99.92 134.47 101.73 133.19 103.53C131.93 105.32 130.04 107.1 127.54 108.39C125.06 109.69 122.03 110.49 118.79 110.65C117.16 110.73 115.49 110.66 113.81 110.42C112.13 110.18 110.44 109.75 108.83 109.11C107.21 108.46 105.67 107.59 104.31 106.5C102.95 105.42 101.76 104.11 100.85 102.64C100.39 101.91 100 101.14 99.67 100.34C99.34 99.54 99.08 98.71 98.88 97.87C98.49 96.19 98.36 94.44 98.44 92.71C98.51 90.98 98.8 89.25 99.34 87.6C99.88 85.95 100.67 84.38 101.66 82.95C103.66 80.09 106.56 77.86 109.79 76.58C111.4 75.93 113.09 75.52 114.77 75.31C116.45 75.1 118.13 75.09 119.74 75.27C121.35 75.45 122.9 75.81 124.32 76.32C125.75 76.84 127.05 77.51 128.21 78.27C129.37 79.04 130.39 79.89 131.24 80.8C132.1 81.71 132.81 82.65 133.39 83.58C134.56 85.45 135.2 87.26 135.57 88.76C135.94 90.28 136.06 91.49 136.11 92.32C136.13 92.74 136.14 93.05 136.15 93.27C136.15 93.48 136.15 93.59 136.15 93.59C136.15 93.59 136.15 93.7 136.14 93.92Z" />
		</g>
		<g id="Layer">
			<path id="Layer" class="shp4" d="M136.15 93.59C136.15 104.66 127.54 110.9 116.91 110.9C106.29 110.9 97.67 104.66 97.67 93.59C97.67 82.53 106.29 74.91 116.91 74.91C127.54 74.91 136.15 82.53 136.15 93.59Z" />
		</g>
		<g id="Layer">
			<path id="Layer" class="shp4" d="M136.15 93.59C136.15 104.66 127.54 110.89 116.91 110.89C109.53 110.89 103.12 107.88 99.89 102.33C103.42 105.96 108.72 107.9 114.64 107.9C125.26 107.9 133.88 101.66 133.88 90.6C133.88 86.91 132.92 83.6 131.25 80.84C134.3 84.07 136.15 88.46 136.15 93.59Z" />
		</g>
		<g id="Layer">
			<path id="Layer" class="shp17" d="M112.93 101.47C105.36 101.47 99.25 94.54 99.25 85.96C99.25 77.38 105.36 70.44 112.93 70.44C120.49 70.44 126.61 77.38 126.61 85.96C126.61 94.54 120.49 101.47 112.93 101.47Z" />
		</g>
		<g id="Layer">
			<path id="Layer" class="shp18" d="M118.02 91.77C119.04 91.03 120.5 91.19 121.3 92.13C122.1 93.07 121.93 94.43 120.92 95.17C119.91 95.91 118.44 95.75 117.64 94.82C116.84 93.88 117.01 92.51 118.02 91.77Z" />
			<path id="Layer" class="shp18" d="M118.48 96.53C118.85 96.26 119.39 96.32 119.68 96.66C119.98 97.01 119.91 97.51 119.54 97.78C119.17 98.06 118.63 98 118.33 97.65C118.04 97.3 118.1 96.8 118.48 96.53Z" />
		</g>
		<g id="Layer">
			<path id="Layer" class="shp3" d="M131.98 104.84C131.98 104.84 131.92 104.93 131.79 105.1C131.73 105.19 131.65 105.29 131.56 105.41C131.48 105.54 131.36 105.67 131.23 105.82C131.16 105.9 131.09 105.98 131.01 106.06C130.94 106.14 130.86 106.23 130.77 106.32C130.59 106.49 130.39 106.68 130.18 106.87C129.95 107.06 129.7 107.26 129.44 107.47C129.3 107.57 129.16 107.67 129.01 107.77C128.94 107.82 128.86 107.87 128.79 107.93L128.67 108.01L128.55 108.08C128.38 108.18 128.21 108.28 128.04 108.38C127.95 108.43 127.87 108.49 127.78 108.54C127.69 108.58 127.59 108.63 127.5 108.68C127.31 108.78 127.12 108.88 126.92 108.97C126.71 109.06 126.51 109.15 126.3 109.25C126.19 109.29 126.08 109.34 125.98 109.38C125.87 109.43 125.75 109.47 125.64 109.51C125.41 109.59 125.19 109.68 124.96 109.76C124.72 109.84 124.48 109.91 124.23 109.99C124.11 110.02 123.99 110.06 123.87 110.1C123.74 110.13 123.61 110.16 123.49 110.19C122.47 110.46 121.39 110.66 120.28 110.79C120 110.82 119.72 110.85 119.44 110.88C119.15 110.91 118.87 110.92 118.59 110.94L118.16 110.96L117.73 110.97L117.3 110.99L117.09 110.99L116.98 110.99L116.92 110.99L116.91 110.99L116.89 110.99L116.86 110.99L116.02 110.98C115.87 110.97 115.74 110.97 115.59 110.96L115.16 110.94C114.88 110.92 114.59 110.91 114.3 110.88C114.02 110.85 113.74 110.82 113.46 110.78L113.25 110.76L113.05 110.73C112.91 110.71 112.77 110.69 112.64 110.67C112.36 110.62 112.09 110.59 111.82 110.53C111.56 110.47 111.29 110.42 111.03 110.37C110.77 110.3 110.51 110.24 110.26 110.17C110.13 110.14 110.01 110.11 109.88 110.08C109.76 110.04 109.63 110 109.51 109.97C109.27 109.89 109.03 109.82 108.79 109.74C108.56 109.66 108.33 109.57 108.11 109.49C108 109.44 107.88 109.4 107.78 109.36C107.67 109.31 107.56 109.27 107.46 109.22C107.25 109.13 107.03 109.04 106.83 108.95C106.64 108.85 106.44 108.75 106.26 108.65C106.16 108.6 106.07 108.55 105.98 108.51C105.89 108.46 105.8 108.4 105.72 108.35C105.54 108.25 105.38 108.15 105.21 108.05C105.13 108 105.05 107.95 104.97 107.89C104.9 107.84 104.82 107.79 104.75 107.74C104.6 107.64 104.46 107.53 104.32 107.44C104.06 107.23 103.82 107.03 103.59 106.84C103.38 106.64 103.18 106.45 103 106.28C102.91 106.19 102.84 106.1 102.76 106.02C102.69 105.94 102.62 105.86 102.55 105.78C102.42 105.63 102.3 105.5 102.22 105.37C102.13 105.25 102.05 105.14 101.99 105.06C101.87 104.89 101.8 104.8 101.8 104.8C101.8 104.8 101.88 104.88 102.03 105.04C102.18 105.2 102.38 105.44 102.69 105.71C102.77 105.78 102.85 105.85 102.93 105.93C103.01 106.01 103.1 106.09 103.2 106.17C103.39 106.32 103.6 106.5 103.83 106.68C104.08 106.85 104.34 107.03 104.61 107.22C104.9 107.39 105.2 107.59 105.53 107.77C105.69 107.86 105.87 107.95 106.04 108.04C106.13 108.08 106.21 108.13 106.3 108.18C106.4 108.22 106.49 108.26 106.58 108.3C106.77 108.39 106.97 108.48 107.16 108.57C107.36 108.65 107.57 108.73 107.78 108.81C107.88 108.85 107.98 108.89 108.09 108.93C108.19 108.98 108.31 109.01 108.42 109.04C108.64 109.12 108.86 109.19 109.09 109.27C109.32 109.33 109.55 109.4 109.79 109.46C109.91 109.5 110.02 109.53 110.14 109.56C110.27 109.59 110.39 109.62 110.51 109.65C111.49 109.9 112.54 110.05 113.6 110.18C113.87 110.21 114.14 110.23 114.41 110.26C114.55 110.27 114.68 110.28 114.82 110.29L115.22 110.31L115.63 110.33C115.76 110.34 115.91 110.34 116.05 110.34L116.89 110.36L117.7 110.35L118.12 110.34L118.53 110.32C118.8 110.3 119.07 110.29 119.34 110.27C119.62 110.24 119.89 110.22 120.15 110.19C121.22 110.06 122.27 109.91 123.25 109.67C123.37 109.64 123.49 109.61 123.61 109.58C123.73 109.55 123.85 109.52 123.97 109.48C124.21 109.42 124.44 109.35 124.67 109.29C124.9 109.21 125.12 109.14 125.34 109.07C125.45 109.03 125.56 109 125.67 108.96C125.78 108.92 125.88 108.88 125.99 108.83C126.19 108.75 126.4 108.67 126.6 108.59C126.8 108.5 126.99 108.42 127.18 108.33C127.27 108.29 127.37 108.25 127.46 108.2C127.55 108.16 127.64 108.11 127.72 108.07C127.9 107.98 128.07 107.89 128.24 107.8L128.36 107.73L128.48 107.66C128.56 107.61 128.63 107.57 128.71 107.52C128.86 107.43 129.01 107.34 129.16 107.25C129.43 107.06 129.69 106.88 129.94 106.71C130.17 106.53 130.38 106.36 130.58 106.2C130.68 106.12 130.76 106.04 130.84 105.97C130.93 105.89 131.01 105.82 131.08 105.75C131.39 105.47 131.6 105.23 131.75 105.08C131.9 104.92 131.98 104.84 131.98 104.84Z" />
		</g>
		<path id="Layer" class="shp4" d="M97.77 91.57C98.75 81.61 106.94 74.91 116.91 74.91C126.88 74.91 135.07 81.61 136.05 91.57C131.42 95.09 124.56 96.96 116.91 96.96C109.26 96.96 102.4 95.09 97.77 91.57Z" />
		<g id="Layer">
			<path id="Layer" class="shp19" d="M127.5 92.87C131.69 92.97 137.13 92.55 143.06 90.64C147.89 103.38 164.52 113.79 164.52 113.79C159.1 117.84 149.9 116.2 149.9 116.2C148.07 122.44 137.23 123.7 137.23 123.7C138.17 110.23 136.7 109.24 132.16 103.83C130.13 101.41 128.5 97.72 127.5 92.87Z" />
			<path id="Layer" class="shp20" d="M127.5 92.87C131.69 92.97 137.13 92.55 143.06 90.64C147.89 103.38 164.52 113.79 164.52 113.79C159.1 117.84 149.9 116.2 149.9 116.2C148.07 122.44 137.23 123.7 137.23 123.7C138.17 110.23 136.7 109.24 132.16 103.83C130.13 101.41 128.5 97.72 127.5 92.87Z" />
			<g id="Layer">
				<path id="Layer" class="shp21" d="M141.53 91.08C142.88 93.28 144.29 95.43 145.83 97.5C147.37 99.57 149.01 101.56 150.78 103.45C152.55 105.35 154.43 107.15 156.41 108.86C158.39 110.56 160.48 112.17 162.64 113.73C160.23 112.53 157.95 111.09 155.83 109.47C154.76 108.67 153.74 107.81 152.76 106.92C151.77 106.03 150.83 105.11 149.93 104.14C148.13 102.2 146.5 100.13 145.09 97.94C143.67 95.76 142.46 93.46 141.53 91.08Z" />
			</g>
			<g id="Layer">
				<path id="Layer" class="shp21" d="M148.78 115.43C148.64 116.24 148.3 117.01 147.83 117.71C147.36 118.41 146.76 119.04 146.07 119.57C145.38 120.1 144.62 120.54 143.8 120.85C142.98 121.16 142.12 121.37 141.24 121.4C141.98 120.95 142.7 120.55 143.38 120.12C144.07 119.7 144.72 119.24 145.35 118.77C145.97 118.29 146.56 117.77 147.12 117.21C147.69 116.66 148.22 116.06 148.78 115.43Z" />
			</g>
		</g>
		<g id="Layer">
			<path id="Layer" class="shp4" d="M145.71 96.27C146.6 102.61 145.47 107.02 142.78 110.84C142.42 111.36 139.17 107.21 136.77 105.88C134.37 104.56 133.15 100.21 133.15 100.21C133.15 100.21 133.1 96.88 133.22 95.96C133.88 91.11 129.42 87.66 129.42 87.66L132.12 81.71C132.12 81.71 143.95 83.66 145.71 96.27Z" />
		</g>
		<g id="Layer">
			<path id="Layer" class="shp4" d="M143.09 101.6C141.48 90.13 131.56 87.48 129.77 87.09L132.24 81.7C132.24 81.7 144.07 83.65 145.84 96.26C146.73 102.61 145.47 107.02 142.78 110.84C142.71 110.95 142.49 111.39 141.98 111.77C142.91 109.2 143.58 105.12 143.09 101.6Z" />
		</g>
		<g id="Layer">
			<path id="Layer" class="shp3" d="M143.46 109.49C143.82 108.82 144.16 108.14 144.45 107.45C144.75 106.76 145.01 106.06 145.22 105.34C145.44 104.63 145.61 103.91 145.73 103.18C145.97 101.72 146.05 100.24 145.94 98.78C145.89 98.04 145.8 97.31 145.68 96.58C145.65 96.39 145.62 96.21 145.58 96.04C145.55 95.86 145.51 95.68 145.47 95.5C145.43 95.32 145.39 95.14 145.34 94.96C145.29 94.78 145.24 94.61 145.19 94.43C144.99 93.72 144.74 93.03 144.45 92.35C144.16 91.67 143.82 91.01 143.44 90.38C143.06 89.74 142.63 89.14 142.15 88.56C141.91 88.27 141.67 87.99 141.41 87.72C141.15 87.44 140.88 87.18 140.6 86.92C140.05 86.41 139.46 85.94 138.83 85.5C138.2 85.06 137.54 84.67 136.86 84.31C136.17 83.96 135.94 83.02 135.21 82.75C134.85 82.61 134.48 82.49 134.11 82.38C133.74 82.27 133.35 82.16 133 82.09L133.5 81.87C133.19 82.37 132.88 82.87 132.56 83.36L131.62 84.85L130.67 86.33L129.72 87.82L129.68 87.45C129.82 87.61 129.94 87.76 130.07 87.92C130.19 88.08 130.31 88.24 130.43 88.4C130.65 88.73 130.87 89.06 131.07 89.4C131.17 89.57 131.27 89.74 131.36 89.91C131.45 90.09 131.54 90.26 131.63 90.44C131.8 90.79 131.95 91.15 132.09 91.52C132.16 91.7 132.22 91.88 132.29 92.07C132.34 92.25 135.06 99.58 131.52 101.85C134 99.97 132.69 94.49 132.14 92.7C132.08 92.53 132.01 92.35 131.94 92.17C131.87 92 131.8 91.82 131.72 91.65C131.4 90.96 131.02 90.3 130.59 89.66C130.38 89.34 130.15 89.03 129.91 88.73C129.8 88.58 129.67 88.43 129.55 88.29C129.43 88.14 129.29 87.99 129.17 87.87L129.01 87.71L129.13 87.5L130 85.98L130.89 84.47L131.77 82.95C132.07 82.44 132.37 81.94 132.67 81.44L132.83 81.16L133.16 81.22C133.61 81.3 134 81.39 134.4 81.5C134.8 81.61 135.19 81.74 135.58 81.87C136.36 82.15 136.64 83.08 137.37 83.46C138.09 83.82 138.8 84.24 139.47 84.7C140.14 85.16 140.78 85.66 141.37 86.2C141.97 86.74 142.52 87.33 143.02 87.95C143.52 88.56 143.98 89.21 144.38 89.89C144.78 90.57 145.13 91.27 145.43 91.99C145.73 92.71 145.97 93.45 146.16 94.19C146.22 94.38 146.26 94.57 146.3 94.75C146.35 94.94 146.39 95.13 146.43 95.32C146.46 95.5 146.5 95.69 146.53 95.89C146.57 96.08 146.6 96.27 146.62 96.45C146.73 97.21 146.8 97.97 146.82 98.73C146.84 99.5 146.82 100.26 146.75 101.02C146.69 101.79 146.57 102.54 146.4 103.29C146.23 104.03 146.01 104.77 145.75 105.49C145.49 106.21 145.17 106.91 144.82 107.6C144.47 108.28 144.07 108.94 143.65 109.58C143.24 110.23 143.05 110.79 142.47 111.09C142.88 110.44 143.1 110.15 143.46 109.49Z" />
		</g>
		<g id="Layer">
			<g id="Layer">
				<path id="Layer" class="shp4" d="M135.75 106.53C134.09 107.63 131.77 107.27 130.58 105.72C129.39 104.18 129.78 102.03 131.45 100.92C133.11 99.82 135.43 100.18 136.62 101.73C137.81 103.27 137.42 105.42 135.75 106.53Z" />
			</g>
			<g id="Layer">
				<path id="Layer" class="shp4" d="M137.53 107.78C135.45 109.16 132.55 108.71 131.07 106.77C129.58 104.84 130.06 102.15 132.15 100.77C134.23 99.39 137.13 99.84 138.62 101.77C140.1 103.71 139.62 106.39 137.53 107.78Z" />
			</g>
			<g id="Layer">
				<path id="Layer" class="shp4" d="M141.08 111.61C138.99 112.99 136.1 112.54 134.61 110.6C133.13 108.66 131.39 105.54 133.48 104.16C135.56 102.77 140.87 103.95 142.36 105.89C143.85 107.82 143.16 110.22 141.08 111.61Z" />
			</g>
			<g id="Layer">
				<path id="Layer" class="shp3" d="M137.55 105.63C137.53 105.73 137.49 105.87 137.42 106.04C137.35 106.21 137.25 106.42 137.09 106.63C136.94 106.85 136.74 107.09 136.47 107.3L136.45 107.32L136.41 107.35L136.36 107.39C136.33 107.41 136.3 107.43 136.26 107.46C136.19 107.51 136.13 107.56 136.04 107.61C135.96 107.66 135.87 107.71 135.78 107.76C135.69 107.8 135.6 107.84 135.5 107.88C135.12 108.03 134.69 108.14 134.23 108.17C133.78 108.2 133.29 108.16 132.83 108.03C132.36 107.91 131.91 107.7 131.51 107.42C131.12 107.14 130.78 106.79 130.53 106.4L130.45 106.27C130.42 106.23 130.39 106.17 130.36 106.12C130.31 106.01 130.25 105.9 130.21 105.8C130.17 105.69 130.13 105.59 130.1 105.49C130.07 105.38 130.05 105.28 130.02 105.17C129.94 104.75 129.94 104.34 130 103.96C130.06 103.58 130.2 103.24 130.35 102.94C130.44 102.8 130.51 102.66 130.61 102.54C130.66 102.48 130.7 102.42 130.74 102.36C130.8 102.31 130.84 102.26 130.89 102.21C130.98 102.11 131.07 102.03 131.17 101.96C131.21 101.92 131.26 101.88 131.3 101.85C131.34 101.82 131.38 101.79 131.42 101.77C131.58 101.65 131.72 101.59 131.81 101.55C131.9 101.5 131.95 101.48 131.95 101.48C131.95 101.48 131.92 101.52 131.85 101.59C131.82 101.63 131.78 101.67 131.73 101.72C131.68 101.78 131.63 101.84 131.58 101.91C131.55 101.94 131.52 101.98 131.49 102.02C131.46 102.06 131.44 102.1 131.41 102.15C131.35 102.24 131.28 102.33 131.23 102.43C131.2 102.49 131.18 102.54 131.15 102.59C131.12 102.65 131.1 102.71 131.07 102.77C131.02 102.89 130.99 103.02 130.94 103.15C130.88 103.42 130.82 103.72 130.82 104.03C130.83 104.33 130.87 104.65 130.97 104.97C131 105.05 131.03 105.12 131.05 105.2C131.09 105.28 131.13 105.36 131.16 105.43C131.19 105.51 131.24 105.57 131.28 105.64C131.3 105.68 131.31 105.71 131.34 105.75L131.43 105.87C131.64 106.15 131.89 106.41 132.18 106.61C132.47 106.82 132.8 106.98 133.15 107.09C133.49 107.2 133.85 107.27 134.21 107.28C134.56 107.28 134.9 107.24 135.22 107.16C135.3 107.14 135.38 107.12 135.46 107.1C135.53 107.07 135.6 107.05 135.67 107.02C135.74 107.01 135.82 106.96 135.9 106.93C135.97 106.9 136.03 106.86 136.1 106.83C136.36 106.7 136.59 106.54 136.78 106.39C136.97 106.23 137.12 106.07 137.23 105.94C137.35 105.81 137.44 105.7 137.49 105.62C137.55 105.54 137.58 105.49 137.58 105.49C137.58 105.49 137.57 105.54 137.55 105.63Z" />
			</g>
			<g id="Layer">
				<path id="Layer" class="shp3" d="M139.73 108.73C139.69 108.8 139.62 108.9 139.53 109.02C139.47 109.08 139.42 109.14 139.36 109.21C139.29 109.28 139.22 109.35 139.14 109.43C138.99 109.56 138.78 109.73 138.55 109.87C138.31 110.02 138.03 110.15 137.72 110.26C137.41 110.37 137.07 110.45 136.71 110.49C136.34 110.53 135.96 110.53 135.58 110.47C135.2 110.43 134.82 110.33 134.46 110.2C134.1 110.06 133.76 109.89 133.45 109.69C133.14 109.49 132.86 109.26 132.61 109.02C132.49 108.9 132.38 108.77 132.28 108.65C132.18 108.53 132.09 108.42 132 108.31C131.81 108.09 131.63 107.87 131.49 107.66C131.33 107.44 131.21 107.23 131.12 107.04C131.03 106.85 130.97 106.66 130.94 106.52C130.92 106.37 130.92 106.25 130.93 106.17C130.93 106.09 130.95 106.05 130.95 106.05C130.95 106.05 130.96 106.09 130.98 106.16C131.01 106.23 131.06 106.33 131.14 106.45C131.21 106.57 131.32 106.7 131.46 106.85C131.59 106.99 131.76 107.14 131.94 107.3C132.14 107.46 132.35 107.63 132.57 107.81C132.68 107.91 132.8 108.01 132.92 108.11C133.03 108.2 133.14 108.29 133.26 108.38C133.5 108.55 133.75 108.72 134.02 108.87C134.29 109.01 134.57 109.15 134.86 109.25C135.16 109.36 135.46 109.44 135.76 109.49C136.06 109.55 136.36 109.58 136.65 109.58C137.24 109.58 137.79 109.48 138.26 109.34C138.5 109.26 138.69 109.19 138.9 109.1C139.08 109.02 139.25 108.94 139.38 108.87C139.5 108.79 139.62 108.74 139.68 108.69C139.76 108.65 139.79 108.63 139.79 108.63C139.79 108.63 139.77 108.66 139.73 108.73Z" />
			</g>
			<g id="Layer">
				<path id="Layer" class="shp3" d="M143.03 110.46C142.99 110.55 142.5 111.49 141.71 111.94C141.44 112.12 141.14 112.28 140.8 112.41C140.46 112.54 140.09 112.64 139.71 112.69C139.33 112.74 138.94 112.74 138.55 112.71C138.16 112.67 137.78 112.59 137.42 112.48C137.07 112.36 136.73 112.22 136.43 112.05C136.27 111.96 136.13 111.87 135.99 111.78C135.87 111.69 135.74 111.61 135.62 111.52C135.38 111.36 135.15 111.19 134.94 111.03C134.73 110.86 134.55 110.69 134.4 110.53C134.25 110.37 134.15 110.2 134.08 110.07C134 109.93 133.97 109.82 133.96 109.74C133.94 109.66 133.94 109.62 133.94 109.62C133.94 109.62 133.96 109.66 134.01 109.72C134.06 109.78 134.14 109.87 134.24 109.96C134.35 110.05 134.49 110.15 134.66 110.26C134.84 110.36 135.04 110.46 135.27 110.57C135.5 110.67 135.76 110.78 136.02 110.9C136.16 110.96 136.31 111.03 136.45 111.09C136.58 111.15 136.72 111.21 136.86 111.27C137.14 111.37 137.43 111.47 137.73 111.54C138.03 111.61 138.34 111.67 138.66 111.69C138.97 111.72 139.28 111.72 139.58 111.7C139.89 111.67 140.19 111.62 140.47 111.55C141.72 111.34 143.6 109.53 143.6 109.53C143.6 109.53 143.07 110.38 143.03 110.46Z" />
			</g>
		</g>
		<g id="Layer">
			<path id="Layer" class="shp22" d="M127.6 90.55C130.28 90.34 141.27 89.09 148.61 80.32C152.64 75.49 153.86 70.46 154.27 67.61C154.31 67.37 154.62 67.27 154.8 67.45C155.67 68.29 156.65 69.39 157.55 70.8C158.98 73.05 159.62 75.16 159.93 76.63C159.94 76.68 159.94 76.73 159.92 76.78C159.02 79.2 156.87 83.78 151.93 87.41C151.92 87.42 151.91 87.42 151.9 87.43C148.71 89.64 145.33 90.85 142.96 91.49C142.93 91.5 142.91 91.51 142.88 91.52C141.75 91.79 140.72 91.99 139.81 92.16C139.81 92.15 139.8 92.16 139.8 92.16C135.07 93.05 130.86 92.88 127.62 92.42C127.48 92.4 127.37 92.29 127.36 92.15C127.34 91.72 127.32 91.29 127.31 90.85C127.31 90.69 127.44 90.56 127.6 90.55Z" />
			<path id="Layer" class="shp19" d="M148.61 80.32C152.93 75.14 154.02 69.72 154.35 67.02C155.32 67.9 156.49 69.14 157.54 70.8C159 73.08 159.64 75.23 159.95 76.71C159.06 79.11 156.92 83.74 151.93 87.41C151.92 87.42 151.91 87.42 151.9 87.43C148.71 89.64 145.33 90.85 142.96 91.49C142.93 91.5 142.91 91.51 142.88 91.52C141.75 91.79 140.72 91.99 139.81 92.16C139.81 92.15 139.8 92.16 139.8 92.16C134.94 93.07 130.64 92.87 127.37 92.38C127.34 91.8 127.31 91.19 127.31 90.57C129.36 90.43 140.96 89.45 148.61 80.32Z" />
			<g id="Layer">
				<path id="Layer" class="shp21" d="M158.59 76.87C158.49 76.54 158.36 76.21 158.23 75.9C158.16 75.74 158.09 75.58 158.02 75.42L157.8 74.96C157.5 74.33 157.17 73.73 156.83 73.13C156.49 72.53 156.13 71.94 155.76 71.36L155.19 70.49L154.6 69.64L155.51 69.47C155.29 70.88 154.94 72.27 154.45 73.62C153.97 74.97 153.35 76.28 152.63 77.54C151.9 78.79 151.05 79.98 150.11 81.1C149.65 81.67 149.14 82.19 148.64 82.73C148.37 82.99 148.1 83.24 147.84 83.49C147.7 83.62 147.57 83.75 147.43 83.87L147.01 84.22C146.72 84.46 146.45 84.71 146.16 84.93L145.26 85.6C144.97 85.83 144.66 86.03 144.35 86.23L143.88 86.54L143.64 86.69L143.4 86.83L142.44 87.39C142.11 87.57 141.77 87.74 141.44 87.91C141.11 88.08 140.76 88.23 140.42 88.39C140.08 88.54 139.74 88.7 139.39 88.83C136.61 89.96 133.63 90.65 130.63 90.89C133.62 90.51 136.52 89.68 139.21 88.47C141.9 87.25 144.37 85.66 146.49 83.72L146.89 83.36C147.02 83.24 147.14 83.11 147.27 82.98C147.52 82.73 147.77 82.48 148.02 82.22C148.49 81.69 148.97 81.17 149.4 80.6C150.27 79.49 151.05 78.32 151.72 77.1C152.38 75.87 152.94 74.6 153.42 73.3C153.54 72.98 153.65 72.65 153.76 72.32C153.86 71.99 153.97 71.66 154.05 71.33C154.24 70.67 154.41 70 154.53 69.32L154.77 68.07L155.44 69.15L155.99 70.06C156.17 70.36 156.35 70.66 156.52 70.97C156.68 71.29 156.85 71.59 157 71.91L157.23 72.39L157.44 72.87C157.72 73.51 157.97 74.17 158.17 74.83C158.27 75.17 158.36 75.5 158.43 75.84C158.51 76.18 158.57 76.52 158.59 76.87Z" />
			</g>
		</g>
		<g id="Layer">
			<path id="Layer" class="shp22" d="M108.1 90.85C108.09 91.29 108.08 91.72 108.05 92.15C108.04 92.29 107.94 92.4 107.79 92.42C104.55 92.88 100.35 93.05 95.61 92.16C95.61 92.16 95.61 92.15 95.6 92.16C94.69 91.99 93.66 91.79 92.53 91.52C92.51 91.51 92.48 91.5 92.45 91.49C90.08 90.85 86.71 89.64 83.52 87.43C83.5 87.42 83.49 87.42 83.48 87.41C78.55 83.78 76.4 79.2 75.49 76.78C75.47 76.73 75.47 76.68 75.48 76.63C75.79 75.16 76.44 73.05 77.87 70.8C78.76 69.39 79.74 68.29 80.61 67.45C80.79 67.27 81.11 67.37 81.14 67.61C81.56 70.46 82.77 75.49 86.8 80.32C94.14 89.09 105.13 90.34 107.81 90.55C107.98 90.56 108.1 90.69 108.1 90.85Z" />
			<path id="Layer" class="shp19" d="M108.11 90.57C108.1 91.19 108.08 91.8 108.04 92.38C104.77 92.87 100.47 93.07 95.61 92.16C95.61 92.16 95.6 92.15 95.6 92.16C94.69 91.99 93.66 91.79 92.53 91.52C92.51 91.51 92.48 91.5 92.45 91.49C90.08 90.85 86.7 89.64 83.52 87.43C83.5 87.42 83.49 87.42 83.48 87.41C78.49 83.74 76.35 79.11 75.46 76.71C75.77 75.23 76.41 73.08 77.87 70.8C78.92 69.14 80.1 67.9 81.06 67.02C81.39 69.72 82.48 75.14 86.8 80.32C94.45 89.45 106.06 90.43 108.11 90.57Z" />
			<g id="Layer">
				<path id="Layer" class="shp21" d="M76.82 76.87C76.84 76.52 76.9 76.18 76.97 75.84C77.05 75.5 77.14 75.16 77.23 74.83C77.44 74.16 77.69 73.51 77.97 72.86L78.18 72.38L78.41 71.91C78.56 71.59 78.73 71.28 78.89 70.97C79.06 70.66 79.24 70.36 79.41 70.05L79.97 69.15L80.63 68.06L80.87 69.32C81 69.99 81.16 70.66 81.35 71.33C81.44 71.66 81.55 71.99 81.65 72.32C81.76 72.64 81.87 72.97 81.98 73.3C82.46 74.59 83.02 75.86 83.69 77.09C84.35 78.32 85.14 79.49 86.01 80.6C86.43 81.16 86.92 81.68 87.39 82.22C87.63 82.47 87.89 82.72 88.14 82.98C88.26 83.1 88.38 83.24 88.52 83.36L88.92 83.71C91.03 85.65 93.51 87.25 96.2 88.46C98.89 89.67 101.79 90.5 104.77 90.89C101.77 90.65 98.8 89.96 96.02 88.82C95.67 88.69 95.33 88.54 94.98 88.38C94.64 88.23 94.3 88.08 93.97 87.9C93.64 87.73 93.3 87.57 92.97 87.39L92 86.83L91.76 86.69L91.53 86.53L91.06 86.23C90.75 86.02 90.44 85.82 90.14 85.59L89.25 84.93C88.96 84.7 88.68 84.46 88.4 84.22L87.98 83.86C87.83 83.74 87.71 83.61 87.57 83.49C87.31 83.23 87.03 82.98 86.77 82.73C86.27 82.19 85.75 81.67 85.29 81.1C84.36 79.97 83.5 78.79 82.78 77.53C82.06 76.28 81.44 74.97 80.95 73.62C80.47 72.26 80.11 70.87 79.9 69.46L80.8 69.63L80.21 70.49L79.65 71.35C79.27 71.94 78.91 72.53 78.57 73.12C78.23 73.72 77.9 74.33 77.61 74.95L77.39 75.42C77.32 75.58 77.25 75.73 77.18 75.89C77.05 76.21 76.92 76.54 76.82 76.87Z" />
			</g>
		</g>
		<g id="Layer">
			<path id="Layer" class="shp19" d="M103.26 103.83C98.72 109.24 97.24 110.23 98.19 123.7C98.19 123.7 87.34 122.44 85.51 116.2C85.51 116.2 76.32 117.84 70.89 113.79C70.89 113.79 87.52 103.38 92.35 90.64C98.28 92.55 103.72 92.97 107.91 92.87C106.91 97.72 105.28 101.41 103.26 103.83Z" />
			<path id="Layer" class="shp20" d="M103.26 103.83C98.72 109.24 97.24 110.23 98.19 123.7C98.19 123.7 87.34 122.44 85.51 116.2C85.51 116.2 76.32 117.84 70.89 113.79C70.89 113.79 87.52 103.38 92.35 90.64C98.28 92.55 103.72 92.97 107.91 92.87C106.91 97.72 105.28 101.41 103.26 103.83Z" />
			<g id="Layer">
				<path id="Layer" class="shp21" d="M93.88 91.08C92.95 93.46 91.74 95.76 90.32 97.94C88.91 100.13 87.29 102.21 85.49 104.14C84.59 105.11 83.64 106.03 82.66 106.93C81.67 107.82 80.65 108.67 79.59 109.47C77.46 111.09 75.19 112.54 72.78 113.74C74.93 112.17 77.02 110.56 79.01 108.86C80.99 107.15 82.87 105.35 84.63 103.45C86.4 101.56 88.05 99.57 89.59 97.51C91.12 95.43 92.53 93.28 93.88 91.08Z" />
			</g>
			<g id="Layer">
				<path id="Layer" class="shp21" d="M86.63 115.43C87.2 116.06 87.72 116.66 88.29 117.21C88.85 117.77 89.44 118.29 90.06 118.77C90.69 119.25 91.34 119.7 92.03 120.12C92.72 120.55 93.43 120.95 94.17 121.4C93.29 121.37 92.43 121.16 91.61 120.85C90.79 120.54 90.03 120.1 89.34 119.57C88.66 119.04 88.06 118.41 87.59 117.71C87.12 117.01 86.77 116.24 86.63 115.43Z" />
			</g>
		</g>
		<g id="Layer">
			<g id="Layer">
				<path id="Layer" class="shp4" d="M92.32 51.12C89.58 49.14 85.15 49.92 85.15 49.92L92.32 42.42C104.18 42.13 106.01 43.97 106.01 43.97C107.37 47.33 96.56 58.61 96.56 58.61C96.56 58.61 93.7 52.11 92.32 51.12Z" />
				<path id="Layer" fillRule="evenodd" class="shp3" d="M96.11 58.78C94.98 56.21 92.96 52.15 92.02 51.47C90.58 50.43 88.61 50.22 87.2 50.22C86.07 50.22 85.24 50.36 85.24 50.36L83.84 50.61L92.1 41.98L92.31 41.97C93.15 41.95 93.98 41.94 94.76 41.94C104.38 41.94 106.19 43.49 106.36 43.67L106.43 43.73L106.46 43.82C107.09 45.38 105.69 48.33 102.18 52.82C99.67 56.04 96.95 58.89 96.92 58.91L96.4 59.45L96.11 58.78ZM94.76 42.84C94.05 42.84 93.31 42.85 92.54 42.87L86.34 49.34C86.6 49.33 86.89 49.31 87.2 49.31C88.76 49.31 90.96 49.57 92.62 50.76C93.83 51.64 95.9 56.01 96.7 57.77C97.6 56.8 99.56 54.64 101.4 52.28C105.47 47.08 105.81 45.02 105.59 44.24C105.18 43.98 102.9 42.84 94.76 42.84Z" />
			</g>
			<path id="Layer" class="shp23" d="M92.32 51.12C89.58 49.14 85.15 49.92 85.15 49.92L92.32 42.42C104.18 42.13 106.01 43.97 106.01 43.97C107.37 47.33 96.56 58.61 96.56 58.61C96.56 58.61 93.7 52.11 92.32 51.12Z" />
			<g id="Layer">
				<g id="Layer">
					<path id="Layer" class="shp4" d="M104.23 44.82C99.74 44.03 91.27 45.38 89.39 49.75C88.37 52.12 87.56 56.84 83.56 57.93C81.88 58.39 82.3 56.47 81.22 53.77C80.09 50.95 78.57 47.32 82.59 42.4C84.15 40.48 86.64 43.29 92.59 41.6C95.76 40.7 100.2 38.37 106.02 43.83L104.23 44.82Z" />
					<path id="Layer" fillRule="evenodd" class="shp3" d="M81.46 56.23C81.3 55.59 81.11 54.79 80.77 53.93L80.73 53.83C79.61 51.03 78.07 47.19 82.2 42.13C82.7 41.52 83.32 41.25 84.17 41.25C84.66 41.25 85.19 41.33 85.8 41.43C86.62 41.57 87.55 41.72 88.69 41.72C89.92 41.72 91.15 41.54 92.45 41.17C92.79 41.07 93.15 40.96 93.53 40.84C94.93 40.39 96.52 39.88 98.37 39.88C101.14 39.88 103.76 41.07 106.37 43.51L106.81 43.92L104.32 45.29L104.14 45.26C103.37 45.12 102.49 45.06 101.52 45.06C96.75 45.06 91.21 46.73 89.84 49.92C89.65 50.35 89.47 50.87 89.28 51.42C88.4 53.95 87.19 57.41 83.69 58.36C83.48 58.42 83.29 58.45 83.12 58.45C81.99 58.45 81.74 57.42 81.46 56.23ZM104.14 44.35L105.24 43.74C102.97 41.75 100.72 40.78 98.37 40.78C96.68 40.78 95.18 41.26 93.85 41.69C93.46 41.81 93.09 41.93 92.73 42.03C91.34 42.43 90.02 42.62 88.69 42.62C87.46 42.62 86.45 42.45 85.63 42.32C85.06 42.23 84.57 42.15 84.17 42.15C83.62 42.15 83.28 42.3 82.97 42.67C79.17 47.34 80.53 50.77 81.63 53.52L81.68 53.62C82.04 54.54 82.24 55.37 82.4 56.03C82.66 57.11 82.8 57.55 83.11 57.55C83.2 57.55 83.3 57.54 83.42 57.5C86.42 56.68 87.49 53.62 88.35 51.15C88.55 50.58 88.74 50.04 88.93 49.59C90.54 45.86 96.58 44.16 101.52 44.16C102.47 44.16 103.35 44.22 104.14 44.35Z" />
				</g>
			</g>
			<path id="Layer" class="shp16" d="M81.46 44.94C81.82 44.25 82.22 43.53 82.84 42.78C84.26 41.02 87.19 43.64 92.62 42.09C95.48 41.28 99.6 39.03 104.76 43.28C103 43.07 96.24 43.24 93.73 43.89C90.73 44.67 89.64 45.49 86.94 46.31C84.54 47.04 83.72 47.01 81.46 44.94Z" />
			<g id="Layer">
				<path id="Layer" class="shp4" d="M138.22 58.61C138.22 58.61 127.41 47.33 128.77 43.97C128.77 43.97 130.6 42.13 142.46 42.42L149.64 49.92C149.64 49.92 145.2 49.14 142.46 51.12C141.08 52.11 138.22 58.61 138.22 58.61Z" />
				<path id="Layer" fillRule="evenodd" class="shp3" d="M138.38 59.45L137.86 58.91C137.83 58.88 135.11 56.04 132.6 52.81C129.09 48.32 127.69 45.38 128.32 43.81L128.35 43.73L128.42 43.66C128.59 43.49 130.4 41.94 140.02 41.94C140.8 41.94 141.63 41.95 142.47 41.97L142.68 41.97L150.94 50.6L149.54 50.36C149.54 50.35 148.71 50.21 147.58 50.21C146.17 50.21 144.2 50.43 142.76 51.47C141.82 52.15 139.8 56.21 138.67 58.78L138.38 59.45ZM129.19 44.24C128.97 45.03 129.31 47.08 133.38 52.28C135.22 54.64 137.17 56.8 138.08 57.77C138.88 56.01 140.95 51.64 142.16 50.76C143.82 49.57 146.02 49.32 147.58 49.32C147.89 49.32 148.18 49.33 148.43 49.34L142.24 42.87C141.47 42.85 140.73 42.84 140.02 42.84C131.87 42.84 129.6 43.98 129.19 44.24Z" />
			</g>
			<path id="Layer" class="shp24" d="M138.22 58.61C138.22 58.61 127.41 47.33 128.77 43.97C128.77 43.97 130.6 42.13 142.46 42.42L149.64 49.92C149.64 49.92 145.2 49.14 142.46 51.12C141.08 52.11 138.22 58.61 138.22 58.61Z" />
			<g id="Layer">
				<g id="Layer">
					<path id="Layer" class="shp4" d="M128.75 43.83C134.58 38.37 139.02 40.7 142.19 41.6C148.14 43.29 150.62 40.48 152.19 42.4C156.21 47.32 154.69 50.95 153.56 53.77C152.48 56.47 152.9 58.39 151.22 57.93C147.22 56.84 146.41 52.12 145.39 49.75C143.51 45.38 135.04 44.03 130.55 44.82L128.75 43.83Z" />
					<path id="Layer" fillRule="evenodd" class="shp3" d="M151.09 58.37C147.59 57.41 146.38 53.95 145.5 51.43C145.31 50.87 145.13 50.35 144.94 49.92C143.57 46.73 138.03 45.06 133.26 45.06C132.29 45.06 131.41 45.13 130.64 45.26L130.46 45.29L127.97 43.92L128.41 43.51C131.02 41.07 133.64 39.88 136.41 39.88C138.26 39.88 139.85 40.39 141.25 40.84C141.63 40.96 141.99 41.08 142.33 41.17C143.63 41.54 144.86 41.72 146.09 41.72C147.23 41.72 148.16 41.57 148.98 41.44C149.59 41.33 150.12 41.25 150.61 41.25C151.46 41.25 152.09 41.53 152.58 42.13C156.71 47.19 155.17 51.03 154.05 53.83L154.01 53.93C153.67 54.79 153.48 55.59 153.32 56.23C153.04 57.42 152.79 58.45 151.66 58.45C151.49 58.45 151.3 58.42 151.09 58.37ZM133.26 44.16C138.2 44.16 144.24 45.86 145.85 49.59C146.04 50.04 146.23 50.58 146.43 51.15C147.29 53.62 148.35 56.68 151.36 57.5C151.48 57.54 151.58 57.55 151.66 57.55C151.98 57.55 152.12 57.11 152.38 56.03C152.54 55.37 152.74 54.54 153.1 53.62L153.14 53.52C154.24 50.77 155.61 47.34 151.8 42.67C151.5 42.3 151.16 42.15 150.61 42.15C150.21 42.15 149.72 42.23 149.15 42.32C148.33 42.45 147.32 42.62 146.09 42.62C144.76 42.62 143.44 42.43 142.05 42.03C141.69 41.93 141.32 41.81 140.93 41.69C139.6 41.26 138.09 40.78 136.41 40.78C134.06 40.78 131.81 41.75 129.54 43.74L130.64 44.35C131.43 44.22 132.31 44.16 133.26 44.16Z" />
				</g>
			</g>
			<g id="Layer">
				<g id="Layer">
					<path id="Layer" class="shp4" d="M148.79 77.98C146.57 83.71 139.14 91.44 117.33 91.44C117.3 91.44 116.52 91.44 116.49 91.44C94.69 91.44 87.25 83.71 85.03 77.98C83.77 74.72 84.5 71.02 87.32 68.07C89.71 65.58 89.82 65.98 89.82 64.99C89.82 51.32 101.76 40.99 116.49 40.99C116.52 40.99 117.3 40.99 117.33 40.99C132.06 40.99 144 51.32 144 64.99C144 65.98 144.12 65.58 146.5 68.07C149.32 71.02 150.06 74.72 148.79 77.98Z" />
					<path id="Layer" fillRule="evenodd" class="shp3" d="M117.33 91.9L116.49 91.9C93.36 91.9 86.56 83.27 84.57 78.13C83.21 74.63 84.1 70.75 86.96 67.77C87.77 66.92 88.33 66.4 88.7 66.05C89.33 65.46 89.33 65.46 89.33 64.99C89.33 51.28 101.26 40.53 116.49 40.53L117.33 40.53C132.56 40.53 144.49 51.28 144.49 64.99C144.49 65.46 144.49 65.46 145.12 66.05C145.49 66.4 146.05 66.92 146.86 67.77C149.72 70.75 150.61 74.63 149.25 78.13C147.26 83.27 140.46 91.9 117.33 91.9ZM90.31 64.99C90.31 65.81 90.16 65.97 89.39 66.69C89.03 67.03 88.49 67.54 87.69 68.37C85.07 71.1 84.25 74.64 85.49 77.83C87.39 82.74 93.96 90.99 116.49 90.99L117.33 90.99C139.87 90.99 146.43 82.74 148.33 77.83C149.57 74.64 148.75 71.1 146.14 68.37C145.34 67.54 144.79 67.03 144.43 66.69C143.66 65.97 143.52 65.81 143.52 64.99C143.52 51.79 132.01 41.44 117.33 41.44L116.49 41.44C101.81 41.44 90.31 51.79 90.31 64.99Z" />
				</g>
				<path id="Layer" class="shp4" d="M149.15 72.81C149.56 74.54 149.44 76.32 148.79 77.98C146.57 83.71 139.14 91.44 117.33 91.45C117.3 91.45 116.52 91.45 116.49 91.45C94.68 91.44 87.25 83.71 85.03 77.98C84.38 76.32 84.26 74.54 84.67 72.81C84.76 73.2 84.88 73.59 85.03 73.98C87.25 79.71 94.68 87.44 116.49 87.44C116.52 87.44 117.3 87.44 117.33 87.44C139.14 87.44 146.57 79.71 148.79 73.98C148.94 73.59 149.06 73.2 149.15 72.81Z" />
				<g id="Layer">
					<path id="Layer" class="shp4" d="M109.49 42.52C115.43 41.53 119.33 36.64 119.33 36.64C119.63 38.37 118.53 39.45 118.53 39.45C121.58 38.24 122.8 35.43 122.8 35.43C123.55 38.21 121.41 40.07 121.41 40.07C123.55 39.59 124.33 38.45 124.33 38.45C124.34 42.2 121.23 42.9 121.23 42.9L109.49 42.52Z" />
					<path id="Layer" class="shp3" d="M111.96 41.86L112.48 41.61L112.74 41.49C112.83 41.44 112.91 41.39 113 41.35L113.5 41.08L113.99 40.78L114.23 40.64L114.47 40.48L114.94 40.17L115.39 39.83C115.55 39.73 115.69 39.61 115.84 39.49C115.99 39.38 116.14 39.27 116.28 39.14C116.42 39.02 116.57 38.91 116.7 38.78L117.12 38.41L117.52 38.03L117.92 37.64L118.3 37.24C118.42 37.1 118.54 36.97 118.66 36.83C118.78 36.69 118.9 36.55 119 36.41L119.59 35.66L119.73 36.58L119.76 36.78C119.77 36.85 119.78 36.92 119.78 36.99L119.79 37.2C119.8 37.27 119.79 37.33 119.79 37.4C119.79 37.47 119.79 37.54 119.78 37.61L119.75 37.82C119.75 37.89 119.73 37.95 119.72 38.02C119.7 38.09 119.69 38.16 119.67 38.23C119.64 38.36 119.59 38.5 119.54 38.63C119.52 38.69 119.49 38.76 119.46 38.82C119.43 38.89 119.4 38.95 119.36 39.01C119.33 39.08 119.3 39.14 119.26 39.2C119.22 39.26 119.18 39.32 119.14 39.38C119.1 39.44 119.06 39.5 119.01 39.56C118.97 39.62 118.93 39.67 118.86 39.75L118.34 39.06L118.67 38.91L118.83 38.84C118.89 38.81 118.94 38.78 118.99 38.75L119.3 38.58C119.4 38.52 119.5 38.45 119.6 38.39C119.7 38.33 119.8 38.26 119.89 38.19L120.18 37.97L120.45 37.74C120.54 37.67 120.62 37.58 120.71 37.5C120.79 37.42 120.88 37.33 120.95 37.25C121.03 37.16 121.12 37.08 121.19 36.98L121.42 36.71L121.63 36.43L121.83 36.15C121.9 36.05 121.96 35.95 122.02 35.85C122.08 35.75 122.14 35.66 122.2 35.56C122.25 35.46 122.31 35.35 122.35 35.26L122.97 33.92L123.26 35.32L123.33 35.66C123.35 35.77 123.38 35.88 123.39 36L123.42 36.34C123.43 36.45 123.42 36.57 123.42 36.68C123.42 36.8 123.42 36.91 123.4 37.03L123.36 37.37C123.34 37.48 123.31 37.59 123.28 37.7C123.26 37.82 123.23 37.93 123.19 38.03C123.15 38.14 123.12 38.25 123.07 38.36C123.03 38.46 122.99 38.57 122.93 38.67L122.78 38.98L122.6 39.27L122.4 39.56C122.33 39.65 122.27 39.74 122.19 39.83C122.12 39.92 122.04 40.01 121.96 40.09C121.88 40.18 121.8 40.26 121.69 40.35L121.31 39.7L121.51 39.66C121.58 39.64 121.65 39.63 121.71 39.61C121.84 39.57 121.97 39.54 122.1 39.5C122.22 39.46 122.35 39.41 122.47 39.36C122.6 39.31 122.72 39.25 122.84 39.2C122.96 39.14 123.08 39.08 123.19 39.01C123.3 38.94 123.41 38.87 123.51 38.79C123.62 38.72 123.72 38.63 123.81 38.55C123.86 38.51 123.91 38.46 123.95 38.42C123.99 38.38 124.04 38.33 124.06 38.3L124.72 37.52L124.64 38.45L124.61 38.82C124.59 38.94 124.59 39.07 124.57 39.19L124.49 39.56L124.46 39.74C124.45 39.8 124.42 39.86 124.4 39.92L124.29 40.27C124.24 40.39 124.18 40.5 124.13 40.62L124.05 40.79C124.02 40.84 123.98 40.9 123.95 40.95C123.88 41.06 123.82 41.17 123.74 41.27L123.51 41.57C123.43 41.66 123.33 41.75 123.24 41.84C123.15 41.94 123.05 42.01 122.95 42.09C122.86 42.18 122.74 42.24 122.64 42.32C122.54 42.39 122.42 42.45 122.31 42.51C122.2 42.57 122.08 42.62 121.96 42.68C121.84 42.73 121.72 42.77 121.6 42.81C121.48 42.85 121.35 42.88 121.23 42.91C121.47 42.82 121.7 42.71 121.91 42.59C122.01 42.52 122.12 42.46 122.22 42.39C122.32 42.31 122.42 42.25 122.51 42.17C122.6 42.09 122.7 42.01 122.78 41.92C122.86 41.84 122.95 41.76 123.02 41.66C123.09 41.57 123.17 41.48 123.24 41.38L123.43 41.09C123.49 40.99 123.53 40.88 123.59 40.78C123.61 40.73 123.64 40.68 123.66 40.63L123.72 40.46C123.75 40.36 123.8 40.25 123.83 40.14L123.91 39.81C123.92 39.75 123.94 39.7 123.94 39.64L123.96 39.47L124 39.13C124.01 39.02 124.01 38.9 124.01 38.79L124.01 38.45L124.59 38.6C124.53 38.69 124.49 38.74 124.44 38.8C124.39 38.86 124.34 38.91 124.28 38.97C124.18 39.08 124.07 39.18 123.95 39.27C123.83 39.37 123.71 39.46 123.59 39.54C123.46 39.63 123.33 39.71 123.2 39.78C123.07 39.85 122.93 39.93 122.79 39.99C122.66 40.06 122.52 40.11 122.38 40.17C122.23 40.23 122.09 40.27 121.94 40.32C121.87 40.34 121.8 40.36 121.72 40.38L121.5 40.44L120.04 40.85L121.13 39.79C121.18 39.74 121.26 39.66 121.32 39.59C121.38 39.52 121.45 39.44 121.51 39.36C121.57 39.28 121.62 39.2 121.68 39.12L121.84 38.87L121.99 38.61L122.11 38.35C122.15 38.26 122.18 38.16 122.22 38.07C122.26 37.98 122.28 37.89 122.31 37.8C122.33 37.7 122.36 37.61 122.38 37.52C122.39 37.42 122.42 37.33 122.43 37.24L122.46 36.95C122.47 36.86 122.47 36.76 122.47 36.67C122.47 36.57 122.48 36.48 122.46 36.38L122.43 36.1C122.43 36 122.4 35.91 122.38 35.82L122.32 35.54L123.24 35.6C123.17 35.73 123.12 35.84 123.05 35.96C122.99 36.07 122.93 36.19 122.86 36.3C122.79 36.41 122.72 36.51 122.65 36.62L122.43 36.94L122.19 37.25L121.94 37.55C121.85 37.65 121.76 37.74 121.67 37.84C121.58 37.94 121.49 38.03 121.39 38.12C121.29 38.21 121.2 38.3 121.1 38.38L120.79 38.64L120.47 38.88C120.37 38.96 120.25 39.03 120.14 39.1C120.03 39.17 119.91 39.25 119.8 39.32L119.44 39.51C119.32 39.58 119.2 39.63 119.07 39.68L118.7 39.84L116.61 40.73L118.18 39.16C118.2 39.14 118.25 39.09 118.28 39.05C118.31 39.01 118.35 38.97 118.38 38.92C118.41 38.88 118.44 38.83 118.47 38.78C118.5 38.73 118.53 38.69 118.56 38.64C118.59 38.59 118.62 38.54 118.64 38.49C118.66 38.44 118.69 38.39 118.71 38.34C118.75 38.23 118.79 38.13 118.82 38.02C118.84 37.97 118.85 37.92 118.87 37.86C118.88 37.81 118.9 37.75 118.9 37.7L118.93 37.53C118.94 37.48 118.94 37.42 118.94 37.37C118.95 37.31 118.95 37.25 118.95 37.2L118.95 37.03C118.95 36.97 118.94 36.92 118.93 36.86L118.92 36.69L119.64 36.86C119.51 37.01 119.38 37.15 119.25 37.29C119.11 37.43 118.98 37.57 118.84 37.7C118.7 37.83 118.56 37.96 118.42 38.1L117.99 38.48L117.55 38.85L117.09 39.2C116.94 39.32 116.78 39.43 116.62 39.54C116.47 39.66 116.31 39.76 116.15 39.87C115.98 39.98 115.83 40.09 115.66 40.18L115.16 40.48L114.65 40.76L114.4 40.9L114.14 41.02L113.61 41.27L113.07 41.49C112.98 41.52 112.88 41.56 112.79 41.59L112.52 41.68L111.96 41.86Z" />
				</g>
			</g>
			<g id="Layer">
				<g id="Layer">
					<path id="Layer" class="shp8" d="M117.72 79.27L120 82.03C120 82.03 120.48 84.28 119.42 84.3C118.36 84.32 118.93 82.74 118.52 82.65C118.11 82.56 118.36 84.32 117.53 84.28C116.71 84.24 117.14 83.01 116.89 83.08C116.64 83.15 117.05 85.9 115.87 85.73C114.69 85.56 115.43 83.36 115.2 83.13C114.96 82.9 114.77 84.22 114.21 83.87C113.65 83.52 113.95 82.5 113.95 82.5L117.72 79.27Z" />
					<path id="Layer" class="shp25" d="M114.69 83.18C114.73 83.19 114.73 83.44 114.56 83.55C114.39 83.66 114.12 83.55 114.12 83.51C114.12 83.48 114.29 83.52 114.46 83.42C114.62 83.32 114.66 83.17 114.69 83.18Z" />
					<path id="Layer" class="shp26" d="M116.46 84.79C116.51 84.81 116.52 85.16 116.28 85.32C116.02 85.48 115.63 85.32 115.64 85.27C115.64 85.23 115.88 85.28 116.12 85.14C116.37 84.99 116.42 84.77 116.46 84.79Z" />
					<path id="Layer" class="shp27" d="M118.03 83.29C118.08 83.31 118.08 83.67 117.84 83.82C117.58 83.99 117.2 83.82 117.2 83.78C117.2 83.74 117.44 83.79 117.69 83.64C117.93 83.5 117.98 83.28 118.03 83.29Z" />
					<path id="Layer" class="shp28" d="M119.82 83.39C119.87 83.41 119.88 83.76 119.64 83.92C119.38 84.08 118.99 83.92 118.99 83.87C119 83.83 119.23 83.88 119.48 83.74C119.73 83.59 119.78 83.37 119.82 83.39Z" />
					<path id="Layer" class="shp8" d="M115.91 87C115.6 87 115.34 86.76 115.34 86.46C115.34 86.17 115.6 85.93 115.91 85.93C116.23 85.93 116.49 86.17 116.49 86.46C116.49 86.76 116.23 87 115.91 87Z" />
					<path id="Layer" class="shp29" d="M116.28 86.32C116.32 86.33 116.32 86.63 116.12 86.75C115.91 86.88 115.6 86.75 115.6 86.71C115.6 86.68 115.8 86.72 116 86.6C116.2 86.49 116.24 86.31 116.28 86.32Z" />
				</g>
				<path id="Layer" class="shp30" d="M111.28 84.92C110.62 84.37 110.41 83.87 110.35 83.74C110.26 83.49 110.21 83.27 110.19 83.12C110.38 82.96 110.62 82.79 110.89 82.65C111.91 82.11 112.94 82.11 113.48 82.15C113.71 82.05 113.95 82.26 113.86 82.48C113.71 82.83 113.57 83.26 113.51 83.77C113.43 84.46 113.52 85.05 113.63 85.47C113.67 85.66 113.52 85.82 113.32 85.8C112.8 85.73 112 85.52 111.28 84.92Z" />
				<path id="Layer" class="shp30" d="M120.77 85.8C120.58 85.82 120.42 85.66 120.46 85.47C120.57 85.05 120.66 84.46 120.58 83.77C120.52 83.26 120.38 82.83 120.24 82.48C120.14 82.26 120.38 82.05 120.61 82.15C121.15 82.11 122.18 82.11 123.2 82.65C123.47 82.79 123.71 82.96 123.9 83.12C123.88 83.27 123.83 83.49 123.74 83.74C123.68 83.87 123.47 84.37 122.81 84.92C122.09 85.52 121.29 85.73 120.77 85.8Z" />
				<g id="Layer">
					<path id="Layer" class="shp4" d="M136.04 73.69C130.78 76.97 123.55 76.28 117.09 70.85C116.72 70.55 116.49 70.15 116.28 69.78C116.13 70.58 115.67 71.27 115.11 71.99C111.33 76.89 102.59 77.39 98.02 74.44C93.46 71.5 91.97 65.64 95.04 61.34C97.02 58.57 101.25 52.77 109.89 58.78C112.49 60.6 114.25 61.28 115.5 64.24C116.19 60.28 124.76 54.22 131.05 54.45C136.03 54.62 135.98 57.16 138.24 60.32C141.74 65.23 139.78 71.36 136.04 73.69Z" />
					<g id="Layer" style="opacity: 0.302">
						<path id="Layer" class="shp31" d="M113.75 42.4C117.79 42.4 121.07 44.79 121.07 47.75C121.07 50.71 117.79 53.11 113.75 53.11C109.71 53.11 106.44 50.71 106.44 47.75C106.44 44.79 109.71 42.4 113.75 42.4Z" />
					</g>
					<g id="Layer" style="opacity: 0.302">
						<path id="Layer" class="shp31" d="M125.41 45.51C127.11 45.51 128.49 46.51 128.49 47.75C128.49 49 127.11 50 125.41 50C123.72 50 122.34 49 122.34 47.75C122.34 46.51 123.72 45.5 125.41 45.51Z" />
					</g>
					<g id="Layer">
						<g id="Layer" style="opacity: 0.302">
							<path id="Layer" class="shp31" d="M107.6 74.92C111.64 74.92 114.92 75.87 114.92 77.05C114.92 78.23 111.64 79.19 107.6 79.19C103.56 79.19 100.29 78.23 100.29 77.05C100.29 75.87 103.56 74.92 107.6 74.92Z" />
						</g>
						<g id="Layer" style="opacity: 0.302">
							<path id="Layer" class="shp31" d="M125.18 74.87C129.23 74.87 132.5 75.83 132.5 77.01C132.5 78.19 129.23 79.14 125.18 79.14C121.14 79.14 117.87 78.19 117.87 77.01C117.87 75.83 121.14 74.87 125.18 74.87Z" />
						</g>
						<g id="Layer" style="opacity: 0.6">
							<path id="Layer" class="shp31" d="M108.26 75.61C109.96 75.61 111.33 76.18 111.33 76.89C111.33 77.59 109.95 78.17 108.26 78.17C106.56 78.17 105.19 77.59 105.19 76.89C105.19 76.18 106.56 75.61 108.26 75.61Z" />
						</g>
						<g id="Layer">
							<g id="Layer">
								<path id="Layer" class="shp3" d="M117.96 76.28C117.96 76.28 117.95 76.48 117.93 76.82C117.92 77.16 117.89 77.64 117.9 78.21C117.9 78.78 117.94 78.73 118.11 79.38C118.21 79.7 118.32 80.03 118.5 80.32C118.67 80.63 118.91 80.9 119.17 81.16C119.37 81.35 119.67 81.49 120.45 81.67C121.6 81.94 121.75 81.78 122.44 81.98C122.63 82.04 123.44 82.29 124.17 82.98C124.84 83.62 125.11 84.31 125.23 84.7C124.87 84.33 124.33 83.83 123.57 83.33C123.05 83 122.79 82.82 122.39 82.68C121.39 82.33 121.02 82.67 119.73 82.33C119.38 82.24 118.97 82.13 118.53 81.84C118.04 81.52 117.77 81.14 117.56 80.87C117.27 80.52 117.08 80.12 116.91 79.74C116.6 78.97 116.47 78.93 116.39 78.32C116.31 77.7 116.27 77.19 116.25 76.84C116.22 76.49 116.21 76.29 116.21 76.29L117.96 76.28Z" />
							</g>
						</g>
						<g id="Layer">
							<g id="Layer">
								<path id="Layer" class="shp3" d="M117.9 76.29C117.9 76.29 117.88 76.49 117.86 76.84C117.83 77.19 117.8 77.7 117.71 78.32C117.63 78.93 117.5 78.97 117.19 79.74C117.02 80.12 116.83 80.52 116.55 80.87C116.34 81.14 116.06 81.52 115.58 81.84C115.13 82.13 114.72 82.24 114.37 82.33C113.09 82.67 112.72 82.33 111.71 82.68C111.31 82.82 111.05 83 110.53 83.33C109.78 83.83 109.23 84.33 108.87 84.7C108.99 84.31 109.27 83.62 109.93 82.98C110.67 82.29 111.48 82.04 111.66 81.98C112.36 81.78 112.5 81.94 113.66 81.67C114.43 81.49 114.74 81.35 114.94 81.16C115.2 80.9 115.44 80.63 115.6 80.32C115.79 80.03 115.9 79.7 115.99 79.38C116.17 78.73 116.2 78.78 116.21 78.21C116.21 77.64 116.19 77.16 116.18 76.82C116.16 76.48 116.14 76.28 116.14 76.28L117.9 76.29Z" />
							</g>
						</g>
					</g>
					<g id="Layer">
						<g id="Layer">
							<g id="Layer">
								<g id="Layer">
									<g id="Layer">
										<g id="Layer">
											<g id="Layer">
												<g id="Layer">
													<path id="Layer" class="shp1" d="M119.13 65.1C119.26 60.35 123.52 56.58 128.63 56.7C133.74 56.81 137.8 60.76 137.68 65.51C137.55 70.25 133.29 74.02 128.18 73.91C123.07 73.79 119.01 69.84 119.13 65.1Z" />
													<g id="Layer">
														<path id="Layer" fillRule="evenodd" class="shp3" d="M128.16 74.16C128.08 74.16 128.01 74.16 127.93 74.16C125.32 74.1 122.89 73.1 121.09 71.34C119.28 69.58 118.32 67.28 118.39 64.87C118.45 62.48 119.5 60.25 121.34 58.59C123.23 56.87 125.74 55.95 128.4 56.01C133.79 56.13 138.07 60.3 137.94 65.3C137.88 67.68 136.83 69.91 134.98 71.58C133.14 73.24 130.72 74.16 128.16 74.16ZM128.16 56.94C123.44 56.94 119.51 60.51 119.39 64.89C119.34 67.06 120.2 69.12 121.82 70.7C123.43 72.27 125.61 73.17 127.95 73.22C132.77 73.33 136.81 69.72 136.93 65.28C137.04 60.79 133.2 57.05 128.37 56.94C128.3 56.94 128.23 56.94 128.16 56.94Z" />
													</g>
													<g id="Layer">
														<path id="SVGID_10_" class="shp32" d="M128.37 56.87C133.26 56.98 137.12 60.74 137.01 65.28C136.89 69.81 132.83 73.4 127.95 73.29C123.06 73.18 119.2 69.42 119.31 64.89C119.43 60.35 123.49 56.76 128.37 56.87Z" />
													</g>
													<g id="Layer">
														<g id="Layer">
															<path id="Layer" class="shp3" d="M131.93 64.66C132.11 66.44 130.7 68.03 128.77 68.19C126.85 68.36 125.14 67.04 124.96 65.26C124.79 63.47 126.2 61.89 128.13 61.72C130.05 61.55 131.76 62.87 131.93 64.66Z" />
														</g>
														<path id="Layer" class="shp33" d="M128.19 62.74C130.03 62.78 131.49 64.2 131.45 65.91C131.41 67.63 129.87 68.98 128.03 68.94C126.18 68.9 124.72 67.48 124.76 65.76C124.81 64.05 126.34 62.69 128.19 62.74Z" />
														<g id="Layer">
															<path id="Layer" class="shp1" d="M129.57 61.6C130.07 61.45 130.6 61.68 130.76 62.12C130.92 62.56 130.65 63.04 130.16 63.2C129.67 63.35 129.13 63.12 128.97 62.68C128.81 62.25 129.08 61.76 129.57 61.6Z" />
															<path id="Layer" class="shp1" d="M128.87 63.21C129.1 63.14 129.35 63.24 129.42 63.45C129.5 63.65 129.37 63.87 129.14 63.95C128.91 64.02 128.67 63.91 128.6 63.71C128.52 63.51 128.64 63.28 128.87 63.21Z" />
														</g>
													</g>
												</g>
											</g>
										</g>
									</g>
									<g id="Layer">
										<path id="Layer" class="shp34" d="M129.01 63.46C123.97 65.62 122.19 67.02 119.61 68.41C119.58 68.09 118.88 66.03 118.89 65.7C119.01 60.95 123.27 57.19 128.38 57.3C133.49 57.41 137.55 61.37 137.43 66.11C137.42 66.44 137.39 66.76 137.35 67.08C136.47 64.42 134.22 61.22 129.01 63.46Z" />
										<path id="Layer" class="shp4" d="M127.66 61.74C122.58 63.83 121.51 64.44 118.92 65.82C118.89 65.51 118.88 65.18 118.89 64.86C119.01 60.11 123.27 56.34 128.38 56.46C133.49 56.57 137.55 60.52 137.43 65.27C137.42 65.6 137.39 65.92 137.35 66.24C136.47 63.58 134.23 59.04 127.66 61.74Z" />
										<path id="Layer" class="shp4" d="M127.66 61.74C122.58 63.83 121.51 64.44 118.92 65.82C118.89 65.51 118.88 65.18 118.89 64.86C119.01 60.11 123.27 56.34 128.38 56.46C133.49 56.57 137.55 60.52 137.43 65.27C137.42 65.6 137.39 65.92 137.35 66.24C136.47 63.58 134.23 59.04 127.66 61.74Z" />
										<path id="Layer" class="shp4" d="M131.43 58.43C133.34 59.06 134.98 60.23 136.13 61.74C134.83 59.06 132 57.15 128.66 56.97C129.71 57.26 130.65 57.76 131.43 58.43Z" />
									</g>
								</g>
								<g id="Layer">
									<path id="Layer" class="shp1" d="M127.15 69.46C131.11 69.54 134.79 69.73 137.1 67.46C135.81 70.95 132.14 73.44 127.9 73.36C124.4 73.29 121.4 71.48 119.83 68.88C121.87 70.2 124.33 69.4 127.15 69.46Z" />
									<path id="Layer" class="shp4" d="M127.15 69.99C131.03 70.07 135.84 69.82 136.96 67.79C135.7 71.28 132.1 73.76 127.94 73.67C124.51 73.59 121.56 71.79 120.02 69.18C122.02 70.5 124.09 69.93 127.15 69.99Z" />
									<path id="Layer" class="shp4" d="M126.69 72.86C128.34 72.66 129.55 72.11 129.89 71.86C132.01 71.55 134.77 70.45 135.61 69.46C134.14 71.61 131.64 73.04 128.82 73.23C128.53 73.25 128.24 73.26 127.95 73.25C126.98 73.23 126.03 73.05 125.14 72.75C125.64 72.86 126.16 72.93 126.69 72.86Z" />
								</g>
							</g>
						</g>
					</g>
					<g id="Layer">
						<g id="Layer">
							<g id="Layer">
								<path id="Layer" class="shp3" d="M118.33 55.17C119.26 54.44 120.55 55.07 121.6 54.47C122.65 53.86 124.23 52.48 125.21 51.98C126.54 51.31 127.05 51.23 128.24 51.06C129.43 50.9 130.65 50.85 131.81 51.05C130.63 51.11 129.51 51.4 128.45 51.79C127.39 52.18 126.96 52.52 126.03 53.11C125.11 53.7 124.29 54.8 123.5 55.52C122.72 56.26 120.67 57.26 120.67 57.26C119.68 57.69 119.11 58.08 118.38 57.58C117.65 57.08 117.5 56.13 118.04 55.45C118.11 55.36 118.2 55.27 118.29 55.2L118.33 55.17Z" />
							</g>
						</g>
					</g>
					<g id="Layer">
						<g id="Layer">
							<g id="Layer">
								<g id="Layer">
									<g id="Layer">
										<g id="Layer">
											<g id="Layer">
												<g id="Layer">
													<path id="Layer" class="shp1" d="M104.25 74.95C99.14 75.06 94.88 71.29 94.76 66.55C94.64 61.8 98.7 57.85 103.81 57.73C108.92 57.62 113.18 61.39 113.3 66.13C113.42 70.88 109.36 74.83 104.25 74.95Z" />
													<g id="Layer">
														<path id="Layer" fillRule="evenodd" class="shp3" d="M97.45 72.61C95.61 70.95 94.56 68.72 94.5 66.34C94.37 61.33 98.65 57.16 104.04 57.04C106.69 56.98 109.2 57.91 111.1 59.62C112.94 61.29 113.99 63.52 114.05 65.9C114.11 68.32 113.15 70.62 111.35 72.38C109.55 74.13 107.12 75.13 104.51 75.19C104.43 75.19 104.35 75.19 104.27 75.19C101.71 75.2 99.29 74.28 97.45 72.61ZM104.07 57.98C99.23 58.09 95.39 61.83 95.51 66.31C95.62 70.76 99.67 74.37 104.49 74.26C106.82 74.21 109 73.31 110.62 71.73C112.24 70.16 113.1 68.09 113.04 65.92C112.93 61.54 109 57.98 104.28 57.98C104.21 57.98 104.14 57.98 104.07 57.98Z" />
													</g>
													<g id="Layer">
														<path id="SVGID_13_" class="shp32" d="M113.12 65.92C113.24 70.46 109.38 74.22 104.49 74.33C99.6 74.44 95.55 70.85 95.43 66.31C95.31 61.78 99.18 58.01 104.06 57.9C108.95 57.8 113.01 61.38 113.12 65.92Z" />
													</g>
													<g id="Layer">
														<g id="Layer">
															<path id="Layer" class="shp3" d="M104.31 62.76C106.24 62.92 107.65 64.5 107.47 66.29C107.29 68.08 105.59 69.39 103.66 69.23C101.74 69.06 100.32 67.48 100.5 65.69C100.68 63.91 102.39 62.59 104.31 62.76Z" />
														</g>
														<path id="Layer" class="shp35" d="M107.67 66.8C107.72 68.51 106.26 69.94 104.41 69.98C102.56 70.02 101.03 68.66 100.99 66.95C100.94 65.23 102.4 63.81 104.25 63.77C106.1 63.73 107.63 65.09 107.67 66.8Z" />
														<g id="Layer">
															<path id="Layer" class="shp1" d="M103.46 63.72C103.3 64.16 102.77 64.39 102.28 64.23C101.78 64.08 101.51 63.59 101.68 63.15C101.84 62.71 102.37 62.48 102.86 62.64C103.36 62.8 103.63 63.28 103.46 63.72Z" />
															<path id="Layer" class="shp1" d="M103.84 64.75C103.77 64.95 103.52 65.06 103.29 64.98C103.07 64.91 102.94 64.69 103.01 64.48C103.09 64.28 103.34 64.17 103.56 64.25C103.79 64.32 103.92 64.54 103.84 64.75Z" />
														</g>
													</g>
												</g>
											</g>
										</g>
									</g>
									<g id="Layer">
										<path id="Layer" class="shp34" d="M95.09 68.12C95.04 67.8 95.01 67.48 95 67.15C94.88 62.4 98.94 58.45 104.05 58.34C109.16 58.22 113.42 61.99 113.55 66.74C113.55 67.06 112.86 69.13 112.83 69.44C110.24 68.05 108.47 66.66 103.43 64.5C98.22 62.26 95.97 65.46 95.09 68.12Z" />
										<path id="Layer" class="shp4" d="M95.09 67.27C95.04 66.96 95.01 66.63 95.01 66.31C94.88 61.56 98.94 57.61 104.05 57.49C109.17 57.38 113.43 61.15 113.55 65.89C113.56 66.22 113.54 66.54 113.51 66.86C110.93 65.47 109.86 64.87 104.78 62.78C98.2 60.08 95.97 64.61 95.09 67.27Z" />
										<path id="Layer" class="shp4" d="M95.09 67.27C95.04 66.96 95.01 66.63 95.01 66.31C94.88 61.56 98.94 57.61 104.05 57.49C109.17 57.38 113.43 61.15 113.55 65.89C113.56 66.22 113.54 66.54 113.51 66.86C110.93 65.47 109.86 64.87 104.78 62.78C98.2 60.08 95.97 64.61 95.09 67.27Z" />
										<path id="Layer" class="shp4" d="M103.77 58.01C100.43 58.19 97.61 60.1 96.31 62.78C97.46 61.27 99.09 60.1 101 59.46C101.78 58.8 102.73 58.3 103.77 58.01Z" />
									</g>
								</g>
								<g id="Layer">
									<path id="Layer" class="shp1" d="M112.6 69.91C111.04 72.52 108.03 74.32 104.54 74.39C100.3 74.48 96.63 71.99 95.34 68.5C97.65 70.77 101.33 70.58 105.28 70.5C108.11 70.44 110.56 71.24 112.6 69.91Z" />
									<path id="Layer" class="shp4" d="M112.41 70.22C110.88 72.83 107.92 74.63 104.5 74.71C100.33 74.8 96.74 72.32 95.48 68.83C96.6 70.86 101.4 71.11 105.28 71.03C108.34 70.96 110.41 71.54 112.41 70.22Z" />
									<path id="Layer" class="shp4" d="M107.29 73.79C106.4 74.09 105.46 74.26 104.49 74.29C104.2 74.29 103.9 74.29 103.61 74.27C100.79 74.07 98.3 72.65 96.83 70.5C97.66 71.48 100.43 72.58 102.55 72.89C102.88 73.15 104.1 73.69 105.75 73.9C106.28 73.96 106.8 73.89 107.29 73.79Z" />
								</g>
							</g>
						</g>
					</g>
					<g id="Layer">
						<g id="Layer">
							<g id="Layer">
								<path id="Layer" class="shp3" d="M114.15 56.24C114.24 56.31 114.33 56.4 114.4 56.49C114.94 57.16 114.79 58.12 114.06 58.62C113.33 59.12 112.76 58.73 111.76 58.3C111.76 58.3 109.72 57.3 108.93 56.56C108.15 55.83 107.33 54.74 106.4 54.15C105.48 53.56 105.05 53.22 103.99 52.83C102.92 52.44 101.8 52.14 100.63 52.09C101.79 51.89 103 51.94 104.19 52.1C105.39 52.26 105.9 52.34 107.22 53.02C108.2 53.51 109.78 54.9 110.84 55.51C111.88 56.11 113.18 55.48 114.11 56.21L114.15 56.24Z" />
							</g>
						</g>
					</g>
					<g id="Layer">
						<path id="Layer" class="shp4" d="M148.45 80.43C148.46 80.43 148.46 80.43 148.46 80.43L148.45 80.43Z" />
					</g>
				</g>
			</g>
			<path id="Layer" class="shp3" d="M121.37 75.71C119.61 76.86 118.58 77.1 117.14 77.1C115.69 77.1 114.63 76.86 112.9 75.71C112.9 74.37 114.8 73.29 117.14 73.29C119.47 73.29 121.37 74.37 121.37 75.71Z" />
			<path id="Layer" class="shp36" d="M119.27 73.8C118.8 73.7 118.28 73.64 117.74 73.64C116.23 73.64 114.9 74.1 114.15 74.78C114.13 74.82 114.1 74.85 114.06 74.87C114.02 74.89 113.98 74.9 113.93 74.9C113.79 74.9 113.68 74.8 113.68 74.67C113.68 74.63 113.69 74.59 113.71 74.56C113.73 74.52 113.77 74.48 113.81 74.46C114.52 73.85 115.74 73.44 117.12 73.44C117.91 73.44 118.65 73.57 119.27 73.8Z" />
		</g>
	</g>
</svg>