<?xml version="1.0" encoding="utf-8"?>
<!-- Generator: Adobe Illustrator 25.3.1, SVG Export Plug-In . SVG Version: 6.00 Build 0)  -->
<svg version="1.1" id="Layer_1" xmlns:v="https://vecta.io/nano"
	 xmlns="http://www.w3.org/2000/svg" xmlns:xlink="http://www.w3.org/1999/xlink" x="0px" y="0px" viewBox="0 0 186 171"
	 style="enable-background:new 0 0 186 171;" xml:space="preserve">
<style type="text/css">
	.st0{fill:#2A6FF6;}
	.st1{fillRule:evenodd;clipRule:evenodd;fill:#FFFFFF;}
	.st2{opacity:0.1;fill:none;stroke:#191326;stroke-width:3;enable-background:new    ;}
	.st3{fill:#F5AC37;}
	.st4{fill:#FEFEFD;}
</style>
<g>
	<path class="st0" d="M172.4,95c-1-7.8-6.2-14.9-13.3-18.2c-8.6-4-18.7-2.6-27.8-5.3c-11.8-3.5-20.4-13.3-30.9-19.8
		C88,44.1,73.2,41.4,58.8,38.8C49.2,37.1,39.1,35.5,30,39c-12.3,4.9-19.5,20-15.5,32.6c6.8,21.4,37,27.1,46.2,47.6
		c4.8,10.6,3.2,24.1,10.7,32.9c9,10.5,25.5,8.7,38.9,5.5c10.2-2.5,20.3-5.3,30.4-8.2c8.2-2.3,16.8-4.8,22.8-10.8
		c7.5-7.4,4.4-13.1,4.3-21.7C167.9,109.5,173.5,103.3,172.4,95z"/>
</g>
<path class="st0" d="M70.2,68.8c16,0,29-13,29-29s-13-29-29-29s-29,13-29,29C41.2,55.8,54.2,68.8,70.2,68.8z"/>
<path class="st1" d="M72.4,34.2l6.5-3.8V38L72.4,34.2z M78.9,50.5l-8.7,5.1l-8.7-5.1v-8.9l8.7,5.1l8.7-5.1V50.5z M61.5,30.4l6.5,3.8
	L61.5,38V30.4z M71.3,36l6.5,3.8l-6.5,3.8V36z M69.1,43.6l-6.5-3.8l6.5-3.8V43.6z M77.8,28.6l-7.6,4.3l-7.6-4.3l7.6-4.5L77.8,28.6z
	 M59.3,27.8v23.7l10.9,6.2l10.9-6.2V27.8l-10.9-6.2L59.3,27.8z"/>
<circle class="st2" cx="70.2" cy="39.8" r="27.5"/>
<path class="st3" d="M120.5,127c24,0,43.3-19.3,43.3-43.3s-19.3-43.3-43.3-43.3S77.2,59.7,77.2,83.7S96.5,127,120.5,127z"/>
<circle class="st2" cx="120.5" cy="83.7" r="42.1"/>
<g id="Layer_x0020_1">
	<path class="st4" d="M121.1,86.6h15.3c0.3,0,0.5,0,0.5-0.4c0.1-1.6,0.1-3.1,0-4.7c0-0.3-0.2-0.4-0.5-0.4H106
		c-0.4,0-0.5,0.1-0.5,0.5V86c0,0.6,0,0.6,0.6,0.6H121.1L121.1,86.6z M135.2,75.8c0-0.1,0-0.2,0-0.4c-0.3-0.6-0.6-1.1-0.9-1.6
		c-0.5-0.9-1.2-1.6-1.9-2.3c-0.3-0.4-0.7-0.8-1.2-1.1c-2.2-1.9-4.8-3.2-7.6-3.8c-1.4-0.3-2.8-0.5-4.3-0.5h-13.5
		c-0.4,0-0.4,0.2-0.4,0.5v8.9c0,0.4,0,0.5,0.5,0.5h29.1c0,0,0.3-0.1,0.3-0.2H135.2L135.2,75.8z M135.2,91.8c-0.4,0-0.9,0-1.3,0H106
		c-0.4,0-0.5,0-0.5,0.5v8.7c0,0.4,0,0.5,0.5,0.5h12.9c0.6,0,1.2,0,1.8-0.1c1.9-0.1,3.7-0.5,5.5-1.2c0.6-0.2,1.3-0.5,1.8-0.9h0.2
		c3-1.6,5.5-4,7-7.1C135.3,92.3,135.4,91.9,135.2,91.8L135.2,91.8z M100.4,106.1v-0.2v-5.9v-2v-5.9c0-0.3,0-0.4-0.4-0.4h-5.5
		c-0.3,0-0.4,0-0.4-0.4v-4.8h5.8c0.3,0,0.5,0,0.5-0.4v-4.7c0-0.3,0-0.4-0.4-0.4h-5.5c-0.3,0-0.4,0-0.4-0.4v-4.4c0-0.3,0-0.4,0.4-0.4
		h5.4c0.4,0,0.5,0,0.5-0.5V61.8c0-0.4,0-0.5,0.5-0.5h18.9c1.4,0.1,2.7,0.2,4.1,0.5c2.8,0.5,5.4,1.5,7.9,2.9c1.6,1,3.1,2.1,4.4,3.4
		c1,1,1.9,2.2,2.7,3.4c0.8,1.2,1.5,2.5,2,3.9c0.1,0.4,0.4,0.6,0.8,0.5h4.5c0.6,0,0.6,0,0.6,0.6v4.1c0,0.4-0.2,0.5-0.6,0.5h-3.5
		c-0.4,0-0.5,0-0.4,0.5c0.1,1.5,0.1,3.1,0,4.6c0,0.4,0,0.5,0.5,0.5h4c0.2,0.2,0,0.5,0,0.7c0,0.3,0,0.6,0,0.9v3
		c0,0.4-0.1,0.6-0.5,0.6h-4.8c-0.3-0.1-0.7,0.1-0.7,0.5c-1.1,2.9-2.9,5.6-5.3,7.7c-0.9,0.8-1.8,1.5-2.7,2.2c-1,0.6-2,1.2-3,1.7
		c-1.9,0.9-3.9,1.5-5.9,1.9c-1.9,0.3-3.9,0.5-5.9,0.5L100.4,106.1L100.4,106.1L100.4,106.1z"/>
</g>
</svg>
