<?xml version="1.0" encoding="utf-8"?>
<!-- Generator: Adobe Illustrator 25.2.3, SVG Export Plug-In . SVG Version: 6.00 Build 0)  -->
<svg version="1.1" id="Layer_1" xmlns:v="https://vecta.io/nano"
	 xmlns="http://www.w3.org/2000/svg" xmlns:xlink="http://www.w3.org/1999/xlink" x="0px" y="0px" viewBox="0 0 186 171"
	 style="enable-background:new 0 0 186 171;" xml:space="preserve">
<style type="text/css">
	.st0{fill:#2A6FF6;}
	.st1{opacity:0.1;fill:none;stroke:#191326;stroke-width:3;enable-background:new    ;}
	.st2{fill:#2775CA;}
	.st3{opacity:0.16;}
	.st4{fill:#FFFFFF;}
</style>
<g>
	<path class="st0" d="M172.4,95c-1-7.8-6.2-14.9-13.3-18.2c-8.6-4-18.7-2.6-27.8-5.3c-11.8-3.5-20.4-13.3-30.9-19.8
		C88,44.1,73.2,41.4,58.8,38.8C49.2,37.1,39.1,35.5,30,39c-12.3,4.9-19.5,20-15.5,32.6c6.8,21.4,37,27.1,46.2,47.6
		c4.8,10.6,3.2,24.1,10.7,32.9c9,10.5,25.5,8.7,38.9,5.5c10.2-2.5,20.3-5.3,30.4-8.2c8.2-2.3,16.8-4.8,22.8-10.8
		c7.5-7.4,4.4-13.1,4.3-21.7C167.9,109.5,173.5,103.3,172.4,95z"/>
</g>
<circle class="st0" cx="70.2" cy="39.8" r="29"/>
<circle class="st1" cx="70.2" cy="39.8" r="27.5"/>
<path class="st2" d="M120.4,127.4c24.1,0,43.7-19.5,43.7-43.7S144.6,40,120.4,40S76.8,59.7,76.8,83.8S96.3,127.4,120.4,127.4z"/>
<g class="st3">
	<path d="M120.4,127.4c-11.6,0-22.5-4.5-30.7-12.7c-8.3-8.2-12.9-19.1-12.9-30.8S81.3,61.3,89.5,53s19.2-12.8,30.8-12.9l0,0h0.1
		c11.6,0,22.5,4.5,30.7,12.7C159.4,61,163.9,72,164,83.6s-4.5,22.6-12.7,30.9S132.1,127.3,120.4,127.4
		C120.5,127.4,120.4,127.4,120.4,127.4z M120.3,43.2c-10.8,0-21,4.3-28.7,12S79.8,73.1,79.8,83.9s4.3,21,12,28.7
		c7.7,7.6,17.8,11.8,28.6,11.8h0.1c10.8,0,21-4.3,28.7-12S161,94.6,161,83.8s-4.3-21-12-28.7C141.4,47.4,131.2,43.2,120.3,43.2
		L120.3,43.2L120.3,43.2z"/>
</g>
<g>
	<path class="st4" d="M132.4,90.2c0-6.4-3.8-8.5-11.5-9.5c-5.5-0.7-6.5-2.2-6.5-4.7s1.8-4.2,5.5-4.2c3.3,0,5.1,1.1,6,3.8
		c0.2,0.5,0.7,0.9,1.3,0.9h2.9c0.7,0,1.3-0.5,1.3-1.3V75c-0.7-4-4-7.1-8.2-7.5v-4.4c0-0.7-0.5-1.3-1.5-1.5H119
		c-0.7,0-1.3,0.5-1.5,1.5v4.2c-5.5,0.7-8.9,4.4-8.9,8.9c0,6,3.6,8.4,11.3,9.3c5.1,0.9,6.7,2,6.7,4.9s-2.5,4.9-6,4.9
		c-4.7,0-6.4-2-6.9-4.7c-0.2-0.7-0.7-1.1-1.3-1.1h-3.1c-0.7,0-1.3,0.5-1.3,1.3V91c0.7,4.5,3.6,7.8,9.6,8.7v4.4
		c0,0.7,0.5,1.3,1.5,1.5h2.7c0.7,0,1.3-0.5,1.5-1.5v-4.4C128.8,98.9,132.4,95.1,132.4,90.2L132.4,90.2z"/>
	<path class="st4" d="M111.2,109.3c-14.2-5.1-21.5-21-16.2-35c2.7-7.6,8.7-13.5,16.2-16.2c0.7-0.4,1.1-0.9,1.1-1.8v-2.5
		c0-0.7-0.4-1.3-1.1-1.5c-0.2,0-0.5,0-0.7,0.2C93.2,58,83.7,76.3,89.2,93.6c3.3,10.2,11.1,18,21.3,21.3c0.7,0.4,1.5,0,1.6-0.7
		c0.2-0.2,0.2-0.4,0.2-0.7V111C112.3,110.4,111.7,109.6,111.2,109.3z M130.4,52.5c-0.7-0.4-1.5,0-1.6,0.7c-0.2,0.2-0.2,0.4-0.2,0.7
		v2.5c0,0.7,0.5,1.5,1.1,1.8c14.2,5.1,21.5,20.9,16.2,34.9c-2.7,7.6-8.7,13.5-16.2,16.2c-0.7,0.4-1.1,0.9-1.1,1.8v2.5
		c0,0.7,0.4,1.3,1.1,1.5c0.2,0,0.5,0,0.7-0.2c17.3-5.5,26.7-23.8,21.3-41.1C148.5,63.6,140.4,55.8,130.4,52.5L130.4,52.5z"/>
</g>
<g>
	<path class="st4" d="M61.5,33.9c-4.1-0.1-8.3,0-12.4,0c-0.6,0-0.8,0.2-0.7,0.8c0.1,1.6,1.2,2.9,2.8,3.3h8.7v0.5h-7.3
		c0,0.1,0.1,0.1,0.1,0.2c0.4,1.8,1.4,2.9,3,3.5h4.2v0.5h-3c0,0,0,0.1,0.1,0.1c0.5,1.9,2,3,4,3.1c3.5,0.2,6.4-2.4,6.6-5.8
		C67.7,36.8,64.9,33.9,61.5,33.9z"/>
	<path class="st4" d="M91.3,33.9c-4.1,0-8.3-0.1-12.4,0c-3.5,0.1-6.3,2.9-6.1,6.1c0.2,3.5,3,5.9,6.6,5.8c2.1-0.1,3.5-1.2,4-3.1
		c0,0,0-0.1,0.1-0.1h-3v-0.4h4.2c1.6-0.5,2.6-1.6,3-3.5c0-0.1,0.1-0.1,0.1-0.2h-7.3V38h8.7c1.6-0.4,2.7-1.8,2.8-3.3
		C92.1,34.1,91.9,33.9,91.3,33.9z"/>
</g>
</svg>
