<?xml version="1.0" encoding="utf-8"?>
<!-- Generator: Adobe Illustrator 25.3.1, SVG Export Plug-In . SVG Version: 6.00 Build 0)  -->
<svg version="1.1" id="Layer_1" xmlns:v="https://vecta.io/nano"
	 xmlns="http://www.w3.org/2000/svg" xmlns:xlink="http://www.w3.org/1999/xlink" x="0px" y="0px" viewBox="0 0 186 171"
	 style="enable-background:new 0 0 186 171;" xml:space="preserve">
<style type="text/css">
	.st0{fill:#2A6FF6;}
	.st1{fillRule:evenodd;clipRule:evenodd;fill:#FFFFFF;}
	.st2{opacity:0.1;fill:none;stroke:#191326;stroke-width:3;enable-background:new    ;}
	.st3{fill:#FFFFFF;}
</style>
<g>
	<path class="st0" d="M172.4,95c-1-7.8-6.2-14.9-13.3-18.2c-8.6-4-18.7-2.6-27.8-5.3c-11.8-3.5-20.4-13.3-30.9-19.8
		C88,44.1,73.2,41.4,58.8,38.8C49.2,37.1,39.1,35.5,30,39c-12.3,4.9-19.5,20-15.5,32.6c6.8,21.4,37,27.1,46.2,47.6
		c4.8,10.6,3.2,24.1,10.7,32.9c9,10.5,25.5,8.7,38.9,5.5c10.2-2.5,20.3-5.3,30.4-8.2c8.2-2.3,16.8-4.8,22.8-10.8
		c7.5-7.4,4.4-13.1,4.3-21.7C167.9,109.5,173.5,103.3,172.4,95z"/>
</g>
<path class="st0" d="M70.2,68.8c16,0,29-13,29-29c0-16-13-29-29-29c-16,0-29,13-29,29C41.2,55.8,54.2,68.8,70.2,68.8z"/>
<path class="st1" d="M72.4,34.2l6.5-3.8V38L72.4,34.2z M78.9,50.5l-8.7,5.1l-8.7-5.1v-8.9l8.7,5.1l8.7-5.1V50.5z M61.5,30.4l6.5,3.8
	L61.5,38V30.4z M71.3,36l6.5,3.8l-6.5,3.8V36z M69.1,43.6l-6.5-3.8l6.5-3.8V43.6z M77.8,28.6l-7.6,4.3l-7.6-4.3l7.6-4.5L77.8,28.6z
	 M59.3,27.8v23.7l10.9,6.2l10.9-6.2V27.8l-10.9-6.2L59.3,27.8z"/>
<circle class="st2" cx="70.2" cy="39.8" r="27.5"/>
<g>
	<path class="st0" d="M120.5,127c23.9,0,43.3-19.4,43.3-43.3s-19.4-43.3-43.3-43.3S77.2,59.8,77.2,83.7S96.6,127,120.5,127z"/>
	<path class="st3" d="M106.4,76.2c-6.7-0.1-13.5,0-20.3,0c-1,0-1.2,0.4-1.2,1.2c0.1,2.5,2,4.6,4.6,5.4h14.3v0.8H91.9
		c0,0.1,0.1,0.1,0.1,0.3c0.7,2.9,2.3,4.8,5,5.6h6.8v0.8h-4.8c0,0,0,0.1,0.1,0.1c0.8,3.1,3.3,4.9,6.5,5c5.8,0.3,10.5-3.9,10.7-9.4
		C116.4,80.9,111.9,76.2,106.4,76.2z"/>
	<path class="st3" d="M155,76.2c-6.7,0-13.5-0.1-20.3,0c-5.6,0.1-10.2,4.7-9.9,9.9c0.3,5.6,5,9.7,10.7,9.4c3.3-0.1,5.7-2,6.5-5
		c0,0,0-0.1,0.1-0.1h-4.8v-0.8h6.9c2.7-0.8,4.2-2.7,5-5.6c0-0.1,0.1-0.1,0.1-0.3h-11.8v-0.8h14.3c2.6-0.7,4.5-2.9,4.6-5.4
		C156.2,76.5,155.9,76.2,155,76.2z"/>
</g>
<circle class="st2" cx="120.5" cy="83.7" r="42.1"/>
</svg>
