<?xml version="1.0" encoding="utf-8"?>
<!-- Generator: Adobe Illustrator 25.3.1, SVG Export Plug-In . SVG Version: 6.00 Build 0)  -->
<svg version="1.1" id="Layer_1" xmlns:v="https://vecta.io/nano"
	 xmlns="http://www.w3.org/2000/svg" xmlns:xlink="http://www.w3.org/1999/xlink" x="0px" y="0px" viewBox="0 0 186 171"
	 style="enable-background:new 0 0 186 171;" xml:space="preserve">
<style type="text/css">
	.st0{fill:#2A6FF6;}
	.st1{fill:#FFFFFF;}
	.st2{opacity:0.1;fill:none;stroke:#191326;stroke-width:3;enable-background:new    ;}
</style>
<g>
	<path class="st0" d="M171.5,95c-1-7.8-6.2-14.9-13.3-18.2c-8.6-4-18.7-2.6-27.8-5.3C118.6,68,110,58.2,99.5,51.7
		c-12.4-7.6-27.2-10.3-41.6-12.9c-9.6-1.7-19.7-3.3-28.8,0.2C16.8,43.9,9.6,59,13.6,71.6c6.8,21.4,37,27.1,46.2,47.6
		c4.8,10.6,3.2,24.1,10.7,32.9c9,10.5,25.5,8.7,38.9,5.5c10.2-2.5,20.3-5.3,30.4-8.2c8.2-2.3,16.8-4.8,22.8-10.8
		c7.5-7.4,4.4-13.1,4.3-21.7C167,109.5,172.6,103.3,171.5,95z"/>
</g>
<g>
	<path class="st0" d="M93.1,127c23.9,0,43.3-19.4,43.3-43.3S117,40.4,93.1,40.4S49.8,59.8,49.8,83.7S69.2,127,93.1,127z"/>
	<path class="st1" d="M79,76.2c-6.7-0.1-13.5,0-20.3,0c-1,0-1.2,0.4-1.2,1.2c0.1,2.5,2,4.6,4.6,5.4h14.3v0.8H64.5
		c0,0.1,0.1,0.1,0.1,0.3c0.7,2.9,2.3,4.8,5,5.6h6.8v0.8h-4.8c0,0,0,0.1,0.1,0.1c0.8,3.1,3.3,4.9,6.5,5c5.8,0.3,10.5-3.9,10.7-9.4
		C89,80.9,84.5,76.2,79,76.2z"/>
	<path class="st1" d="M127.5,76.2c-6.7,0-13.5-0.1-20.3,0c-5.6,0.1-10.2,4.7-9.9,9.9c0.3,5.6,5,9.7,10.7,9.4c3.3-0.1,5.7-2,6.5-5
		c0,0,0-0.1,0.1-0.1h-4.8v-0.8h6.9c2.7-0.8,4.2-2.7,5-5.6c0-0.1,0.1-0.1,0.1-0.3h-11.8v-0.8h14.3c2.6-0.7,4.5-2.9,4.6-5.4
		C128.8,76.5,128.5,76.2,127.5,76.2z"/>
</g>
<circle class="st2" cx="93.1" cy="83.7" r="42.1"/>
</svg>
