<svg version="1.2" baseProfile="tiny-ps" xmlns="http://www.w3.org/2000/svg" viewBox="0 0 186 171" width="186" height="171">
	<title>fwings-ftm-svg</title>
	<defs>
		<linearGradient id="grd1" gradientUnits="userSpaceOnUse"  x1="119.5" y1="129.992" x2="119.5" y2="39.008">
			<stop offset="0" stop-color="#4c4b49"  />
			<stop offset="1" stop-color="#adadad"  />
		</linearGradient>
		<linearGradient id="grd2" gradientUnits="userSpaceOnUse"  x1="119.5" y1="120.51" x2="119.5" y2="48.49">
			<stop offset="0" stop-color="#4c4b49"  />
			<stop offset="1" stop-color="#4c4b49"  />
		</linearGradient>
	</defs>
	<style>
		tspan { white-space:pre }
		.shp0 { fill: #2a6ff6 } 
		.shp1 { fill: #ffffff } 
		.shp2 { opacity: 0.102;fill: none;stroke: #191326;stroke-width: 3 } 
		.shp3 { fill: url(#grd1) } 
		.shp4 { fill: url(#grd2) } 
		.shp5 { fill: #ffeee9 } 
		.shp6 { fill: #cdc0c5 } 
	</style>
	<g id="Layer">
		<path id="Layer" class="shp0" d="M172.4 95C171.4 87.2 166.2 80.1 159.1 76.8C150.5 72.8 140.4 74.2 131.3 71.5C119.5 68 110.9 58.2 100.4 51.7C88 44.1 73.2 41.4 58.8 38.8C49.2 37.1 39.1 35.5 30 39C17.7 43.9 10.5 59 14.5 71.6C21.3 93 51.5 98.7 60.7 119.2C65.5 129.8 63.9 143.3 71.4 152.1C80.4 162.6 96.9 160.8 110.3 157.6C120.5 155.1 130.6 152.3 140.7 149.4C148.9 147.1 157.5 144.6 163.5 138.6C171 131.2 167.9 125.5 167.8 116.9C167.9 109.5 173.5 103.3 172.4 95Z" />
	</g>
	<path id="Layer" class="shp0" d="M70.2 68.8C86.2 68.8 99.2 55.8 99.2 39.8C99.2 23.8 86.2 10.8 70.2 10.8C54.2 10.8 41.2 23.8 41.2 39.8C41.2 55.8 54.2 68.8 70.2 68.8Z" />
	<path id="Layer" fillRule="evenodd" class="shp1" d="M70.2 21.6L81.1 27.8L81.1 51.5L70.2 57.7L59.3 51.5L59.3 27.8L70.2 21.6ZM78.9 41.6L70.2 46.7L61.5 41.6L61.5 50.5L70.2 55.6L78.9 50.5L78.9 41.6ZM61.5 38L68 34.2L61.5 30.4L61.5 38ZM71.3 43.6L77.8 39.8L71.3 36L71.3 43.6ZM69.1 36L62.6 39.8L69.1 43.6L69.1 36ZM70.2 24.1L62.6 28.6L70.2 32.9L77.8 28.6L70.2 24.1ZM78.9 38L78.9 30.4L72.4 34.2L78.9 38Z" />
	<path id="Layer" class="shp2" d="M70.2 67.3C54.99 67.3 42.7 55.01 42.7 39.8C42.7 24.59 54.99 12.3 70.2 12.3C85.41 12.3 97.7 24.59 97.7 39.8C97.7 55.01 85.41 67.3 70.2 67.3Z" />
	<g id="Layer">
		<path id="Layer" class="shp0" d="M120.5 127C144.4 127 163.8 107.6 163.8 83.7C163.8 59.8 144.4 40.4 120.5 40.4C96.6 40.4 77.2 59.8 77.2 83.7C77.2 107.6 96.6 127 120.5 127Z" />
		<path id="Layer" class="shp1" d="M106.4 76.2C99.7 76.1 92.9 76.2 86.1 76.2C85.1 76.2 84.9 76.6 84.9 77.4C85 79.9 86.9 82 89.5 82.8L103.8 82.8L103.8 83.6L91.9 83.6C91.9 83.7 92 83.7 92 83.9C92.7 86.8 94.3 88.7 97 89.5L103.8 89.5L103.8 90.3L99 90.3C99 90.3 99 90.4 99.1 90.4C99.9 93.5 102.4 95.3 105.6 95.4C111.4 95.7 116.1 91.5 116.3 86C116.4 80.9 111.9 76.2 106.4 76.2Z" />
		<path id="Layer" class="shp1" d="M155 76.2C148.3 76.2 141.5 76.1 134.7 76.2C129.1 76.3 124.5 80.9 124.8 86.1C125.1 91.7 129.8 95.8 135.5 95.5C138.8 95.4 141.2 93.5 142 90.5C142 90.5 142 90.4 142.1 90.4L137.3 90.4L137.3 89.6L144.2 89.6C146.9 88.8 148.4 86.9 149.2 84C149.2 83.9 149.3 83.9 149.3 83.7L137.5 83.7L137.5 82.9L151.8 82.9C154.4 82.2 156.3 80 156.4 77.5C156.2 76.5 155.9 76.2 155 76.2Z" />
	</g>
	<path id="Layer" class="shp2" d="M120.5 125.8C97.22 125.8 78.4 106.98 78.4 83.7C78.4 60.42 97.22 41.6 120.5 41.6C143.78 41.6 162.6 60.42 162.6 83.7C162.6 106.98 143.78 125.8 120.5 125.8Z" />
	<g id="OBJECTS">
		<path id="Layer" class="shp3" d="M150.96 116.67C133.56 134.46 105.44 134.46 88.04 116.67C70.64 98.88 70.64 70.12 88.04 52.33C105.44 34.54 133.56 34.54 150.96 52.33C168.36 70.12 168.36 98.88 150.96 116.67Z" />
		<path id="Layer" class="shp4" d="M144.4 109.96C130.63 124.04 108.37 124.04 94.6 109.96C80.82 95.88 80.82 73.12 94.6 59.04C108.37 44.96 130.63 44.96 144.4 59.04C158.18 73.12 158.18 95.88 144.4 109.96Z" />
		<path id="Layer" fillRule="evenodd" class="shp5" d="M141.17 74.4C141.25 74.78 141.31 75.16 141.37 75.54C141.42 75.92 141.46 76.31 141.49 76.7C141.52 77.08 141.54 77.47 141.54 77.85C141.54 78.24 141.53 78.63 141.51 79.01C141.5 79.14 141.49 79.27 141.48 79.39C140.62 90.24 130 97.91 130 97.91L132.03 105.42C132.26 106.27 132.17 107.18 131.77 107.96C131.36 108.74 130.69 109.34 129.88 109.63C129.06 109.91 128.17 109.88 127.38 109.52C126.59 109.16 125.97 108.51 125.63 107.7L124.01 103.77L123.58 106.17C123.4 107.2 122.87 108.12 122.09 108.79C121.31 109.46 120.32 109.82 119.31 109.82C118.29 109.82 117.31 109.46 116.52 108.79C115.74 108.12 115.22 107.2 115.04 106.17L114.61 103.77L112.98 107.7C112.68 108.44 112.13 109.05 111.44 109.42C110.75 109.8 109.95 109.92 109.18 109.76C108.41 109.6 107.72 109.17 107.22 108.55C106.73 107.93 106.46 107.16 106.46 106.35C106.46 106.28 106.46 106.2 106.46 106.12C106.47 106.04 106.48 105.96 106.49 105.89C106.5 105.81 106.51 105.73 106.53 105.65C106.54 105.58 106.56 105.5 106.58 105.42L108.58 98.04L108.62 97.91C108.62 97.91 102.59 93.55 99.25 86.77C99.24 86.76 99.24 86.76 99.24 86.76C98.19 84.62 97.4 82.24 97.16 79.67C97.14 79.45 97.12 79.23 97.11 79.02C97.09 78.59 97.08 78.16 97.09 77.73C97.09 77.33 97.11 76.93 97.15 76.54C97.18 76.14 97.22 75.75 97.28 75.36C97.34 74.96 97.42 74.57 97.5 74.19C97.59 73.8 97.69 73.41 97.8 73.03C97.88 72.75 97.97 72.47 98.06 72.2C98.15 71.92 98.24 71.64 98.34 71.37C98.44 71.09 98.55 70.82 98.66 70.55C98.76 70.28 98.88 70.01 99 69.75C99 69.74 99 69.73 99.01 69.72C99.28 68.97 103.8 56.98 119.31 56.98C135.08 56.98 139.1 68.54 139.23 68.9C139.23 68.9 139.23 68.9 139.23 68.9C139.23 68.9 139.23 68.9 139.23 68.9C139.23 68.91 139.23 68.91 139.23 68.91C139.23 68.91 139.23 68.91 139.23 68.91C139.39 69.24 139.55 69.57 139.7 69.91C139.85 70.25 139.99 70.59 140.12 70.93C140.25 71.28 140.38 71.62 140.5 71.97C140.61 72.32 140.72 72.68 140.82 73.03C140.96 73.49 141.07 73.95 141.17 74.4ZM112.92 79.01C112.76 78.78 112.59 78.55 112.41 78.32C112.23 78.1 112.05 77.88 111.85 77.67C111.66 77.45 111.46 77.25 111.26 77.05C111.05 76.85 110.84 76.66 110.62 76.48C107.59 73.98 103.48 75.74 102.51 79.01C102.45 79.24 102.4 79.46 102.36 79.69C102.33 79.92 102.31 80.16 102.3 80.39C102.3 80.62 102.31 80.85 102.34 81.09C102.37 81.32 102.41 81.55 102.46 81.77C102.48 81.83 102.49 81.9 102.51 81.97C104.22 88.72 111.16 90.92 114.45 90.69C116.6 90.54 116.29 83.84 112.92 79.01ZM119.86 90.48C119.79 90.41 119.7 90.35 119.6 90.32C119.51 90.28 119.41 90.26 119.31 90.26C119.2 90.26 119.1 90.28 119.01 90.32C118.91 90.35 118.82 90.41 118.75 90.48C117.61 91.52 115.2 93.95 115.97 95.17C116.97 96.75 119.3 94.61 119.3 94.61C119.3 94.61 121.64 96.75 122.64 95.17C123.41 93.95 121.01 91.52 119.86 90.48ZM136.13 81.77C136.19 81.55 136.23 81.32 136.25 81.09C136.28 80.86 136.29 80.62 136.29 80.39C136.28 80.16 136.26 79.92 136.23 79.7C136.19 79.47 136.14 79.24 136.08 79.01C135.11 75.75 130.99 73.99 127.97 76.48C127.75 76.67 127.54 76.86 127.33 77.05C127.12 77.25 126.93 77.46 126.73 77.67C126.54 77.88 126.35 78.1 126.18 78.32C126 78.55 125.83 78.78 125.66 79.01C122.3 83.84 121.99 90.54 124.14 90.69C127.43 90.93 134.37 88.72 136.07 81.97C136.09 81.9 136.11 81.83 136.13 81.77L136.13 81.77Z" />
		<path id="Layer" class="shp6" d="M141.51 79.01L141.51 79.01C141.5 79.14 141.49 79.27 141.48 79.39C140.62 90.24 130 97.91 130 97.91L132.03 105.42C132.26 106.27 132.16 107.18 131.76 107.96C131.36 108.74 130.69 109.33 129.87 109.62C129.06 109.91 128.17 109.87 127.39 109.52C126.6 109.16 125.97 108.51 125.63 107.7L124.01 103.77L123.58 106.17C123.4 107.2 122.87 108.12 122.09 108.79C121.31 109.45 120.33 109.82 119.31 109.82C118.29 109.82 117.31 109.45 116.53 108.79C115.75 108.12 115.22 107.2 115.04 106.17L114.61 103.77L112.98 107.7C112.65 108.52 112.02 109.17 111.24 109.53C110.45 109.88 109.56 109.92 108.74 109.63C107.93 109.34 107.25 108.75 106.85 107.96C106.45 107.18 106.35 106.27 106.59 105.42L108.58 98.04L108.62 97.91C108.62 97.91 102.59 93.56 99.25 86.77C99.25 86.77 99.25 86.77 99.25 86.77C99.25 86.77 99.25 86.77 99.25 86.77C99.25 86.77 99.25 86.77 99.25 86.76C99.25 86.76 99.25 86.76 99.24 86.76C98.19 84.62 97.4 82.24 97.16 79.67C97.14 79.45 97.12 79.23 97.11 79.01L97.08 79.01C97.08 79.01 95.51 90.41 107.11 98.54C107.11 98.54 104.59 107.28 104.85 109.82C105.11 112.35 107.88 113.9 109.92 113.5C111.96 113.11 113.74 110.47 114.33 108.79C114.33 108.79 115.07 113.57 119.31 113.57C123.55 113.58 124.21 109.2 124.21 109.2C124.21 109.2 125.4 113.37 130.41 112.77C135.41 112.16 133.83 105.29 133.83 105.29L131.78 98.55C131.78 98.55 142.81 90.66 141.51 79.01Z" />
	</g>
</svg>