<?xml version="1.0" encoding="utf-8"?>
<!-- Generator: Adobe Illustrator 25.3.1, SVG Export Plug-In . SVG Version: 6.00 Build 0)  -->
<svg version="1.1" id="Layer_1" xmlns:v="https://vecta.io/nano"
	 xmlns="http://www.w3.org/2000/svg" xmlns:xlink="http://www.w3.org/1999/xlink" x="0px" y="0px" viewBox="0 0 186 171"
	 style="enable-background:new 0 0 186 171;" xml:space="preserve">
<style type="text/css">
	.st0{fill:#2A6FF6;}
	.st1{fillRule:evenodd;clipRule:evenodd;fill:#FFFFFF;}
	.st2{opacity:0.1;fill:none;stroke:#191326;stroke-width:3;enable-background:new    ;}
	.st3{fill:#2775CA;}
	.st4{fill:#FFFFFF;}
</style>
<g>
	<path class="st0" d="M172.4,95c-1-7.8-6.2-14.9-13.3-18.2c-8.6-4-18.7-2.6-27.8-5.3c-11.8-3.5-20.4-13.3-30.9-19.8
		C88,44.1,73.2,41.4,58.8,38.8C49.2,37.1,39.1,35.5,30,39c-12.3,4.9-19.5,20-15.5,32.6c6.8,21.4,37,27.1,46.2,47.6
		c4.8,10.6,3.2,24.1,10.7,32.9c9,10.5,25.5,8.7,38.9,5.5c10.2-2.5,20.3-5.3,30.4-8.2c8.2-2.3,16.8-4.8,22.8-10.8
		c7.5-7.4,4.4-13.1,4.3-21.7C167.9,109.5,173.5,103.3,172.4,95z"/>
</g>
<path class="st0" d="M70.2,68.8c16,0,29-13,29-29s-13-29-29-29s-29,13-29,29C41.2,55.8,54.2,68.8,70.2,68.8z"/>
<path class="st1" d="M72.4,34.2l6.5-3.8V38L72.4,34.2z M78.9,50.5l-8.7,5.1l-8.7-5.1v-8.9l8.7,5.1l8.7-5.1V50.5z M61.5,30.4l6.5,3.8
	L61.5,38V30.4z M71.3,36l6.5,3.8l-6.5,3.8V36z M69.1,43.6l-6.5-3.8l6.5-3.8V43.6z M77.8,28.6l-7.6,4.3l-7.6-4.3l7.6-4.5L77.8,28.6z
	 M59.3,27.8v23.7l10.9,6.2l10.9-6.2V27.8l-10.9-6.2L59.3,27.8z"/>
<circle class="st2" cx="70.2" cy="39.8" r="27.5"/>
<path class="st3" d="M120.5,127c24,0,43.3-19.3,43.3-43.3s-19.3-43.3-43.3-43.3S77.2,59.7,77.2,83.7S96.5,127,120.5,127z"/>
<path class="st4" d="M132.4,90.6c0-6.3-3.8-8.5-11.4-9.4c-5.4-0.7-6.5-2.2-6.5-4.7s1.8-4.1,5.4-4.1c3.2,0,5.1,1.1,6,3.8
	c0.2,0.5,0.7,0.9,1.3,0.9h2.9c0.7,0,1.3-0.5,1.3-1.3v-0.2c-0.7-4-4-7-8.1-7.4v-4.3c0-0.7-0.5-1.3-1.4-1.4h-2.7
	c-0.7,0-1.3,0.5-1.4,1.4V68c-5.4,0.7-8.8,4.3-8.8,8.8c0,6,3.6,8.3,11.2,9.2c5.1,0.9,6.7,2,6.7,4.9c0,2.9-2.5,4.9-6,4.9
	c-4.7,0-6.3-2-6.9-4.7c-0.2-0.7-0.7-1.1-1.3-1.1h-3.1c-0.7,0-1.3,0.5-1.3,1.3v0.2c0.7,4.5,3.6,7.8,9.6,8.7v4.3
	c0,0.7,0.5,1.3,1.4,1.4h2.7c0.7,0,1.3-0.5,1.4-1.4v-4.3C128.8,99.2,132.4,95.4,132.4,90.6L132.4,90.6z"/>
<path class="st4" d="M111.3,109.5C97.2,104.4,90,88.8,95.2,74.9c2.7-7.6,8.7-13.4,16.1-16.1c0.7-0.4,1.1-0.9,1.1-1.8v-2.5
	c0-0.7-0.4-1.3-1.1-1.4c-0.2,0-0.5,0-0.7,0.2C93.4,58.6,84.1,76.8,89.5,94c3.2,10.1,11,17.9,21.1,21.1c0.7,0.4,1.4,0,1.6-0.7
	c0.2-0.2,0.2-0.4,0.2-0.7v-2.5C112.4,110.6,111.8,109.9,111.3,109.5z M130.4,53.2c-0.7-0.4-1.4,0-1.6,0.7c-0.2,0.2-0.2,0.4-0.2,0.7
	v2.5c0,0.7,0.5,1.4,1.1,1.8c14.1,5.1,21.3,20.7,16.1,34.6c-2.7,7.6-8.7,13.4-16.1,16.1c-0.7,0.4-1.1,0.9-1.1,1.8v2.5
	c0,0.7,0.4,1.3,1.1,1.4c0.2,0,0.5,0,0.7-0.2c17.1-5.4,26.5-23.6,21.1-40.8C148.3,64.2,140.3,56.5,130.4,53.2L130.4,53.2z"/>
<circle class="st2" cx="120.5" cy="83.7" r="42.1"/>
</svg>
