<svg width="551" height="240" viewBox="0 0 551 240" fill="none" xmlns="http://www.w3.org/2000/svg">
<rect width="551" height="240" fill="#1C1917"/>
<g opacity="0.6">
<path d="M11 238C11 236.923 10.1538 236 9 236C7.92308 236 7 236.846 7 238C7 239.077 7.84615 240 9 240C10.1538 240 11 239.154 11 238Z" fill="#FAC515"/>
<path d="M9 216C10.1046 216 11 215.105 11 214C11 212.895 10.1046 212 9 212C7.89543 212 7 212.895 7 214C7 215.105 7.89543 216 9 216Z" fill="#FAC515"/>
<path d="M9 192C10.1046 192 11 191.105 11 190C11 188.895 10.1046 188 9 188C7.89543 188 7 188.895 7 190C7 191.105 7.89543 192 9 192Z" fill="#FAC515"/>
<path d="M9 168C10.1046 168 11 167.105 11 166C11 164.895 10.1046 164 9 164C7.89543 164 7 164.895 7 166C7 167.105 7.89543 168 9 168Z" fill="#FAC515"/>
<path d="M11 142C11 140.923 10.1538 140 9 140C7.92308 140 7 140.846 7 142C7 143.077 7.84615 144 9 144C10.1538 143.923 11 143.077 11 142Z" fill="#FAC515"/>
<path d="M31 237.923C31 236.846 30.0769 236 29 236C27.9231 236 27 236.846 27 238C27 239.077 27.8462 240 29 240C30.0769 239.923 31 239.077 31 237.923Z" fill="#FAC515"/>
<path d="M51 237.923C51 236.846 50.0769 236 49 236C47.9231 236 47 236.846 47 238C47 239.077 47.8462 240 49 240C50.0769 239.923 51 239.077 51 237.923Z" fill="#FAC515"/>
<path d="M71 237.923C71 236.846 70.0769 236 69 236C67.9231 236 67 236.846 67 238C67 239.077 67.8462 240 69 240C70.0769 239.923 71 239.077 71 237.923Z" fill="#FAC515"/>
<path d="M91 237.923C91 236.846 90.0769 236 89 236C87.9231 236 87 236.846 87 238C87 239.077 87.8462 240 89 240C90.0769 239.923 91 239.077 91 237.923Z" fill="#FAC515"/>
<path d="M111 237.923C111 236.846 110.077 236 109 236C107.923 236 107 236.846 107 238C107 239.077 107.846 240 109 240C110.077 239.923 111 239.077 111 237.923Z" fill="#FAC515"/>
<path d="M131 237.923C131 236.846 130.077 236 129 236C127.923 236 127 236.846 127 238C127 239.077 127.846 240 129 240C130.077 239.923 131 239.077 131 237.923Z" fill="#FAC515"/>
<path d="M29 216C30.1046 216 31 215.105 31 214C31 212.895 30.1046 212 29 212C27.8954 212 27 212.895 27 214C27 215.105 27.8954 216 29 216Z" fill="#FAC515"/>
<path d="M49 216C50.1046 216 51 215.105 51 214C51 212.895 50.1046 212 49 212C47.8954 212 47 212.895 47 214C47 215.105 47.8954 216 49 216Z" fill="#FAC515"/>
<path d="M69 216C70.1046 216 71 215.105 71 214C71 212.895 70.1046 212 69 212C67.8954 212 67 212.895 67 214C67 215.105 67.8954 216 69 216Z" fill="#FAC515"/>
<path d="M89 216C90.1046 216 91 215.105 91 214C91 212.895 90.1046 212 89 212C87.8954 212 87 212.895 87 214C87 215.105 87.8954 216 89 216Z" fill="#FAC515"/>
<path d="M109 216C110.105 216 111 215.105 111 214C111 212.895 110.105 212 109 212C107.895 212 107 212.895 107 214C107 215.105 107.895 216 109 216Z" fill="#FAC515"/>
<path d="M129 216C130.105 216 131 215.105 131 214C131 212.895 130.105 212 129 212C127.895 212 127 212.895 127 214C127 215.105 127.895 216 129 216Z" fill="#FAC515"/>
<path d="M29 192C30.1046 192 31 191.105 31 190C31 188.895 30.1046 188 29 188C27.8954 188 27 188.895 27 190C27 191.105 27.8954 192 29 192Z" fill="#FAC515"/>
<path d="M49 192C50.1046 192 51 191.105 51 190C51 188.895 50.1046 188 49 188C47.8954 188 47 188.895 47 190C47 191.105 47.8954 192 49 192Z" fill="#FAC515"/>
<path d="M69 192C70.1046 192 71 191.105 71 190C71 188.895 70.1046 188 69 188C67.8954 188 67 188.895 67 190C67 191.105 67.8954 192 69 192Z" fill="#FAC515"/>
<path d="M89 192C90.1046 192 91 191.105 91 190C91 188.895 90.1046 188 89 188C87.8954 188 87 188.895 87 190C87 191.105 87.8954 192 89 192Z" fill="#FAC515"/>
<path d="M109 192C110.105 192 111 191.105 111 190C111 188.895 110.105 188 109 188C107.895 188 107 188.895 107 190C107 191.105 107.895 192 109 192Z" fill="#FAC515"/>
<path d="M129 192C130.105 192 131 191.105 131 190C131 188.895 130.105 188 129 188C127.895 188 127 188.895 127 190C127 191.105 127.895 192 129 192Z" fill="#FAC515"/>
<path d="M29 168C30.1046 168 31 167.105 31 166C31 164.895 30.1046 164 29 164C27.8954 164 27 164.895 27 166C27 167.105 27.8954 168 29 168Z" fill="#FAC515"/>
<path d="M49 168C50.1046 168 51 167.105 51 166C51 164.895 50.1046 164 49 164C47.8954 164 47 164.895 47 166C47 167.105 47.8954 168 49 168Z" fill="#FAC515"/>
<path d="M69 168C70.1046 168 71 167.105 71 166C71 164.895 70.1046 164 69 164C67.8954 164 67 164.895 67 166C67 167.105 67.8954 168 69 168Z" fill="#FAC515"/>
<path d="M89 168C90.1046 168 91 167.105 91 166C91 164.895 90.1046 164 89 164C87.8954 164 87 164.895 87 166C87 167.105 87.8954 168 89 168Z" fill="#FAC515"/>
<path d="M109 168C110.105 168 111 167.105 111 166C111 164.895 110.105 164 109 164C107.895 164 107 164.895 107 166C107 167.105 107.895 168 109 168Z" fill="#FAC515"/>
<path d="M129 168C130.105 168 131 167.105 131 166C131 164.895 130.105 164 129 164C127.895 164 127 164.895 127 166C127 167.105 127.895 168 129 168Z" fill="#FAC515"/>
<path d="M31 142C31 140.923 30.1538 140 29 140C27.9231 140 27 140.846 27 142C27 143.077 27.8462 144 29 144C30.0769 143.923 31 143.077 31 142Z" fill="#FAC515"/>
<path d="M51 142C51 140.923 50.1538 140 49 140C47.9231 140 47 140.846 47 142C47 143.077 47.8462 144 49 144C50.0769 143.923 51 143.077 51 142Z" fill="#FAC515"/>
<path d="M71 142C71 140.923 70.1538 140 69 140C67.9231 140 67 140.846 67 142C67 143.077 67.8462 144 69 144C70.0769 143.923 71 143.077 71 142Z" fill="#FAC515"/>
<path d="M91 142C91 140.923 90.1538 140 89 140C87.9231 140 87 140.846 87 142C87 143.077 87.8462 144 89 144C90.0769 143.923 91 143.077 91 142Z" fill="#FAC515"/>
<path d="M111 142C111 140.923 110.154 140 109 140C107.923 140 107 140.846 107 142C107 143.077 107.846 144 109 144C110.077 143.923 111 143.077 111 142Z" fill="#FAC515"/>
<path d="M131 142C131 140.923 130.154 140 129 140C127.923 140 127 140.846 127 142C127 143.077 127.846 144 129 144C130.077 143.923 131 143.077 131 142Z" fill="#FAC515"/>
</g>
<g opacity="0.6">
<path d="M422 76C423.105 76 424 75.1046 424 74C424 72.8954 423.105 72 422 72C420.895 72 420 72.8954 420 74C420 75.1046 420.895 76 422 76Z" fill="#FAC515"/>
<path d="M422 100C423.105 100 424 99.1046 424 98C424 96.8954 423.105 96 422 96C420.895 96 420 96.8954 420 98C420 99.1046 420.895 100 422 100Z" fill="#FAC515"/>
<path d="M424 50C424 48.9231 423.154 48 422 48C420.923 48 420 48.8462 420 50C420 51.0769 420.846 52 422 52C423.077 52 424 51.1538 424 50Z" fill="#FAC515"/>
<path d="M422 28C423.105 28 424 27.1046 424 26C424 24.8954 423.105 24 422 24C420.895 24 420 24.8954 420 26C420 27.1046 420.895 28 422 28Z" fill="#FAC515"/>
<path d="M422 4C423.105 4 424 3.10457 424 2C424 0.89543 423.105 0 422 0C420.895 0 420 0.89543 420 2C420 3.10457 420.895 4 422 4Z" fill="#FAC515"/>
<path d="M442 76C443.105 76 444 75.1046 444 74C444 72.8954 443.105 72 442 72C440.895 72 440 72.8954 440 74C440 75.1046 440.895 76 442 76Z" fill="#FAC515"/>
<path d="M442 100C443.105 100 444 99.1046 444 98C444 96.8954 443.105 96 442 96C440.895 96 440 96.8954 440 98C440 99.1046 440.895 100 442 100Z" fill="#FAC515"/>
<path d="M444 50C444 48.9231 443.154 48 442 48C440.923 48 440 48.8462 440 50C440 51.0769 440.846 52 442 52C443.154 52 444 51.1538 444 50Z" fill="#FAC515"/>
<path d="M442 28C443.105 28 444 27.1046 444 26C444 24.8954 443.105 24 442 24C440.895 24 440 24.8954 440 26C440 27.1046 440.895 28 442 28Z" fill="#FAC515"/>
<path d="M442 4C443.105 4 444 3.10457 444 2C444 0.89543 443.105 0 442 0C440.895 0 440 0.89543 440 2C440 3.10457 440.895 4 442 4Z" fill="#FAC515"/>
<path d="M462 76C463.105 76 464 75.1046 464 74C464 72.8954 463.105 72 462 72C460.895 72 460 72.8954 460 74C460 75.1046 460.895 76 462 76Z" fill="#FAC515"/>
<path d="M462 100C463.105 100 464 99.1046 464 98C464 96.8954 463.105 96 462 96C460.895 96 460 96.8954 460 98C460 99.1046 460.895 100 462 100Z" fill="#FAC515"/>
<path d="M482 76C483.105 76 484 75.1046 484 74C484 72.8954 483.105 72 482 72C480.895 72 480 72.8954 480 74C480 75.1046 480.895 76 482 76Z" fill="#FAC515"/>
<path d="M482 100C483.105 100 484 99.1046 484 98C484 96.8954 483.105 96 482 96C480.895 96 480 96.8954 480 98C480 99.1046 480.895 100 482 100Z" fill="#FAC515"/>
<path d="M502 76C503.105 76 504 75.1046 504 74C504 72.8954 503.105 72 502 72C500.895 72 500 72.8954 500 74C500 75.1046 500.895 76 502 76Z" fill="#FAC515"/>
<path d="M502 100C503.105 100 504 99.1046 504 98C504 96.8954 503.105 96 502 96C500.895 96 500 96.8954 500 98C500 99.1046 500.895 100 502 100Z" fill="#FAC515"/>
<path d="M522 76C523.105 76 524 75.1046 524 74C524 72.8954 523.105 72 522 72C520.895 72 520 72.8954 520 74C520 75.1046 520.895 76 522 76Z" fill="#FAC515"/>
<path d="M522 100C523.105 100 524 99.1046 524 98C524 96.8954 523.105 96 522 96C520.895 96 520 96.8954 520 98C520 99.1046 520.895 100 522 100Z" fill="#FAC515"/>
<path d="M542 76C543.105 76 544 75.1046 544 74C544 72.8954 543.105 72 542 72C540.895 72 540 72.8954 540 74C540 75.1046 540.895 76 542 76Z" fill="#FAC515"/>
<path d="M542 100C543.105 100 544 99.1046 544 98C544 96.8954 543.105 96 542 96C540.895 96 540 96.8954 540 98C540 99.1046 540.895 100 542 100Z" fill="#FAC515"/>
<path d="M464 49.9231C464 48.8462 463.077 48 462 48C460.923 48 460 48.8462 460 50C460 51.0769 460.846 52 462 52C463.077 51.9231 464 51.0769 464 49.9231Z" fill="#FAC515"/>
<path d="M484 49.9231C484 48.8462 483.077 48 482 48C480.923 48 480 48.8462 480 50C480 51.0769 480.846 52 482 52C483.077 51.9231 484 51.0769 484 49.9231Z" fill="#FAC515"/>
<path d="M504 49.9231C504 48.8462 503.077 48 502 48C500.923 48 500 48.8462 500 50C500 51.0769 500.846 52 502 52C503.077 51.9231 504 51.0769 504 49.9231Z" fill="#FAC515"/>
<path d="M524 49.9231C524 48.8462 523.077 48 522 48C520.923 48 520 48.8462 520 50C520 51.0769 520.846 52 522 52C523.077 51.9231 524 51.0769 524 49.9231Z" fill="#FAC515"/>
<path d="M544 49.9231C544 48.8462 543.077 48 542 48C540.923 48 540 48.8462 540 50C540 51.0769 540.846 52 542 52C543.077 51.9231 544 51.0769 544 49.9231Z" fill="#FAC515"/>
<path d="M462 28C463.105 28 464 27.1046 464 26C464 24.8954 463.105 24 462 24C460.895 24 460 24.8954 460 26C460 27.1046 460.895 28 462 28Z" fill="#FAC515"/>
<path d="M482 28C483.105 28 484 27.1046 484 26C484 24.8954 483.105 24 482 24C480.895 24 480 24.8954 480 26C480 27.1046 480.895 28 482 28Z" fill="#FAC515"/>
<path d="M502 28C503.105 28 504 27.1046 504 26C504 24.8954 503.105 24 502 24C500.895 24 500 24.8954 500 26C500 27.1046 500.895 28 502 28Z" fill="#FAC515"/>
<path d="M522 28C523.105 28 524 27.1046 524 26C524 24.8954 523.105 24 522 24C520.895 24 520 24.8954 520 26C520 27.1046 520.895 28 522 28Z" fill="#FAC515"/>
<path d="M542 28C543.105 28 544 27.1046 544 26C544 24.8954 543.105 24 542 24C540.895 24 540 24.8954 540 26C540 27.1046 540.895 28 542 28Z" fill="#FAC515"/>
<path d="M462 4C463.105 4 464 3.10457 464 2C464 0.89543 463.105 0 462 0C460.895 0 460 0.89543 460 2C460 3.10457 460.895 4 462 4Z" fill="#FAC515"/>
<path d="M482 4C483.105 4 484 3.10457 484 2C484 0.89543 483.105 0 482 0C480.895 0 480 0.89543 480 2C480 3.10457 480.895 4 482 4Z" fill="#FAC515"/>
<path d="M502 4C503.105 4 504 3.10457 504 2C504 0.89543 503.105 0 502 0C500.895 0 500 0.89543 500 2C500 3.10457 500.895 4 502 4Z" fill="#FAC515"/>
<path d="M522 4C523.105 4 524 3.10457 524 2C524 0.89543 523.105 0 522 0C520.895 0 520 0.89543 520 2C520 3.10457 520.895 4 522 4Z" fill="#FAC515"/>
<path d="M542 4C543.105 4 544 3.10457 544 2C544 0.89543 543.105 0 542 0C540.895 0 540 0.89543 540 2C540 3.10457 540.895 4 542 4Z" fill="#FAC515"/>
</g>
</svg>
