<svg width="20" height="20" viewBox="0 0 20 20" fill="none" xmlns="http://www.w3.org/2000/svg">
<path d="M10 17.5C9.80575 17.5 9.61946 17.4228 9.4821 17.2855C9.34474 17.1481 9.26758 16.9618 9.26758 16.7676V3.23242C9.26758 3.03817 9.34474 2.85188 9.4821 2.71452C9.61946 2.57717 9.80575 2.5 10 2.5C10.1943 2.5 10.3805 2.57717 10.5179 2.71452C10.6553 2.85188 10.7324 3.03817 10.7324 3.23242V16.7676C10.7324 16.9618 10.6553 17.1481 10.5179 17.2855C10.3805 17.4228 10.1943 17.5 10 17.5Z" fill="white"/>
<path d="M16.7676 10.7324H3.23242C3.03817 10.7324 2.85188 10.6553 2.71452 10.5179C2.57717 10.3805 2.5 10.1943 2.5 10C2.5 9.80575 2.57717 9.61946 2.71452 9.4821C2.85188 9.34474 3.03817 9.26758 3.23242 9.26758H16.7676C16.9618 9.26758 17.1481 9.34474 17.2855 9.4821C17.4228 9.61946 17.5 9.80575 17.5 10C17.5 10.1943 17.4228 10.3805 17.2855 10.5179C17.1481 10.6553 16.9618 10.7324 16.7676 10.7324Z" fill="white"/>
</svg>
