<svg width="90" height="51" viewBox="0 0 90 51" fill="none" xmlns="http://www.w3.org/2000/svg">
<g clip-path="url(#clip0)">
<path d="M90 2.98592C90 3.06884 88.7805 2.3225 86.3415 1.57616C83.9837 0.82982 80.3252 0.083478 75.8537 0.746893C73.6585 1.0786 71.3008 1.82494 68.9431 2.98592C66.5854 4.14689 64.3902 5.97128 62.1138 7.96153C59.9187 9.95177 57.6423 12.2737 55.122 14.3469C52.6016 16.4201 49.6748 18.4103 46.1789 19.2396C44.4715 19.6542 42.6829 19.8201 40.9756 19.5713C39.2683 19.3225 37.6423 18.742 36.1789 18.0786C33.1707 16.6688 30.6504 14.7615 28.0488 13.1859C25.5285 11.6103 23.0081 10.2835 20.4065 9.70299C17.8862 9.1225 15.4472 9.03958 13.252 9.20543C8.78049 9.62006 5.36585 11.1957 3.25203 12.5225C1.13821 13.8493 0.0813008 14.8445 0 14.7615C0 14.7615 0.243902 14.5127 0.731707 14.0152C1.21951 13.5176 2.03252 12.9371 3.08943 12.1908C5.20325 10.781 8.61789 9.03958 13.1707 8.54202C15.4472 8.29323 17.9675 8.37616 20.6504 9.03958C23.3333 9.62006 25.935 10.9469 28.4553 12.5225C31.0569 14.0981 33.5772 16.0054 36.5041 17.3323C39.3496 18.742 42.7642 19.4054 46.0163 18.4932C49.2683 17.664 52.1138 15.7566 54.6341 13.6835C57.1545 11.6103 59.3496 9.37128 61.626 7.38104C63.9024 5.3908 66.1789 3.56641 68.6179 2.3225C71.0569 1.0786 73.4959 0.415185 75.7724 0.0834781C80.3252 -0.579937 84.065 0.249332 86.4228 1.16153C87.6423 1.57616 88.5366 1.9908 89.1057 2.3225C89.7561 2.82006 90 2.98592 90 2.98592Z" fill="#2A6FF6"/>
<path d="M26.9917 20.7324H17.3169V47.4349H26.9917V20.7324Z" fill="#2A6FF6"/>
<path d="M68.0486 20.7324H58.3738V47.4349H68.0486V20.7324Z" fill="#2A6FF6"/>
<path d="M81.7073 5.14258H72.0325V47.5182H81.7073V5.14258Z" fill="#2A6FF6"/>
<path d="M14.5527 39.0605H4.87793V48.0166H14.5527V39.0605Z" fill="#2A6FF6"/>
<path d="M40.7317 32.8398H31.0569V47.435H40.7317V32.8398Z" fill="#2A6FF6"/>
<path d="M54.3901 29.4395H44.7153V47.4346H54.3901V29.4395Z" fill="#2A6FF6"/>
<path d="M27.3985 50.5865C27.3985 50.8353 25.0407 51.0011 22.1952 51.0011C19.3497 51.0011 16.9919 50.8353 16.9919 50.5865C16.9919 50.3377 19.3497 50.1719 22.1952 50.1719C25.0407 50.1719 27.3985 50.3377 27.3985 50.5865Z" fill="white"/>
<path d="M15.366 50.5865C15.366 50.8353 13.0083 51.0011 10.1627 51.0011C7.3172 51.0011 4.95947 50.8353 4.95947 50.5865C4.95947 50.3377 7.3172 50.1719 10.1627 50.1719C13.0083 50.1719 15.366 50.3377 15.366 50.5865Z" fill="white"/>
<path d="M83.6587 50.5865C83.6587 50.8353 80.9758 51.0011 77.7238 51.0011C74.4717 51.0011 71.7888 50.8353 71.7888 50.5865C71.7888 50.3377 74.4717 50.1719 77.7238 50.1719C80.9758 50.1719 83.6587 50.3377 83.6587 50.5865Z" fill="white"/>
<path d="M63.3334 51.0011C66.6112 51.0011 69.2684 50.8155 69.2684 50.5865C69.2684 50.3575 66.6112 50.1719 63.3334 50.1719C60.0556 50.1719 57.3984 50.3575 57.3984 50.5865C57.3984 50.8155 60.0556 51.0011 63.3334 51.0011Z" fill="white"/>
<path d="M54.3904 50.5865C54.3904 50.8353 52.0327 51.0011 49.1871 51.0011C46.3416 51.0011 43.9839 50.8353 43.9839 50.5865C43.9839 50.3377 46.3416 50.1719 49.1871 50.1719C52.0327 50.1719 54.3904 50.3377 54.3904 50.5865Z" fill="white"/>
<path d="M40.2439 50.5865C40.2439 50.8353 37.8862 51.0011 35.0407 51.0011C32.1951 51.0011 29.8374 50.8353 29.8374 50.5865C29.8374 50.3377 32.1951 50.1719 35.0407 50.1719C37.8862 50.1719 40.2439 50.3377 40.2439 50.5865Z" fill="white"/>
</g>
<defs>
<clipPath id="clip0">
<rect width="90" height="51" fill="white"/>
</clipPath>
</defs>
</svg>
