<svg width="14" height="12" viewBox="0 0 14 12" fill="none" xmlns="http://www.w3.org/2000/svg">
<path d="M13.9808 1.64713C13.4666 1.87605 12.9134 2.03089 12.3333 2.10004C12.9256 1.74377 13.3802 1.18005 13.5947 0.507238C13.0405 0.837309 12.4263 1.07675 11.7733 1.20582C11.25 0.646396 10.5046 0.296783 9.67907 0.296783C8.09527 0.296783 6.81073 1.58636 6.81073 3.17636C6.81073 3.40207 6.83619 3.62175 6.88539 3.83264C4.50156 3.71259 2.3879 2.56626 0.973084 0.823564C0.72623 1.24877 0.58462 1.74377 0.58462 2.27141C0.58462 3.27021 1.09138 4.15197 1.8606 4.66823C1.39064 4.65341 0.948056 4.52392 0.561518 4.30767C0.561304 4.31991 0.561304 4.33215 0.561304 4.34417C0.561304 5.7394 1.55043 6.90313 2.86235 7.16749C2.62191 7.23363 2.368 7.26863 2.10682 7.26863C1.92157 7.26863 1.7421 7.25081 1.56712 7.21731C1.93205 8.36107 2.99113 9.19365 4.24657 9.21706C3.26472 9.98952 2.0281 10.4497 0.683875 10.4497C0.452851 10.4497 0.223965 10.4362 0 10.4093C1.26871 11.2267 2.77679 11.7032 4.39652 11.7032C9.67244 11.7032 12.5577 7.31545 12.5577 3.50987C12.5577 3.3851 12.5549 3.26076 12.5493 3.13749C13.1102 2.73162 13.5964 2.22459 13.9808 1.64713Z" fill="#F1F2F2"/>
</svg>
