<svg width="993" height="1136" viewBox="0 0 993 1136" fill="none" xmlns="http://www.w3.org/2000/svg">
<g clip-path="url(#clip0)">
<path d="M310.208 1001.34C354.72 1013.94 405.272 1002.42 439.885 971.818C481.749 934.847 497.685 876.559 533.364 833.57C579.674 777.828 653.19 754.043 712.435 712.44C783.051 662.861 832.143 588.919 879.476 516.784C910.924 468.875 943.486 417.686 945.232 360.399C947.608 282.188 882.324 207.935 804.529 200.234C672.522 187.166 571.601 337.805 438.952 339.727C370.231 340.722 301.159 300.736 235.525 321.225C157.814 345.534 128.883 438.817 115.335 519.097C105.012 580.185 96.829 641.61 88.5981 703.016C81.986 752.751 75.6058 805.015 93.742 851.831C116.131 909.616 154.346 906.412 201.226 925.875C242.546 943.113 262.698 987.888 310.208 1001.34Z" fill="#2A6FF6"/>
</g>
<defs>
<clipPath id="clip0">
<rect width="736.957" height="931.638" fill="white" transform="translate(653.508 1135.84) rotate(-158.677)"/>
</clipPath>
</defs>
</svg>
