<svg width="24" height="24" viewBox="0 0 24 24" fill="none" xmlns="http://www.w3.org/2000/svg">
    <g opacity="0.8">
        <g clip-path="url(#clip0_1110_5272)">
            <path
                d="M17.85 5.51476C18.379 4.98093 18.8451 4.39005 19.2199 3.86279L19.4103 4.22107C20.0231 5.44712 20.3415 6.66824 20.3415 8.04249L20.3402 10.2232L20.3517 11.3537C20.3961 14.129 20.9966 16.9369 22.3569 19.5065L19.5108 17.2116L17.497 20.4794L15.3814 18.4878L12.0007 23.974L8.61998 18.4879L6.50445 20.4795L4.49067 17.2116L1.64453 19.5066C3.00481 16.937 3.6053 14.129 3.64976 11.3537L3.66127 10.2233L3.65996 8.04257C3.65996 6.66824 3.97828 5.44712 4.59127 4.22115L4.78155 3.86288C5.15634 4.39014 5.62237 4.98093 6.15144 5.51485L5.98623 5.858C5.66527 6.52449 5.559 7.26972 5.80902 7.97846C5.9702 8.43495 6.26437 8.82643 6.6436 9.12528C7.01182 9.4155 7.4476 9.61112 7.90385 9.71386C8.20105 9.78076 8.50385 9.8083 8.80467 9.79893C8.73448 10.1968 8.70382 10.6095 8.70185 11.03L6.01713 12.5806L8.08886 13.7419C8.25445 13.8347 8.41208 13.9411 8.56015 14.0599C10.2682 15.5934 11.2951 20.1302 12.0008 22.3462C12.7066 20.1302 13.7334 15.5934 15.4415 14.0599C15.5895 13.9411 15.7472 13.8347 15.9128 13.7419L17.9845 12.5806L15.2997 11.03C15.2977 10.6095 15.2671 10.1968 15.1969 9.79893C15.4977 9.8083 15.8005 9.78076 16.0977 9.71386C16.554 9.61112 16.9898 9.4155 17.358 9.12528C17.7371 8.82643 18.0314 8.43495 18.1924 7.97846C18.4426 7.26972 18.3362 6.52457 18.0153 5.858L17.8501 5.51485L17.85 5.51476Z"
                fill="white" />
        </g>
        <g clip-path="url(#clip1_1110_5272)">
            <path
                d="M14.2407 8.78351C14.995 8.4074 15.9548 7.85375 16.9157 7.09521C17.1183 7.51594 17.1405 7.8831 17.0361 8.17956C16.9621 8.38849 16.8227 8.57022 16.6394 8.71479C16.4409 8.87104 16.193 8.98479 15.919 9.04627C15.3991 9.1634 14.792 9.09501 14.2407 8.78351ZM14.3715 12.6372L15.37 13.2139C13.3313 14.3565 12.7771 16.4782 12.1187 18.5448C11.4604 16.4782 10.9061 14.3565 8.86754 13.2139L9.86601 12.6372C9.96259 12.6006 10.0452 12.5345 10.1018 12.4482C10.1585 12.3619 10.1865 12.2599 10.1816 12.1567C10.0901 10.2214 10.6127 9.36551 11.3176 8.82814C11.5704 8.63564 11.8464 8.53899 12.1187 8.53899C12.391 8.53899 12.667 8.63564 12.9199 8.82814C13.6248 9.36551 14.1474 10.2214 14.0559 12.1567C14.0511 12.2599 14.079 12.3619 14.1357 12.4482C14.1924 12.5345 14.2749 12.6006 14.3715 12.6372V12.6372ZM12.1187 0C13.2729 0.0309863 14.4299 0.255041 15.434 0.690904C16.1293 0.993123 16.7782 1.39233 17.3657 1.8697C17.631 2.08521 17.8495 2.2934 18.0901 2.53307C18.7392 2.55551 19.6878 1.83444 20.1281 1.15973C19.3703 3.64438 15.9118 6.57855 13.5175 7.70129C13.5165 7.70088 13.5158 7.7003 13.5151 7.69981C13.0854 7.3717 12.6021 7.20764 12.1187 7.20764C11.6353 7.20764 11.1521 7.3717 10.7224 7.69981C10.7217 7.70022 10.721 7.70096 10.7201 7.70129C8.32565 6.57855 4.86727 3.64438 4.10938 1.15973C4.54968 1.83444 5.49825 2.55551 6.14732 2.53307C6.38806 2.29348 6.60653 2.08521 6.87176 1.8697C7.45927 1.39233 8.10809 0.993123 8.80343 0.690904C9.80765 0.255041 10.9647 0.0309863 12.1187 0ZM9.99669 8.78351C9.2425 8.4074 8.28266 7.85375 7.32184 7.09521C7.11924 7.51594 7.09705 7.8831 7.20135 8.17956C7.2754 8.38849 7.4148 8.57022 7.59801 8.71479C7.79658 8.87104 8.04447 8.98479 8.3185 9.04627C8.83844 9.1634 9.44543 9.09501 9.99669 8.78351"
                fill="white" />
        </g>
    </g>
    <defs>
        <clipPath id="clip0_1110_5272">
            <rect width="20.7123" height="20.1123" fill="white" transform="translate(1.64453 3.86279)" />
        </clipPath>
        <clipPath id="clip1_1110_5272">
            <rect width="16.0192" height="18.5425" fill="white" transform="translate(4.10938)" />
        </clipPath>
    </defs>
</svg>