<svg width="17" height="17" viewBox="0 0 17 17" fill="none" xmlns="http://www.w3.org/2000/svg">
<path d="M15.9289 7.92523C15.736 7.92523 15.551 8.00185 15.4147 8.13824C15.2783 8.27464 15.2016 8.45962 15.2016 8.65251C15.2046 10.1405 14.7016 11.5853 13.775 12.7496C12.8485 13.914 11.5536 14.7286 10.1029 15.0599C8.65225 15.3911 7.13207 15.2192 5.792 14.5724C4.45193 13.9256 3.37164 12.8423 2.72852 11.5005C2.08539 10.1586 1.91767 8.63796 2.25288 7.18821C2.58809 5.73846 3.40632 4.44579 4.5732 3.52246C5.74008 2.59913 7.18625 2.10004 8.67423 2.10713C10.1622 2.11422 11.6036 2.62709 12.7616 3.5615H11.5652C11.3723 3.5615 11.1873 3.63812 11.0509 3.77451C10.9145 3.91091 10.8379 4.0959 10.8379 4.28878C10.8379 4.48167 10.9145 4.66666 11.0509 4.80305C11.1873 4.93945 11.3723 5.01607 11.5652 5.01607H14.4743C14.6672 5.01607 14.8522 4.93945 14.9886 4.80305C15.125 4.66666 15.2016 4.48167 15.2016 4.28878V1.37963C15.2016 1.18674 15.125 1.00175 14.9886 0.865361C14.8522 0.728969 14.6672 0.652344 14.4743 0.652344C14.2815 0.652344 14.0965 0.728969 13.9601 0.865361C13.8237 1.00175 13.7471 1.18674 13.7471 1.37963V2.49311C12.3453 1.33786 10.5919 0.694561 8.77565 0.669195C6.9594 0.64383 5.18869 1.23791 3.75525 2.35357C2.32182 3.46922 1.31118 5.03988 0.889854 6.80677C0.468526 8.57366 0.661644 10.4314 1.43739 12.0738C2.21314 13.7163 3.52523 15.0455 5.15749 15.8424C6.78975 16.6394 8.6448 16.8565 10.417 16.4581C12.1892 16.0597 13.7728 15.0695 14.9069 13.6507C16.0411 12.2318 16.658 10.4689 16.6562 8.65251C16.6562 8.45962 16.5796 8.27464 16.4432 8.13824C16.3068 8.00185 16.1218 7.92523 15.9289 7.92523Z" fill="white"/>
<path d="M8.65697 3.56152C8.46409 3.56152 8.2791 3.63815 8.14271 3.77454C8.00631 3.91093 7.92969 4.09592 7.92969 4.28881V8.65254C7.92973 8.84541 8.00638 9.03037 8.14278 9.16673L10.3246 11.3486C10.4618 11.4811 10.6455 11.5544 10.8362 11.5527C11.0269 11.5511 11.2093 11.4746 11.3442 11.3397C11.479 11.2049 11.5555 11.0225 11.5572 10.8318C11.5588 10.6411 11.4855 10.4574 11.353 10.3202L9.38426 8.35144V4.28881C9.38426 4.09592 9.30764 3.91093 9.17124 3.77454C9.03485 3.63815 8.84986 3.56152 8.65697 3.56152Z" fill="white"/>
</svg>
