<svg width="20" height="20" viewBox="0 0 20 20" fill="none" xmlns="http://www.w3.org/2000/svg">
<path d="M18.1565 8.73455C17.9296 8.73455 17.7119 8.8247 17.5515 8.98516C17.391 9.14563 17.3009 9.36326 17.3009 9.59019C17.3044 11.3408 16.7126 13.0405 15.6225 14.4103C14.5325 15.7801 13.009 16.7386 11.3024 17.1283C9.59571 17.5179 7.80726 17.3157 6.23071 16.5547C4.65416 15.7938 3.38323 14.5193 2.62661 12.9407C1.86999 11.3621 1.67267 9.57307 2.06704 7.86748C2.4614 6.16189 3.42403 4.6411 4.79683 3.55483C6.16963 2.46856 7.871 1.88139 9.62157 1.88974C11.3721 1.89808 13.0678 2.50145 14.4302 3.60076H13.0227C12.7958 3.60076 12.5781 3.6909 12.4177 3.85136C12.2572 4.01183 12.1671 4.22946 12.1671 4.45639C12.1671 4.68332 12.2572 4.90095 12.4177 5.06141C12.5781 5.22187 12.7958 5.31202 13.0227 5.31202H16.4452C16.6722 5.31202 16.8898 5.22187 17.0503 5.06141C17.2107 4.90095 17.3009 4.68332 17.3009 4.45639V1.03386C17.3009 0.806928 17.2107 0.589294 17.0503 0.428832C16.8898 0.268369 16.6722 0.178223 16.4452 0.178223C16.2183 0.178223 16.0007 0.268369 15.8402 0.428832C15.6798 0.589294 15.5896 0.806928 15.5896 1.03386V2.34383C13.9405 0.984715 11.8777 0.22789 9.74089 0.198048C7.60412 0.168206 5.52093 0.867129 3.83454 2.17966C2.14814 3.49219 0.959157 5.34003 0.463477 7.41873C-0.0322024 9.49742 0.194995 11.683 1.10764 13.6152C2.02028 15.5475 3.56392 17.1113 5.48423 18.0489C7.40453 18.9865 9.58694 19.242 11.6719 18.7733C13.7568 18.3046 15.6199 17.1396 16.9542 15.4704C18.2884 13.8011 19.0143 11.7272 19.0121 9.59019C19.0121 9.36326 18.922 9.14563 18.7615 8.98516C18.6011 8.8247 18.3834 8.73455 18.1565 8.73455Z" fill="#09BCAB"/>
<path d="M9.60173 3.60107C9.3748 3.60107 9.15716 3.69122 8.9967 3.85168C8.83624 4.01215 8.74609 4.22978 8.74609 4.45671V9.5905C8.74614 9.81741 8.83632 10.035 8.99679 10.1954L11.5637 12.7623C11.7251 12.9182 11.9412 13.0044 12.1655 13.0025C12.3899 13.0005 12.6045 12.9106 12.7631 12.7519C12.9218 12.5933 13.0118 12.3787 13.0137 12.1543C13.0157 11.93 12.9294 11.7138 12.7736 11.5525L10.4574 9.23627V4.45671C10.4574 4.22978 10.3672 4.01215 10.2067 3.85168C10.0463 3.69122 9.82865 3.60107 9.60173 3.60107Z" fill="#09BCAB"/>
</svg>
