<svg width="13" height="8" viewBox="0 0 13 8" fill="none" xmlns="http://www.w3.org/2000/svg">
<path fill-rule="evenodd" clip-rule="evenodd" d="M12.4149 0.759274C12.1899 0.534274 11.8847 0.407914 11.5665 0.407914C11.2483 0.407914 10.9432 0.534274 10.7181 0.759274L6.76645 4.71087L2.8149 0.759274C2.58858 0.540634 2.28546 0.419673 1.97082 0.422433C1.65618 0.425193 1.35521 0.551434 1.13272 0.773913C0.910223 0.996394 0.784031 1.29735 0.781295 1.61199C0.778559 1.92663 0.899507 2.22975 1.1181 2.45607L5.9181 7.25607C6.14314 7.48104 6.44831 7.60742 6.76645 7.60742C7.08469 7.60742 7.38985 7.48104 7.61485 7.25607L12.4149 2.45607C12.6399 2.23107 12.7662 1.92591 12.7662 1.60767C12.7662 1.28943 12.6399 0.984274 12.4149 0.759274Z" fill="#09BCAB"/>
</svg>
