<svg width="13" height="8" viewBox="0 0 13 8" fill="none" xmlns="http://www.w3.org/2000/svg">
<path fill-rule="evenodd" clip-rule="evenodd" d="M0.632024 7.25586C0.857024 7.48086 1.16218 7.60722 1.48042 7.60722C1.79854 7.60722 2.1037 7.48086 2.32882 7.25586L6.28042 3.30426L10.232 7.25586C10.4583 7.4745 10.7614 7.59546 11.0761 7.5927C11.3907 7.58994 11.6917 7.4637 11.9142 7.24122C12.1367 7.01874 12.2628 6.71778 12.2656 6.40314C12.2683 6.0885 12.1474 5.78538 11.9288 5.55906L7.12878 0.759063C6.90374 0.534099 6.59857 0.407714 6.28042 0.407714C5.96218 0.407714 5.65702 0.534099 5.43202 0.759063L0.632024 5.55906C0.407024 5.78406 0.280664 6.08922 0.280664 6.40746C0.280664 6.7257 0.407024 7.03086 0.632024 7.25586Z" fill="#09BCAB"/>
</svg>
