<svg width="18" height="18" viewBox="0 0 18 18" fill="none" xmlns="http://www.w3.org/2000/svg">
<path d="M11.211 8.70514L17.3959 2.81476C17.6895 2.5357 17.8546 2.15701 17.8549 1.76201C17.8553 1.36701 17.6909 0.988045 17.3979 0.708489C17.1049 0.428933 16.7073 0.271684 16.2925 0.271335C15.8777 0.270986 15.4798 0.427566 15.1863 0.706629L9.00141 6.597L2.81651 0.706629C2.52298 0.427073 2.12486 0.27002 1.70974 0.27002C1.29462 0.27002 0.896505 0.427073 0.602971 0.706629C0.309437 0.986185 0.144531 1.36534 0.144531 1.7607C0.144531 2.15605 0.309437 2.53521 0.602971 2.81476L6.78787 8.70514L0.602971 14.5955C0.309437 14.8751 0.144531 15.2542 0.144531 15.6496C0.144531 16.0449 0.309437 16.4241 0.602971 16.7036C0.896505 16.9832 1.29462 17.1403 1.70974 17.1403C2.12486 17.1403 2.52298 16.9832 2.81651 16.7036L9.00141 10.8133L15.1863 16.7036C15.4798 16.9832 15.878 17.1403 16.2931 17.1403C16.7082 17.1403 17.1063 16.9832 17.3998 16.7036C17.6934 16.4241 17.8583 16.0449 17.8583 15.6496C17.8583 15.2542 17.6934 14.8751 17.3998 14.5955L11.211 8.70514Z" fill="white"/>
</svg>
