<svg width="20" height="18" viewBox="0 0 20 18" fill="none" xmlns="http://www.w3.org/2000/svg">
<path d="M13.312 5.30794C12.6628 2.29279 11.2783 0.385254 9.99779 0.385254C8.71728 0.385254 7.33277 2.29279 6.68359 5.30794H13.312Z" fill="white"/>
<path d="M6.30859 8.99991C6.30844 9.82311 6.36333 10.6454 6.47289 11.4613H13.5283C13.6379 10.6454 13.6928 9.82311 13.6926 8.99991C13.6928 8.17672 13.6379 7.35444 13.5283 6.53857H6.47289C6.36333 7.35444 6.30844 8.17672 6.30859 8.99991Z" fill="white"/>
<path d="M6.68359 12.6919C7.33277 15.707 8.71728 17.6146 9.99779 17.6146C11.2783 17.6146 12.6628 15.707 13.312 12.6919H6.68359Z" fill="white"/>
<path d="M14.5726 5.30789H18.4492C17.8667 3.98231 16.9817 2.81168 15.8651 1.8899C14.7485 0.968125 13.4314 0.320852 12.0195 0C13.1868 1.027 14.1024 2.92592 14.5726 5.30789Z" fill="white"/>
<path d="M18.8929 6.53857H14.7701C14.8717 7.35509 14.9224 8.17711 14.9221 8.99991C14.9222 9.82273 14.8712 10.6448 14.7695 11.4613H18.8923C19.341 9.85104 19.341 8.14879 18.8923 6.53857H18.8929Z" fill="white"/>
<path d="M12.0195 17.9998C13.4317 17.6791 14.749 17.0319 15.8658 16.1101C16.9826 15.1883 17.8678 14.0176 18.4504 12.6919H14.5738C14.1024 15.0739 13.1868 16.9728 12.0195 17.9998Z" fill="white"/>
<path d="M5.42349 12.6919H1.54688C2.12947 14.0176 3.01468 15.1883 4.13149 16.1101C5.2483 17.0319 6.56561 17.6791 7.97775 17.9998C6.80922 16.9728 5.8936 15.0739 5.42349 12.6919Z" fill="white"/>
<path d="M7.97774 0C6.56561 0.320678 5.2483 0.967872 4.13149 1.88966C3.01468 2.81145 2.12947 3.98216 1.54688 5.30789H5.42349C5.89483 2.92592 6.81045 1.027 7.97774 0Z" fill="white"/>
<path d="M5.07623 8.99991C5.07615 8.1771 5.12712 7.35508 5.22883 6.53857H1.10609C0.657345 8.14879 0.657345 9.85104 1.10609 11.4613H5.22883C5.12712 10.6448 5.07615 9.82273 5.07623 8.99991Z" fill="white"/>
</svg>
