<svg width="16" height="16" viewBox="0 0 16 16" fill="none" xmlns="http://www.w3.org/2000/svg">
<path d="M15.5312 15.0625H0.9375V0.46875C0.9375 0.209656 0.727844 0 0.46875 0C0.209656 0 0 0.209656 0 0.46875V15.5312C0 15.7903 0.209656 16 0.46875 16H15.5312C15.7903 16 16 15.7903 16 15.5312C16 15.2722 15.7903 15.0625 15.5312 15.0625Z" fill="white"/>
<path d="M2.34375 14.125H4.25C4.50909 14.125 4.71875 13.9153 4.71875 13.6562V10.8125C4.71875 10.5534 4.50909 10.3438 4.25 10.3438H2.34375C2.08466 10.3438 1.875 10.5534 1.875 10.8125V13.6562C1.875 13.9153 2.08466 14.125 2.34375 14.125Z" fill="white"/>
<path d="M6.125 8.46875C5.86591 8.46875 5.65625 8.67841 5.65625 8.9375V13.6562C5.65625 13.9153 5.86591 14.125 6.125 14.125H8C8.25909 14.125 8.46875 13.9153 8.46875 13.6562V8.9375C8.46875 8.67841 8.25909 8.46875 8 8.46875H6.125Z" fill="white"/>
<path d="M9.875 6.59375C9.61591 6.59375 9.40625 6.80341 9.40625 7.0625V13.6562C9.40625 13.9153 9.61591 14.125 9.875 14.125H11.75C12.0091 14.125 12.2188 13.9153 12.2188 13.6562V7.0625C12.2188 6.80341 12.0091 6.59375 11.75 6.59375H9.875Z" fill="white"/>
<path d="M15.5312 4.71875H13.625C13.3659 4.71875 13.1562 4.92841 13.1562 5.1875V13.6562C13.1562 13.9153 13.3659 14.125 13.625 14.125H15.5312C15.7903 14.125 16 13.9153 16 13.6562V5.1875C16 4.92841 15.7903 4.71875 15.5312 4.71875Z" fill="white"/>
<path d="M1.93101 8.222C2.05473 8.45197 2.34066 8.53431 2.56591 8.41288L13.4811 2.55231L13.2058 3.10284C13.09 3.33447 13.1839 3.616 13.4155 3.73181C13.6492 3.84784 13.9291 3.75219 14.0445 3.52216L14.982 1.64716C15.0547 1.50203 15.047 1.32947 14.9614 1.19122C14.8758 1.05297 14.7252 0.96875 14.5627 0.96875H12.2189C11.9598 0.96875 11.7502 1.17841 11.7502 1.4375C11.7502 1.69659 11.9598 1.90625 12.2189 1.90625H12.7033L2.12191 7.58709C1.89395 7.71025 1.80832 7.9945 1.93101 8.222Z" fill="white"/>
</svg>
