<svg width="19" height="19" viewBox="0 0 19 19" fill="none" xmlns="http://www.w3.org/2000/svg">
<path d="M18.2764 17.0286L13.4923 12.2354C14.6015 10.8072 15.1247 9.00985 14.9554 7.20939C14.786 5.40893 13.9368 3.74071 12.5807 2.54438C11.2245 1.34804 9.46339 0.71355 7.65587 0.770079C5.84834 0.826608 4.13031 1.56991 2.85158 2.84865C1.57284 4.12738 0.829537 5.84541 0.773008 7.65294C0.716479 9.46046 1.35097 11.2216 2.54731 12.5777C3.74364 13.9339 5.41186 14.7831 7.21232 14.9524C9.01278 15.1218 10.8101 14.5986 12.2384 13.4893L17.0315 18.2735C17.2046 18.3832 17.41 18.4307 17.6137 18.4082C17.8174 18.3856 18.0074 18.2944 18.1524 18.1494C18.2973 18.0045 18.3886 17.8145 18.4111 17.6108C18.4337 17.407 18.3861 17.2017 18.2764 17.0286ZM2.56786 7.88731C2.56786 6.83464 2.88001 5.80561 3.46484 4.93035C4.04967 4.05509 4.88091 3.37291 5.85345 2.97007C6.82599 2.56723 7.89614 2.46183 8.92858 2.6672C9.96102 2.87256 10.9094 3.37947 11.6537 4.12382C12.3981 4.86817 12.905 5.81652 13.1104 6.84896C13.3157 7.8814 13.2103 8.95156 12.8075 9.9241C12.4046 10.8966 11.7225 11.7279 10.8472 12.3127C9.97193 12.8975 8.94291 13.2097 7.89024 13.2097C6.47914 13.2081 5.1263 12.6468 4.1285 11.649C3.13071 10.6512 2.56945 9.2984 2.56786 7.88731Z" fill="#3960C1"/>
</svg>
