<svg width="20" height="15" viewBox="0 0 20 15" fill="none" xmlns="http://www.w3.org/2000/svg">
<path fill-rule="evenodd" clip-rule="evenodd" d="M5.93691 3.00043C5.71488 3.86301 4.93187 4.5004 3.99996 4.5004C2.8954 4.5004 2 3.605 2 2.50044C2 1.39589 2.8954 0.500488 3.99996 0.500488C4.93187 0.500488 5.71488 1.13787 5.93691 2.00046H19.4999C19.776 2.00046 19.9999 2.22428 19.9999 2.50044C19.9999 2.77661 19.776 3.00043 19.4999 3.00043H5.93691ZM4.99993 2.50044C4.99993 3.05277 4.55218 3.50042 3.99996 3.50042C3.44773 3.50042 2.99998 3.05267 2.99998 2.50044C2.99998 1.94822 3.44773 1.50047 3.99996 1.50047C4.55218 1.50047 4.99993 1.94811 4.99993 2.50044Z" fill="#3960C1"/>
<path d="M0.499989 2.99998H2.06296C2.0218 2.84021 1.99996 2.67263 1.99996 2.49999C1.99996 2.32735 2.0218 2.15977 2.06296 2H0.499989C0.223824 2 0 2.22382 0 2.49999C0 2.77616 0.223824 2.99998 0.499989 2.99998Z" fill="#3960C1"/>
<path fill-rule="evenodd" clip-rule="evenodd" d="M11.937 12.0005C11.7149 11.1379 10.9318 10.5005 9.99999 10.5005C9.06819 10.5005 8.28496 11.1379 8.06304 12.0005H0.499989C0.223824 12.0005 0 12.2244 0 12.5004C0 12.7765 0.223824 13.0004 0.499989 13.0004H8.06293C8.28496 13.863 9.06808 14.5004 9.99989 14.5004C10.9317 14.5004 11.7149 13.863 11.9368 13.0004H19.4998C19.7758 13.0004 19.9998 12.7765 19.9998 12.5004C19.9998 12.2244 19.7758 12.0005 19.4998 12.0005H11.937ZM9.99999 13.5004C10.5523 13.5004 11 13.0528 11 12.5004C11 11.9481 10.5523 11.5005 9.99999 11.5005C9.44766 11.5005 9.00002 11.9481 9.00002 12.5004C9.00002 13.0528 9.44766 13.5004 9.99999 13.5004Z" fill="#3960C1"/>
<path fill-rule="evenodd" clip-rule="evenodd" d="M17.9369 7.00045C17.7149 6.13787 16.9318 5.50049 16 5.50049C15.0682 5.50049 14.2849 6.13787 14.063 7.00045H0.499989C0.223824 7.00045 0 7.22438 0 7.50044C0 7.7765 0.223824 8.00043 0.499989 8.00043H14.063C14.285 8.86301 15.0682 9.50039 16 9.50039C16.9318 9.50039 17.715 8.86301 17.9369 8.00043H19.4999C19.776 8.00043 19.9999 7.7765 19.9999 7.50044C19.9999 7.22438 19.776 7.00045 19.4999 7.00045H17.9369ZM16 8.50042C16.5523 8.50042 16.9999 8.05277 16.9999 7.50044C16.9999 6.94811 16.5522 6.50047 16 6.50047C15.4476 6.50047 15 6.94811 15 7.50044C15 8.05277 15.4476 8.50042 16 8.50042Z" fill="#3960C1"/>
</svg>
