<svg width="16" height="16" viewBox="0 0 16 16" fill="none" xmlns="http://www.w3.org/2000/svg">
<path d="M15.0625 7.66395V5.7776C15.0625 4.85085 14.3251 4.09351 13.4062 4.06045V2.9026C13.4062 2.29951 12.9156 1.80885 12.3125 1.80885H9.30131L8.91247 0.728008C8.81331 0.452382 8.61263 0.232132 8.34737 0.107851C8.08212 -0.0164614 7.78444 -0.0297114 7.50922 0.0704761L2.045 2.05926C1.77006 2.15932 1.55072 2.36054 1.42734 2.62585C1.30397 2.89116 1.29144 3.18857 1.39209 3.46332L1.61162 4.06254C0.713656 4.11807 0 4.86588 0 5.7776V14.2776C0 15.2253 0.771031 15.9964 1.71875 15.9964H13.3438C14.2915 15.9964 15.0625 15.2253 15.0625 14.2776V12.3288C15.5918 12.2527 16 11.7964 16 11.2464V8.74635C16 8.19632 15.5918 7.74001 15.0625 7.66395ZM15.0625 11.2464C15.0625 11.3325 14.9924 11.4026 14.9062 11.4026H12.4062C11.6308 11.4026 11 10.7718 11 9.99636C11 9.22095 11.6308 8.5901 12.4062 8.5901H14.9062C14.9924 8.5901 15.0625 8.6602 15.0625 8.74635V11.2464ZM2.27238 3.14082C2.25297 3.08785 2.26719 3.04313 2.27741 3.02116C2.28763 2.99923 2.31266 2.95951 2.36566 2.94023L7.82984 0.951445C7.88291 0.932164 7.92762 0.946508 7.94959 0.956789C7.97156 0.96707 8.01122 0.992258 8.03031 1.04538L8.305 1.80888H8.09375C7.49066 1.80888 7 2.29954 7 2.90263V4.05888H2.60872L2.27238 3.14082ZM12.4688 2.9026V4.05885H7.9375V2.9026C7.9375 2.81645 8.00759 2.74635 8.09375 2.74635H12.3125C12.3987 2.74635 12.4688 2.81645 12.4688 2.9026ZM13.3438 15.0589H1.71875C1.28797 15.0589 0.9375 14.7084 0.9375 14.2776V5.7776C0.9375 5.34682 1.28797 4.99635 1.71875 4.99635H13.3438C13.7745 4.99635 14.125 5.34682 14.125 5.7776V7.6526H12.4062C11.1139 7.6526 10.0625 8.70401 10.0625 9.99636C10.0625 11.2887 11.1139 12.3401 12.4062 12.3401H14.125V14.2776C14.125 14.7084 13.7745 15.0589 13.3438 15.0589Z" fill="#09BCAB"/>
</svg>
