<svg width="16" height="14" viewBox="0 0 16 14" fill="none" xmlns="http://www.w3.org/2000/svg">
<path d="M7.99621 10.3218C7.23149 10.3218 6.60938 10.9419 6.60938 11.7037C6.60938 12.4658 7.23149 13.0861 7.99621 13.0861C8.76117 13.0861 9.38329 12.4658 9.38329 11.7037C9.38329 10.9419 8.76105 10.3218 7.99621 10.3218Z" fill="#3960C1"/>
<path d="M11.3765 8.43864C10.4736 7.53625 9.27177 7.03906 7.99283 7.03906C6.7188 7.03906 5.52024 7.53297 4.6176 8.42968C4.25304 8.79248 4.2524 9.38355 4.61609 9.74698C4.79275 9.9239 5.02797 10.0211 5.27834 10.0211C5.52756 10.0211 5.7619 9.92441 5.93831 9.749C6.48762 9.2031 7.21726 8.90239 7.99283 8.90239C8.7713 8.90239 9.50295 9.20499 10.0526 9.75418C10.2293 9.93059 10.4644 10.028 10.7145 10.028C10.964 10.028 11.1982 9.93135 11.3747 9.75594C11.7398 9.39311 11.7404 8.80232 11.3765 8.43864Z" fill="#3960C1"/>
<path d="M15.7269 4.10642C13.6627 2.04727 10.9171 0.913574 7.99658 0.913574C5.07993 0.913574 2.33718 2.04462 0.273581 4.09888C-0.0909834 4.46168 -0.0912358 5.05276 0.273077 5.41618C0.449617 5.59222 0.684458 5.68901 0.934316 5.68901C1.18405 5.68901 1.41864 5.5926 1.59518 5.41669C3.30569 3.71412 5.57902 2.77628 7.99658 2.77628C10.4177 2.77628 12.6933 3.71602 14.4042 5.42313C14.5807 5.59929 14.8159 5.69645 15.0657 5.69645C15.3153 5.69645 15.5498 5.59954 15.7263 5.42388C16.091 5.0608 16.0913 4.4695 15.7269 4.10642Z" fill="#3960C1"/>
<path d="M13.5008 6.32739C12.0315 4.86144 10.0775 4.0542 7.9989 4.0542C5.92407 4.0542 3.97304 4.85891 2.50493 6.31969C2.32814 6.49548 2.23085 6.72931 2.23047 6.97828C2.23047 7.227 2.32738 7.46109 2.50392 7.63712C2.68046 7.81328 2.91543 7.91045 3.16529 7.91045C3.41477 7.91045 3.64936 7.81353 3.82615 7.63813C4.94142 6.52854 6.42341 5.91727 7.9989 5.91727C9.57767 5.91727 11.0617 6.53068 12.1777 7.64406C12.3545 7.82048 12.5893 7.91764 12.8393 7.91764C13.0889 7.91764 13.3236 7.82073 13.4999 7.64507C13.6765 7.46929 13.774 7.23546 13.7741 6.98648C13.7744 6.73751 13.6772 6.50368 13.5008 6.32739Z" fill="#3960C1"/>
</svg>
