<svg width="304" height="730" viewBox="0 0 304 730" fill="none" xmlns="http://www.w3.org/2000/svg">
<path d="M735.84 13.1445C694.055 -6.79171 642.289 -3.85148 603.056 20.644C555.61 50.2291 530.174 105.256 487.823 141.833C432.864 189.253 356.41 200.485 291.054 231.744C213.156 268.993 152.417 333.963 93.7139 397.438C54.7138 439.594 14.069 484.81 2.79037 541.223C-12.6008 618.243 39.381 702.676 114.802 723.328C242.779 758.372 367.416 626.164 498.526 646.478C566.45 657.002 627.884 708.15 696.016 698.862C776.693 687.814 820.781 600.323 847.532 523.127C867.902 464.388 886.217 404.957 904.577 345.552C919.393 297.429 934.403 246.764 924.331 197.386C911.897 136.437 873.682 133.209 830.706 106.092C792.841 82.1085 780.441 34.4122 735.84 13.1445Z" fill="#8247E5"/>
</svg>
