<svg width="132" height="950" viewBox="0 0 132 950" fill="none" xmlns="http://www.w3.org/2000/svg">
<path d="M368.578 9.36193C322.649 14.9146 280.465 45.061 260.351 86.6539C236.005 136.922 243.807 196.843 227.491 250.273C206.291 319.571 147.657 369.894 109.066 431.145C63.0652 504.142 46.3258 591.304 30.5107 676.12C19.9968 732.456 9.72138 792.247 30.2271 845.767C58.2289 918.832 147.118 962.125 221.855 939.195C348.673 900.287 383.614 722.365 505.237 669.381C568.246 641.932 647.4 652.153 700.036 607.913C762.337 555.488 753.013 458.267 734.517 378.981C720.456 318.644 704.291 258.822 688.177 198.998C675.076 150.566 660.784 99.8912 625.981 63.707C583.019 19.0446 549.003 36.7544 498.244 36.8984C453.472 36.9492 417.597 3.42462 368.578 9.36193Z" fill="#2A6FF6"/>
</svg>
