<svg width="132" height="950" viewBox="0 0 132 950" fill="none" xmlns="http://www.w3.org/2000/svg">
<path d="M368.578 9.36095C322.649 14.9136 280.465 45.06 260.351 86.6529C236.005 136.921 243.807 196.842 227.491 250.272C206.291 319.571 147.657 369.893 109.066 431.144C63.0652 504.141 46.3258 591.303 30.5107 676.119C19.9968 732.455 9.72138 792.246 30.2271 845.766C58.2289 918.831 147.118 962.124 221.855 939.194C348.673 900.286 383.614 722.364 505.237 669.38C568.246 641.932 647.4 652.152 700.036 607.912C762.337 555.487 753.013 458.266 734.517 378.98C720.456 318.643 704.291 258.821 688.177 198.997C675.076 150.565 660.784 99.8902 625.981 63.706C583.019 19.0436 549.003 36.7534 498.244 36.8975C453.472 36.9482 417.597 3.42365 368.578 9.36095Z" fill="#2A6FF6"/>
</svg>
