<svg width="366" height="186" viewBox="0 0 366 186" fill="none" xmlns="http://www.w3.org/2000/svg">
<g clip-path="url(#clip0)">
<path d="M312.433 94.4531C326.006 73.625 334.975 51.5859 339.095 30.0312C342.731 31.2422 346.124 32.2109 349.76 33.4219C344.912 54.9766 335.702 77.0156 321.644 97.6016C318.735 96.6328 315.584 95.6641 312.433 94.4531Z" fill="url(#paint0_linear)"/>
<path d="M328.915 63.6953C333.762 52.5547 337.156 41.1719 339.337 30.0312C342.973 31.2422 346.366 32.2109 350.002 33.4219C347.578 44.5625 343.7 55.9453 338.853 67.0859C335.459 66.1172 332.066 64.9062 328.915 63.6953Z" fill="url(#paint1_linear)"/>
<path d="M365.515 18.8906C367.696 29.5469 359.455 38.0234 349.033 38.0234C338.368 38.0234 329.4 29.3047 327.218 18.8906C325.037 8.23438 330.611 0 341.276 0C351.941 0 363.333 8.23438 365.515 18.8906Z" fill="url(#paint2_radial)"/>
<path d="M348.063 28.8203C338.852 28.8203 330.369 24.7031 327.46 19.375C329.884 29.5469 338.61 38.0234 349.033 38.0234C359.455 38.0234 367.454 29.5469 365.515 19.375C364.788 24.7031 357.516 28.8203 348.063 28.8203Z" fill="url(#paint3_linear)"/>
<path d="M355.335 11.3809C356.546 16.2246 352.426 20.0996 346.609 20.0996C340.792 20.0996 335.217 16.2246 334.005 11.3809C332.793 6.53711 336.429 2.9043 342.246 2.9043C348.063 2.9043 354.123 6.7793 355.335 11.3809Z" fill="url(#paint4_linear)"/>
<path d="M43.3868 99.7812C43.3868 72.8984 34.1762 50.3749 22.2993 49.8906C10.9073 49.4062 0 71.6874 0 99.7812C0 127.633 10.9073 150.156 22.2993 149.672C34.1762 149.187 43.3868 126.664 43.3868 99.7812Z" fill="url(#paint5_linear)"/>
<path d="M80.2294 100.023C80.2294 142.164 63.2625 178.008 43.387 179.219C24.2387 180.429 5.57511 144.586 5.33273 100.023C5.57511 55.4607 24.4811 19.8592 43.387 20.8279C63.2625 22.0388 80.2294 57.8826 80.2294 100.023Z" fill="url(#paint6_linear)"/>
<path d="M79.5017 100.265C79.5017 142.89 63.7467 178.734 44.8408 180.187C27.1467 181.156 9.4527 145.07 9.21032 100.265C9.4527 55.7027 27.1467 19.6167 45.0832 20.5855C63.7467 21.7964 79.5017 57.8823 79.5017 100.265Z" fill="url(#paint7_linear)"/>
<path d="M57.4453 179.703C53.3248 179.945 49.2043 179.945 45.0837 180.188C43.387 125.938 43.387 74.8359 45.0837 20.3438C49.2043 20.5859 53.3248 20.5859 57.4453 20.8281C56.2334 75.0781 56.2334 125.695 57.4453 179.703Z" fill="url(#paint8_linear)"/>
<path d="M87.0162 100.265C87.0162 142.89 73.2003 178.491 56.7182 179.702C40.9632 180.671 26.1778 144.585 25.9354 100.265C26.1778 55.9445 40.9632 20.1007 56.7182 20.8273C73.2003 22.0382 87.0162 57.6398 87.0162 100.265Z" fill="url(#paint9_linear)"/>
<path d="M85.5617 100.265C85.5617 140.953 73.2001 174.859 58.1723 175.828C44.114 176.797 30.5405 142.406 30.5405 100.265C30.7829 58.1247 44.114 23.9762 58.4147 24.7028C73.2001 25.6715 85.5617 59.5778 85.5617 100.265Z" fill="url(#paint10_linear)"/>
<path d="M91.6212 100.267C91.6212 140.228 78.7748 173.166 63.5046 174.135C48.7192 174.861 35.3881 141.439 35.1457 100.267C35.3881 59.0956 48.7192 25.6737 63.5046 26.4003C78.7748 27.369 91.6212 60.5487 91.6212 100.267Z" fill="url(#paint11_linear)"/>
<path d="M112.466 173.893C95.9842 173.408 79.7445 173.893 63.5048 174.377C62.7776 124.244 62.7776 76.7754 63.5048 26.6426C79.9869 27.127 96.2266 27.6113 112.466 27.127C112.466 76.0488 112.466 124.729 112.466 173.893Z" fill="url(#paint12_linear)"/>
<path d="M128.948 100.268C128.948 141.197 120.95 173.893 111.497 173.65C102.044 173.65 94.5298 140.713 94.5298 100.268C94.5298 59.8223 102.286 26.8848 111.497 26.8848C121.192 26.8848 128.948 59.3379 128.948 100.268Z" fill="url(#paint13_linear)"/>
<path d="M128.948 100.269C128.948 141.199 121.434 173.894 112.466 173.652C103.498 173.41 96.4686 140.714 96.4686 100.269C96.4686 59.8236 103.74 26.8861 112.466 26.8861C121.434 26.6439 128.948 59.3392 128.948 100.269Z" fill="url(#paint14_linear)"/>
<path d="M57.2028 133.69C56.2333 133.69 55.5061 132.963 55.0213 131.994C54.7789 131.51 49.9313 117.463 55.7485 105.596C59.3842 97.8459 62.0505 94.2131 64.2319 91.7913C63.02 91.7913 62.0505 91.5491 61.0809 91.0647C60.3538 90.8225 59.3842 90.3381 58.8995 90.0959C57.6876 89.6116 56.9604 89.1272 55.9909 89.1272C55.2637 89.1272 54.7789 89.3694 53.8094 89.8538C52.5975 90.5803 51.8703 92.2756 51.1432 93.7288C50.416 95.4241 49.4465 97.6038 47.5074 97.6038C45.5684 97.6038 43.6293 97.6038 41.9326 97.3616C40.9631 97.3616 40.2359 96.3928 40.2359 95.1819C40.7207 86.7053 41.6902 78.2288 43.3869 69.9944C43.6293 68.7835 44.5988 67.8147 45.5683 68.0569C47.9922 68.0569 50.1737 68.2991 52.5975 68.2991C53.567 68.2991 54.2942 69.2678 54.0518 70.4788C54.0518 70.721 54.0518 71.2053 53.8094 71.4475C54.5366 70.9631 55.5061 70.4788 56.718 69.9944C58.8995 69.0256 60.8386 68.5413 63.02 68.7835C65.9286 68.7835 68.5948 69.7522 71.5035 71.6897C72.2306 72.1741 73.2001 72.4163 74.1697 72.4163C77.3207 72.4163 80.4717 70.2366 80.4717 70.2366C80.9564 69.9944 81.1988 69.7522 81.6836 69.7522C83.865 69.7522 86.2889 69.7522 88.7127 69.9944C89.6823 69.9944 90.4094 70.9631 90.167 72.1741C87.2584 89.6116 87.016 94.2131 78.5326 107.049C71.5035 117.221 77.5631 131.026 77.5631 131.026C77.8054 131.752 77.8054 132.479 77.5631 132.963C77.3207 133.448 76.8359 133.932 76.1087 133.932C69.8068 133.69 63.5048 133.69 57.2028 133.69Z" fill="url(#paint15_linear)"/>
<path d="M57.2028 136.354C56.2333 136.354 55.5061 135.627 55.0213 134.658C54.7789 134.174 49.9313 120.127 55.7485 108.26C59.3842 100.51 62.0505 96.8772 64.2319 94.4553C63.02 94.4553 62.0505 94.2131 61.0809 93.7288C60.3538 93.4866 59.3842 93.0022 58.8995 92.76C57.6876 92.2756 56.9604 91.7913 55.9909 91.7913C55.2637 91.7913 54.7789 92.0335 53.8094 92.5178C52.5975 93.2444 51.8703 94.9397 51.1432 96.3928C50.416 98.0881 49.4465 100.268 47.5074 100.268C45.5684 100.268 43.6293 100.268 41.9326 100.026C40.9631 100.026 40.2359 99.0569 40.2359 97.846C40.7207 89.3694 41.6902 80.8928 43.3869 72.6585C43.6293 71.4475 44.5988 70.4788 45.5683 70.721C47.9922 70.721 50.1737 70.9631 52.5975 70.9631C53.567 70.9631 54.2942 71.9319 54.0518 73.1428C54.0518 73.385 54.0518 73.8694 53.8094 74.1116C54.5366 73.6272 55.5061 73.1428 56.718 72.6585C58.8995 71.6897 60.8386 71.2053 63.02 71.4475C65.9286 71.4475 68.5948 72.4163 71.5035 74.3538C72.2306 74.8381 73.2001 75.0803 74.1697 75.0803C77.3207 75.0803 80.4717 72.9006 80.4717 72.9006C80.9564 72.6585 81.1988 72.4163 81.6836 72.4163C83.865 72.4163 86.2889 72.4163 88.7127 72.6585C89.6823 72.6585 90.4094 73.6272 90.167 74.8381C87.2584 92.2756 87.016 96.8772 78.5326 109.713C71.5035 120.854 77.5631 134.416 77.5631 134.658C77.8054 135.385 77.8054 136.112 77.5631 136.596C77.3207 137.08 76.8359 137.565 76.1087 137.565C70.0491 136.354 63.5048 136.354 57.2028 136.354Z" fill="url(#paint16_linear)"/>
<path d="M56.9605 132.479C55.991 132.479 55.2639 131.752 55.0215 130.783C54.7791 130.299 50.1738 116.252 55.7486 104.385C59.3844 96.635 62.293 93.0022 64.4745 90.5803C63.2625 90.5803 62.293 90.3381 61.3235 89.8538C60.5963 89.6116 59.8692 89.1272 59.142 88.885C57.9301 88.4006 57.2029 87.9163 56.2334 87.9163C55.5062 87.9163 55.0215 88.1585 54.0519 88.6428C52.84 89.3694 52.1129 91.0647 51.3857 92.5178C50.6586 94.2131 49.689 96.3928 47.7499 96.3928C45.8109 96.3928 43.8718 96.3928 42.1751 96.1506C41.2056 96.1506 40.4784 95.1819 40.4784 93.971C40.9632 85.4944 41.9327 77.0178 43.6294 68.7835C43.8718 67.5725 44.8413 66.6038 45.8109 66.846C48.2347 66.846 50.4162 67.0881 52.84 67.0881C53.8095 67.0881 54.5367 68.0569 54.2943 69.2678C54.2943 69.51 54.2943 69.9944 54.0519 70.2366C54.7791 69.7522 55.7486 69.2678 56.9605 68.7835C59.142 67.8147 61.0811 67.3303 63.2625 67.5725C66.1711 67.5725 68.8374 68.5413 71.746 70.4788C72.4731 70.9631 73.4427 71.2053 74.4122 71.2053C77.5632 71.2053 80.7142 69.0256 80.9566 69.0256C81.4413 68.7835 81.6837 68.5413 82.1685 68.5413C84.35 68.5413 86.7738 68.5413 89.1976 68.7835C90.1672 68.7835 90.8943 69.7522 90.6519 70.9631C87.7433 88.4006 87.2586 93.0022 78.7751 105.838C71.5036 116.979 77.5632 130.541 77.5632 130.783C77.8056 131.51 77.8056 132.237 77.5632 132.721C77.3208 133.205 76.836 133.69 76.1089 133.69C69.5645 132.479 63.2625 132.479 56.9605 132.479Z" fill="url(#paint17_linear)"/>
<path d="M88.4706 70.2344C86.0468 70.2344 83.8653 70.2344 81.4415 69.9922C81.4415 69.9922 75.1395 74.5938 70.2918 71.6875C65.6865 68.7813 61.3236 68.0547 56.9607 70.2344C52.8401 72.1719 51.1435 74.8359 51.1435 74.8359C51.3858 72.8984 51.8706 70.9609 52.113 69.0234C49.6892 69.0234 47.5077 68.7812 45.0839 68.7812C43.3872 77.0156 42.4176 85.4922 41.9329 93.9688C41.9329 93.9688 45.811 93.9688 47.5077 94.2109C49.4468 94.2109 49.4468 88.8828 52.8401 86.9453C56.4759 84.7656 58.1726 86.9453 61.566 88.1563C63.7474 89.125 67.3832 89.125 69.3223 87.6719C65.9289 92.0313 63.0203 93 56.9607 105.836C51.6282 117.461 56.2335 131.023 56.2335 130.781C62.5355 130.781 69.0799 130.781 75.3819 131.023C75.3819 131.023 68.5951 116.492 76.5938 104.141C85.3196 91.5469 85.562 87.4297 88.4706 70.2344Z" fill="url(#paint18_linear)"/>
<path d="M51.1432 75.8064C51.1432 75.8064 53.0823 73.1424 56.9604 71.2049C61.3233 69.2674 65.6862 69.9939 70.2915 72.658C75.1392 75.5642 81.1988 70.9627 81.1988 70.9627C83.3803 70.9627 85.8041 70.9627 88.228 71.2049C88.228 70.7205 88.4703 70.4783 88.4703 69.9939C86.0465 69.9939 83.865 69.9939 81.4412 69.7517C81.4412 69.7517 75.1392 74.3533 70.2915 71.4471C65.6862 68.5408 61.3233 67.8142 56.9604 69.9939C52.8399 71.9314 51.1432 74.5955 51.1432 74.5955C51.1432 75.0799 51.1432 75.5642 51.1432 75.8064Z" fill="url(#paint19_linear)"/>
<path d="M69.5644 88.3984C69.0796 88.6406 68.5949 88.8828 68.1101 89.125C65.4439 92.2734 62.2929 94.6953 57.2028 105.352C54.2942 111.406 54.2942 118.188 54.779 123.273C54.2942 118.43 54.5366 112.375 57.2028 106.562C63.2624 93.7266 66.171 92.7578 69.5644 88.3984Z" fill="url(#paint20_linear)"/>
<path d="M75.6243 130.543H75.8666C75.8666 130.543 74.1699 126.668 73.4428 121.34C73.6852 125.457 74.8971 128.848 75.6243 130.543Z" fill="url(#paint21_linear)"/>
<path d="M52.3551 68.7832C49.9313 68.7832 47.7498 68.541 45.326 68.541C45.326 69.0254 45.0836 69.2676 45.0836 69.752C47.5074 69.752 49.6889 69.9941 52.1127 69.9941C52.1127 69.5098 52.3551 69.2676 52.3551 68.7832Z" fill="url(#paint22_linear)"/>
<path d="M60.3536 156.695C60.1113 156.695 59.8689 156.695 59.3841 156.695C59.8689 158.148 60.596 159.359 61.3232 160.812C61.5656 160.812 61.808 160.812 62.2927 160.812C63.5046 160.812 64.2318 160.328 63.5046 158.633C63.0199 157.18 61.8079 156.695 60.3536 156.695Z" fill="#2B63CC"/>
<path d="M69.8064 150.883C69.8064 151.852 70.0487 152.82 70.0487 153.789C70.0487 154.758 70.2911 155.727 70.5335 156.938C71.503 156.938 72.2302 156.938 73.1997 156.938C72.4726 155.969 71.9878 155 71.2607 153.789C70.7759 152.82 70.2911 151.609 69.8064 150.883Z" fill="#2B63CC"/>
<path d="M60.8386 152.578C60.3538 151.367 59.6266 150.883 58.4147 150.883C57.9299 150.883 57.4452 150.883 57.2028 150.883C57.6876 152.094 57.9299 153.063 58.4147 154.273C58.6571 154.273 58.8995 154.273 59.3842 154.273C60.8386 154.273 61.3233 153.547 60.8386 152.578Z" fill="#2B63CC"/>
<path d="M91.3787 145.555C76.1085 145.313 61.323 145.555 47.0224 145.555C48.4767 152.094 51.6277 159.117 55.7482 165.656C69.3217 165.414 83.38 164.93 97.6806 164.93C94.0449 158.633 92.1058 151.852 91.3787 145.555ZM66.8979 161.781C66.4131 162.508 65.4436 162.992 63.0197 163.235C61.8078 163.235 60.8383 163.235 60.1111 162.992C57.4449 158.391 55.2634 153.547 54.0515 148.703C54.7787 148.461 56.233 148.461 57.4449 148.461C59.1416 148.461 60.1111 148.703 61.323 149.188C62.2926 149.672 63.2621 150.641 63.7469 152.094C64.2316 153.305 63.9893 154.516 63.0197 155.242C64.474 155.727 65.9283 156.938 66.8979 158.633C67.1403 160.086 67.1403 161.055 66.8979 161.781ZM77.3204 162.508C76.3509 161.297 75.3813 160.086 74.6542 158.875C73.4422 158.875 72.4727 158.875 71.2608 158.875C71.5032 160.086 71.7456 161.297 72.2303 162.508C71.2608 162.508 70.5336 162.508 69.5641 162.508C68.1098 157.664 67.3826 152.821 67.625 148.219C68.8369 148.219 70.0489 148.219 71.2608 148.219C73.4422 153.063 76.5932 157.664 80.229 162.508C79.2595 162.508 78.2899 162.508 77.3204 162.508ZM87.7429 162.508C87.2581 162.024 86.531 161.055 85.3191 159.36C84.3495 157.664 83.6224 157.18 82.4105 157.18C82.1681 157.18 81.9257 157.18 81.6833 157.18C82.4105 159.117 83.1376 160.813 84.1071 162.508C83.1376 162.508 82.4104 162.508 81.4409 162.508C79.0171 157.906 77.3204 153.063 76.3509 148.461C77.078 148.219 78.5323 148.219 79.9866 148.219C81.6833 148.219 83.1376 148.461 84.1071 149.43C85.0767 150.156 85.5614 151.125 86.0462 152.578C86.531 154.516 85.8038 155.727 85.0767 156.211C86.0462 156.696 86.7734 157.664 87.7429 158.875C88.7124 160.328 89.9244 162.266 90.4091 162.75C89.682 162.508 88.7124 162.508 87.7429 162.508Z" fill="#2B63CC"/>
<path d="M80.9562 150.641C80.229 150.641 79.9866 150.641 79.7442 150.641C79.9866 151.852 80.4714 153.305 80.9562 154.758C81.1985 154.758 81.6833 154.758 81.9257 154.758C83.38 154.758 83.8648 154.031 83.38 152.578C83.1376 151.367 82.1681 150.641 80.9562 150.641Z" fill="#2B63CC"/>
<path d="M69.5645 45.0488C70.5341 45.0488 71.2612 45.0488 72.2307 45.0488C72.4731 44.0801 72.4731 43.1113 72.7155 42.1426C72.9579 41.416 73.2003 40.4473 73.4427 39.4785C72.9579 40.2051 72.2307 41.1738 71.746 42.1426C71.0188 43.1113 70.2917 44.0801 69.5645 45.0488Z" fill="#2B63CC"/>
<path d="M63.7473 40.6894C64.2321 39.7207 63.9897 39.2363 62.7777 38.9941C62.293 38.9941 61.8082 38.9941 61.5658 38.9941C61.0811 39.9629 60.3539 41.1738 59.8691 42.1426C60.1115 42.1426 60.3539 42.1426 60.8387 42.1426C62.0506 42.3848 63.0201 41.6582 63.7473 40.6894Z" fill="#2B63CC"/>
<path d="M59.6265 44.5625C59.3841 44.5625 59.1417 44.5625 58.657 44.5625C57.9298 46.0156 57.445 47.2266 56.9603 48.6797C57.2027 48.6797 57.445 48.6797 57.9298 48.6797C59.1417 48.6797 60.3536 48.1953 61.0808 46.7422C61.8079 45.0469 60.8384 44.5625 59.6265 44.5625Z" fill="#2B63CC"/>
<path d="M84.3499 39.7188C83.6228 39.7188 83.3804 39.7188 83.138 39.7188C82.6532 40.9297 81.9261 42.1406 81.6837 43.3516C81.9261 43.3516 82.4109 43.3516 82.6532 43.3516C84.1076 43.3516 85.0771 42.625 85.5619 41.4141C86.0466 40.2031 85.8042 39.7188 84.3499 39.7188Z" fill="#2B63CC"/>
<path d="M56.2331 34.3926C51.6278 40.6895 48.2344 47.2285 46.053 53.5254C61.0808 54.0098 76.351 54.2519 92.106 54.4941C92.5907 48.1973 94.5298 41.6582 97.6808 35.3613C83.3801 35.1191 69.5642 34.877 56.2331 34.3926ZM61.5656 49.6504C60.3536 50.377 58.657 50.8613 56.2331 50.8613C54.7788 50.8613 53.8093 50.6191 53.3245 50.6191C55.0212 46.0176 57.2026 41.416 60.1113 37.0566C60.8384 36.8145 62.2927 36.8145 63.5046 36.8145C64.9589 36.8145 65.9285 37.0566 66.4132 37.541C66.898 38.0254 66.898 38.9941 66.4132 40.2051C65.6861 41.416 64.7166 42.3848 63.0199 43.1113C64.2318 43.5957 64.4742 44.8066 63.9894 46.7441C63.5046 47.9551 62.5351 48.9238 61.5656 49.6504ZM74.6543 51.3457C73.6848 51.3457 72.7152 51.3457 71.5033 51.3457C71.5033 50.1348 71.5033 48.9238 71.7457 47.4707C70.5338 47.4707 69.3219 47.4707 68.3523 47.4707C67.6252 48.6816 66.898 49.8926 66.1709 51.1035C65.2013 51.1035 64.2318 51.1035 63.2623 51.1035C65.9285 46.502 69.0795 41.9004 72.9576 37.2988C74.1695 37.2988 75.1391 37.2988 76.351 37.2988C75.1391 41.9004 74.6543 46.7441 74.6543 51.3457ZM88.4702 41.1738C87.7431 42.8691 86.2887 44.0801 85.0768 44.5645C85.804 45.0488 86.0464 46.0176 86.0464 47.2285C86.0464 48.9238 86.0464 50.8613 86.0464 51.3457C85.0768 51.3457 84.1073 51.3457 83.1378 51.3457C82.8954 50.8613 82.8954 49.6504 83.1378 47.9551C83.3801 46.2598 82.8954 45.7754 81.9258 45.5332C81.6834 45.5332 81.4411 45.5332 81.1987 45.5332C80.4715 47.4707 79.9868 49.4082 79.7444 51.1035C78.7748 51.1035 77.8053 51.1035 76.8358 51.1035C77.8053 46.502 79.502 41.9004 81.9258 37.541C82.8954 37.2988 84.1073 37.2988 85.5616 37.2988C87.2583 37.2988 88.4702 37.541 88.955 38.2676C88.955 39.2363 88.955 39.9629 88.4702 41.1738Z" fill="#2B63CC"/>
<path d="M298.132 99.7793C298.132 82.8262 303.223 69.0215 310.009 68.7793C316.554 68.7793 322.371 82.584 322.371 99.7793C322.371 116.975 316.554 130.779 310.009 130.779C303.223 130.537 298.132 116.732 298.132 99.7793Z" fill="url(#paint23_linear)"/>
<path d="M288.437 99.7799C288.437 78.9518 294.739 61.9987 302.98 61.7565C310.979 61.5143 318.25 78.4674 318.25 99.7799C318.25 120.85 310.979 137.803 302.98 137.803C294.739 137.561 288.437 120.366 288.437 99.7799Z" fill="url(#paint24_linear)"/>
<path d="M266.623 99.7813C266.623 72.8985 276.076 50.8594 287.952 50.375C299.587 50.1328 310.009 72.1719 310.009 99.7813C310.009 127.391 299.587 149.43 287.952 149.188C276.076 148.703 266.623 126.422 266.623 99.7813Z" fill="url(#paint25_linear)"/>
<path d="M229.78 100.023C229.78 142.163 246.989 177.523 267.349 178.491C286.74 179.218 304.677 143.616 304.919 100.023C304.677 56.1868 286.983 20.8274 267.349 21.554C246.989 22.5227 229.78 57.8821 229.78 100.023Z" fill="url(#paint26_linear)"/>
<path d="M230.507 100.265C230.507 142.89 246.505 178.249 265.653 179.46C283.832 180.187 300.799 144.343 300.799 100.265C300.556 56.1865 283.832 20.585 265.653 21.0693C246.505 22.2803 230.507 57.8818 230.507 100.265Z" fill="url(#paint27_linear)"/>
<path d="M253.049 179.217C257.169 179.217 261.532 179.459 265.653 179.459C266.865 125.693 266.865 75.0762 265.653 21.3105C261.532 21.3105 257.169 21.5527 253.049 21.5527C253.776 75.0762 253.776 125.693 253.049 179.217Z" fill="url(#paint28_linear)"/>
<path d="M222.993 100.265C222.993 142.89 236.809 178.249 253.534 178.976C269.531 179.702 283.832 143.858 284.074 100.265C284.074 56.671 269.531 20.8273 253.534 21.5538C237.052 22.5226 222.993 57.6398 222.993 100.265Z" fill="url(#paint29_linear)"/>
<path d="M224.205 100.263C224.205 140.95 236.809 174.615 251.837 175.341C266.38 175.825 279.469 141.919 279.469 100.263C279.469 58.6067 266.38 24.7004 251.837 25.1848C236.809 26.1536 224.448 59.5754 224.205 100.263Z" fill="url(#paint30_linear)"/>
<path d="M217.661 100.265C217.661 140.226 230.749 172.921 246.262 173.648C261.29 174.132 274.379 140.952 274.379 100.265C274.379 59.5775 261.29 26.3978 246.262 26.8822C230.749 27.6088 217.903 60.5463 217.661 100.265Z" fill="url(#paint31_linear)"/>
<path d="M196.815 173.889C213.298 173.404 229.78 173.404 246.262 173.889C246.747 124.24 246.747 76.7715 246.262 27.123C229.78 27.3652 213.298 27.6074 196.815 27.123C196.815 76.0449 196.815 124.725 196.815 173.889Z" fill="url(#paint32_linear)"/>
<path d="M180.334 100.265C180.334 141.195 188.332 173.89 197.785 173.648C207.238 173.406 214.752 140.468 214.752 100.265C214.752 60.0619 207.238 27.1244 197.785 26.8822C188.09 26.64 180.334 59.3353 180.334 100.265Z" fill="url(#paint33_linear)"/>
<path d="M180.334 100.265C180.334 141.195 187.848 173.89 196.816 173.648C205.784 173.406 212.813 140.468 212.813 100.265C212.813 60.0619 205.542 27.1244 196.816 26.8822C187.605 26.64 180.334 59.3353 180.334 100.265Z" fill="url(#paint34_linear)"/>
<path d="M230.022 111.889C229.053 111.889 228.568 111.162 228.568 110.194C228.568 109.709 228.81 95.9045 234.627 83.7952C238.506 76.0452 240.687 72.4124 242.384 69.7483C241.172 69.7483 240.202 69.5061 239.233 69.0217C238.263 68.7795 237.536 68.2952 236.809 68.053C235.597 67.5686 234.627 67.0842 233.658 67.0842C232.931 67.0842 232.446 67.3264 231.719 67.8108C230.507 68.5374 230.022 70.2327 229.78 71.6858C229.295 73.3811 228.568 75.5608 226.386 75.5608C224.447 75.5608 222.508 75.5608 220.327 75.3186C219.357 75.3186 218.388 74.3499 218.388 73.1389C217.903 64.6624 216.691 56.1858 214.752 47.9514C214.51 46.7405 214.994 45.7717 216.206 46.0139C218.63 46.0139 221.296 46.2561 223.72 46.2561C224.69 46.2561 225.902 47.2249 226.144 48.4358C226.144 48.678 226.386 49.1624 226.386 49.4045C226.871 48.9202 227.841 48.1936 228.568 47.7092C230.264 46.7405 232.204 46.2561 234.385 46.2561C237.294 46.2561 240.445 47.2249 244.08 48.9202C245.05 49.4045 246.019 49.6467 246.989 49.6467C250.14 49.6467 252.321 47.2249 252.321 47.2249C252.564 46.9827 253.049 46.7405 253.291 46.7405C255.472 46.7405 257.654 46.7405 259.835 46.7405C260.805 46.7405 261.774 47.7092 262.017 48.9202C265.653 66.5999 265.168 71.4436 257.654 84.5217C250.625 95.9046 251.837 109.467 251.837 109.709C251.837 110.436 251.594 111.162 251.11 111.647C250.625 112.131 250.14 112.615 249.413 112.373C242.868 112.131 236.324 112.131 230.022 111.889Z" fill="url(#paint35_linear)"/>
<path d="M230.022 113.584C229.053 113.584 228.568 112.858 228.568 111.889C228.568 111.405 228.81 97.5999 234.627 85.4905C238.506 77.7405 240.687 74.1077 242.384 71.4436C241.172 71.4436 240.202 71.2014 239.233 70.717C238.263 70.4749 237.536 69.9905 236.809 69.7483C235.597 69.2639 234.627 68.7795 233.658 68.7795C232.931 68.7795 232.446 69.0217 231.719 69.5061C230.507 70.2327 230.022 71.928 229.78 73.3811C229.295 75.0764 228.568 77.2561 226.386 77.2561C224.447 77.2561 222.508 77.2561 220.327 77.0139C219.357 77.0139 218.388 76.0452 218.388 74.8342C217.903 66.3577 216.691 57.8811 214.752 49.6467C214.51 48.4358 214.994 47.467 216.206 47.7092C218.63 47.7092 221.296 47.9514 223.72 47.9514C224.69 47.9514 225.902 48.9202 226.144 50.1311C226.144 50.3733 226.386 50.8577 226.386 51.0999C226.871 50.6155 227.841 49.8889 228.568 49.4045C230.264 48.4358 232.204 47.9514 234.385 47.9514C237.294 47.9514 240.445 48.9202 244.08 50.6155C245.05 51.0999 246.019 51.342 246.989 51.342C250.14 51.342 252.321 48.9202 252.321 48.9202C252.564 48.678 253.049 48.4358 253.291 48.4358C255.472 48.4358 257.654 48.4358 259.835 48.4358C260.805 48.4358 261.774 49.4045 262.017 50.6155C265.653 68.2952 265.168 73.1389 257.654 86.217C250.625 97.5999 251.837 111.162 251.837 111.405C251.837 112.131 251.594 112.858 251.11 113.342C250.625 113.826 250.14 114.311 249.413 114.069C242.868 113.826 236.566 113.584 230.022 113.584Z" fill="url(#paint36_linear)"/>
<path d="M230.264 110.92C229.295 110.92 228.81 110.194 228.81 109.225C228.81 108.74 229.053 94.9358 234.87 82.8264C238.748 75.0764 240.687 71.4436 242.626 68.7795C241.414 68.7795 240.445 68.5374 239.475 68.053C238.506 67.8108 237.778 67.3264 237.051 67.0842C235.839 66.5999 234.87 66.1155 233.9 66.1155C233.173 66.1155 232.688 66.3577 231.961 66.842C230.749 67.5686 230.507 69.2639 230.022 70.717C229.537 72.4124 228.81 74.592 226.629 74.592C224.69 74.592 222.751 74.592 220.569 74.3499C219.6 74.3499 218.63 73.3811 218.63 72.1702C218.145 63.6936 216.691 55.217 214.752 46.9827C214.51 45.7717 214.994 44.803 216.206 45.0452C218.63 45.0452 221.296 45.2874 223.72 45.2874C224.69 45.2874 225.902 46.2561 226.144 47.467C226.144 47.7092 226.386 48.1936 226.386 48.4358C226.871 47.9514 227.598 47.2249 228.568 46.7405C230.264 45.7717 232.204 45.2874 234.385 45.2874C237.294 45.2874 240.445 46.2561 244.08 47.9514C245.05 48.4358 246.019 48.678 246.989 48.678C250.14 48.678 252.079 46.2561 252.079 46.2561C252.321 46.0139 252.564 45.7717 253.049 45.7717C255.23 45.7717 257.411 45.7717 259.593 45.7717C260.562 45.7717 261.532 46.7405 261.774 47.9514C265.41 65.6311 265.168 70.4749 257.654 83.553C250.867 94.9358 252.079 108.498 252.079 108.74C252.079 109.467 251.837 110.194 251.352 110.678C250.867 111.162 250.382 111.647 249.655 111.405C243.111 111.162 236.566 110.92 230.264 110.92Z" fill="url(#paint37_linear)"/>
<path d="M259.835 47.9531C257.654 47.9531 255.472 47.9531 253.291 47.9531C253.291 47.9531 249.17 52.5547 243.353 49.8906C237.778 47.2266 232.931 46.5 229.295 48.6797C225.902 50.6172 224.932 53.2812 224.932 53.2812C224.447 51.3438 224.205 49.4063 223.72 47.4688C221.296 47.4688 218.63 47.4688 216.206 47.2266C218.388 55.4609 219.6 63.9375 220.084 72.4141C220.084 72.4141 223.963 72.4141 226.144 72.6562C228.083 72.6562 227.598 67.3281 230.507 65.1484C233.658 62.9687 236.082 65.1484 239.475 66.3594C241.899 67.0859 245.535 67.3281 247.231 65.6328C244.565 69.9922 242.626 71.2031 236.324 84.0391C230.749 95.6641 230.749 108.984 230.749 108.984C237.294 108.984 243.596 109.227 249.898 109.469C249.898 109.469 248.443 94.9375 255.957 82.5859C262.986 69.75 263.471 65.3906 259.835 47.9531Z" fill="url(#paint38_linear)"/>
<path d="M225.175 54.2455C225.175 54.2455 226.144 51.5815 229.537 49.644C233.173 47.4643 237.779 48.1909 243.596 50.8549C249.413 53.7612 253.534 48.9174 253.534 48.9174C255.715 48.9174 257.896 48.9174 260.078 48.9174C260.078 48.433 259.835 48.1909 259.835 47.7065C257.654 47.7065 255.473 47.7065 253.291 47.7065C253.291 47.7065 249.171 52.308 243.353 49.644C237.779 46.9799 232.931 46.2534 229.295 48.433C225.902 50.3705 224.932 53.0346 224.932 53.0346C225.175 53.2768 225.175 53.7612 225.175 54.2455Z" fill="url(#paint39_linear)"/>
<path d="M247.232 66.3555C246.747 66.5977 246.504 66.8398 245.777 67.082C243.353 70.2305 241.414 72.6523 236.082 83.5508C232.931 89.8477 231.719 96.3867 230.992 101.473C231.719 96.6289 233.173 90.5742 236.082 84.7617C242.626 71.9258 244.565 70.957 247.232 66.3555Z" fill="url(#paint40_linear)"/>
<path d="M249.413 109.223H249.655C249.655 109.223 249.413 105.348 249.898 100.02C249.655 104.137 249.413 107.527 249.413 109.223Z" fill="url(#paint41_linear)"/>
<path d="M223.72 47.2227C221.296 47.2227 218.63 47.2227 216.206 46.9805C216.206 47.4648 216.449 47.707 216.449 48.1914C218.872 48.1914 221.539 48.4336 223.963 48.4336C223.963 47.9492 223.72 47.4648 223.72 47.2227Z" fill="url(#paint42_linear)"/>
<path d="M224.932 152.818C224.205 152.818 223.963 152.818 223.72 152.818C223.478 153.787 222.993 154.756 222.751 155.725C222.993 155.725 223.478 155.725 223.72 155.725C225.175 155.725 226.387 154.998 226.629 154.029C226.871 153.303 226.387 152.818 224.932 152.818Z" fill="#2B63CC"/>
<path d="M222.993 157.904C222.751 157.904 222.266 157.904 222.024 157.904C221.539 159.115 221.054 160.084 220.57 161.295C220.812 161.295 221.297 161.295 221.781 161.295C222.993 161.295 224.448 160.811 224.932 159.6C225.417 158.389 224.448 157.904 222.993 157.904Z" fill="#2B63CC"/>
<path d="M233.658 157.904C234.628 157.904 235.355 157.904 236.324 157.904C236.324 156.936 236.567 156.209 236.567 155.24C236.567 154.514 236.809 153.545 236.809 152.818C236.324 153.545 235.84 154.514 235.355 155.24C234.87 156.209 234.143 156.936 233.658 157.904Z" fill="#2B63CC"/>
<path d="M247.959 152.578C247.232 152.578 246.99 152.578 246.747 152.578C246.263 153.789 245.778 154.758 245.293 155.969C245.535 155.969 246.02 155.969 246.263 155.969C247.474 155.969 248.686 155.242 249.171 154.273C249.656 153.305 249.171 152.578 247.959 152.578Z" fill="#2B63CC"/>
<path d="M214.752 148.459C213.298 154.514 211.117 160.326 208.693 165.896C224.448 165.17 239.233 164.686 252.807 164.443C255.715 159.357 258.139 153.787 260.078 148.217C246.262 148.217 230.992 148.217 214.752 148.459ZM225.417 162.021C224.205 162.748 222.509 163.232 219.843 163.232C218.388 163.232 217.419 163.232 216.692 163.232C218.388 159.357 219.843 155.24 221.297 151.123C222.024 150.881 223.721 150.881 225.175 150.881C226.872 150.881 228.084 151.123 228.811 151.607C229.538 152.092 230.023 152.818 229.538 154.029C229.053 155.24 228.084 156.209 226.387 156.693C227.599 156.936 228.326 158.146 227.599 159.6C227.356 160.568 226.387 161.537 225.417 162.021ZM238.264 162.748C237.294 162.748 236.325 162.748 235.355 162.748C235.597 161.779 235.597 160.811 235.84 159.842C234.628 159.842 233.416 159.842 232.447 159.842C231.719 160.811 230.992 161.779 230.265 162.99C229.296 162.99 228.326 162.99 227.356 162.99C230.507 159.115 233.416 154.998 236.082 150.639C237.294 150.639 238.506 150.639 239.718 150.639C239.476 154.756 238.991 158.873 238.264 162.748ZM252.08 154.029C251.352 155.482 249.898 156.693 248.686 156.936C249.413 157.178 249.413 158.146 249.171 159.115C248.929 160.326 248.444 161.779 248.444 162.264C247.474 162.264 246.747 162.264 245.778 162.264C245.778 162.021 246.02 161.053 246.262 159.6C246.747 158.146 246.262 157.662 245.293 157.662C245.05 157.662 244.808 157.662 244.566 157.662C243.839 159.115 243.111 160.811 242.384 162.264C241.415 162.264 240.688 162.264 239.718 162.264C241.657 158.389 243.354 154.514 244.808 150.396C245.778 150.154 246.99 150.154 248.444 150.154C250.141 150.154 251.352 150.396 251.837 151.123C252.322 152.092 252.322 153.061 252.08 154.029Z" fill="#2B63CC"/>
<path d="M230.265 128.842C229.538 128.842 229.296 128.842 228.811 128.842C228.569 130.053 228.568 131.021 228.326 132.232C228.568 132.232 229.053 132.232 229.296 132.232C230.992 132.232 231.962 131.506 231.962 130.537C232.447 129.568 231.719 129.084 230.265 128.842Z" fill="#2B63CC"/>
<path d="M242.869 129.328C242.627 130.055 242.142 131.266 241.9 131.992C241.415 132.961 240.93 133.93 240.688 134.898C241.657 134.898 242.627 134.898 243.596 134.898C243.596 133.93 243.354 132.961 243.354 131.992C243.112 131.266 242.869 130.297 242.869 129.328Z" fill="#2B63CC"/>
<path d="M229.053 134.656C228.811 134.656 228.326 134.656 228.084 134.656C227.842 135.867 227.599 137.32 227.357 138.531C227.599 138.531 228.084 138.531 228.569 138.531C230.023 138.531 231.235 138.047 231.477 136.594C231.72 135.141 230.75 134.656 229.053 134.656Z" fill="#2B63CC"/>
<path d="M254.746 129.57C254.019 129.57 253.777 129.57 253.534 129.57C253.292 130.781 253.049 131.992 252.807 133.445C253.292 133.445 253.534 133.445 253.777 133.445C255.231 133.445 256.2 132.719 256.443 131.508C256.443 130.297 255.958 129.813 254.746 129.57Z" fill="#2B63CC"/>
<path d="M218.631 123.516C218.388 130.297 217.419 136.836 216.207 143.375C232.689 143.133 247.959 143.375 262.018 143.617C263.957 137.562 265.653 131.508 266.865 125.211C251.837 124.484 235.84 124 218.631 123.516ZM234.628 136.836C234.386 138.047 233.659 139.016 232.689 139.742C231.477 140.469 229.78 140.953 227.114 140.953C225.66 140.953 224.448 140.953 223.721 140.711C224.69 136.109 225.418 131.508 225.902 126.906C226.872 126.664 228.569 126.664 230.023 126.664C231.962 126.664 233.174 126.906 233.901 127.633C234.87 128.117 235.355 129.086 235.113 130.539C234.87 131.75 234.143 132.961 232.447 133.445C234.143 133.687 235.113 134.898 234.628 136.836ZM243.354 140.953C243.354 139.742 243.354 138.531 243.112 137.562C241.9 137.562 240.688 137.562 239.476 137.562C238.991 138.773 238.264 139.984 237.779 140.953C236.81 140.953 235.84 140.953 234.87 140.953C237.294 136.352 239.476 131.75 241.415 127.148C242.627 127.148 244.081 127.148 245.293 127.148C246.02 131.75 246.263 136.352 246.263 140.953C245.293 140.953 244.323 140.953 243.354 140.953ZM259.109 131.508C258.624 133.203 257.412 134.414 256.2 134.898C256.927 135.383 257.17 136.109 257.17 137.32C257.17 138.773 256.927 140.469 257.17 140.953C256.2 140.953 255.473 140.953 254.504 140.953C254.504 140.469 254.504 139.5 254.504 137.805C254.504 136.109 254.261 135.625 253.049 135.625C252.807 135.625 252.565 135.625 252.322 135.625C251.837 137.32 251.353 139.258 250.868 140.953C249.898 140.953 249.171 140.953 248.202 140.953C249.414 136.594 250.383 131.992 251.11 127.633C252.08 127.391 253.534 127.391 254.988 127.391C256.927 127.391 258.139 127.875 258.867 128.602C259.109 129.086 259.351 130.055 259.109 131.508Z" fill="#2B63CC"/>
<path d="M128.949 100.268C128.949 140.471 122.889 172.197 115.618 170.986C108.346 169.533 102.286 137.807 102.286 100.268C102.286 62.7286 108.104 31.0021 115.618 29.5489C122.889 28.338 128.949 60.3067 128.949 100.268Z" fill="url(#paint43_linear)"/>
<path d="M139.856 173.65C131.615 173.166 123.616 172.439 115.617 171.229C115.617 124.002 115.617 77.0176 115.617 29.791C123.616 28.5801 131.857 27.6113 139.856 27.3691C139.856 76.0488 139.856 124.729 139.856 173.65Z" fill="url(#paint44_linear)"/>
<path d="M179.849 100.268C179.849 140.471 185.909 172.197 193.423 170.986C200.937 169.533 206.996 137.807 206.996 100.268C206.996 62.7286 200.937 31.0021 193.423 29.5489C186.151 28.338 179.849 60.3067 179.849 100.268Z" fill="url(#paint45_linear)"/>
<path d="M168.699 173.65C176.941 173.166 185.424 172.439 193.665 171.229C193.665 124.002 193.665 77.0176 193.665 29.791C185.424 28.5801 177.183 27.6113 168.699 27.3691C168.699 76.0488 168.699 124.729 168.699 173.65Z" fill="url(#paint46_linear)"/>
<path d="M134.281 100.269C134.281 147.253 128.222 184.55 120.95 183.339C113.679 181.886 107.619 144.589 107.619 100.269C107.619 55.9484 113.436 18.6515 120.95 17.1984C128.222 15.9875 134.281 53.5265 134.281 100.269Z" fill="url(#paint47_linear)"/>
<path d="M132.827 100.268C132.827 147.011 127.495 184.55 120.95 183.339C114.406 182.128 109.074 144.589 109.074 100.268C109.074 55.706 114.406 18.4091 120.95 17.1981C127.495 16.2294 132.827 53.5263 132.827 100.268Z" fill="url(#paint48_linear)"/>
<path d="M202.149 100.267C202.149 144.587 195.847 182.126 187.849 183.579C179.85 185.032 173.548 147.251 173.548 100.267C173.548 53.2824 180.092 15.7433 187.849 16.9543C195.605 18.6496 202.149 56.1886 202.149 100.267Z" fill="url(#paint49_linear)"/>
<path d="M200.695 100.267C200.695 144.587 194.878 182.126 187.606 183.579C180.334 184.79 174.517 147.251 174.517 100.267C174.517 53.2824 180.334 15.7433 187.606 16.9543C195.12 18.4074 200.695 55.9465 200.695 100.267Z" fill="url(#paint50_linear)"/>
<path d="M187.848 183.58C165.791 186.971 143.25 186.729 120.95 183.338C120.95 127.877 120.95 72.416 120.95 17.1973C143.007 13.8066 165.549 13.8066 187.848 17.1973C187.848 72.6582 187.848 128.119 187.848 183.58Z" fill="url(#paint51_linear)"/>
<path d="M141.068 145.555C139.856 145.555 138.644 144.586 138.401 143.133C138.159 142.406 134.766 123.758 143.491 107.773C149.309 97.3594 152.944 92.5156 156.095 89.125C154.399 88.8828 152.702 88.6406 151.49 88.1563C150.278 87.6719 149.066 87.1875 148.097 86.7031C146.4 85.9766 144.946 85.4922 143.734 85.4922C142.764 85.4922 141.795 85.7344 140.583 86.4609C138.886 87.4297 137.917 89.6094 136.947 91.5469C135.977 93.7266 134.766 96.875 131.372 96.6328C128.464 96.6328 125.555 96.6328 122.646 96.6328C121.192 96.6328 119.98 95.4219 119.98 93.7266C120.223 82.8281 120.465 71.9297 120.465 61.0313C120.465 59.5781 121.677 58.125 123.374 58.125C127.009 57.8828 130.403 57.8828 134.038 57.6406C135.493 57.6406 136.705 58.8516 136.705 60.3047C136.705 60.7891 136.705 61.0312 136.705 61.5156C137.674 60.7891 139.128 60.0625 140.583 59.3359C143.491 57.8828 146.642 57.1562 149.793 57.1562C153.914 57.1562 158.519 58.3672 163.367 61.0313C164.579 61.7578 166.033 62 167.487 62C172.093 62.2422 176.213 59.3359 176.213 59.3359C176.698 59.0937 177.425 58.8516 177.91 58.8516C181.303 59.0937 184.454 59.3359 187.848 59.5781C189.302 59.8203 190.514 61.0312 190.514 62.4844C190.029 85.4922 189.544 91.3047 177.425 108.258C166.76 123.273 172.093 141.68 172.335 141.922C172.577 142.891 172.335 143.859 171.85 144.586C171.366 145.312 170.396 145.797 169.669 145.797C159.974 146.039 150.521 146.039 141.068 145.555Z" fill="url(#paint52_linear)"/>
<path d="M143.976 147.252C142.764 147.252 141.552 146.283 141.31 144.83C141.068 144.104 137.674 125.455 146.4 109.471C152.217 99.0566 155.853 94.2129 159.004 90.8223C157.307 90.5801 155.611 90.3379 154.399 89.8535C153.187 89.3691 151.975 88.8848 151.005 88.4004C149.066 87.6738 147.854 87.1895 146.4 87.1895C145.431 87.1895 144.461 87.4316 143.249 88.1582C141.552 89.127 140.583 91.3066 139.613 93.2441C138.644 95.4238 137.432 98.5723 134.039 98.3301C131.13 98.3301 128.221 98.3301 125.313 98.3301C123.858 98.3301 122.646 97.1191 122.646 95.4238C122.889 84.5254 123.131 73.627 123.131 62.7285C123.131 61.2754 124.343 59.8223 126.04 59.8223C129.676 59.5801 133.069 59.5801 136.705 59.3379C138.159 59.3379 139.371 60.5488 139.371 62.002C139.371 62.4863 139.371 62.7285 139.371 63.2129C140.341 62.4863 141.795 61.7598 143.249 61.0332C146.158 59.5801 149.309 58.8535 152.46 58.8535C156.58 58.8535 161.186 60.0645 166.033 62.7285C167.245 63.4551 168.699 63.6973 170.154 63.6973C174.759 63.9395 178.88 61.0332 178.88 61.0332C179.364 60.791 180.092 60.5488 180.576 60.5488C183.97 60.791 187.121 61.0332 190.514 61.2754C191.968 61.5176 193.18 62.7285 193.18 64.1816C192.696 87.1895 192.211 93.002 180.092 109.955C169.427 124.971 174.759 143.377 175.001 143.619C175.244 144.588 175.001 145.557 174.517 146.283C174.032 147.01 173.062 147.494 172.335 147.494C162.882 147.979 153.429 147.736 143.976 147.252Z" fill="url(#paint53_linear)"/>
<path d="M141.068 144.102C139.856 144.102 138.644 143.133 138.401 141.68C138.159 140.953 134.766 122.305 143.491 106.32C149.309 95.9063 152.944 91.0625 156.095 87.6719C154.399 87.4297 152.702 87.1875 151.49 86.7031C150.278 86.2187 149.066 85.7344 148.097 85.25C146.4 84.5234 144.946 84.0391 143.734 84.0391C142.764 84.0391 141.795 84.2812 140.583 85.0078C138.886 85.9766 137.917 88.1562 136.947 90.0938C135.977 92.2734 134.766 95.4219 131.372 95.1797C128.464 95.1797 125.555 95.1797 122.646 95.1797C121.192 95.1797 119.98 93.9687 119.98 92.2734C120.223 81.375 120.465 70.4766 120.465 59.5781C120.465 58.125 121.677 56.6719 123.374 56.6719C127.009 56.4297 130.403 56.4297 134.038 56.1875C135.493 56.1875 136.705 57.3984 136.705 58.8516C136.705 59.3359 136.705 59.5781 136.705 60.0625C137.674 59.3359 139.128 58.6094 140.583 57.8828C143.491 56.4297 146.642 55.7031 149.793 55.7031C153.914 55.7031 158.519 56.9141 163.367 59.5781C164.579 60.3047 166.033 60.5469 167.487 60.5469C172.093 60.7891 176.213 57.8828 176.213 57.8828C176.698 57.6406 177.425 57.3984 177.91 57.3984C181.303 57.6406 184.454 57.8828 187.848 58.125C189.302 58.3672 190.514 59.5781 190.514 61.0313C190.029 84.0391 189.544 89.8516 177.425 106.805C166.76 122.305 172.093 140.469 172.335 140.711C172.577 141.68 172.335 142.648 171.85 143.375C171.366 144.102 170.396 144.586 169.669 144.586C159.974 144.586 150.521 144.586 141.068 144.102Z" fill="url(#paint54_linear)"/>
<path d="M187.847 61.0319C184.454 60.7897 181.303 60.5475 177.91 60.3054C177.91 60.3054 169.911 66.1179 162.155 62.2429C154.641 58.3679 147.854 57.6413 141.794 60.5475C136.22 63.2116 134.038 67.0866 134.038 67.0866C134.038 64.4225 134.038 61.7585 134.281 59.0944C130.645 59.0944 127.251 59.3366 123.616 59.5788C123.373 70.4772 123.131 81.6179 123.131 92.5163C123.131 92.5163 128.948 92.5163 131.857 92.5163C134.765 92.5163 134.523 85.4929 139.371 82.5866C144.461 79.4382 147.369 82.3444 152.459 84.0397C155.853 85.2507 161.185 85.2507 164.094 83.3132C159.246 89.1257 155.61 90.5788 146.157 107.774C137.674 123.274 141.31 141.196 141.31 141.438C150.763 141.923 160.458 141.923 169.911 141.923C169.911 141.923 163.851 122.305 175.486 105.837C186.878 89.1257 187.363 84.0397 187.847 61.0319Z" fill="url(#paint55_linear)"/>
<path d="M134.038 68.2956C134.038 68.2956 136.22 64.6628 141.794 61.7565C147.854 58.8503 154.641 59.5768 162.155 63.4518C169.911 67.3268 177.91 61.5143 177.91 61.5143C181.303 61.7565 184.454 61.9987 187.847 62.2409C187.847 61.7565 187.847 61.2722 187.847 60.7878C184.454 60.5456 181.303 60.3034 177.91 60.0612C177.91 60.0612 169.911 65.8737 162.155 61.9987C154.641 58.1237 147.854 57.3972 141.794 60.3034C136.22 62.9675 134.038 66.8425 134.038 66.8425C134.038 67.3268 134.038 67.8112 134.038 68.2956Z" fill="url(#paint56_linear)"/>
<path d="M163.851 84.5215C163.124 85.0059 162.397 85.248 161.67 85.4902C157.792 89.6074 153.914 92.9981 145.915 107.529C141.31 115.764 140.34 124.725 140.34 131.264C140.583 124.725 141.795 116.49 145.915 108.982C155.368 92.0293 159.004 90.5762 163.851 84.5215Z" fill="url(#paint57_linear)"/>
<path d="M169.184 141.678C169.426 141.678 169.426 141.678 169.669 141.678C169.669 141.678 167.972 136.592 167.972 129.326C167.73 134.896 168.699 139.498 169.184 141.678Z" fill="url(#paint58_linear)"/>
<path d="M134.281 58.8496C130.645 58.8496 127.252 59.0918 123.616 59.334C123.616 59.8184 123.616 60.3027 123.616 60.7871C127.252 60.5449 130.645 60.5449 134.281 60.3027C134.281 60.0605 134.281 59.334 134.281 58.8496Z" fill="url(#paint59_linear)"/>
<path d="M138.401 166.869C137.917 166.869 137.432 166.869 137.19 166.869C137.432 168.322 137.674 170.018 137.917 171.471C138.401 171.471 138.644 171.471 139.371 171.713C141.068 171.713 142.522 171.229 142.28 169.533C141.795 167.838 140.341 167.111 138.401 166.869Z" fill="#2B63CC"/>
<path d="M141.068 162.27C141.068 160.816 139.856 160.09 138.159 160.09C137.19 160.09 136.705 160.09 136.463 160.09C136.463 161.543 136.705 162.754 136.947 164.207C137.432 164.207 137.917 164.207 138.159 164.207C140.098 164.449 141.068 163.48 141.068 162.27Z" fill="#2B63CC"/>
<path d="M154.641 160.814C154.399 161.783 154.156 163.236 153.672 164.205C153.429 165.416 152.944 166.627 152.702 167.838C153.914 167.838 155.126 167.838 156.338 167.838C156.095 166.627 155.611 165.416 155.368 164.205C155.368 163.236 155.126 161.783 154.641 160.814Z" fill="#2B63CC"/>
<path d="M122.889 152.096C123.374 161.057 125.07 168.08 127.737 175.588C145.916 177.768 164.579 177.768 182.758 175.83C185.424 168.322 187.363 161.057 188.09 152.58C166.276 154.518 144.219 154.275 122.889 152.096ZM144.704 173.166C143.734 173.893 141.795 174.377 138.644 174.135C136.947 173.893 135.493 173.893 134.766 173.65C133.312 168.322 132.342 162.752 132.1 157.182C133.069 156.939 135.251 156.939 137.19 157.182C139.614 157.424 141.068 157.666 142.522 158.635C143.734 159.361 144.704 160.572 144.704 162.268C144.704 163.963 143.976 165.174 142.037 165.9C143.976 166.627 145.673 168.08 145.673 170.018C146.158 171.229 145.673 172.439 144.704 173.166ZM158.277 174.619C158.035 173.408 157.55 171.955 157.065 170.744C155.368 170.744 153.914 170.744 152.217 170.744C151.975 171.955 151.49 173.408 151.248 174.619C150.036 174.619 148.824 174.619 147.612 174.619C148.824 169.291 150.521 163.479 152.217 157.908C153.914 157.908 155.853 157.908 157.55 157.908C159.247 163.721 160.701 169.291 161.913 174.861C160.701 174.619 159.489 174.619 158.277 174.619ZM177.91 162.025C177.668 164.205 175.729 165.9 174.274 166.385C175.486 166.869 175.729 167.838 175.971 169.291C176.214 170.986 175.971 172.924 176.214 173.65C175.002 173.65 173.79 173.893 172.578 173.893C172.335 173.408 172.335 172.197 172.335 170.26C172.335 168.322 171.608 167.838 170.154 167.838C169.669 167.838 169.427 167.838 168.942 167.838C168.7 170.018 168.457 171.955 167.972 173.893C166.761 173.893 165.549 173.893 164.337 174.135C165.064 168.807 165.549 163.236 165.791 157.424C167.003 157.182 168.942 156.939 171.123 156.939C173.79 156.939 175.729 157.182 176.698 158.15C177.668 159.119 178.153 160.572 177.91 162.025Z" fill="#2B63CC"/>
<path d="M171.123 160.33C170.154 160.33 169.669 160.572 169.184 160.572C169.184 162.268 168.942 163.721 168.699 165.416C169.184 165.416 169.669 165.416 170.154 165.416C172.093 165.416 173.305 164.205 173.547 162.752C174.032 161.057 173.062 160.33 171.123 160.33Z" fill="#2B63CC"/>
<path d="M153.429 29.3047C153.187 30.2734 152.945 31.4844 152.702 32.4531C152.46 33.6641 151.975 34.875 151.733 36.0859C152.944 36.0859 154.156 36.0859 155.368 36.0859C155.126 34.875 154.641 33.6641 154.399 32.4531C153.914 31.4844 153.672 30.2734 153.429 29.3047Z" fill="#2B63CC"/>
<path d="M137.432 36.086C136.947 36.086 136.462 36.086 136.22 36.086C135.977 37.7813 135.735 39.4766 135.735 41.1719C136.22 41.1719 136.462 41.1719 137.189 41.1719C138.886 41.1719 140.583 40.4453 140.583 38.5078C140.825 36.5703 139.371 35.8438 137.432 36.086Z" fill="#2B63CC"/>
<path d="M138.887 29.5469C138.159 29.5469 137.675 29.5469 137.432 29.7891C137.19 31 136.948 32.2109 136.705 33.4219C137.19 33.4219 137.432 33.4219 137.917 33.4219C139.856 33.4219 141.068 32.4531 141.068 31.2422C141.31 30.0312 140.583 29.5469 138.887 29.5469Z" fill="#2B63CC"/>
<path d="M167.972 29.5469C167.003 29.5469 166.761 29.5469 166.518 29.5469C166.761 31 167.003 32.4531 167.003 33.9063C167.488 33.9063 167.972 33.9063 168.457 33.9063C170.396 33.9063 171.123 33.1797 170.881 31.7266C170.639 30.5156 169.427 29.7891 167.972 29.5469Z" fill="#2B63CC"/>
<path d="M180.092 25.4302C162.64 23.4927 145.188 23.4927 127.979 25.188C125.313 33.1802 123.859 38.7505 122.889 48.438C143.976 46.7427 164.337 46.9849 185.182 48.9224C184.212 39.2349 183.243 32.938 180.092 25.4302ZM144.704 38.5084C144.704 40.2037 143.734 41.4146 142.765 42.3834C141.553 43.5943 139.371 44.3209 135.978 44.3209C134.039 44.3209 132.584 44.3209 131.857 44.3209C132.342 38.7505 133.312 32.938 135.008 27.6099C135.978 27.3677 137.674 27.1255 139.371 27.1255C141.31 27.1255 142.765 27.1255 143.734 27.8521C144.704 28.3365 145.431 29.3052 145.188 30.7584C144.946 32.2115 143.976 33.6646 142.037 34.3912C143.492 34.6334 144.704 36.0865 144.704 38.5084ZM157.308 43.8365C156.823 42.1412 156.338 40.688 155.853 38.9927C154.157 38.9927 152.702 38.9927 151.006 38.9927C150.521 40.688 150.036 42.1412 149.794 43.8365C148.339 43.8365 147.127 43.8365 145.673 43.8365C147.37 38.024 149.551 32.2115 151.49 26.8834C152.945 26.8834 154.399 26.8834 155.853 26.8834C157.792 32.2115 159.731 38.024 161.428 43.8365C159.974 43.8365 158.519 43.8365 157.308 43.8365ZM172.82 44.3209C172.578 43.8365 172.093 42.1412 171.366 39.9615C170.639 37.7818 169.912 37.0552 168.457 37.0552C167.972 37.0552 167.73 37.0552 167.245 37.0552C167.488 39.4771 167.488 41.899 167.73 44.3209C166.518 44.3209 165.064 44.3209 163.852 44.0787C163.852 38.2662 163.367 32.6959 162.64 27.3677C163.61 27.1255 165.306 27.1255 167.003 27.3677C169.184 27.6099 170.881 27.8521 172.093 28.8208C173.063 29.5474 174.032 30.7584 174.274 32.2115C174.759 34.3912 173.547 35.6021 172.093 36.0865C173.305 36.5709 174.032 37.7818 174.759 39.4771C175.486 41.6568 176.214 44.0787 176.698 44.8052C175.486 44.563 174.032 44.3209 172.82 44.3209Z" fill="#2B63CC"/>
</g>
<defs>
<linearGradient id="paint0_linear" x1="323.269" y1="61.4932" x2="339.891" y2="66.9077" gradientUnits="userSpaceOnUse">
<stop stop-color="#FFFD91"/>
<stop offset="0.1423" stop-color="#ED9836"/>
<stop offset="0.2231" stop-color="#FFE600"/>
<stop offset="0.3269" stop-color="#FFB700"/>
<stop offset="0.4615" stop-color="#E08700"/>
<stop offset="0.5107" stop-color="#D98100"/>
<stop offset="0.5832" stop-color="#C57000"/>
<stop offset="0.6697" stop-color="#A55300"/>
<stop offset="0.7423" stop-color="#843700"/>
<stop offset="0.8269" stop-color="#750E00"/>
<stop offset="1" stop-color="#FFC800"/>
</linearGradient>
<linearGradient id="paint1_linear" x1="336.146" y1="50.3367" x2="352.047" y2="40.8345" gradientUnits="userSpaceOnUse">
<stop stop-color="white"/>
<stop offset="0.0765036" stop-color="#FCF7F7"/>
<stop offset="0.1974" stop-color="#F5E0E0"/>
<stop offset="0.3474" stop-color="#E9BBBB"/>
<stop offset="0.5208" stop-color="#D88787"/>
<stop offset="0.7113" stop-color="#C34646"/>
<stop offset="0.8923" stop-color="#AD0202"/>
</linearGradient>
<radialGradient id="paint2_radial" cx="0" cy="0" r="1" gradientUnits="userSpaceOnUse" gradientTransform="translate(346.112 11.2302) scale(27.1136 27.0916)">
<stop stop-color="#FF756E"/>
<stop offset="0.1419" stop-color="#F1655F"/>
<stop offset="0.4189" stop-color="#CD3B38"/>
<stop offset="0.7284" stop-color="#9E0605"/>
<stop offset="0.7579" stop-color="#990100"/>
<stop offset="0.8004" stop-color="#9E0100"/>
<stop offset="0.8512" stop-color="#AD0100"/>
<stop offset="0.9062" stop-color="#C50100"/>
<stop offset="0.9638" stop-color="#E60000"/>
<stop offset="1" stop-color="#FF0000"/>
</radialGradient>
<linearGradient id="paint3_linear" x1="346.646" y1="38.0847" x2="346.646" y2="19.4084" gradientUnits="userSpaceOnUse">
<stop stop-color="#636363"/>
<stop offset="0.0550528" stop-color="#747474"/>
<stop offset="0.206" stop-color="#9E9E9E"/>
<stop offset="0.36" stop-color="#C1C1C1"/>
<stop offset="0.5153" stop-color="#DCDCDC"/>
<stop offset="0.6724" stop-color="#F0F0F0"/>
<stop offset="0.8324" stop-color="#FBFBFB"/>
<stop offset="1" stop-color="white"/>
</linearGradient>
<linearGradient id="paint4_linear" x1="344.571" y1="20.0761" x2="344.571" y2="2.86434" gradientUnits="userSpaceOnUse">
<stop stop-color="#242424"/>
<stop offset="1" stop-color="#808080"/>
</linearGradient>
<linearGradient id="paint5_linear" x1="21.7154" y1="49.7818" x2="21.7154" y2="149.713" gradientUnits="userSpaceOnUse">
<stop stop-color="#FFFD91"/>
<stop offset="0.1423" stop-color="#ED9836"/>
<stop offset="0.2231" stop-color="#FFE600"/>
<stop offset="0.3269" stop-color="#FFB700"/>
<stop offset="0.4615" stop-color="#E08700"/>
<stop offset="0.5107" stop-color="#D98100"/>
<stop offset="0.5832" stop-color="#C57000"/>
<stop offset="0.6697" stop-color="#A55300"/>
<stop offset="0.7423" stop-color="#843700"/>
<stop offset="0.8269" stop-color="#750E00"/>
<stop offset="1" stop-color="#FFC800"/>
</linearGradient>
<linearGradient id="paint6_linear" x1="42.7522" y1="179.401" x2="42.7522" y2="20.72" gradientUnits="userSpaceOnUse">
<stop stop-color="#FFC800"/>
<stop offset="0.1405" stop-color="#AD7600"/>
<stop offset="0.2577" stop-color="#A34400"/>
<stop offset="0.2801" stop-color="#AA4C00"/>
<stop offset="0.3874" stop-color="#C76C00"/>
<stop offset="0.4774" stop-color="#D98000"/>
<stop offset="0.5385" stop-color="#E08700"/>
<stop offset="0.6731" stop-color="#FFB700"/>
<stop offset="0.7769" stop-color="#FFE600"/>
<stop offset="0.889" stop-color="#FFFBE6"/>
<stop offset="1" stop-color="#FFE16B"/>
</linearGradient>
<linearGradient id="paint7_linear" x1="44.436" y1="180.261" x2="44.436" y2="20.5" gradientUnits="userSpaceOnUse">
<stop offset="0.00111607" stop-color="#FFD500"/>
<stop offset="0.0144728" stop-color="#EBB400"/>
<stop offset="0.0310677" stop-color="#D69200"/>
<stop offset="0.0468226" stop-color="#C67900"/>
<stop offset="0.0612301" stop-color="#BD6A00"/>
<stop offset="0.0730555" stop-color="#BA6500"/>
<stop offset="0.1611" stop-color="#750000"/>
<stop offset="0.2712" stop-color="#B83A00"/>
<stop offset="0.294" stop-color="#C14C00"/>
<stop offset="0.3424" stop-color="#D26C00"/>
<stop offset="0.3831" stop-color="#DC8000"/>
<stop offset="0.4107" stop-color="#E08700"/>
<stop offset="0.5729" stop-color="#FFB700"/>
<stop offset="0.7085" stop-color="#FFE600"/>
<stop offset="0.8491" stop-color="#FFFEFA"/>
<stop offset="0.9954" stop-color="#FFF4B3"/>
</linearGradient>
<linearGradient id="paint8_linear" x1="50.5764" y1="180.245" x2="50.5764" y2="20.5167" gradientUnits="userSpaceOnUse">
<stop offset="0.00111607" stop-color="#FFD500"/>
<stop offset="0.0144728" stop-color="#EBB400"/>
<stop offset="0.0310677" stop-color="#D69200"/>
<stop offset="0.0468226" stop-color="#C67900"/>
<stop offset="0.0612301" stop-color="#BD6A00"/>
<stop offset="0.0730555" stop-color="#BA6500"/>
<stop offset="0.1611" stop-color="#750000"/>
<stop offset="0.2712" stop-color="#B83A00"/>
<stop offset="0.294" stop-color="#C14C00"/>
<stop offset="0.3424" stop-color="#D26C00"/>
<stop offset="0.3831" stop-color="#DC8000"/>
<stop offset="0.4107" stop-color="#E08700"/>
<stop offset="0.5729" stop-color="#FFB700"/>
<stop offset="0.7085" stop-color="#FFE600"/>
<stop offset="0.8491" stop-color="#FFFEFA"/>
<stop offset="0.9954" stop-color="#FFF4B3"/>
</linearGradient>
<linearGradient id="paint9_linear" x1="56.47" y1="179.817" x2="56.47" y2="20.9438" gradientUnits="userSpaceOnUse">
<stop stop-color="#FFC800"/>
<stop offset="0.1731" stop-color="#751700"/>
<stop offset="0.2577" stop-color="#842300"/>
<stop offset="0.3414" stop-color="#A94B00"/>
<stop offset="0.4235" stop-color="#C76C00"/>
<stop offset="0.492" stop-color="#D98000"/>
<stop offset="0.5385" stop-color="#E08700"/>
<stop offset="0.6731" stop-color="#FFB700"/>
<stop offset="0.7769" stop-color="#FFE600"/>
<stop offset="1" stop-color="#FFE16B"/>
</linearGradient>
<linearGradient id="paint10_linear" x1="17.9407" y1="140.449" x2="98.0771" y2="60.2478" gradientUnits="userSpaceOnUse">
<stop stop-color="#6E3100"/>
<stop offset="0.2577" stop-color="#753100"/>
<stop offset="0.3239" stop-color="#924B00"/>
<stop offset="0.413" stop-color="#B26800"/>
<stop offset="0.4878" stop-color="#C67A00"/>
<stop offset="0.5385" stop-color="#CD8100"/>
<stop offset="0.6731" stop-color="#EB9800"/>
<stop offset="0.7769" stop-color="#EB9D00"/>
<stop offset="0.8903" stop-color="#DE8A00"/>
<stop offset="0.9988" stop-color="#E09A00"/>
</linearGradient>
<linearGradient id="paint11_linear" x1="63.3822" y1="174.265" x2="63.3822" y2="26.5013" gradientUnits="userSpaceOnUse">
<stop offset="0.00422023" stop-color="#78BEFF"/>
<stop offset="0.0457376" stop-color="#69B3F5"/>
<stop offset="0.1255" stop-color="#4295DA"/>
<stop offset="0.2186" stop-color="#0D6DB5"/>
<stop offset="0.2332" stop-color="#0D6EB9"/>
<stop offset="0.2487" stop-color="#0E72C6"/>
<stop offset="0.2646" stop-color="#1078DB"/>
<stop offset="0.2748" stop-color="#117DED"/>
<stop offset="0.2862" stop-color="#3092F2"/>
<stop offset="0.3119" stop-color="#72BEFB"/>
<stop offset="0.324" stop-color="#8CCFFF"/>
<stop offset="0.5843" stop-color="#D8E5FF"/>
<stop offset="0.6889" stop-color="white"/>
<stop offset="0.8291" stop-color="white"/>
<stop offset="0.9" stop-color="#E9EDFF"/>
<stop offset="0.9992" stop-color="#E7EEFF"/>
</linearGradient>
<linearGradient id="paint12_linear" x1="87.6763" y1="174.253" x2="87.6763" y2="26.5133" gradientUnits="userSpaceOnUse">
<stop offset="0.00422023" stop-color="#78BEFF"/>
<stop offset="0.0457376" stop-color="#69B3F5"/>
<stop offset="0.1255" stop-color="#4295DA"/>
<stop offset="0.2186" stop-color="#0D6DB5"/>
<stop offset="0.2332" stop-color="#0D6EB9"/>
<stop offset="0.2487" stop-color="#0E72C6"/>
<stop offset="0.2646" stop-color="#1078DB"/>
<stop offset="0.2748" stop-color="#117DED"/>
<stop offset="0.2862" stop-color="#3092F2"/>
<stop offset="0.3119" stop-color="#72BEFB"/>
<stop offset="0.324" stop-color="#8CCFFF"/>
<stop offset="0.5843" stop-color="#D8E5FF"/>
<stop offset="0.6889" stop-color="white"/>
<stop offset="0.8291" stop-color="white"/>
<stop offset="0.9" stop-color="#E9EDFF"/>
<stop offset="0.9992" stop-color="#E7EEFF"/>
</linearGradient>
<linearGradient id="paint13_linear" x1="73.8731" y1="138.089" x2="149.284" y2="62.6167" gradientUnits="userSpaceOnUse">
<stop stop-color="#C57FC7"/>
<stop offset="0.2414" stop-color="#FFDBFF"/>
<stop offset="0.5003" stop-color="#FFF0FF"/>
<stop offset="0.7689" stop-color="#FFDEFF"/>
<stop offset="1" stop-color="#E695E8"/>
</linearGradient>
<linearGradient id="paint14_linear" x1="74.9822" y1="137.993" x2="150.199" y2="62.715" gradientUnits="userSpaceOnUse">
<stop offset="0.0407159" stop-color="#243F79"/>
<stop offset="0.1041" stop-color="#182D60"/>
<stop offset="0.1828" stop-color="#0C1B46"/>
<stop offset="0.2302" stop-color="#08143D"/>
<stop offset="0.639" stop-color="#306BA1"/>
<stop offset="1" stop-color="#416ADC"/>
</linearGradient>
<linearGradient id="paint15_linear" x1="64.3774" y1="133.751" x2="65.5355" y2="67.9105" gradientUnits="userSpaceOnUse">
<stop stop-color="#223452"/>
<stop offset="0.9983" stop-color="#76AFDB"/>
</linearGradient>
<linearGradient id="paint16_linear" x1="64.513" y1="136.527" x2="65.6711" y2="70.686" gradientUnits="userSpaceOnUse">
<stop stop-color="#D27200"/>
<stop offset="0.9983" stop-color="#E66B00"/>
</linearGradient>
<linearGradient id="paint17_linear" x1="64.5129" y1="132.646" x2="65.6712" y2="66.7917" gradientUnits="userSpaceOnUse">
<stop offset="0.00111607" stop-color="#FFD500"/>
<stop offset="0.0144728" stop-color="#EBB400"/>
<stop offset="0.0310677" stop-color="#D69200"/>
<stop offset="0.0468226" stop-color="#C67900"/>
<stop offset="0.0612301" stop-color="#BD6A00"/>
<stop offset="0.0730555" stop-color="#BA6500"/>
<stop offset="0.1611" stop-color="#750000"/>
<stop offset="0.2712" stop-color="#B83A00"/>
<stop offset="0.294" stop-color="#C14C00"/>
<stop offset="0.3424" stop-color="#D26C00"/>
<stop offset="0.3831" stop-color="#DC8000"/>
<stop offset="0.4107" stop-color="#E08700"/>
<stop offset="0.5729" stop-color="#FFB700"/>
<stop offset="0.7085" stop-color="#FFE600"/>
<stop offset="0.8491" stop-color="#FFFEFA"/>
<stop offset="0.9954" stop-color="#FFF4B3"/>
</linearGradient>
<linearGradient id="paint18_linear" x1="64.1271" y1="149.709" x2="65.6895" y2="60.8781" gradientUnits="userSpaceOnUse">
<stop offset="0.1635" stop-color="#A70300"/>
<stop offset="0.2455" stop-color="#7E0100"/>
<stop offset="0.3268" stop-color="#590000"/>
<stop offset="0.3652" stop-color="#650100"/>
<stop offset="0.4057" stop-color="#6C0100"/>
<stop offset="0.5582" stop-color="#AE1615"/>
<stop offset="0.7957" stop-color="#FF5E5E"/>
<stop offset="0.9991" stop-color="#FF9D61"/>
</linearGradient>
<linearGradient id="paint19_linear" x1="61.6004" y1="64.5547" x2="77.8138" y2="81.3631" gradientUnits="userSpaceOnUse">
<stop stop-color="#054084"/>
<stop offset="0.00140069" stop-color="#054084"/>
<stop offset="0.3528" stop-color="#043977"/>
<stop offset="0.6857" stop-color="#033773"/>
</linearGradient>
<linearGradient id="paint20_linear" x1="56.7616" y1="100.013" x2="67.4791" y2="111.123" gradientUnits="userSpaceOnUse">
<stop stop-color="#054084"/>
<stop offset="0.00140069" stop-color="#054084"/>
<stop offset="0.3528" stop-color="#043977"/>
<stop offset="0.6857" stop-color="#033773"/>
</linearGradient>
<linearGradient id="paint21_linear" x1="71.6214" y1="123.078" x2="77.3707" y2="129.038" gradientUnits="userSpaceOnUse">
<stop stop-color="#054084"/>
<stop offset="0.00140069" stop-color="#054084"/>
<stop offset="0.3528" stop-color="#043977"/>
<stop offset="0.6857" stop-color="#033773"/>
</linearGradient>
<linearGradient id="paint22_linear" x1="46.7588" y1="67.2065" x2="50.7049" y2="71.2975" gradientUnits="userSpaceOnUse">
<stop stop-color="#054084"/>
<stop offset="0.00140069" stop-color="#054084"/>
<stop offset="0.3528" stop-color="#043977"/>
<stop offset="0.6857" stop-color="#033773"/>
</linearGradient>
<linearGradient id="paint23_linear" x1="310.146" y1="68.8287" x2="310.146" y2="130.676" gradientUnits="userSpaceOnUse">
<stop stop-color="#FFFD91"/>
<stop offset="0.1423" stop-color="#ED9836"/>
<stop offset="0.2231" stop-color="#FFE600"/>
<stop offset="0.3269" stop-color="#FFB700"/>
<stop offset="0.4615" stop-color="#E08700"/>
<stop offset="0.5107" stop-color="#D98100"/>
<stop offset="0.5832" stop-color="#C57000"/>
<stop offset="0.6697" stop-color="#A55300"/>
<stop offset="0.7423" stop-color="#843700"/>
<stop offset="0.8269" stop-color="#750E00"/>
<stop offset="1" stop-color="#FFC800"/>
</linearGradient>
<linearGradient id="paint24_linear" x1="303.398" y1="61.8071" x2="303.398" y2="137.698" gradientUnits="userSpaceOnUse">
<stop stop-color="#FFFD91"/>
<stop offset="0.1423" stop-color="#ED9836"/>
<stop offset="0.2231" stop-color="#FFE600"/>
<stop offset="0.3269" stop-color="#FFB700"/>
<stop offset="0.4615" stop-color="#E08700"/>
<stop offset="0.5107" stop-color="#D98100"/>
<stop offset="0.5832" stop-color="#C57000"/>
<stop offset="0.6697" stop-color="#A55300"/>
<stop offset="0.7423" stop-color="#843700"/>
<stop offset="0.8269" stop-color="#750E00"/>
<stop offset="1" stop-color="#FFC800"/>
</linearGradient>
<linearGradient id="paint25_linear" x1="288.366" y1="50.4181" x2="288.366" y2="149.091" gradientUnits="userSpaceOnUse">
<stop stop-color="#FFFD91"/>
<stop offset="0.1423" stop-color="#ED9836"/>
<stop offset="0.2231" stop-color="#FFE600"/>
<stop offset="0.3269" stop-color="#FFB700"/>
<stop offset="0.4615" stop-color="#E08700"/>
<stop offset="0.5107" stop-color="#D98100"/>
<stop offset="0.5832" stop-color="#C57000"/>
<stop offset="0.6697" stop-color="#A55300"/>
<stop offset="0.7423" stop-color="#843700"/>
<stop offset="0.8269" stop-color="#750E00"/>
<stop offset="1" stop-color="#FFC800"/>
</linearGradient>
<linearGradient id="paint26_linear" x1="267.286" y1="178.606" x2="267.286" y2="21.5215" gradientUnits="userSpaceOnUse">
<stop stop-color="#FFC800"/>
<stop offset="0.1405" stop-color="#AD7600"/>
<stop offset="0.2577" stop-color="#A34400"/>
<stop offset="0.2801" stop-color="#AA4C00"/>
<stop offset="0.3874" stop-color="#C76C00"/>
<stop offset="0.4774" stop-color="#D98000"/>
<stop offset="0.5385" stop-color="#E08700"/>
<stop offset="0.6731" stop-color="#FFB700"/>
<stop offset="0.7769" stop-color="#FFE600"/>
<stop offset="0.889" stop-color="#FFFBE6"/>
<stop offset="1" stop-color="#FFE16B"/>
</linearGradient>
<linearGradient id="paint27_linear" x1="265.612" y1="179.474" x2="265.612" y2="21.2859" gradientUnits="userSpaceOnUse">
<stop offset="0.00111607" stop-color="#FFD500"/>
<stop offset="0.0144728" stop-color="#EBB400"/>
<stop offset="0.0310677" stop-color="#D69200"/>
<stop offset="0.0468226" stop-color="#C67900"/>
<stop offset="0.0612301" stop-color="#BD6A00"/>
<stop offset="0.0730555" stop-color="#BA6500"/>
<stop offset="0.1611" stop-color="#750000"/>
<stop offset="0.2712" stop-color="#B83A00"/>
<stop offset="0.294" stop-color="#C14C00"/>
<stop offset="0.3424" stop-color="#D26C00"/>
<stop offset="0.3831" stop-color="#DC8000"/>
<stop offset="0.4107" stop-color="#E08700"/>
<stop offset="0.5729" stop-color="#FFB700"/>
<stop offset="0.7085" stop-color="#FFE600"/>
<stop offset="0.8491" stop-color="#FFFEFA"/>
<stop offset="0.9954" stop-color="#FFF4B3"/>
</linearGradient>
<linearGradient id="paint28_linear" x1="259.686" y1="179.463" x2="259.686" y2="21.2948" gradientUnits="userSpaceOnUse">
<stop offset="0.00111607" stop-color="#FFD500"/>
<stop offset="0.0144728" stop-color="#EBB400"/>
<stop offset="0.0310677" stop-color="#D69200"/>
<stop offset="0.0468226" stop-color="#C67900"/>
<stop offset="0.0612301" stop-color="#BD6A00"/>
<stop offset="0.0730555" stop-color="#BA6500"/>
<stop offset="0.1611" stop-color="#750000"/>
<stop offset="0.2712" stop-color="#B83A00"/>
<stop offset="0.294" stop-color="#C14C00"/>
<stop offset="0.3424" stop-color="#D26C00"/>
<stop offset="0.3831" stop-color="#DC8000"/>
<stop offset="0.4107" stop-color="#E08700"/>
<stop offset="0.5729" stop-color="#FFB700"/>
<stop offset="0.7085" stop-color="#FFE600"/>
<stop offset="0.8491" stop-color="#FFFEFA"/>
<stop offset="0.9954" stop-color="#FFF4B3"/>
</linearGradient>
<linearGradient id="paint29_linear" x1="253.586" y1="179.172" x2="253.586" y2="21.5882" gradientUnits="userSpaceOnUse">
<stop stop-color="#FFC800"/>
<stop offset="0.1731" stop-color="#751700"/>
<stop offset="0.2577" stop-color="#842300"/>
<stop offset="0.3414" stop-color="#A94B00"/>
<stop offset="0.4235" stop-color="#C76C00"/>
<stop offset="0.492" stop-color="#D98000"/>
<stop offset="0.5385" stop-color="#E08700"/>
<stop offset="0.6731" stop-color="#FFB700"/>
<stop offset="0.7769" stop-color="#FFE600"/>
<stop offset="1" stop-color="#FFE16B"/>
</linearGradient>
<linearGradient id="paint30_linear" x1="292.073" y1="140.24" x2="212.351" y2="60.4531" gradientUnits="userSpaceOnUse">
<stop stop-color="#6E3100"/>
<stop offset="0.2577" stop-color="#753100"/>
<stop offset="0.3239" stop-color="#924B00"/>
<stop offset="0.413" stop-color="#B26800"/>
<stop offset="0.4878" stop-color="#C67A00"/>
<stop offset="0.5385" stop-color="#CD8100"/>
<stop offset="0.6731" stop-color="#EB9800"/>
<stop offset="0.7769" stop-color="#EB9D00"/>
<stop offset="0.8903" stop-color="#DE8A00"/>
<stop offset="0.9988" stop-color="#E09A00"/>
</linearGradient>
<linearGradient id="paint31_linear" x1="246.154" y1="173.751" x2="246.154" y2="27.0103" gradientUnits="userSpaceOnUse">
<stop offset="0.00422023" stop-color="#78BEFF"/>
<stop offset="0.0457376" stop-color="#69B3F5"/>
<stop offset="0.1255" stop-color="#4295DA"/>
<stop offset="0.2186" stop-color="#0D6DB5"/>
<stop offset="0.2332" stop-color="#0D6EB9"/>
<stop offset="0.2487" stop-color="#0E72C6"/>
<stop offset="0.2646" stop-color="#1078DB"/>
<stop offset="0.2748" stop-color="#117DED"/>
<stop offset="0.2862" stop-color="#3092F2"/>
<stop offset="0.3119" stop-color="#72BEFB"/>
<stop offset="0.324" stop-color="#8CCFFF"/>
<stop offset="0.5843" stop-color="#D8E5FF"/>
<stop offset="0.6889" stop-color="white"/>
<stop offset="0.8291" stop-color="white"/>
<stop offset="0.9" stop-color="#E9EDFF"/>
<stop offset="0.9992" stop-color="#E7EEFF"/>
</linearGradient>
<linearGradient id="paint32_linear" x1="221.756" y1="173.816" x2="221.756" y2="26.9424" gradientUnits="userSpaceOnUse">
<stop offset="0.00422023" stop-color="#78BEFF"/>
<stop offset="0.0457376" stop-color="#69B3F5"/>
<stop offset="0.1255" stop-color="#4295DA"/>
<stop offset="0.2186" stop-color="#0D6DB5"/>
<stop offset="0.2332" stop-color="#0D6EB9"/>
<stop offset="0.2487" stop-color="#0E72C6"/>
<stop offset="0.2646" stop-color="#1078DB"/>
<stop offset="0.2748" stop-color="#117DED"/>
<stop offset="0.2862" stop-color="#3092F2"/>
<stop offset="0.3119" stop-color="#72BEFB"/>
<stop offset="0.324" stop-color="#8CCFFF"/>
<stop offset="0.5843" stop-color="#D8E5FF"/>
<stop offset="0.6889" stop-color="white"/>
<stop offset="0.8291" stop-color="white"/>
<stop offset="0.9" stop-color="#E9EDFF"/>
<stop offset="0.9992" stop-color="#E7EEFF"/>
</linearGradient>
<linearGradient id="paint33_linear" x1="235.41" y1="138.101" x2="159.971" y2="62.5996" gradientUnits="userSpaceOnUse">
<stop stop-color="#C57FC7"/>
<stop offset="0.2414" stop-color="#FFDBFF"/>
<stop offset="0.5003" stop-color="#FFF0FF"/>
<stop offset="0.7689" stop-color="#FFDEFF"/>
<stop offset="1" stop-color="#E695E8"/>
</linearGradient>
<linearGradient id="paint34_linear" x1="234.319" y1="138.006" x2="159.068" y2="62.6942" gradientUnits="userSpaceOnUse">
<stop offset="0.0407159" stop-color="#243F79"/>
<stop offset="0.1041" stop-color="#182D60"/>
<stop offset="0.1828" stop-color="#0C1B46"/>
<stop offset="0.2302" stop-color="#08143D"/>
<stop offset="0.639" stop-color="#306BA1"/>
<stop offset="1" stop-color="#416ADC"/>
</linearGradient>
<linearGradient id="paint35_linear" x1="240.118" y1="112.137" x2="241.275" y2="46.3243" gradientUnits="userSpaceOnUse">
<stop stop-color="#223452"/>
<stop offset="0.9983" stop-color="#76AFDB"/>
</linearGradient>
<linearGradient id="paint36_linear" x1="240.24" y1="113.688" x2="241.397" y2="47.8745" gradientUnits="userSpaceOnUse">
<stop stop-color="#D27200"/>
<stop offset="0.9983" stop-color="#E66B00"/>
</linearGradient>
<linearGradient id="paint37_linear" x1="239.911" y1="111.031" x2="241.068" y2="45.2204" gradientUnits="userSpaceOnUse">
<stop offset="0.00111607" stop-color="#FFD500"/>
<stop offset="0.0144728" stop-color="#EBB400"/>
<stop offset="0.0310677" stop-color="#D69200"/>
<stop offset="0.0468226" stop-color="#C67900"/>
<stop offset="0.0612301" stop-color="#BD6A00"/>
<stop offset="0.0730555" stop-color="#BA6500"/>
<stop offset="0.1611" stop-color="#750000"/>
<stop offset="0.2712" stop-color="#B83A00"/>
<stop offset="0.294" stop-color="#C14C00"/>
<stop offset="0.3424" stop-color="#D26C00"/>
<stop offset="0.3831" stop-color="#DC8000"/>
<stop offset="0.4107" stop-color="#E08700"/>
<stop offset="0.5729" stop-color="#FFB700"/>
<stop offset="0.7085" stop-color="#FFE600"/>
<stop offset="0.8491" stop-color="#FFFEFA"/>
<stop offset="0.9954" stop-color="#FFF4B3"/>
</linearGradient>
<linearGradient id="paint38_linear" x1="240.705" y1="153.307" x2="242.281" y2="63.6235" gradientUnits="userSpaceOnUse">
<stop offset="0.1635" stop-color="#A70300"/>
<stop offset="0.2455" stop-color="#7E0100"/>
<stop offset="0.3268" stop-color="#590000"/>
<stop offset="0.3652" stop-color="#650100"/>
<stop offset="0.4057" stop-color="#6C0100"/>
<stop offset="0.5582" stop-color="#AE1615"/>
<stop offset="0.7957" stop-color="#FF5E5E"/>
<stop offset="0.9991" stop-color="#FF9D61"/>
</linearGradient>
<linearGradient id="paint39_linear" x1="234.311" y1="42.6443" x2="250.582" y2="58.5673" gradientUnits="userSpaceOnUse">
<stop stop-color="#054084"/>
<stop offset="0.00140069" stop-color="#054084"/>
<stop offset="0.3528" stop-color="#043977"/>
<stop offset="0.6857" stop-color="#033773"/>
</linearGradient>
<linearGradient id="paint40_linear" x1="234.434" y1="79.0012" x2="244.121" y2="88.4811" gradientUnits="userSpaceOnUse">
<stop stop-color="#054084"/>
<stop offset="0.00140069" stop-color="#054084"/>
<stop offset="0.3528" stop-color="#043977"/>
<stop offset="0.6857" stop-color="#033773"/>
</linearGradient>
<linearGradient id="paint41_linear" x1="247.751" y1="102.383" x2="252.165" y2="106.702" gradientUnits="userSpaceOnUse">
<stop stop-color="#054084"/>
<stop offset="0.00140069" stop-color="#054084"/>
<stop offset="0.3528" stop-color="#043977"/>
<stop offset="0.6857" stop-color="#033773"/>
</linearGradient>
<linearGradient id="paint42_linear" x1="217.817" y1="45.3002" x2="222.419" y2="49.8041" gradientUnits="userSpaceOnUse">
<stop stop-color="#054084"/>
<stop offset="0.00140069" stop-color="#054084"/>
<stop offset="0.3528" stop-color="#043977"/>
<stop offset="0.6857" stop-color="#033773"/>
</linearGradient>
<linearGradient id="paint43_linear" x1="115.658" y1="171.092" x2="115.658" y2="29.6754" gradientUnits="userSpaceOnUse">
<stop offset="0.00225139" stop-color="#1E4866"/>
<stop offset="0.2735" stop-color="#122B3D"/>
<stop offset="0.459" stop-color="#295779"/>
<stop offset="0.5495" stop-color="#326991"/>
<stop offset="0.6153" stop-color="#35709A"/>
<stop offset="0.7244" stop-color="#3E82B4"/>
<stop offset="0.8188" stop-color="#4795CF"/>
<stop offset="1" stop-color="white"/>
</linearGradient>
<linearGradient id="paint44_linear" x1="127.769" y1="173.587" x2="127.769" y2="27.1795" gradientUnits="userSpaceOnUse">
<stop stop-color="#04290D"/>
<stop offset="0.2735" stop-color="#4F4F4F"/>
<stop offset="0.4195" stop-color="#6F6F6F"/>
<stop offset="0.5495" stop-color="#878787"/>
<stop offset="0.6448" stop-color="#909090"/>
<stop offset="0.8028" stop-color="#AAAAAA"/>
<stop offset="0.8199" stop-color="#ADADAD"/>
<stop offset="1" stop-color="#919191"/>
</linearGradient>
<linearGradient id="paint45_linear" x1="193.539" y1="171.139" x2="193.539" y2="29.6279" gradientUnits="userSpaceOnUse">
<stop offset="0.00225139" stop-color="#1E4866"/>
<stop offset="0.2735" stop-color="#122B3D"/>
<stop offset="0.459" stop-color="#295779"/>
<stop offset="0.5495" stop-color="#326991"/>
<stop offset="0.6153" stop-color="#35709A"/>
<stop offset="0.7244" stop-color="#3E82B4"/>
<stop offset="0.8188" stop-color="#4795CF"/>
<stop offset="1" stop-color="white"/>
</linearGradient>
<linearGradient id="paint46_linear" x1="181.147" y1="173.635" x2="181.147" y2="27.1313" gradientUnits="userSpaceOnUse">
<stop stop-color="#04290D"/>
<stop offset="0.2735" stop-color="#4F4F4F"/>
<stop offset="0.4195" stop-color="#6F6F6F"/>
<stop offset="0.5495" stop-color="#878787"/>
<stop offset="0.6448" stop-color="#909090"/>
<stop offset="0.8028" stop-color="#AAAAAA"/>
<stop offset="0.8199" stop-color="#ADADAD"/>
<stop offset="1" stop-color="#919191"/>
</linearGradient>
<linearGradient id="paint47_linear" x1="120.961" y1="183.518" x2="120.961" y2="17.2502" gradientUnits="userSpaceOnUse">
<stop stop-color="#D1FDFF"/>
<stop offset="0.2414" stop-color="#D1FDFF"/>
<stop offset="0.7689" stop-color="#D1FDFF"/>
<stop offset="1" stop-color="#D1FDFF"/>
</linearGradient>
<linearGradient id="paint48_linear" x1="120.951" y1="186.452" x2="120.951" y2="14.8964" gradientUnits="userSpaceOnUse">
<stop offset="0.00422023" stop-color="#78BEFF"/>
<stop offset="0.0457376" stop-color="#69B3F5"/>
<stop offset="0.1255" stop-color="#4295DA"/>
<stop offset="0.2186" stop-color="#0D6DB5"/>
<stop offset="0.2332" stop-color="#0D6EB9"/>
<stop offset="0.2487" stop-color="#0E72C6"/>
<stop offset="0.2646" stop-color="#1078DB"/>
<stop offset="0.2748" stop-color="#117DED"/>
<stop offset="0.2862" stop-color="#3092F2"/>
<stop offset="0.3119" stop-color="#72BEFB"/>
<stop offset="0.324" stop-color="#8CCFFF"/>
<stop offset="0.5843" stop-color="#D8E5FF"/>
<stop offset="0.6889" stop-color="white"/>
<stop offset="0.8291" stop-color="white"/>
<stop offset="0.9" stop-color="#E9EDFF"/>
<stop offset="0.9992" stop-color="#E7EEFF"/>
</linearGradient>
<linearGradient id="paint49_linear" x1="187.722" y1="183.642" x2="187.722" y2="17.1226" gradientUnits="userSpaceOnUse">
<stop stop-color="#D1FDFF"/>
<stop offset="0.2414" stop-color="#D1FDFF"/>
<stop offset="0.7689" stop-color="#D1FDFF"/>
<stop offset="1" stop-color="#D1FDFF"/>
</linearGradient>
<linearGradient id="paint50_linear" x1="187.731" y1="186.451" x2="187.731" y2="14.8947" gradientUnits="userSpaceOnUse">
<stop offset="0.00422023" stop-color="#78BEFF"/>
<stop offset="0.0457376" stop-color="#69B3F5"/>
<stop offset="0.1255" stop-color="#4295DA"/>
<stop offset="0.2186" stop-color="#0D6DB5"/>
<stop offset="0.2332" stop-color="#0D6EB9"/>
<stop offset="0.2487" stop-color="#0E72C6"/>
<stop offset="0.2646" stop-color="#1078DB"/>
<stop offset="0.2748" stop-color="#117DED"/>
<stop offset="0.2862" stop-color="#3092F2"/>
<stop offset="0.3119" stop-color="#72BEFB"/>
<stop offset="0.324" stop-color="#8CCFFF"/>
<stop offset="0.5843" stop-color="#D8E5FF"/>
<stop offset="0.6889" stop-color="white"/>
<stop offset="0.8291" stop-color="white"/>
<stop offset="0.9" stop-color="#E9EDFF"/>
<stop offset="0.9992" stop-color="#E7EEFF"/>
</linearGradient>
<linearGradient id="paint51_linear" x1="154.344" y1="186.451" x2="154.344" y2="14.895" gradientUnits="userSpaceOnUse">
<stop offset="0.00422023" stop-color="#78BEFF"/>
<stop offset="0.0457376" stop-color="#69B3F5"/>
<stop offset="0.1255" stop-color="#4295DA"/>
<stop offset="0.2186" stop-color="#0D6DB5"/>
<stop offset="0.2332" stop-color="#0D6EB9"/>
<stop offset="0.2487" stop-color="#0E72C6"/>
<stop offset="0.2646" stop-color="#1078DB"/>
<stop offset="0.2748" stop-color="#117DED"/>
<stop offset="0.2862" stop-color="#3092F2"/>
<stop offset="0.3119" stop-color="#72BEFB"/>
<stop offset="0.324" stop-color="#8CCFFF"/>
<stop offset="0.5843" stop-color="#D8E5FF"/>
<stop offset="0.6889" stop-color="white"/>
<stop offset="0.8291" stop-color="white"/>
<stop offset="0.9" stop-color="#E9EDFF"/>
<stop offset="0.9992" stop-color="#E7EEFF"/>
</linearGradient>
<linearGradient id="paint52_linear" x1="154.218" y1="145.98" x2="155.776" y2="57.3672" gradientUnits="userSpaceOnUse">
<stop stop-color="#223452"/>
<stop offset="0.9983" stop-color="#76AFDB"/>
</linearGradient>
<linearGradient id="paint53_linear" x1="157.081" y1="147.737" x2="158.64" y2="59.1247" gradientUnits="userSpaceOnUse">
<stop stop-color="#D27200"/>
<stop offset="0.9983" stop-color="#E66B00"/>
</linearGradient>
<linearGradient id="paint54_linear" x1="154.245" y1="144.47" x2="155.804" y2="55.8582" gradientUnits="userSpaceOnUse">
<stop offset="0.00111607" stop-color="#FFD500"/>
<stop offset="0.0144728" stop-color="#EBB400"/>
<stop offset="0.0310677" stop-color="#D69200"/>
<stop offset="0.0468226" stop-color="#C67900"/>
<stop offset="0.0612301" stop-color="#BD6A00"/>
<stop offset="0.0730555" stop-color="#BA6500"/>
<stop offset="0.1611" stop-color="#750000"/>
<stop offset="0.2712" stop-color="#B83A00"/>
<stop offset="0.294" stop-color="#C14C00"/>
<stop offset="0.3424" stop-color="#D26C00"/>
<stop offset="0.3831" stop-color="#DC8000"/>
<stop offset="0.4107" stop-color="#E08700"/>
<stop offset="0.5729" stop-color="#FFB700"/>
<stop offset="0.7085" stop-color="#FFE600"/>
<stop offset="0.8491" stop-color="#FFFEFA"/>
<stop offset="0.9954" stop-color="#FFF4B3"/>
</linearGradient>
<linearGradient id="paint55_linear" x1="153.989" y1="158.929" x2="155.8" y2="55.9804" gradientUnits="userSpaceOnUse">
<stop offset="0.1635" stop-color="#A70300"/>
<stop offset="0.2455" stop-color="#7E0100"/>
<stop offset="0.3268" stop-color="#590000"/>
<stop offset="0.3652" stop-color="#650100"/>
<stop offset="0.4057" stop-color="#6C0100"/>
<stop offset="0.5582" stop-color="#AE1615"/>
<stop offset="0.7957" stop-color="#FF5E5E"/>
<stop offset="0.9991" stop-color="#FF9D61"/>
</linearGradient>
<linearGradient id="paint56_linear" x1="148.885" y1="52.1618" x2="172.837" y2="76.9924" gradientUnits="userSpaceOnUse">
<stop stop-color="#054084"/>
<stop offset="0.00140069" stop-color="#054084"/>
<stop offset="0.3528" stop-color="#043977"/>
<stop offset="0.6857" stop-color="#033773"/>
</linearGradient>
<linearGradient id="paint57_linear" x1="145.525" y1="101.235" x2="158.112" y2="114.283" gradientUnits="userSpaceOnUse">
<stop stop-color="#054084"/>
<stop offset="0.00140069" stop-color="#054084"/>
<stop offset="0.3528" stop-color="#043977"/>
<stop offset="0.6857" stop-color="#033773"/>
</linearGradient>
<linearGradient id="paint58_linear" x1="165.243" y1="131.971" x2="172.184" y2="139.167" gradientUnits="userSpaceOnUse">
<stop stop-color="#054084"/>
<stop offset="0.00140069" stop-color="#054084"/>
<stop offset="0.3528" stop-color="#043977"/>
<stop offset="0.6857" stop-color="#033773"/>
</linearGradient>
<linearGradient id="paint59_linear" x1="126.087" y1="56.9653" x2="131.764" y2="62.8498" gradientUnits="userSpaceOnUse">
<stop stop-color="#054084"/>
<stop offset="0.00140069" stop-color="#054084"/>
<stop offset="0.3528" stop-color="#043977"/>
<stop offset="0.6857" stop-color="#033773"/>
</linearGradient>
<clipPath id="clip0">
<rect width="366" height="186" fill="white"/>
</clipPath>
</defs>
</svg>
