<svg width="248" height="318" viewBox="0 0 248 318" fill="none" xmlns="http://www.w3.org/2000/svg">
<path d="M119.093 0.876071C103.551 2.75499 89.2768 12.9559 82.4705 27.0302C74.2324 44.0398 76.8725 64.3159 71.3513 82.3956C64.1777 105.845 44.3372 122.873 31.2788 143.599C15.7129 168.3 10.0487 197.794 4.69716 226.494C1.13945 245.557 -2.33755 265.789 4.60117 283.899C14.0765 308.623 44.1547 323.272 69.4443 315.513C112.357 302.347 124.18 242.142 165.335 224.214C186.656 214.925 213.44 218.384 231.251 203.414C252.333 185.674 249.178 152.777 242.919 125.948C238.161 105.531 232.691 85.2883 227.239 65.0453C222.805 48.6569 217.969 31.5094 206.192 19.2654C191.655 4.1525 180.145 10.1451 162.969 10.1939C147.819 10.2111 135.679 -1.13299 119.093 0.876071Z" fill="#2A6FF6"/>
</svg>
