<svg width="58" height="58" viewBox="0 0 58 58" fill="none" xmlns="http://www.w3.org/2000/svg">
<path d="M28.6343 57.4C44.462 57.4 57.3343 44.5934 57.3343 28.7C57.3343 12.8066 44.5934 0 28.6343 0C12.6753 0 0.0656738 12.938 0.0656738 28.7657C0.0656738 44.5934 12.8723 57.4 28.6343 57.4Z" fill="#8247E5"/>
<g opacity="0.16">
<path opacity="0.16" d="M28.6343 57.3998C21.016 57.3998 13.8574 54.4444 8.47208 49.059C3.02105 43.6737 0 36.5151 0 28.8311C0 21.1471 3.02105 13.9885 8.34073 8.53751C13.6604 3.08648 20.9503 0.131105 28.5687 0.0654297H28.6343C36.2526 0.0654297 43.4112 3.02081 48.7966 8.40616C54.2476 13.7915 57.203 21.0158 57.2687 28.6341C57.3343 36.2524 54.3133 43.4766 48.9279 48.9277C43.5426 54.3787 36.384 57.3341 28.6343 57.3998C28.7657 57.3998 28.6343 57.3998 28.6343 57.3998ZM28.6343 2.10136C21.5414 2.10136 14.8426 4.92539 9.78558 9.98236C4.7286 15.0393 2.03593 21.7382 2.03593 28.8311C2.03593 35.924 4.85996 42.6229 9.91694 47.6798C14.9739 52.6712 21.6071 55.4295 28.7 55.4295H28.7657C35.8586 55.4295 42.5574 52.6055 47.6144 47.5485C52.6714 42.4915 55.3641 35.8583 55.3641 28.7654C55.3641 21.6725 52.5401 14.9737 47.4831 9.91669C42.4261 4.85971 35.7929 2.10136 28.6343 2.10136Z" fill="black"/>
</g>
<path d="M38.3543 22.2647C37.6975 21.8707 36.7781 21.8707 35.99 22.2647L30.4733 25.4828L26.7955 27.5844L21.4101 30.8025C20.7534 31.1965 19.8339 31.1965 19.0458 30.8025L14.777 28.2411C14.1202 27.8471 13.5948 27.059 13.5948 26.2052V21.2796C13.5948 20.4915 13.9889 19.7034 14.777 19.2437L18.9802 16.8137C19.6369 16.4196 20.5564 16.4196 21.3445 16.8137L25.5477 19.375C26.2044 19.7691 26.7298 20.5572 26.7298 21.4109V24.629L30.4733 22.4617V19.1123C30.4733 18.3242 30.0792 17.5361 29.2911 17.0764L21.4101 12.4791C20.7534 12.0851 19.8339 12.0851 19.0458 12.4791L10.9678 17.2077C10.1797 17.6018 9.78564 18.3899 9.78564 19.178V28.4382C9.78564 29.2263 10.1797 30.0144 10.9678 30.4741L18.9145 35.0714C19.5712 35.4654 20.4907 35.4654 21.2788 35.0714L26.6641 31.9189L30.4076 29.7517L35.793 26.5993C36.4497 26.2052 37.3692 26.2052 38.1573 26.5993L42.3605 29.0292C43.0172 29.4233 43.5426 30.2114 43.5426 31.0652V35.9908C43.5426 36.7789 43.1486 37.567 42.3605 38.0267L38.2229 40.4567C37.5662 40.8508 36.6467 40.8508 35.8586 40.4567L31.7868 38.0924C31.13 37.6984 30.6046 36.9103 30.6046 36.0565V32.9041L26.8612 35.0714V38.2894C26.8612 39.0775 27.2552 39.8656 28.0433 40.3254L35.99 44.9226C36.6467 45.3167 37.5662 45.3167 38.3543 44.9226L46.301 40.3254C46.9577 39.9313 47.4831 39.1432 47.4831 38.2894V28.9636C47.4831 28.1755 47.0891 27.3874 46.301 26.9276L38.3543 22.2647Z" fill="white"/>
</svg>
