<?xml version="1.0" encoding="UTF-8" standalone="no"?>
<svg
   xmlns:dc="http://purl.org/dc/elements/1.1/"
   xmlns:cc="http://creativecommons.org/ns#"
   xmlns:rdf="http://www.w3.org/1999/02/22-rdf-syntax-ns#"
   xmlns:svg="http://www.w3.org/2000/svg"
   xmlns="http://www.w3.org/2000/svg"
   xmlns:sodipodi="http://sodipodi.sourceforge.net/DTD/sodipodi-0.dtd"
   xmlns:inkscape="http://www.inkscape.org/namespaces/inkscape"
   width="242.23039"
   height="146.05371"
   viewBox="0 0 242.23039 146.05371"
   fill="none"
   version="1.1"
   id="svg11"
   sodipodi:docname="farmjet.svg"
   inkscape:version="1.0.2-2 (e86c870879, 2021-01-15)">
  <metadata
     id="metadata15">
    <rdf:RDF>
      <cc:Work
         rdf:about="">
        <dc:format>image/svg+xml</dc:format>
        <dc:type
           rdf:resource="http://purl.org/dc/dcmitype/StillImage" />
        <dc:title></dc:title>
      </cc:Work>
    </rdf:RDF>
  </metadata>
  <sodipodi:namedview
     pagecolor="#ffffff"
     bordercolor="#666666"
     borderopacity="1"
     objecttolerance="10"
     gridtolerance="10"
     guidetolerance="10"
     inkscape:pageopacity="0"
     inkscape:pageshadow="2"
     inkscape:window-width="1198"
     inkscape:window-height="1311"
     id="namedview13"
     showgrid="false"
     showguides="true"
     inkscape:guide-bbox="true"
     fit-margin-top="0"
     fit-margin-left="0"
     fit-margin-right="0"
     fit-margin-bottom="0"
     inkscape:zoom="1.9979878"
     inkscape:cx="110.95618"
     inkscape:cy="76.115446"
     inkscape:window-x="3592"
     inkscape:window-y="0"
     inkscape:window-maximized="0"
     inkscape:current-layer="svg11">
    <sodipodi:guide
       position="121.01354,139.82088"
       orientation="1,0"
       id="guide17" />
    <sodipodi:guide
       position="80.800034,71.201858"
       orientation="0,-1"
       id="guide19" />
  </sodipodi:namedview>
  <g
     clip-path="url(#clip0)"
     id="g4"
     transform="translate(18.511969)">
    <path
       d="M 80.8986,141.098 C 118.576,155.683 160.977,136.983 175.603,99.3295 190.229,61.6762 171.541,19.3286 133.864,4.74356 96.1858,-9.84151 53.7852,8.85898 39.1594,46.5123 24.5335,84.1655 43.2208,126.513 80.8986,141.098 Z"
       fill="#2A6FF6"
       id="path2" />
  </g>
  <defs
     id="defs9">
    <clipPath
       id="clip0">
      <rect
         width="215"
         height="150"
         fill="#ffffff"
         id="rect6"
         x="0"
         y="0" />
    </clipPath>
  </defs>
  <path
     d="m 232.1404,62.943833 c 0.215,-0.8568 -0.01,-1.5197 -0.541,-2.0898 -1.159,-1.131 -2.924,-2.0034 -5.187,-2.8928 -4.586,-1.7782 -11.199,-3.4494 -17.861,-5.3276 -1.03,-0.282 -2.329,-0.5388 -3.84,-0.7607 l -0.218,-0.2256 -0.043,-0.0402 -0.044,-0.0402 c -2.853,-2.3989 -5.767,-4.0931 -8.672,-5.2076 -16.093,-6.1582 -30.747,4.7273 -30.907,4.8063 l -0.202,0.1568 c -2.139,0.275 -4.696,0.6582 -6.757,0.9751 -1.087,0.1662 -2.027,0.3186 -2.702,0.4214 -0.339,0.0565 -0.611,0.0919 -0.79,0.1284 -0.087,0.0131 -0.15,0.024 -0.199,0.0286 l -0.024,0.0023 -25.634,5.0534 c -0.115,0.0256 -7.686,1.8252 -15.427,3.5473 -3.86,0.8649 -7.733,1.7016 -10.67,2.278 -1.464,0.2902 -2.702,0.515 -3.547,0.6338 -0.297,0.0378 -0.545,0.0709 -0.73,0.0932 -0.567,-0.3256 -1.21,-0.5751 -2.089,-0.9746 -1.774,-0.7583 -4.201,-1.7111 -6.26,-2.5213 -1.664,-0.6456 -3.088,-1.1859 -3.725,-1.4212 l -30.9363,-30.9021 -16.5083,1.154 0.1116,28.8902 -19.5613,-3.4257 -0.259,-0.4529 -8.6731,4.7328 26.2181,16.9816 -3.8754,2.1163 -0.2345,0.3321 c -0.2147,0.281 -0.6593,0.9432 -1.1132,2.0832 -0.8165,2.045 -1.3549,5.584 1.0966,9.261 0.6259,0.901 1.6174,1.556 1.6566,1.606 l 0.1742,0.126 0.202,0.055 c 0.0346,0.002 8.0308,2.256 11.4441,2.816 l 0.0823,0.091 3.2058,3.64 4.851,-0.269 -0.5101,6.405997 18.419,3.523 4.1259,-9.609997 c 2.1575,0.496 4.0944,1.106 5.81,1.770997 5.873,2.278 9.271,5.24 10.842,6.884 l 1.418,2.312 0.609,0.036 c 0,0 0.252,0.016 0.727,0.035 l 0.845,0.093 c 0.179,0.022 0.362,0.035 0.541,0.057 l 1.146,3.652 31.968,5.546 8.638,-9.247 c 0.471,-0.064 0.916,-0.15 1.326,-0.238 9.888,-1.23 17.985,-3.084 23.473,-4.845 3.935,-1.271 6.106,-2.779 7.238,-3.879 0.425,-0.4 0.71,-0.771 0.888,-1.018997 l 0.306,-0.516 0.104,-0.206 0.386,-0.755 -0.91,-0.894 c -1.147,-1.103 -2.615,-1.954 -4.32,-2.615 -4.661,-1.796 -11.218,-2.34 -18.479,-2.278 l 0.432,-1.206 c 0.559,-0.078 1.303,-0.177 2.196,-0.301 l 14.715,-1.649 c 0.478,-0.05 3.292,-0.31 6.245,-0.622 1.632,-0.178 3.239,-0.354 4.547,-0.516 1.337,-0.175 2.241,-0.295 2.89,-0.513 0.08,-0.086 1.555,-0.255 2.703,-1.396 0.672,-0.644 1.225,-1.523 1.692,-2.728 0.087,-0.225 0.168,-0.463 0.253,-0.713 0.02,-0.051 0.02,-0.051 0.02,-0.051 0.071,-0.184 0.273,-0.493 0.63,-0.836 1.038,-1.043 3.252,-2.147 5.161,-2.8872 0.954,-0.3703 1.836,-0.6746 2.48,-0.8829 0.321,-0.099 0.578,-0.1872 0.765,-0.2441 0.091,-0.0234 0.158,-0.0444 0.211,-0.0592 0,0 0.01,0.0039 0.014,-0.0063 l 2.383,-0.6621 -0.49,-3.0689 c 5.168,-0.7222 11.146,-1.9291 16.74,-3.2967 4.51,-1.1181 8.719,-2.3062 12.086,-3.4446 3.379,-1.1691 5.824,-2.1717 7.139,-3.3534 0.248,-0.2448 0.538,-0.5673 0.716,-1.0269 0.025,-0.0959 0.053,-0.1674 0.069,-0.2082 z m -64.153,15.039 0.949,0.3683 z"
     fill="#000000"
     id="path2-8" />
  <path
     d="m 202.8884,60.754033 c -4.453,-0.211 -29.892,-0.9924 -64.476,6.8416 0,0 48.421,-11.34 65.053,-8.5098 1.04,-2.2286 2.896,-3.6827 3.906,-4.3485 -6.019,-1.4761 -22.205,-2.3945 -39.003,-1.4938 -2.781,0.1435 -13.896,1.932 -13.896,1.932 l -25.489,5.0152 c -0.039,0.0086 -26.829,6.3764 -30.919,6.6233 -0.328,-0.0332 -0.405,0.1365 -0.916,-0.2141 l -0.01,-0.0039 c -0.03,-0.0119 -0.067,-0.038 -0.114,-0.068 -0.105,-0.064 -0.25,-0.1438 -0.44,-0.2293 -0.376,-0.1811 -0.885,-0.4137 -1.48,-0.6678 -1.189,-0.5082 -2.724,-1.1266 -4.242,-1.727 -2.304,-0.9052 -4.544,-1.7623 -5.498,-2.1204 l -25.0567,1.7169 23.4277,-2.9711 -29.4925,-29.473 -13.2823,0.9244 0.07,3.94 14.2964,-1.0247 -14.2531,3.5795 0.4079,21.8844 50.5196,8.85 34.78,2.7471 -34.978,-1.6016 -72.9588,-12.8513 0.0039,-0.0102 -4.0817,2.2243 27.5598,17.8544 -0.1845,0.4455 c 0,0 -0.1268,0.3268 -0.2833,0.9124 l 1.9694,-2.2914 -25.259,-18.243 71.5352,12.311 43.838,1.9937 -4.572,3.6089 c -2.274,2.138 -7.131,3.9086 -13.353,5.3506 l -0.781,2.952 c 19.408,-1.663 46.34,-5.0968 52.622,-5.9042 -0.007,-0.2257 0.003,-0.4923 0,-0.7873 l -37.501,0.9337 37.567,-2.5294 c 0.037,-0.3971 0.082,-0.7557 0.149,-0.9883 0.157,-0.5266 0.936,-1.5053 1.539,-2.2115 -0.022,-0.1259 0.003,-0.2808 0.145,-0.4959 0.454,-0.7169 6.25,-2.8171 8.342,-3.5452 -11.968,-1.891 -41.497,4.2719 -41.497,4.2719 7.287,-2.6734 17.107,-4.0941 25.475,-4.8564 l -9.093,-2.3976 16.433,1.8598 c 5.692,-0.3189 9.608,-0.328 9.608,-0.328 l 8.749,4.9789 c 4.467,-0.0658 11.208,-1.118 18.02,-2.5657 -2.919,-3.7755 -3.432,-6.8766 -2.906,-9.2931 z"
     fill="#024a7d"
     id="path4" />
  <path
     d="m 132.7314,73.370433 c 0,0 2.362,0.2699 4.771,-0.2766 10.793,-2.4421 37.53,-6.5857 41.518,-3.8998 l -7.933,3.61 -2.298,3.9265 -45.955,2.6491 z"
     fill="#7bb7e4"
     id="path6" />
  <path
     d="m 202.2664,52.451933 c -2.409,-1.9092 -4.86,-3.2828 -7.295,-4.2152 -6.077,-2.3564 -12.009,-2.0248 -16.92,-0.815 -4.889,1.2178 -8.735,3.287 -10.661,4.4671 l 0.179,0.5393 c 0.278,-0.0213 0.536,-0.0505 0.738,-0.0547 13.136,-0.6991 25.803,-0.3109 33.743,0.6057 l 1.01,0.1215 z"
     fill="#000000"
     id="path8" />
  <path
     d="m 172.2424,52.465633 c 0,0 9.443,-8.053 24.55,-3.4408 l 0.026,-0.6126 c 0,0 -12.053,-6.9416 -29.245,4.0054 z"
     fill="#ffffff"
     id="path10" />
  <path
     d="m 207.6314,56.341833 c 0,0 -16.219,-1.683 -38.934,0.4484 -22.046,2.0735 -51.651,8.2189 -70.976,11.4536 l -13.154,-5.1009 -23.3978,0.4684 19.747,-2.2952 -25.9506,-26.3369 -14.1282,2.5 -0.566,-6.0241 14.4103,-1.5916 30.3373,31.175 13.143,5.4022 42.259,-9.4171 c 0,0 38.165,-8.102 59.156,-3.6987 2.726,0.5752 7.983,0.381 9.905,1.4551 z"
     fill="#ffffff"
     id="path12" />
  <path
     d="m 230.5684,63.332133 c 0.211,-0.2118 0.388,-0.4252 0.462,-0.7373 0.098,-0.3143 -0.028,-0.7158 -0.264,-0.9249 -2.763,-2.7517 -12.586,-5.1151 -22.542,-7.9186 -1.041,-0.2859 -2.429,-0.554 -4.086,-0.7968 l -0.495,-0.5094 c -17.991,-15.1425 -38.096,-0.3784 -38.125,-0.3659 l -0.425,0.3402 c -4.366,0.5632 -10.822,1.6084 -10.836,1.6146 l -25.528,5.0238 c -0.039,0.0086 -7.663,1.823 -15.403,3.545 -3.86,0.865 -7.747,1.7079 -10.699,2.2906 -1.474,0.2863 -2.726,0.5173 -3.6,0.6486 -0.447,0.0617 -0.792,0.104 -1.022,0.1207 -0.073,0.0069 -0.132,0.0075 -0.177,0.0019 -0.438,-0.3229 -1.16,-0.6143 -2.263,-1.101 -3.347,-1.4272 -9.26,-3.6612 -10.159,-4.0097 l -30.5263,-31.2015 -15.0984,1.548 0.1147,29.1851 -20.8474,-3.6541 -0.5427,0.0363 -0.0415,-0.0748 -5.9588,3.2472 26.2181,16.9817 -5.3396,2.9233 -0.0782,0.1107 c -0.0482,0.0635 -3.5514,4.6745 0.0083,10.0375 0.3908,0.598 1.3727,1.308 1.3727,1.308 0,0 8.8897,2.496 11.7476,2.852 l 0.3605,0.433 2.8146,3.195 5.6093,-0.316 -0.5275,6.692997 16.4806,3.159 4.1338,-9.629997 c 10.5262,2.213 16.1022,6.983997 18.2622,9.289997 l 1.167,1.898 c 0,0 0.599,0.033 1.647,0.087 l -0.01,0.055 c 0.428,0.048 0.85,0.082 1.277,0.131 l 1.171,3.708 30.657,5.32 8.495,-9.091 c 0.622,-0.088 1.199,-0.181 1.696,-0.282 9.849,-1.222 17.908,-3.067 23.315,-4.801 3.802,-1.229 5.798,-2.652 6.781,-3.61 0.618,-0.594997 0.836,-1.003997 0.87,-1.060997 l 0.195,-0.383 -0.308,-0.296 c -3.887,-3.763 -13.113,-4.755 -23.642,-4.537 l 1.227,-3.437 c 0.52,-0.069 1.53,-0.218 2.891,-0.395 l 14.719,-1.66 c 0,0 3.083,-0.285 6.279,-0.62 3.253,-0.36 6.425,-0.693 7.163,-0.959 0.415,-0.192 1.393,-0.259 2.299,-1.142 0.604,-0.588 1.172,-1.508 1.649,-2.98 0.142,-0.426 0.466,-0.9 0.939,-1.362 2.563,-2.5199 9.151,-4.3599 9.155,-4.3701 l 1.353,-0.3684 -0.51,-3.2293 c 5.364,-0.6816 11.807,-1.9667 17.801,-3.4261 8.986,-2.2378 16.759,-4.7109 18.724,-6.5343 z m -52.44,-15.6226 c 6.819,-1.6797 15.581,-1.6426 23.963,4.9799 -7.96,-0.9245 -20.641,-1.3064 -33.792,-0.6011 -0.205,0.0144 -0.469,0.0294 -0.752,0.0609 1.912,-1.1738 5.733,-3.2408 10.581,-4.4397 z m -159.2837,9.7942 72.9587,12.8513 34.989,1.6056 -34.781,-2.7471 -48.9031,-8.5641 -0.7703,-22.4949 12.9891,-3.2589 -14.2963,1.0247 -0.0701,-3.94 13.2823,-0.9244 29.5034,29.477 -23.4386,2.9671 25.0566,-1.7169 c 0.954,0.3581 3.194,1.2152 5.499,2.1205 1.517,0.6003 3.052,1.2187 4.241,1.7269 0.595,0.2541 1.108,0.4765 1.48,0.6679 0.19,0.0854 0.335,0.1652 0.44,0.2292 0.047,0.0301 0.094,0.0601 0.114,0.068 0.496,0.3568 0.588,0.1809 0.916,0.214 4.09,-0.2469 30.88,-6.6146 30.918,-6.6232 l 25.49,-5.0153 c -0.01,-0.0039 11.115,-1.7884 13.886,-1.9359 16.802,-0.9109 32.988,0.0075 39.003,1.4938 -1.01,0.6658 -2.862,2.1097 -3.907,4.3485 -16.631,-2.8302 -65.052,8.5098 -65.052,8.5098 34.58,-7.8238 60.033,-7.0486 64.476,-6.8415 -0.536,2.4124 -0.013,5.5175 2.877,9.3055 -6.802,1.4517 -13.553,2.4999 -18.019,2.5657 l -8.749,-4.9789 c 0,0 -3.916,0.0091 -9.609,0.328 l -16.432,-1.8598 9.092,2.3976 c -8.353,0.7561 -18.188,2.183 -25.475,4.8564 0,0 29.53,-6.1629 41.497,-4.2719 -2.081,0.7321 -7.877,2.8323 -8.342,3.5452 -0.128,0.2089 -0.167,0.37 -0.145,0.4959 -0.603,0.7063 -1.382,1.685 -1.539,2.2115 -0.067,0.2327 -0.122,0.5872 -0.148,0.9883 l -37.567,2.5294 37.5,-0.9337 c 0.003,0.295 -0.006,0.5616 0,0.7874 -6.281,0.8073 -33.214,4.2409 -52.621,5.9039 l 0.78,-2.952 c 6.222,-1.442 11.08,-3.2124 13.354,-5.3504 l -37.821,1.3969 5.057,-4.6191 c 19.386,-1.0605 32.833,3.2255 32.833,3.2255 l 4.571,-3.6089 -43.847,-1.9976 -71.5358,-12.3111 25.259,18.2431 -1.9695,2.2914 c 0.1464,-0.5896 0.2834,-0.9124 0.2834,-0.9124 l 0.1844,-0.4455 -27.5699,-17.8584 z m 20.9793,19.8266 1.0795,0.7006 c -0.2126,0.6695 -0.5562,2.0404 -0.5517,3.8164 l -6.8001,0.054 c 0.1222,-0.376 0.2387,-0.707 0.3582,-0.954 0.1234,-0.258 0.2151,-0.434 0.2751,-0.528 z m -5.0445,12.191 c -0.8014,-1.721 -1.3295,-3.57 -1.4874,-5.042 l 7.1874,-0.749 c 0.3015,2.161 1.1745,4.697 3.2114,7.261 -3.3712,-0.426 -6.3789,-0.911 -8.9114,-1.47 z m 134.5809,9.31 -23.89,1.041 0.079,-4.869 c 10.679,-0.301 20.128,0.601 23.811,3.828 z m 13.908,-18.414 c -0.023,0.027 -0.041,0.044 -0.063,0.07 l -11.686,-7.4335 8.405,-3.5561 11.702,6.6646 c -2.096,0.6794 -6.191,2.1817 -8.358,4.255 z"
     fill="#000000"
     id="path14" />
  <path
     d="m 40.4792,83.730333 -7.1873,0.749 c 0.1579,1.472 0.686,3.321 1.4873,5.042 2.5325,0.559 5.5402,1.044 8.9217,1.474 -2.0369,-2.564 -2.9202,-5.104 -3.2217,-7.265 z"
     fill="#024a7d"
     id="path16" />
  <path
     d="m 40.9036,78.030133 -1.0795,-0.7005 -5.6288,3.0927 c -0.064,0.105 -0.1659,0.277 -0.2751,0.528 -0.1195,0.248 -0.236,0.579 -0.3582,0.954 l 6.8001,-0.054 c -0.0147,-1.78 0.3249,-3.1404 0.5415,-3.8202 z"
     fill="#024a7d"
     id="path18" />
  <path
     d="m 145.4744,99.861333 23.89,-1.041 c -3.683,-3.226 -13.136,-4.118 -23.797,-3.834 z"
     fill="#7bb7e4"
     id="path20" />
  <path
     d="m 91.5014,77.710933 37.88,-1.3975 c 0,0 -13.448,-4.2861 -32.823,-3.2216 z"
     fill="#7bb7e4"
     id="path22" />
  <path
     d="m 171.5094,73.050133 11.686,7.4342 c 0.022,-0.027 0.04,-0.044 0.062,-0.07 2.182,-2.0802 6.263,-3.5762 8.359,-4.2556 l -11.702,-6.6646 z"
     fill="#024a7d"
     id="path24" />
  <path
     d="m 168.2234,81.798333 -77.062,7.12 80.851,-5.651 z"
     fill="#024a7d"
     id="path26" />
  <path
     d="m 134.6004,109.18133 -31.16,0.972 30.387,-0.19 z"
     fill="#024a7d"
     id="path28" />
  <path
     d="m 146.2744,87.892333 -89.1367,6.174 88.7827,-4.443 z"
     fill="#024a7d"
     id="path30" />
  <path
     d="m 170.7434,73.904033 -1.923,1.7457 -0.092,2.8431 10.618,5.2805 -9.801,-5.5984 0.001,-2.2441 2.053,-1.6595 z"
     fill="#ffffff"
     id="path32" />
  <path
     d="m 167.8644,77.935033 -39.115,5.3713 8.76,-0.927 30.355,-3.6569 z"
     fill="#ffffff"
     id="path34" />
  <path
     d="m 89.7164,78.193633 -41.3632,-1.3161 c 0.0102,0.004 38.7252,2.7846 41.3632,1.3161 z"
     fill="#7bb7e4"
     id="path36" />
  <path
     d="m 34.3531,88.440333 6.5034,0.559 c 0,0 -1.0779,-3.25 -0.381,-5.259 0,0 0.5764,3.725 3.2115,7.261 0,0 -3.9647,-0.562 -5.2791,-0.778 -0.915,-0.155 -3.6426,-0.695 -3.6426,-0.695 z"
     fill="#ffffff"
     id="path38" />
  <path
     d="m 129.8994,119.12133 -92.7946,3.792 80.7666,-6.282 z"
     fill="#000000"
     id="path40" />
  <path
     d="m 39.2955,44.636333 -35.2698,1.9984 49.1266,0.0495 z"
     fill="#000000"
     id="path42" />
  <path
     d="m 26.6348,30.233433 63.0726,-3.4962 -33.6521,4.1296 z"
     fill="#000000"
     id="path44" />
  <path
     d="M 68.1309,100.46833 0,108.52433 l 71.8715,-0.19 z"
     fill="#000000"
     id="path46" />
  <path
     d="m 184.5834,44.573033 -54.372,7.904 40.398,-3.9225 z"
     fill="#000000"
     id="path48" />
  <path
     d="m 231.2524,62.082033 10.978,-0.0434 -11.663,1.2938 0.209,-1.6583 z"
     fill="#000000"
     id="path50" />
  <path
     d="m 209.2594,66.291833 -20.975,1.0672 c 0,0 16.245,1.0114 20.975,-1.0672 z"
     fill="#000000"
     id="path52" />
  <path
     d="m 179.5744,87.821333 46.301,-5.299 -43.789,1.82 z"
     fill="#000000"
     id="path54" />
  <path
     d="m 148.3234,104.78633 46.302,-5.298997 -43.79,1.819997 z"
     fill="#000000"
     id="path56" />
  <path
     d="m 83.5944,59.075633 24.955,-1.486 -21.183,2.3614 z"
     fill="#000000"
     id="path58" />
  <path
     d="m 125.1894,116.96633 46.302,-5.3 -43.789,1.821 z"
     fill="#000000"
     id="path60" />
  <path
     d="m 102.5774,112.65133 -56.284,6.775 62.969,-4.077 z"
     fill="#000000"
     id="path62" />
  <path
     d="m 147.7974,97.778333 -67.153,2.748997 66.617,-0.606997 z"
     fill="#7bb7e4"
     id="path64" />
  <path
     d="m 97.4644,107.14333 -22.5938,2.213 24.1978,-0.804 z"
     fill="#000000"
     id="path66" />
  <path
     d="m 70.1764,43.686233 10.0675,-0.2087 -10.3329,0.8931 z"
     fill="#000000"
     id="path68" />
  <path
     d="m 183.2274,82.188333 21.624,-2.5309 -20.449,0.8949 z"
     fill="#000000"
     id="path70" />
  <path
     d="m 37.5748,69.525933 -34.4776,-0.0445 48.3344,2.0924 z"
     fill="#000000"
     id="path72" />
  <path
     d="m 75.8722,50.206933 101.7182,-9.3207 -99.898,11.2015 z"
     fill="#000000"
     id="path74" />
  <path
     d="m 58.2153,92.711333 -53.7977,0.877 c 0,0 29.624,2.38 53.7977,-0.877 z"
     fill="#000000"
     id="path76" />
  <path
     d="m 66.6799,46.641433 14.2464,14.6778 -2.8457,0.6121 z"
     fill="#000000"
     id="path78" />
</svg>
