<?xml version="1.0" encoding="utf-8"?>
<!-- Generator: Adobe Illustrator 25.2.1, SVG Export Plug-In . SVG Version: 6.00 Build 0)  -->
<svg version="1.1" id="Layer_1" xmlns:v="https://vecta.io/nano"
	 xmlns="http://www.w3.org/2000/svg" xmlns:xlink="http://www.w3.org/1999/xlink" x="0px" y="0px" viewBox="0 0 186 171"
	 style="enable-background:new 0 0 186 171;" xml:space="preserve">
<style type="text/css">
	.st0{fill:#2A6FF6;}
	.st1{fill:#F0B90B;}
	.st2{fill:#F6C308;}
	.st3{fill:#030509;}
</style>
<g>
	<path class="st0" d="M172.4,95c-1-7.8-6.2-14.9-13.3-18.2c-8.6-4-18.7-2.6-27.8-5.3c-11.8-3.5-20.4-13.3-30.9-19.8
		C88,44.1,73.2,41.4,58.8,38.8C49.2,37.1,39.1,35.5,30,39c-12.3,4.9-19.5,20-15.5,32.6c6.8,21.4,37,27.1,46.2,47.6
		c4.8,10.6,3.2,24.1,10.7,32.9c9,10.5,25.5,8.7,38.9,5.5c10.2-2.5,20.3-5.3,30.4-8.2c8.2-2.3,16.8-4.8,22.8-10.8
		c7.5-7.4,4.4-13.1,4.3-21.7C167.9,109.5,173.5,103.3,172.4,95z"/>
</g>
<circle class="st1" cx="92.8" cy="83.1" r="46.8"/>
<g>
	<circle class="st2" cx="92.8" cy="83.1" r="43.7"/>
	<path class="st2" d="M113,74c1.3,0,2.4-1.1,2.4-2.4V59.9c0-1.3-1.1-2.4-2.4-2.4c-1.3,0-2.4,1.1-2.4,2.4v9.4h-5.4v-9.4
		c0-1.3-1.1-2.4-2.4-2.4c-1.3,0-2.4,1.1-2.4,2.4v9.4h-5.3v-9.4c0-1.3-1.1-2.4-2.4-2.4s-2.4,1.1-2.4,2.4v9.4h-5.3v-9.4
		c0-1.3-1.1-2.4-2.4-2.4s-2.4,1.1-2.4,2.4v9.4h-5.3v-9.4c0-1.3-1.1-2.4-2.4-2.4s-2.4,1.1-2.4,2.4v30.3c0,12.4,10.1,22.5,22.5,22.5
		s22.5-10.1,22.5-22.5v-6.7c0-2.3-1.9-4.2-4.2-4.2H90.5v28.5c-1.9-0.3-3.7-0.8-5.3-1.6V74H113z M95.2,84.1h15.4v6.2
		c0,9-6.7,16.5-15.4,17.6V84.1z M80.4,102.9c-3.3-3.2-5.3-7.7-5.3-12.7V74h5.3V102.9z"/>
</g>
<path class="st3" d="M113.6,73.7c1.3,0,2.4-1.1,2.4-2.4V59.2c0-1.3-1.1-2.4-2.4-2.4s-2.4,1.1-2.4,2.4v9.6h-5.5v-9.6
	c0-1.3-1.1-2.4-2.4-2.4c-1.3,0-2.4,1.1-2.4,2.4v9.6h-5.5v-9.6c0-1.3-1.1-2.4-2.4-2.4s-2.4,1.1-2.4,2.4v9.6H85v-9.6
	c0-1.3-1.1-2.4-2.4-2.4s-2.4,1.1-2.4,2.4v9.6h-5.5v-9.6c0-1.3-1.1-2.4-2.4-2.4s-2.4,1.1-2.4,2.4v31.2c0,12.8,10.4,23.2,23.2,23.2
	s23.2-10.4,23.2-23.2v-6.9c0-2.4-2-4.4-4.4-4.4H90.4v29.4c-1.9-0.3-3.8-0.9-5.5-1.7V73.7H113.6z M95.3,84.1h15.9v6.3
	c0,9.3-6.9,17-15.9,18.2V84.1z M80,103.4c-3.4-3.3-5.5-7.9-5.5-13.1V73.7H80V103.4z"/>
</svg>
