<?xml version="1.0" encoding="utf-8"?>
<!-- Generator: Adobe Illustrator 25.2.1, SVG Export Plug-In . SVG Version: 6.00 Build 0)  -->
<svg version="1.1" id="Layer_1" xmlns:v="https://vecta.io/nano"
	 xmlns="http://www.w3.org/2000/svg" xmlns:xlink="http://www.w3.org/1999/xlink" x="0px" y="0px" viewBox="0 0 186 171"
	 style="enable-background:new 0 0 186 171;" xml:space="preserve">
<style type="text/css">
	.st0{fill:#2A6FF6;}
	.st1{opacity:0.4;fill:none;stroke:#565656;stroke-width:2.837;enable-background:new    ;}
</style>
<g>
	<path class="st0" d="M172.4,95c-1-7.8-6.2-14.9-13.3-18.2c-8.6-4-18.7-2.6-27.8-5.3c-11.8-3.5-20.4-13.3-30.9-19.8
		C88,44.1,73.2,41.4,58.8,38.8c-9.6-1.7-19.7-3.3-28.8,0.2c-12.3,4.9-19.5,20-15.5,32.6c6.8,21.4,37,27.1,46.2,47.6
		c4.8,10.6,3.2,24.1,10.7,32.9c9,10.5,25.5,8.7,38.9,5.5c10.2-2.5,20.3-5.3,30.4-8.2c8.2-2.3,16.8-4.8,22.8-10.8
		c7.5-7.4,4.4-13.1,4.3-21.7C167.9,109.5,173.5,103.3,172.4,95z"/>
</g>
<circle cx="93" cy="83.3" r="43.5"/>
<circle class="st1" cx="93" cy="83.3" r="42.1"/>
<g>
	<path class="st0" d="M93.3,107.2c-2.6,0-4.8-0.1-6.8-0.3c-1.3-0.1-2.5-0.3-3.5-0.6c0,0,0,0,0,0c-1.6-0.4-2.7-0.9-3.3-1.5
		c0,0,0,0,0,0c-1.5,0-4.7-0.2-6.5-1.9c-0.8-0.7-1.2-1.6-1.2-2.7c0-8.5,8.8-13.9,10.7-14.9c0,0,0,0,0,0c0.3-0.2,0.6-0.3,0.9-0.5
		l2-1.9c-0.5-0.3-1-0.7-1.4-1.1c-2.6-2.4-4.1-5.9-4.1-9.4c0-7.1,5.9-12.9,13.2-12.9c7.3,0,13.2,5.8,13.2,12.9c0,3.5-1.5,7-4.1,9.4
		c-0.4,0.4-0.9,0.8-1.4,1.1l2,1.9c0.2,0.1,0.4,0.2,0.6,0.3c0,0,0,0,0,0c4.8,2.4,10.5,7.8,10.5,15.1c0,1-0.4,1.9-1.1,2.6
		c-1.7,1.7-4.8,1.9-6.1,2c-0.7,0.6-1.8,1.1-3.4,1.5c0,0,0,0,0,0c-1,0.2-2.2,0.4-3.4,0.6C97.9,107.1,95.7,107.2,93.3,107.2z
		 M84.4,104.3c0.7,0.1,1.5,0.3,2.4,0.3c1.9,0.2,4,0.3,6.5,0.3c2.4,0,4.5-0.1,6.3-0.3c0.8-0.1,1.6-0.2,2.3-0.4V86.8c0,0-0.1,0-0.1,0
		c-0.1-0.1-0.3-0.1-0.4-0.2l-2.1-2.1c-0.8,1.1-2.3,2.5-4.9,2.9v4.5h5.3c0.6,0,1.1,0.5,1.1,1.1s-0.5,1.1-1.1,1.1h-6.4
		c-0.6,0-1.1-0.5-1.1-1.1v-5.6c-2.6-0.3-4.1-1.7-4.9-2.9l-2.1,2.1c-0.1,0.1-0.2,0.2-0.3,0.2c-0.1,0.1-0.3,0.1-0.4,0.2V104.3z
		 M104.1,88.1v15.6c0.5-0.2,0.8-0.3,0.9-0.5v-6.9c0-0.6,0.5-1.1,1.1-1.1c0.6,0,1.1,0.5,1.1,1.1v6.2c1.5-0.1,3.2-0.5,4-1.3
		c0.3-0.3,0.4-0.6,0.4-1C111.7,94.7,107.9,90.5,104.1,88.1z M81.4,103.3c0.1,0.1,0.3,0.2,0.7,0.4V88.3c-2.9,1.9-7.8,6.1-7.8,11.9
		c0,0.4,0.1,0.7,0.5,1c0.9,0.8,2.7,1.2,4.4,1.3v-6.2c0-0.6,0.5-1.1,1.1-1.1c0.6,0,1.1,0.5,1.1,1.1V103.3z M88.6,82.4
		c0.3,0.5,1.2,2.2,3.5,2.6v-1.2c0-0.6,0.5-1.1,1.1-1.1c0.6,0,1.1,0.5,1.1,1.1v1.2c2.3-0.4,3.3-2.1,3.5-2.6v-2.6
		c-1.5,0.1-3.1-0.2-4.3-1.2c-0.1-0.1-0.2-0.2-0.3-0.3c-0.1,0.1-0.2,0.2-0.3,0.3c-1.2,1-2.8,1.3-4.3,1.2V82.4z M84.8,79.1
		c0.3,0.3,0.6,0.7,0.9,1c0.2,0.2,0.4,0.3,0.6,0.5v-1.1C85.8,79.4,85.3,79.3,84.8,79.1z M100.2,79.5v1.1c0.2-0.2,0.4-0.3,0.6-0.5
		c0.3-0.3,0.7-0.7,1-1C101.2,79.2,100.7,79.4,100.2,79.5z M93.3,73.9c0.6,0,1.1,0.5,1.1,1.1c0,0.9,0.2,1.5,0.7,1.9
		c0.7,0.6,2,0.8,3.8,0.5c0,0,0,0,0,0c0.6-0.1,1.1-0.2,1.7-0.4l0.3-6l-7.6-0.8l-7.9,0.8l0.5,6c0.6,0.2,1.2,0.3,1.8,0.4c0,0,0,0,0,0
		c1.7,0.2,3.1,0,3.8-0.6c0.5-0.4,0.7-1,0.7-1.9C92.1,74.4,92.6,73.9,93.3,73.9z M93.3,68c0,0,0.1,0,0.1,0l8.8,1c0.6,0.1,1,0.6,1,1.2
		l-0.4,7.3c0.9-1.5,1.3-3.3,1.3-5.1c0-5.9-4.9-10.7-10.9-10.7c-6,0-10.9,4.8-10.9,10.7c0,1.7,0.4,3.4,1.2,4.9L83,70.2
		c0-0.6,0.4-1.2,1-1.2l9.1-1C93.2,68,93.2,68,93.3,68z"/>
</g>
</svg>
