<?xml version="1.0" encoding="utf-8"?>
<!-- Generator: Adobe Illustrator 25.3.1, SVG Export Plug-In . SVG Version: 6.00 Build 0)  -->
<svg version="1.1" id="Layer_1" xmlns="http://www.w3.org/2000/svg" xmlns:xlink="http://www.w3.org/1999/xlink" x="0px" y="0px"
	 viewBox="0 0 64 64" style="enable-background:new 0 0 64 64;" xml:space="preserve">
<style type="text/css">
	.st0{fill:#2A6FF6;}
	.st1{fill:#FFFFFF;}
</style>
<path class="st0" d="M32,64c17.7,0,32-14.3,32-32S49.7,0,32,0S0,14.3,0,32S14.3,64,32,64z"/>
<g>
	<path class="st1" d="M31.7,49c-2,0-3.8-0.1-5.3-0.2c-1-0.1-2-0.3-2.7-0.5c0,0,0,0,0,0c-1.2-0.3-2.1-0.7-2.6-1.1
		c-1.2,0-3.7-0.2-5.1-1.5c-0.6-0.6-0.9-1.3-0.9-2.1c0-5.2,4.3-9.4,8.4-11.6c0,0,0,0,0,0c0.3-0.1,0.5-0.3,0.7-0.4l1.4-1.4
		c-0.3-0.2-0.7-0.5-1-0.8c-2.1-1.9-3.3-4.6-3.3-7.3C21.3,16.5,26,12,31.7,12c5.7,0,10.4,4.5,10.4,10.1c0,2.8-1.2,5.4-3.3,7.3
		c-0.3,0.3-0.6,0.5-1,0.8l1.4,1.4c0.2,0.1,0.3,0.1,0.5,0.2c0,0,0,0,0,0c3.8,1.9,8.2,6.1,8.2,11.7c0,0.8-0.3,1.5-0.9,2.1
		c-1.3,1.3-3.8,1.5-4.9,1.6c-0.5,0.5-1.4,0.8-2.7,1.2c0,0,0,0,0,0c-0.8,0.2-1.7,0.3-2.7,0.5C35.3,48.9,33.6,49,31.7,49z M24.9,46.5
		c0.5,0.1,1.1,0.2,1.7,0.2c1.4,0.2,3.2,0.2,5.1,0.2c1.8,0,3.5-0.1,4.9-0.2c0.6-0.1,1.2-0.2,1.7-0.2V33.3c0,0,0,0,0,0
		c-0.1,0-0.2-0.1-0.3-0.2l-1.6-1.5c-0.7,0.9-1.8,1.9-3.7,2.1v3.2h4c0.6,0,1,0.4,1,1s-0.4,1-1,1h-5c-0.6,0-1-0.4-1-1v-4.2
		c-1.9-0.3-3.1-1.3-3.7-2.1l-1.6,1.5c-0.1,0.1-0.2,0.1-0.3,0.2c-0.1,0-0.2,0.1-0.3,0.1V46.5z M40.3,34.4V46c0.2-0.1,0.4-0.2,0.5-0.2
		v-5.2c0-0.6,0.4-1,1-1s1,0.4,1,1v4.6c1.2-0.1,2.4-0.4,2.9-1c0.2-0.2,0.3-0.4,0.3-0.6C46,39.4,43.2,36.2,40.3,34.4z M22.5,45.8
		c0.1,0,0.2,0.1,0.3,0.2V34.6c-3,2-5.9,5.2-5.9,8.9c0,0.3,0.1,0.5,0.3,0.7c0.6,0.6,1.9,0.9,3.2,0.9v-4.7c0-0.6,0.4-1,1-1s1,0.4,1,1
		V45.8z M31.7,29.9c0.6,0,1,0.4,1,1v0.8c1.6-0.4,2.3-1.5,2.5-1.9v-1.9c-1.2,0-2.4-0.2-3.3-1c-0.1,0-0.1-0.1-0.2-0.2
		c-0.1,0.1-0.1,0.1-0.2,0.1c-0.8,0.7-1.9,1-3.4,1v1.9c0.2,0.4,0.9,1.6,2.5,1.9v-0.8C30.7,30.4,31.1,29.9,31.7,29.9z M25.5,27.5
		c0.1,0.1,0.3,0.3,0.4,0.4c0.1,0.1,0.2,0.1,0.3,0.2v-0.5C26,27.6,25.7,27.6,25.5,27.5z M37.2,27.7v0.5c0.1-0.1,0.2-0.1,0.2-0.2
		c0.1-0.1,0.3-0.3,0.4-0.4C37.7,27.6,37.4,27.6,37.2,27.7z M27.3,25.9c1.3,0.2,2.4,0,2.9-0.4c0.3-0.3,0.5-0.7,0.5-1.3
		c0-0.6,0.4-1,1-1s1,0.4,1,1c0,0.6,0.2,1,0.5,1.3c0.5,0.4,1.6,0.6,2.9,0.4c0,0,0,0,0,0c0.4-0.1,0.8-0.1,1.2-0.3l0.2-4.4l-5.8-0.6
		l-6,0.6l0.4,4.4C26.4,25.7,26.9,25.8,27.3,25.9C27.3,25.9,27.3,25.9,27.3,25.9z M31.7,18.6c0,0,0.1,0,0.1,0l6.9,0.7
		c0.5,0.1,0.9,0.5,0.9,1l-0.3,5.1c0.5-1.1,0.8-2.2,0.8-3.4c0-4.4-3.8-8.1-8.4-8.1c-4.6,0-8.4,3.6-8.4,8.1c0,1.1,0.2,2.2,0.7,3.2
		l-0.4-4.8c0-0.5,0.4-1,0.9-1.1l7.1-0.7C31.6,18.6,31.7,18.6,31.7,18.6z"/>
</g>
</svg>
