<svg width="312" height="142" viewBox="0 0 312 142" fill="none" xmlns="http://www.w3.org/2000/svg">
<path fillRule="evenodd" clipRule="evenodd" d="M275.637 94.2997C285.542 98.4532 295.446 102.652 305.351 106.806C305.077 104.432 304.849 102.105 303.936 100.507C302.475 98.727 300.695 97.1752 298.778 96.0341C295.948 95.6233 291.247 96.0797 286.957 97.3577C286.409 95.9428 285.268 94.0714 284.218 93.0673C282.164 92.7022 279.562 92.6565 275.637 94.2997Z" fill="white"/>
<path fillRule="evenodd" clipRule="evenodd" d="M158.335 51.9856C158.198 37.2886 157.833 23.2763 157.696 8.57929C157.696 7.62079 157.24 7.39258 156.692 7.39258L156.327 8.53365L156.692 51.7574L158.335 51.9856Z" fill="#838482"/>
<path fillRule="evenodd" clipRule="evenodd" d="M155.094 51.9856C155.231 37.2886 155.597 23.2763 155.733 8.57929C155.733 7.66643 156.099 7.39258 156.738 7.39258C156.783 7.39258 157.057 7.43822 157.468 7.89465C156.783 7.52951 156.509 7.75772 156.509 8.53365L156.692 51.8031L155.094 51.9856Z" fill="#A9A8A8"/>
<path fillRule="evenodd" clipRule="evenodd" d="M306.492 98.9996L270.708 92.6096L270.571 90.7383L310.371 96.5349L306.492 98.9996Z" fill="#4A4A4A"/>
<path fillRule="evenodd" clipRule="evenodd" d="M310.371 96.5371L270.571 90.7404L271.666 90.6035L311.649 95.8068L310.371 96.5371Z" fill="white"/>
<path fillRule="evenodd" clipRule="evenodd" d="M204.389 99.9115L250.534 93.978L271.21 91.7871L273.629 91.8784L293.073 94.8908L295.629 96.1688L242.638 134.463L204.389 99.9115Z" fill="#838482"/>
<path fillRule="evenodd" clipRule="evenodd" d="M240.766 129.17L293.073 94.8926L295.629 96.1706L254.139 135.515L240.766 129.17Z" fill="#A9A8A8"/>
<path fillRule="evenodd" clipRule="evenodd" d="M242.044 128.897L293.255 94.9839L293.073 94.8926L239.899 127.573L242.044 128.897Z" fill="#31323D"/>
<path fillRule="evenodd" clipRule="evenodd" d="M250.945 134.237L295.72 96.3535L296.131 96.4448L254.14 135.515L250.945 134.237Z" fill="#838482"/>
<path fillRule="evenodd" clipRule="evenodd" d="M237.023 95.7578L244.509 98.0856L242.546 97.7204L236.019 95.8491L237.023 95.7578Z" fill="#31323D"/>
<path fillRule="evenodd" clipRule="evenodd" d="M185.812 89.4129L187.911 87.9067L225.019 85.8984L235.152 87.3134L213.152 97.5374L185.812 89.4129Z" fill="#838482"/>
<path fillRule="evenodd" clipRule="evenodd" d="M275.728 113.239L271.62 109.588C271.438 109.405 270.845 109.04 270.571 108.903L253.409 102.559C260.94 105.069 263.587 105.799 271.118 108.31C271.438 108.447 271.894 108.812 272.123 108.994L276.322 112.737L275.728 113.239Z" fill="#31323D"/>
<path fillRule="evenodd" clipRule="evenodd" d="M225.019 85.8984L235.152 87.3134L213.152 97.5374L213.106 94.6619L231.592 87.4503L223.787 85.9441L225.019 85.8984Z" fill="#A9A8A8"/>
<path fillRule="evenodd" clipRule="evenodd" d="M234.148 87.4503L225.019 85.8984L235.152 87.3134L215.434 98.3133L213.152 97.5374L234.148 87.4503Z" fill="#838482"/>
<path fillRule="evenodd" clipRule="evenodd" d="M5.15785 98.9996L40.9419 92.6096L41.0788 90.7383L1.32385 96.5349L5.15785 98.9996Z" fill="#4A4A4A"/>
<path fillRule="evenodd" clipRule="evenodd" d="M1.32364 96.5371L41.0786 90.7404L39.9831 90.6035L0 95.8068L1.32364 96.5371Z" fill="white"/>
<path fillRule="evenodd" clipRule="evenodd" d="M107.306 99.9115L61.1614 93.978L40.4852 91.7871L38.0661 91.8784L18.6223 94.8908L16.0206 96.1688L69.0576 134.463L107.306 99.9115Z" fill="#838482"/>
<path fillRule="evenodd" clipRule="evenodd" d="M70.8833 129.17L18.6223 94.8926L16.0206 96.1706L57.51 135.515L70.8833 129.17Z" fill="#838482"/>
<path fillRule="evenodd" clipRule="evenodd" d="M69.6053 128.897L18.394 94.9839L18.6223 94.8926L71.7962 127.573L69.6053 128.897Z" fill="#31323D"/>
<path fillRule="evenodd" clipRule="evenodd" d="M60.7051 134.237L15.9751 96.3535L15.5187 96.4448L57.5101 135.515L60.7051 134.237Z" fill="white"/>
<path fillRule="evenodd" clipRule="evenodd" d="M74.6717 95.7578L67.1406 98.0856L69.1033 97.7204L75.6758 95.8491L74.6717 95.7578Z" fill="#31323D"/>
<path fillRule="evenodd" clipRule="evenodd" d="M125.883 89.4129L123.738 87.9067L86.6302 85.8984L76.5431 87.3134L98.5429 97.5374L125.883 89.4129Z" fill="#838482"/>
<path fillRule="evenodd" clipRule="evenodd" d="M86.6302 85.8984L76.5431 87.3134L98.5429 97.5374V94.6619L80.1032 87.4503L87.9082 85.9441L86.6302 85.8984Z" fill="#A9A8A8"/>
<path fillRule="evenodd" clipRule="evenodd" d="M77.5016 87.4503L86.6302 85.8984L76.5431 87.3134L96.2608 98.3133L98.5429 97.5374L77.5016 87.4503Z" fill="white"/>
<path fillRule="evenodd" clipRule="evenodd" d="M104.705 89.1406C104.705 89.1406 95.9413 91.4684 88.2276 94.846C71.0203 102.423 73.2111 116.755 73.5306 134.692L98.406 135.422L105.618 90.5099L104.705 89.1406Z" fill="#A9A8A8"/>
<path fillRule="evenodd" clipRule="evenodd" d="M206.854 89.1406C206.854 89.1406 215.617 91.4684 223.331 94.846C240.538 102.423 238.347 116.755 238.028 134.692L213.152 135.422L205.941 90.5099L206.854 89.1406Z" fill="#A9A8A8"/>
<path fillRule="evenodd" clipRule="evenodd" d="M213.198 91.0566C216.21 92.0151 219.862 93.3388 223.33 94.8906C226.389 96.2599 228.853 97.8118 230.77 99.5462C225.658 96.1686 219.862 93.9778 213.837 92.1977L213.198 91.0566Z" fill="white"/>
<path fillRule="evenodd" clipRule="evenodd" d="M222.965 135.194L219.588 135.286L214.521 102.149C214.521 102.149 216.803 101.282 219.953 100.871C237.617 98.6801 236.019 118.717 236.11 130.219L222.965 135.194Z" fill="#212129"/>
<path fillRule="evenodd" clipRule="evenodd" d="M226.616 101.281C235.791 104.02 236.11 116.48 236.11 126.111L232.915 122.733C233.098 115.978 233.372 105.024 226.616 101.281Z" fill="#4A4A4A"/>
<path fillRule="evenodd" clipRule="evenodd" d="M97.904 91.2402C94.9828 92.1987 91.514 93.4311 88.2733 94.8917C78.1406 99.3647 74.763 106.165 73.7133 114.655C75.0369 107.672 79.4186 101.053 86.2194 98.2236C85.124 98.3605 83.9829 98.5887 82.8875 98.9539C87.4974 95.3481 92.655 93.1116 97.904 91.2402Z" fill="white"/>
<path fillRule="evenodd" clipRule="evenodd" d="M88.5929 135.194L91.9705 135.286L97.0368 102.149C97.0368 102.149 94.7547 101.282 91.6053 100.871C73.9415 98.6801 75.539 118.717 75.4477 130.219L88.5929 135.194Z" fill="#212129"/>
<path fillRule="evenodd" clipRule="evenodd" d="M84.9413 101.281C75.7671 104.02 75.4476 116.48 75.4476 126.111L78.6426 122.733C78.4601 115.978 78.1862 105.024 84.9413 101.281Z" fill="#4A4A4A"/>
<path fillRule="evenodd" clipRule="evenodd" d="M105.754 83.1183L87.0865 119.633L49.8876 141.313H151.945L138.252 74.0353C138.207 72.7117 111.095 81.9772 105.754 83.1183Z" fill="#212129"/>
<path fillRule="evenodd" clipRule="evenodd" d="M155.825 68.5568L110.41 84.121L94.8458 119.631L70.0161 141.312H47.8793L83.0243 120.133L103.518 83.4364L155.825 66.3203V68.5568Z" fill="#636473"/>
<path fillRule="evenodd" clipRule="evenodd" d="M89.6882 124.148L87.4973 126.019L68.1448 129.716L73.1199 126.84L89.6882 124.148ZM94.8458 119.629L91.8791 122.231L76.3605 124.65L83.2982 119.629H94.8458Z" fill="#858494"/>
<path fillRule="evenodd" clipRule="evenodd" d="M55.3647 141.311H47.8793L83.4351 119.402L103.7 83.116L112.601 80.4688H114.198L105.526 83.2986L87.3603 119.448L55.3647 141.311Z" fill="#858494"/>
<path fillRule="evenodd" clipRule="evenodd" d="M206.716 84.0761L224.974 119.404L261.579 141.312H159.522L173.169 73.0762L206.716 84.0761Z" fill="#212129"/>
<path fillRule="evenodd" clipRule="evenodd" d="M155.642 68.5568L201.057 84.121L216.575 119.631L241.451 141.312H263.587L228.032 119.403L207.766 83.1169L155.642 66.3203V68.5568Z" fill="#41414D"/>
<path fillRule="evenodd" clipRule="evenodd" d="M256.102 141.311H263.588L228.032 119.402L207.766 83.1162L199.094 80.332L197.223 80.469L206.717 84.0747L224.107 119.448L256.102 141.311Z" fill="#636473"/>
<path d="M155.734 106.713H107.398V141.31H155.734V106.713Z" fill="#212129"/>
<path d="M204.069 106.713H155.733V141.31H204.069V106.713Z" fill="#212129"/>
<path fillRule="evenodd" clipRule="evenodd" d="M76.6798 135.513L70.4724 134.189L77.045 128.894L86.9038 126.795L76.6798 135.513Z" fill="#212129"/>
<path fillRule="evenodd" clipRule="evenodd" d="M106.713 84.1191L102.468 102.194L110.41 84.1191H106.713Z" fill="#858494"/>
<path fillRule="evenodd" clipRule="evenodd" d="M221.916 119.72L216.575 119.629L210.87 106.529L221.916 119.72Z" fill="#636473"/>
<path fillRule="evenodd" clipRule="evenodd" d="M122.733 64.3105V80.742L129.671 85.078L129.169 65.7711L122.733 64.3105Z" fill="#636473"/>
<path fillRule="evenodd" clipRule="evenodd" d="M122.733 64.3105V70.0615L124.011 71.4765V72.5719L122.733 73.3478V74.854L123.829 75.5387V77.41L125.928 78.7337V70.0159L128.85 68.7379L129.078 65.7711L122.733 64.3105Z" fill="#41414D"/>
<path fillRule="evenodd" clipRule="evenodd" d="M129.899 57.603L127.343 56.6445L121.912 60.3416V64.4038L129.671 68.3747L129.899 57.603Z" fill="#636473"/>
<path fillRule="evenodd" clipRule="evenodd" d="M126.978 61.4801C126.613 61.4801 126.294 61.1606 126.294 60.7498C126.294 60.339 126.613 60.0195 126.978 60.0195H129.489V61.4801H126.978Z" fill="#2A2B34"/>
<path fillRule="evenodd" clipRule="evenodd" d="M124.879 67.3691C125.244 67.3691 125.563 67.6886 125.563 68.0994C125.563 68.5102 125.244 68.8297 124.879 68.8297C124.514 68.8297 124.194 68.5102 124.194 68.0994C124.194 67.6886 124.514 67.3691 124.879 67.3691Z" fill="#2A2B34"/>
<path fillRule="evenodd" clipRule="evenodd" d="M188.596 64.3105V80.742L181.704 85.078L182.206 65.7711L188.596 64.3105Z" fill="#41414D"/>
<path fillRule="evenodd" clipRule="evenodd" d="M188.596 64.3105V70.0615L187.318 71.4765V72.5719L188.596 73.3478V74.854L187.501 75.5387V77.41L185.401 78.7337V70.0159L182.48 68.7379L182.297 65.7711L188.596 64.3105Z" fill="#2A2B34"/>
<path fillRule="evenodd" clipRule="evenodd" d="M181.43 57.603L183.986 56.6445L189.418 60.3416V64.4038L181.704 68.3747L181.43 57.603Z" fill="#41414D"/>
<path fillRule="evenodd" clipRule="evenodd" d="M189.144 60.4318V64.2658L188.368 64.7222V69.9712L187.136 71.2492V72.7554L188.459 73.577L188.596 76.9545V73.3487L187.318 72.5728V71.4774L188.596 70.0625V64.9048L189.418 64.4027V60.3405L186.269 58.1953L189.144 60.4318Z" fill="#858494"/>
<path fillRule="evenodd" clipRule="evenodd" d="M184.351 61.4801C184.717 61.4801 185.036 61.1606 185.036 60.7498C185.036 60.339 184.717 60.0195 184.351 60.0195H181.841V61.4801H184.351Z" fill="#212129"/>
<path fillRule="evenodd" clipRule="evenodd" d="M186.451 67.3691C186.086 67.3691 185.767 67.6886 185.767 68.0994C185.767 68.5102 186.086 68.8297 186.451 68.8297C186.816 68.8297 187.136 68.5102 187.136 68.0994C187.136 67.6886 186.862 67.3691 186.451 67.3691Z" fill="#212129"/>
<path fillRule="evenodd" clipRule="evenodd" d="M155.734 50.3906C142.406 50.3906 133.232 54.0421 128.028 60.0213V126.523H155.734H183.439V60.0213C178.235 54.0421 169.016 50.3906 155.734 50.3906Z" fill="#41414D"/>
<path fillRule="evenodd" clipRule="evenodd" d="M130.174 66.9574C145.51 72.7084 165.958 72.7084 181.248 66.9574L173.991 62.0736L164.086 56.5508L155.688 58.1939L147.29 56.5508L137.385 62.0736L130.174 66.9574Z" fill="#2A2B34"/>
<path fillRule="evenodd" clipRule="evenodd" d="M128.028 58.332L136.518 60.1121L137.978 63.1702L130.174 66.9585V126.522H128.028V68.054V65.0415V58.332Z" fill="#858494"/>
<path d="M155.642 48.5215C146.285 48.5215 134.647 50.6667 127.983 58.3347L136.472 60.1148C142.908 59.0193 149.252 58.1065 155.688 57.0111C162.124 58.1065 168.468 59.0193 174.904 60.1148L183.393 58.3347C176.775 50.6211 165.045 48.5215 155.642 48.5215Z" fill="#636473"/>
<path fillRule="evenodd" clipRule="evenodd" d="M167.692 58.9685C170.111 59.3337 172.53 59.7445 174.949 60.1553L183.438 58.3752C181.156 55.7279 178.281 53.7653 175.131 52.3047C174.766 53.1719 174.127 54.0848 173.123 54.7694C170.522 56.4582 164.907 57.7362 164.907 57.7362L167.692 58.9685Z" fill="#4E4E5A"/>
<path fillRule="evenodd" clipRule="evenodd" d="M137.157 51.8945C133.688 53.4007 130.995 55.1808 128.485 58.0107L136.426 59.6538C137.796 58.9235 138.754 58.2845 140.169 57.7825C138.389 55.3634 137.704 54.5418 137.157 51.8945Z" fill="#858494"/>
<path d="M155.733 58.2403C149.434 58.2403 144.094 60.0661 137.978 63.1698L136.518 60.1117C142.634 56.6885 148.795 54.7715 155.733 54.7715C162.671 54.7715 168.833 56.6885 174.949 60.1117L173.488 63.1698C167.372 60.0661 162.032 58.2403 155.733 58.2403Z" fill="#41414D"/>
<path fillRule="evenodd" clipRule="evenodd" d="M128.028 85.2147C128.211 76.5425 128.439 67.8247 128.622 59.1526L134.008 59.5634L128.896 58.0572C131.862 54.9534 135.057 52.8082 138.526 51.3477C135.422 52.6257 132.136 53.8124 128.028 58.331V85.2147V85.2147Z" fill="white"/>
<path fillRule="evenodd" clipRule="evenodd" d="M122.277 60.6155L122.14 64.0843L124.422 65.6818L121.912 64.4038V60.3416L127.343 56.6445L128.987 57.2835L128.713 57.603L127.435 57.101L122.277 60.6155Z" fill="white"/>
<path fillRule="evenodd" clipRule="evenodd" d="M183.439 58.332L174.949 60.1121L173.489 63.1702L181.294 66.9585V126.522H183.439V68.054V65.0415V58.332Z" fill="#31323D"/>
<path fillRule="evenodd" clipRule="evenodd" d="M83.5263 119.31L47.8793 141.309H50.8461L85.3064 119.31L104.203 83.2061L113.377 80.4219L112.555 80.4675L103.7 83.1148L83.5263 119.31Z" fill="white"/>
<path fillRule="evenodd" clipRule="evenodd" d="M140.671 71.9329C139.53 72.298 138.389 72.6632 137.248 73.074C137.841 72.4806 138.252 71.5678 138.982 71.2026L139.165 71.1113C139.758 71.157 140.26 71.4308 140.671 71.9329Z" fill="#212129"/>
<path fillRule="evenodd" clipRule="evenodd" d="M145.875 66.7301L142.771 71.0662C137.203 72.8006 130.995 74.535 125.838 77.9582C123.692 81.4271 123.282 82.7507 122.232 86.2196C119.767 94.344 113.56 105.435 110.502 110.775C107.398 116.709 105.892 122.049 110.091 128.531C112.829 132.775 115.842 136.974 118.124 141.402H161.895V138.618H181.841V141.402H197.542C201.057 137.02 203.339 133.049 205.576 128.941C208.679 123.373 210.642 117.804 207.219 111.551C205.074 107.991 201.285 99.7755 198.684 96.1241C197.132 92.6552 196.128 90.4187 194.211 86.8586C193.708 83.8462 190.97 80.1947 190.377 78.8711C188.46 77.5931 186.679 76.6346 184.489 75.4935C180.837 73.6222 177.186 72.7093 173.717 71.7965C172.621 68.6927 172.028 67.8255 170.339 65.2695C162.854 65.6803 153.36 66.1367 145.875 66.7301Z" fill="#838482"/>
<path fillRule="evenodd" clipRule="evenodd" d="M207.766 124.377C209.364 120.269 209.775 116.024 207.264 111.46C206.671 110.456 205.941 109.086 205.165 107.58C206.671 111.14 207.903 114.929 207.127 121.227C206.032 125.29 204.252 128.256 202.381 131.132C204.298 129.306 206.123 127.207 207.766 124.377Z" fill="#A29E9A"/>
<path fillRule="evenodd" clipRule="evenodd" d="M118.352 95.8512C115.568 101.922 112.555 107.171 110.501 110.685C108.219 115.067 106.804 119.129 107.9 123.602C108.447 125.793 112.92 131.955 114.472 133.324C113.559 131.59 112.281 129.581 111.186 126.843C109.588 121.274 110.136 117.623 111.642 113.378C114.29 107.627 116.481 102.606 119.082 97.1748C119.447 96.3533 120.406 95.9425 121.273 94.3906C119.858 95.3948 118.991 95.9425 118.352 95.8512Z" fill="#A29E9A"/>
<path fillRule="evenodd" clipRule="evenodd" d="M130.721 75.2637C129.032 76.0396 127.389 76.9068 125.837 77.911C123.692 81.3798 123.281 82.7035 122.231 86.1723C121.958 87.1308 121.547 88.2262 121.182 89.276C120.634 90.9192 120.041 92.608 119.356 94.3424L120.634 94.0229C122.87 87.6329 122.734 86.1723 126.339 79.6454C127.252 78.8238 128.165 78.1392 129.078 77.911C129.626 76.9981 130.173 76.1309 130.721 75.2637Z" fill="#A29E9A"/>
<path fillRule="evenodd" clipRule="evenodd" d="M194.256 86.7207C193.754 83.7083 191.426 80.6502 190.878 79.281C188.916 77.9573 186.771 76.4055 184.534 75.3557C180.974 73.6212 177.186 72.5715 173.762 71.6586C172.713 68.6918 172.484 68.2354 170.75 65.4512C171.389 68.418 172.074 71.4304 172.713 74.3972C173.215 76.0403 174.036 77.4096 175.497 78.1855C178.509 79.92 181.522 81.6544 184.534 83.3888C185.447 81.6087 185.538 80.0112 185.584 78.4137C187.364 79.281 188.049 79.3722 189.6 80.6502C189.874 83.6627 190.924 87.5423 189.966 90.8286C191.7 89.9157 193.206 88.6377 194.256 86.7207Z" fill="#4A4A4A"/>
<path fillRule="evenodd" clipRule="evenodd" d="M194.256 86.7205C193.754 83.7081 191.837 79.9198 190.331 78.231C188.185 76.9073 187.09 76.4053 184.534 75.3555C185.082 75.9032 185.31 76.5422 185.584 77.0443C187.866 77.8658 188.642 78.3223 189.965 79.2808C191.107 81.0608 193.663 84.4384 194.256 86.7205Z" fill="#838482"/>
<path fillRule="evenodd" clipRule="evenodd" d="M138.161 74.9464C138.252 74.1248 138.389 73.3946 138.617 72.8468C139.348 72.573 139.439 72.8468 140.808 72.5273C140.489 72.9381 140.169 73.4402 139.85 73.9423C139.074 74.3987 138.891 74.49 138.161 74.9464Z" fill="#A9A8A8"/>
<path fillRule="evenodd" clipRule="evenodd" d="M124.423 141.308C119.402 128.574 120.315 118.395 115.385 115.2C116.8 114.425 118.124 114.333 119.447 114.79C121.364 112.325 123.464 105.844 123.829 102.466C125.427 102.238 126.887 102.284 128.165 103.014C129.261 98.7234 129.58 93.7483 129.398 89.2753L129.169 89.3209C128.439 89.5491 128.028 89.2296 127.983 88.5906L127.618 82.6571C127.572 81.8811 127.983 81.2878 128.85 80.9683L130.082 80.6031L132.958 80.877C134.008 79.2339 135.012 73.3003 137.248 72.6156L138.344 72.2505C137.933 72.7982 137.705 73.4372 137.522 74.2588C137.157 75.765 137.02 77.6364 137.613 78.8687C138.846 75.6281 140.352 73.2546 141.904 71.1551L147.427 63.3045L171.435 62.5742L171.526 67.9601L172.484 77.5451L175.771 81.9268L178.007 83.3874L178.099 81.4247C178.099 80.6944 178.601 80.238 179.422 80.5575L184.489 80.5119L186.177 81.1509C187.045 81.4704 187.455 82.0181 187.41 82.8397L186.999 89.0927C186.953 89.7317 186.542 90.0512 185.812 89.823L185.128 89.5948C185.584 93.7939 185.447 98.7234 184.762 104.246C186.771 102.055 188.049 99.5449 189.19 96.9433C190.148 102.055 190.924 107.259 190.24 112.736C192.111 112.827 196.264 115.292 197.405 116.478C199.596 116.159 201.422 115.018 202.974 113.283C201.422 116.387 201.376 117.574 201.65 119.856C201.696 124.74 194.028 138.57 192.887 141.217H181.841V138.433H161.804V141.217H124.423V141.308Z" fill="#4A4A4A"/>
<path fillRule="evenodd" clipRule="evenodd" d="M137.385 93.0647C139.713 92.6539 142.132 92.6082 144.505 92.7452L144.414 95.6663C142.178 95.5294 139.85 95.575 137.613 95.9858L137.385 93.0647Z" fill="#636473"/>
<path fillRule="evenodd" clipRule="evenodd" d="M137.568 90.1447C139.895 89.734 142.269 89.6883 144.597 89.8252L144.505 91.4227C142.269 91.2858 139.987 91.3315 137.796 91.7422L137.568 90.1447Z" fill="#636473"/>
<path fillRule="evenodd" clipRule="evenodd" d="M173.854 79.832L175.406 81.9772L177.597 83.4378L177.688 81.4752C177.688 80.7449 178.19 80.2885 179.011 80.608L179.833 80.8818L180.518 89.4627C181.385 96.8568 182.252 104.205 183.119 111.599C183.941 110.458 184.169 108.998 184.306 107.4C185.401 110.367 186.269 113.471 186.543 116.894C188.186 117.807 189.874 118.081 191.518 117.761C192.933 119.815 193.663 122.189 194.211 124.608L192.933 128.944H152.721L158.655 107.126L165.592 91.1058L174.356 82.4337L173.854 79.832Z" fill="#2B2C2B"/>
<path fillRule="evenodd" clipRule="evenodd" d="M155.825 128.895L155.596 118.032L156.92 105.754L153.451 94.7088L144.414 80.5139L145.92 70.5181L169.198 69.7422L171.571 75.265L171.982 85.7628L159.202 103.746L157.65 114.7L157.239 119.904C157.011 123.19 156.92 126.02 157.103 128.941H155.825V128.895Z" fill="#2B2C2B"/>
<path fillRule="evenodd" clipRule="evenodd" d="M144.962 76.9989L145.372 74.306L149.115 70.335L169.244 69.6504L169.928 71.2479C170.111 73.8952 170.293 76.9533 170.293 77.501C170.293 78.5051 164.542 86.1275 157.194 86.1275C151.26 85.8993 146.742 79.8288 144.962 76.9989Z" fill="#212129"/>
<path fillRule="evenodd" clipRule="evenodd" d="M123.51 124.419L125.29 118.212L129.671 114.697L130.447 106.071L132.273 103.926L139.804 113.83L139.941 110.909L148.567 113.602L155.368 105.341L156.418 108.034L154.821 119.992L155.277 126.519L193.024 128.482L190.239 141.307H181.841V138.523H161.85V141.307H128.941L123.51 124.419Z" fill="#2B2C2B"/>
<path fillRule="evenodd" clipRule="evenodd" d="M149.708 112.235L152.721 108.264L154.82 106.027L155.368 108.355C154.045 110.546 152.995 113.011 152.264 115.749L149.708 112.235Z" fill="#4A4A4A"/>
<path fillRule="evenodd" clipRule="evenodd" d="M139.941 87.7715C140.352 90.3731 140.899 92.9291 141.721 95.2569C143.455 99.0909 145.783 103.336 148.065 106.531C149.389 104.659 150.895 102.788 152.63 101.054C150.85 97.3108 148.978 94.2528 147.746 92.8835C146.103 91.5142 144.505 90.0536 139.941 87.7715Z" fill="#838482"/>
<path fillRule="evenodd" clipRule="evenodd" d="M140.945 92.6556C141.173 93.5685 141.447 94.4357 141.721 95.3029L141.858 95.5768C142.725 95.5768 143.547 95.5768 144.414 95.6224L144.505 92.7013C143.319 92.6556 142.132 92.61 140.945 92.6556Z" fill="white"/>
<path fillRule="evenodd" clipRule="evenodd" d="M140.306 89.8256C140.397 90.3733 140.534 90.8754 140.626 91.4231C141.904 91.3318 143.227 91.3775 144.505 91.4231L144.551 90.419C144.231 90.1908 143.912 90.0082 143.547 89.78C142.497 89.7343 141.402 89.7343 140.306 89.8256Z" fill="white"/>
<path fillRule="evenodd" clipRule="evenodd" d="M131.588 93.25C131.68 100.37 132.501 105.528 133.14 112.329C132.501 118.08 132.136 123.237 132.227 128.943H140.032C139.576 123.146 139.622 116.893 139.987 110.959C136.335 103.93 131.588 93.25 131.588 93.25Z" fill="#212129"/>
<path fillRule="evenodd" clipRule="evenodd" d="M174.128 71.8841C175.269 72.2492 176.41 72.6144 177.551 73.0251C176.958 72.4318 176.547 71.5189 175.816 71.1538L175.634 71.0625C175.086 71.1538 174.584 71.4276 174.128 71.8841Z" fill="#212129"/>
<path d="M132.136 112.006L131.543 107.213C131.451 106.392 131.817 105.935 132.638 105.844L139.028 105.342C139.85 105.251 140.352 105.798 140.397 106.574L140.9 111.321C140.991 112.28 140.489 112.645 139.758 112.69L133.368 113.101C132.638 113.056 132.227 112.645 132.136 112.006ZM132.729 107.122L133.232 111.732L139.53 111.321C139.348 109.632 139.211 108.309 139.028 106.62C136.792 106.803 135.012 106.939 132.729 107.122Z" fill="#636473"/>
<path fillRule="evenodd" clipRule="evenodd" d="M139.165 71.0625C136.609 71.7471 133.368 72.7056 131.497 73.8467C130.402 75.3986 129.169 79.05 129.306 82.884C129.443 84.7554 129.58 86.5811 129.717 88.4524C132.912 102.967 140.169 113.282 148.522 124.556L150.393 111.913C145.646 105.751 137.157 93.6101 136.792 85.5313C136.655 83.2948 136.7 81.4691 136.563 79.2326C136.518 76.9961 137.659 72.6144 139.165 71.0625Z" fill="#31323D"/>
<path d="M138.846 110.502C141.721 115.203 145.19 120.223 148.659 124.879L151.352 128.896H154.456L155.049 123.464L154.821 119.995L154.866 117.668L150.256 111.597V111.643C149.07 110.091 147.655 108.174 146.194 106.074C145.236 108.219 144.414 110.456 143.912 112.875C142.132 112.373 140.443 111.551 138.846 110.502Z" fill="#212129"/>
<path d="M128.758 87.45L128.484 82.7945C128.439 82.0185 128.85 81.4252 129.671 81.1057L136.198 78.8692C137.02 78.5497 137.476 79.0061 137.522 79.7364L137.704 84.3463C137.704 85.3048 137.202 85.8069 136.472 85.9895L129.899 88.1347C129.215 88.4085 128.804 88.089 128.758 87.45ZM129.762 82.5206L129.945 86.7654L136.381 84.6202C136.335 82.977 136.244 81.9729 136.198 80.2841C133.916 81.06 132.045 81.699 129.762 82.5206Z" fill="#858494"/>
<path fillRule="evenodd" clipRule="evenodd" d="M137.202 91.9707C135.514 92.6553 133.734 93.6595 132.319 94.7093C133.825 98.7258 135.422 102.24 137.476 105.892C139.074 104.614 140.945 103.29 142.634 102.514C140.489 99.1823 138.754 95.8503 137.202 91.9707Z" fill="#636473"/>
<path fillRule="evenodd" clipRule="evenodd" d="M144.506 65.6807C140.945 70.245 137.887 75.8591 136.244 82.0665C139.987 84.4856 143.456 87.1785 146.696 90.1909C150.53 95.7137 153.588 101.602 155.825 107.855L158.016 105.071C156.692 99.2739 154.729 93.6598 151.945 88.4109C149.207 85.8549 147.381 82.6142 145.875 79.191C145.647 74.5354 146.605 70.1081 147.609 65.6807C146.605 65.6351 145.555 65.6351 144.506 65.6807Z" fill="#838482"/>
<path fillRule="evenodd" clipRule="evenodd" d="M155.962 108.264C155.277 111.824 154.729 115.612 154.455 119.72C154.455 122.641 154.136 125.7 154.455 128.895C154.958 128.895 155.46 128.895 155.962 128.895C155.779 125.471 156.099 122.322 156.19 119.538C156.601 115.247 157.148 111.185 157.742 107.123L158.061 105.069L157.468 102.559L155.231 105.571L156.053 107.899L155.962 108.264Z" fill="#4A4A4A"/>
<path fillRule="evenodd" clipRule="evenodd" d="M153.314 100.733C153.634 101.417 153.816 101.919 154.136 102.604L156.966 100.368C155.825 96.2141 154.364 92.2432 152.538 88.3635C149.982 85.7619 148.339 82.5212 146.97 79.1437C146.879 76.9984 147.244 74.8076 147.518 72.708L142.406 70.791C141.995 71.5213 141.63 72.3429 141.265 73.1188C142.36 74.4424 143.501 75.5835 144.734 76.5877C146.103 81.4258 149.389 85.7162 152.128 89.3677L154.775 99.3634L153.314 100.733Z" fill="#4A4A4A"/>
<path fillRule="evenodd" clipRule="evenodd" d="M142.953 68.9199L141.539 72.3431C142.451 72.9365 143.456 73.2103 144.277 73.3473C145.464 74.8078 145.875 75.5838 147.016 77.2269C147.335 74.9448 147.29 74.0319 147.609 71.9323L146.194 69.1481L142.953 68.9199Z" fill="#212129"/>
<path fillRule="evenodd" clipRule="evenodd" d="M139.576 73.4395C138.344 76.0867 136.974 79.1448 136.29 82.066C139.759 84.485 143.775 87.178 146.742 90.1904C148.659 93.2028 150.941 96.5804 152.447 99.7754C151.443 96.3978 148.476 91.5597 147.198 89.597C144.414 86.6302 140.58 83.6178 137.75 81.427C137.933 79.0992 139.12 76.0411 140.078 73.8959L139.576 73.4395Z" fill="#A29E9A"/>
<path fillRule="evenodd" clipRule="evenodd" d="M183.165 93.25C183.073 98.362 182.663 102.379 182.298 106.852C182.161 108.586 182.161 110.457 182.024 112.374C181.704 119.312 181.202 122.37 181.704 128.943H174.082C173.899 123.055 174.493 117.167 175.132 111.005C178.783 103.976 183.165 93.25 183.165 93.25Z" fill="#212129"/>
<path fillRule="evenodd" clipRule="evenodd" d="M183.119 112.006L183.347 107.213C183.393 106.392 182.982 105.935 182.161 105.844L175.725 105.342C174.903 105.251 174.447 105.798 174.447 106.574L174.31 111.321C174.31 112.28 174.812 112.645 175.542 112.69L181.978 113.101C182.708 113.056 183.073 112.645 183.119 112.006ZM182.115 107.122L181.932 111.732L175.588 111.321C175.634 109.632 175.679 108.309 175.725 106.62C178.053 106.803 179.878 106.939 182.115 107.122Z" fill="#636473"/>
<path fillRule="evenodd" clipRule="evenodd" d="M175.542 71.0625C178.098 71.7471 181.339 72.7056 183.21 73.8467C184.306 75.3986 185.538 79.05 185.401 82.884C185.264 84.7554 185.127 86.5811 184.99 88.4524C183.302 96.2117 180.563 104.245 176.455 111C173.215 116.295 170.476 119.9 168.878 128.938H160.298C162.306 117.436 168.605 108.353 170.932 104.656C174.447 99.0416 177.688 90.4151 177.916 85.5313C178.053 83.2948 178.007 81.4691 178.144 79.2326C178.235 76.9961 177.094 72.6144 175.542 71.0625Z" fill="#31323D"/>
<path fillRule="evenodd" clipRule="evenodd" d="M177.916 108.402C177.459 109.27 176.957 110.137 176.455 111.004C173.215 116.299 170.476 119.904 168.878 128.942H160.298C161.347 122.962 163.584 117.622 165.775 113.332C169.791 112.099 173.854 110.639 177.916 108.402Z" fill="#212129"/>
<path fillRule="evenodd" clipRule="evenodd" d="M185.949 87.45L186.223 82.7945C186.268 82.0185 185.858 81.4252 185.036 81.1057L178.509 78.8692C177.688 78.5497 177.231 79.0061 177.185 79.7364L177.003 84.3463C177.003 85.3048 177.505 85.8069 178.235 85.9895L184.808 88.1347C185.538 88.4085 185.903 88.089 185.949 87.45ZM184.99 82.5206L184.808 86.7654L178.372 84.6202C178.418 82.977 178.509 81.9729 178.555 80.2841C180.837 81.06 182.663 81.699 184.99 82.5206Z" fill="#858494"/>
<path fillRule="evenodd" clipRule="evenodd" d="M180.609 99.8669C179.787 102.195 179.148 104.112 177.962 106.211C176.136 105.07 174.675 104.249 172.987 103.244C174.173 100.962 175.086 99.2736 175.908 97.1283C177.551 97.8586 179.057 98.6802 180.609 99.8669ZM177.597 91.9707C179.285 92.6553 180.974 93.6138 182.435 94.6636C181.978 95.8047 181.613 96.9914 181.202 98.1781C179.65 97.174 178.19 96.2611 176.501 95.5308C176.912 94.3898 177.277 93.2943 177.597 91.9707Z" fill="#636473"/>
<path d="M165.409 108.537C165.638 108.218 165.729 107.853 165.957 107.533C168.194 104.475 170.476 101.371 171.48 98.5871C173.032 94.4336 173.169 89.0477 173.123 84.666H174.857C174.857 89.3216 174.721 94.8444 173.077 99.2261C172.165 101.691 170.019 104.749 167.874 107.761C167.555 108.172 167.098 108.537 166.779 108.994L165.409 108.537Z" fill="#636473"/>
<path d="M172.667 93.3847C172.941 91.2851 173.078 89.0943 173.123 87.086L174.858 86.2188C174.858 86.7665 174.721 91.8328 174.584 91.9698C174.584 91.9698 174.447 90.0984 173.762 90.5092C173.123 90.8287 172.713 93.2021 172.667 93.3847Z" fill="#41414D"/>
<path d="M158.974 128.894C159.111 123.645 159.293 118.077 161.667 113.512C162.854 111.23 165.455 108.309 167.098 105.936C166.688 106.575 166.094 107.761 166.368 107.944C166.642 108.126 168.102 106.94 169.107 106.027C167.281 108.857 164.268 112.006 163.036 114.334C160.8 118.67 160.663 123.964 160.526 128.94L158.974 128.894Z" fill="#41414D"/>
<path d="M159.156 114.472C159.293 114.061 159.339 113.605 159.476 113.194C159.704 112.464 159.978 111.779 160.298 111.049C164.497 100.46 163.766 95.2106 163.766 95.2106L165.364 94.9824C165.364 94.9824 166.186 100.688 161.804 111.779C161.393 112.783 160.845 113.742 160.571 114.654L159.156 114.472Z" fill="#636473"/>
<path d="M162.58 104.157C164.178 98.1318 163.721 95.2106 163.721 95.2106L165.319 94.9824C165.319 94.9824 165.638 97.1276 164.862 101.327L164.725 102.103C164.315 99.0903 163.356 102.377 162.58 104.157Z" fill="#41414D"/>
<path d="M157.194 128.987C157.194 128.987 156.738 120.315 159.841 112.099C159.796 112.236 159.294 113.879 159.796 114.016C160.298 114.153 162.443 109.817 162.489 109.771C162.26 110.41 161.986 111.095 161.713 111.78C158.381 119.63 158.791 126.34 158.791 128.85L157.194 128.987Z" fill="#41414D"/>
<path d="M158.837 114.426L159.385 114.517L162.078 115.795L162.488 116.16L162.032 117.529L161.621 117.119L158.974 115.795L158.426 115.749L158.837 114.426Z" fill="#636473"/>
<path fillRule="evenodd" clipRule="evenodd" d="M169.015 68.3717C169.518 69.0107 172.439 66.4091 172.986 67.185C175.862 71.3842 178.783 77.6372 180.7 83.3882C175.908 86.4007 174.036 88.6828 167.509 96.077C164.542 99.2263 162.169 103.836 159.476 107.853C159.02 110.226 158.518 112.143 157.605 114.745C158.198 109.907 158.381 108.583 158.974 103.791C161.028 100.778 162.215 99.0437 164.314 96.0313C166.596 90.9649 167.874 86.1268 170.157 81.1061C169.198 75.492 166.825 69.6954 165.82 64.127C166.87 64.4008 167.92 68.0522 169.015 68.3717Z" fill="#838482"/>
<path fillRule="evenodd" clipRule="evenodd" d="M172.713 68.6914C173.534 70.152 174.356 71.7495 175.177 73.4839C174.629 73.5752 174.082 73.8034 173.625 74.2142C172.986 74.7163 172.439 75.264 171.891 75.903C171.891 75.903 172.256 82.6581 171.617 86.2183C170.978 89.7784 170.659 90.3261 170.111 91.9236C169.152 93.1103 168.057 94.4796 166.733 96.0771C165.136 97.9028 163.721 100.276 162.306 102.695L159.613 104.932L158.472 106.986C158.472 106.21 158.746 104.612 158.837 103.745C160.754 100.733 161.849 98.9983 163.766 95.9858C165.866 90.9195 166.87 86.127 168.97 81.0606C168.331 77.1353 167.281 73.1188 166.277 69.1935L172.713 68.6914Z" fill="#4A4A4A"/>
<path fillRule="evenodd" clipRule="evenodd" d="M174.629 69.8324C175.086 70.6084 175.542 71.4299 175.953 72.2515C174.903 72.6167 173.99 72.8449 172.986 72.8449C171.297 74.0316 170.339 75.127 169.152 76.7702C168.148 74.6706 166.779 72.1146 166.094 69.6042C167.189 68.737 169.243 67.5047 170.339 66.5918C171.754 67.6872 173.169 68.7827 174.629 69.8324Z" fill="#212129"/>
<path fillRule="evenodd" clipRule="evenodd" d="M177.277 74.3516C178.555 77.2727 179.742 80.4221 180.654 83.3888C177.505 85.5341 175.132 87.1316 172.165 90.6461C174.173 87.6336 177.049 85.2146 179.696 82.9324C178.829 79.92 177.961 77.1814 176.957 74.3972L177.277 74.3516Z" fill="#A29E9A"/>
<path fillRule="evenodd" clipRule="evenodd" d="M156.738 30.4434C167.555 30.4434 176.364 39.3894 176.364 50.4806C176.364 61.5261 167.601 70.5178 156.738 70.5178C145.92 70.5178 137.111 61.5718 137.111 50.4806C137.111 39.435 145.875 30.4434 156.738 30.4434Z" fill="#212129"/>
<path fillRule="evenodd" clipRule="evenodd" d="M150.074 31.6296C149.845 31.0363 149.252 30.7168 148.978 30.8537L148.065 31.5384L147.746 36.1939L149.07 38.1566L150.85 37.3806C150.074 37.335 149.572 37.0155 149.435 36.2396C149.389 35.8744 149.252 32.7707 149.709 31.8579C149.845 31.7209 149.937 31.6753 150.074 31.6296Z" fill="#41414D"/>
<path fillRule="evenodd" clipRule="evenodd" d="M163.265 31.5847C163.493 30.9913 164.132 30.6262 164.406 30.7631L165.319 31.4478L165.638 36.2859L164.086 38.066L162.58 37.3357C163.356 37.29 163.858 36.9705 163.995 36.1946C164.041 35.8295 164.132 32.6801 163.676 31.7673C163.447 31.676 163.402 31.676 163.265 31.5847Z" fill="#41414D"/>
<path fillRule="evenodd" clipRule="evenodd" d="M156.737 29.3027C157.605 29.3027 158.426 29.3484 159.248 29.4397C159.567 30.4438 159.841 31.7218 159.841 35.1907C159.887 37.2446 165.044 38.5226 165.227 36.0122C165.364 33.5019 165.227 31.4023 164.405 30.7633C164.542 30.8089 165.044 31.0372 165.181 31.0828C172.439 34.3691 177.551 41.8089 177.551 50.481C177.551 62.2112 168.239 71.6593 156.783 71.6593C145.327 71.6593 136.016 62.1656 136.016 50.481C136.016 41.9914 140.899 34.6886 147.974 31.2654C148.157 31.1741 148.659 30.9459 149.024 30.809C148.339 31.3567 148.02 33.5019 148.202 35.9666C148.385 38.4769 153.679 37.1989 153.679 35.145C153.679 31.7674 153.771 30.3982 154.09 29.4397C154.912 29.3484 155.825 29.3027 156.737 29.3027Z" fill="#636473"/>
<path fillRule="evenodd" clipRule="evenodd" d="M136.29 46.5554C137.522 39.7546 141.95 34.1405 147.883 31.265C148.066 31.1737 148.568 30.9455 148.933 30.8086C148.248 31.3563 147.929 33.5015 148.111 35.9662C146.559 37.0617 145.236 38.5222 144.414 40.7587C140.991 42.1737 138.572 43.9994 136.29 46.5554Z" fill="#858494"/>
<path fillRule="evenodd" clipRule="evenodd" d="M167.372 32.2695C172.165 35.1907 175.679 39.9832 176.957 45.6885C175.588 43.9085 174.082 42.5392 172.347 41.672C172.713 39.2985 170.796 35.0994 167.372 32.2695Z" fill="#858494"/>
<path fillRule="evenodd" clipRule="evenodd" d="M154.182 34.2319C154.182 34.734 154.182 35.0078 154.227 35.4186C154.273 36.4228 155.597 37.0161 156.738 37.0618C157.879 37.0161 159.202 36.4228 159.248 35.4186C159.294 35.0078 159.294 34.734 159.294 34.2319C158.426 34.1863 157.605 34.1406 156.738 34.1406C155.87 34.1863 155.003 34.1863 154.182 34.2319Z" fill="#212129"/>
<path fillRule="evenodd" clipRule="evenodd" d="M156.738 28.8008C155.916 28.8008 155.414 28.8008 154.592 28.8921C154.182 29.2572 154.09 32.1327 154.182 34.5974C154.227 35.7385 155.368 36.4231 156.738 36.4688C158.107 36.4231 159.202 35.7841 159.294 34.5974C159.43 32.1327 159.294 29.2572 158.883 28.8921C158.016 28.8008 157.559 28.8008 156.738 28.8008Z" fill="#41414D"/>
<path fillRule="evenodd" clipRule="evenodd" d="M156.737 34.6443C156.418 34.6443 156.19 34.4618 156.19 34.2792C156.19 34.051 156.418 33.9141 156.737 33.9141C157.057 33.9141 157.285 34.0966 157.285 34.2792C157.285 34.4618 157.011 34.6443 156.737 34.6443Z" fill="#212129"/>
<path fillRule="evenodd" clipRule="evenodd" d="M156.737 31.5385C156.464 31.5385 156.235 31.4472 156.235 31.3102C156.235 31.1733 156.464 31.082 156.737 31.082C157.011 31.082 157.239 31.1733 157.239 31.3102C157.194 31.4472 156.966 31.5385 156.737 31.5385Z" fill="#212129"/>
<path d="M158.7 67.3223C158.929 67.3223 159.065 67.5048 159.065 67.7787C159.065 68.0069 158.883 68.1895 158.7 68.1895C158.472 68.1895 158.335 68.0069 158.335 67.733C158.335 67.5048 158.472 67.3223 158.7 67.3223Z" stroke="#F5831F" stroke-width="0.216" stroke-miterlimit="22.9256"/>
<path fillRule="evenodd" clipRule="evenodd" d="M156.738 39.3906C146.97 39.3906 139.302 42.3574 136.792 47.0586C136.655 47.3325 136.518 47.652 136.381 48.0171C136.153 48.4736 135.97 48.9756 135.879 49.4777C135.742 49.4777 135.605 49.5233 135.468 49.5233C135.194 51.6229 135.148 53.6768 135.924 55.7308C136.107 55.6851 136.29 55.6395 136.518 55.5938C136.609 55.8677 136.655 56.1416 136.746 56.4154C139.256 64.7681 146.057 76.8634 156.783 77.0003C167.281 76.8634 174.173 65.3158 176.82 56.9631C176.957 56.5523 177.094 56.0959 177.186 55.6395L177.642 55.7764C178.418 53.7225 178.327 51.6229 178.098 49.569C177.961 49.569 177.825 49.5233 177.688 49.5233C177.596 49.0213 177.414 48.5192 177.186 48.0628C175.132 42.7226 167.098 39.3906 156.738 39.3906Z" fill="#212129"/>
<path fillRule="evenodd" clipRule="evenodd" d="M176.501 50.3898L177.095 50.0247C175.497 43.9542 166.871 42.5849 166.871 42.4936C165.456 42.0828 164.223 41.4438 162.945 40.4397C162.124 40.394 161.256 40.3484 160.435 40.3027L160.344 41.5351C159.476 41.4895 158.107 41.4894 156.738 41.4894C155.369 41.4894 153.954 41.4895 153.132 41.5351L153.041 40.3027C152.219 40.3484 151.352 40.394 150.53 40.4397C149.252 41.4438 147.974 42.0828 146.605 42.4936C146.605 42.5849 137.979 43.9542 136.381 50.0247L136.974 50.3898C137.02 50.2072 137.111 49.979 137.157 49.8421L136.838 49.6139C138.663 44.5475 145.008 43.2695 146.742 42.8131C148.066 42.4023 149.435 41.8089 150.53 40.9417L152.858 40.8048L152.949 41.8089C153.771 41.7633 155.232 41.7633 156.692 41.7633C158.153 41.7633 159.613 41.7633 160.435 41.8089L160.526 40.8048L162.945 40.8961C164.041 41.8089 165.319 42.448 166.688 42.8131C168.468 43.3152 174.767 44.5475 176.592 49.6139L176.273 49.8421C176.364 49.979 176.41 50.2072 176.501 50.3898ZM175.999 55.2736C177.095 54.1325 177.414 52.4437 177.186 50.9375L176.684 51.257C177.003 52.8545 176.729 53.9043 175.999 55.2736ZM137.431 55.2736C136.335 54.1325 136.016 52.4437 136.244 50.9375L136.746 51.257C136.427 52.8545 136.701 53.9043 137.431 55.2736Z" fill="#636473"/>
<path fillRule="evenodd" clipRule="evenodd" d="M137.979 46.9671L137.796 47.6974C140.306 44.1829 145.236 43.1787 146.742 42.768C148.066 42.3572 149.435 41.7638 150.53 40.8966L150.576 40.851V40.3945C149.298 41.3987 148.02 42.0377 146.651 42.4485C146.605 42.5854 140.991 43.4526 137.979 46.9671Z" fill="#858494"/>
<path fillRule="evenodd" clipRule="evenodd" d="M156.601 42.2207C145.92 42.2207 137.248 46.4655 137.248 51.7144C137.248 55.6853 140.717 60.3866 148.476 61.8015C151.899 62.4405 152.128 56.0505 156.692 56.1874C161.256 56.0505 161.484 62.4405 164.908 61.8015C172.302 60.4322 176.136 55.731 176.136 51.7144C176.136 46.4655 167.464 42.2207 156.783 42.2207C156.738 42.2207 156.692 42.2207 156.646 42.2207C156.692 42.2207 156.646 42.2207 156.601 42.2207Z" fill="#636473"/>
<path fillRule="evenodd" clipRule="evenodd" d="M156.601 42.2207C151.58 42.2207 146.97 43.1792 143.547 44.7311L143.638 46.3286L157.422 43.4531V42.2207C157.24 42.2207 157.057 42.2207 156.92 42.2207C156.875 42.2207 156.829 42.2207 156.783 42.2207C156.692 42.2207 156.646 42.2207 156.601 42.2207Z" fill="#858494"/>
<path fillRule="evenodd" clipRule="evenodd" d="M156.601 42.9043C146.377 42.9043 137.887 46.8752 137.887 51.759C137.887 55.4561 141.858 59.5183 148.157 60.8419C151.58 61.5722 151.763 55.593 156.738 55.5474C161.713 55.593 161.895 61.8004 165.319 61.0702C171.617 59.7465 175.588 55.4561 175.588 51.759C175.588 46.8752 167.099 42.9043 156.875 42.9043C156.829 42.9043 156.783 42.9043 156.738 42.9043C156.692 42.9043 156.646 42.9043 156.601 42.9043Z" fill="#31323D"/>
<path fillRule="evenodd" clipRule="evenodd" d="M139.028 52.3053C139.028 55.0895 141.995 58.9235 148.065 60.1102C149.663 60.4297 150.53 59.106 151.534 57.7368C152.63 56.2762 153.771 54.77 156.692 54.7243C159.613 54.77 160.8 56.2305 161.85 57.7368C162.854 59.106 163.721 60.4297 165.318 60.1102C171.343 58.9235 174.356 55.0895 174.356 52.3053C174.356 45.9609 161.393 43.8613 156.692 43.8613C151.991 43.8613 139.028 45.9609 139.028 52.3053Z" fill="#8AB0D0"/>
<path fillRule="evenodd" clipRule="evenodd" d="M139.028 52.3053C139.028 54.9069 141.584 58.3758 146.787 59.8363L148.385 58.6496C148.385 58.6496 140.032 57.2803 139.85 52.5335C139.53 44.3178 160.982 44.5003 166.87 46.965C171.298 48.8364 172.256 49.8862 172.256 49.8862L172.347 48.38C168.513 45.048 160.252 43.8613 156.692 43.8613C151.991 43.8613 139.028 45.9609 139.028 52.3053Z" fill="#668FB3"/>
<path fillRule="evenodd" clipRule="evenodd" d="M167.6 59.517C172.119 57.9195 174.401 54.7245 174.401 52.3054C174.401 49.5668 172.028 47.6498 168.924 46.3262C169.198 51.3012 168.696 55.683 167.6 59.517Z" fill="#668FB3"/>
<path fillRule="evenodd" clipRule="evenodd" d="M147.015 45.4141C144.779 46.0987 142.634 47.0572 141.127 48.2896C141.401 52.0779 142.497 57.3725 144.916 57.0073C146.97 56.6878 146.833 51.2107 147.015 45.4141Z" fill="#B7D6F1"/>
<path fillRule="evenodd" clipRule="evenodd" d="M142.999 58.1492C144.322 59.0164 146.011 59.7011 148.065 60.1119C149.663 60.4314 150.53 59.1077 151.534 57.7384C152.629 56.2779 153.77 54.7716 156.692 54.726C159.613 54.7716 160.8 56.2322 161.849 57.7384C162.853 59.1077 163.721 60.4314 165.318 60.1119C168.376 59.5185 170.658 58.1949 172.165 56.6886C169.061 57.8754 165.044 57.8754 162.716 55.7758C162.625 54.9086 162.488 54.4065 162.214 53.5849C158.517 52.7634 154.82 52.7634 151.214 53.5849C150.941 54.4065 150.758 55.2281 150.667 56.0496C148.75 57.921 145.737 58.2405 142.999 58.1492Z" fill="#41414D"/>
<path fillRule="evenodd" clipRule="evenodd" d="M156.737 56.5977C154.729 56.5977 153.497 58.0126 152.356 59.7927C150.941 62.303 149.754 62.8964 147.837 62.2574C146.787 61.9379 145.098 61.2989 144.596 61.1163C144.14 60.9337 143.41 61.1163 143.638 62.3943C143.957 64.1287 145.372 67.5976 147.107 70.9295C148.248 73.1204 149.617 75.083 150.758 76.4067C152.219 78.0954 153.725 78.9627 156.783 78.9627C159.841 78.9627 161.347 78.0954 162.808 76.4067C163.949 75.083 165.318 73.1204 166.459 70.9295C168.194 67.6432 169.563 64.1287 169.928 62.3943C170.202 61.0707 169.426 60.9337 168.97 61.1163C168.468 61.2989 166.779 61.9835 165.729 62.2574C163.766 62.8964 162.625 62.303 161.21 59.7927C159.932 58.0582 158.7 56.5977 156.737 56.5977Z" fill="#41414D"/>
<path fillRule="evenodd" clipRule="evenodd" d="M145.966 68.6476C146.331 69.3779 146.696 70.1538 147.061 70.8841C148.202 73.075 149.571 75.0376 150.713 76.3613C152.173 78.05 153.679 78.9173 156.737 78.9173C159.795 78.9173 161.302 78.05 162.762 76.3613C163.903 75.0376 165.273 73.075 166.414 70.8841C166.733 70.2908 167.007 69.6974 167.281 69.1497C167.463 68.7389 168.194 67.2327 168.285 66.9588L167.6 65.6352C167.235 64.4028 166.277 63.6269 164.862 64.5398C164.268 64.9505 163.858 66.0003 163.584 66.4568C162.899 67.5978 162.215 67.7348 161.576 66.4111C161.028 65.27 160.48 63.9464 160.024 62.6684C159.43 60.934 158.289 59.8385 156.783 59.8842C155.277 59.8385 154.136 60.934 153.542 62.6684C153.086 63.9464 152.538 65.27 151.991 66.4111C151.306 67.7348 150.621 67.5978 149.982 66.4568C149.708 66.0003 149.298 64.9505 148.704 64.5398C147.335 63.6269 146.331 64.4028 145.966 65.6352C145.92 65.8178 145.007 66.3655 145.098 66.548C145.281 67.3696 145.737 68.1912 145.966 68.6476Z" fill="#31323D"/>
<path fillRule="evenodd" clipRule="evenodd" d="M146.559 65.1777C146.331 65.4972 146.194 65.9992 146.194 66.6382C146.194 66.7295 146.194 66.8664 146.194 66.9577L146.559 65.1777ZM156.737 60.9785C155.551 60.9785 154.546 61.6632 154.136 62.576C153.542 64.1279 152.949 65.5884 152.31 66.9121C151.488 68.4639 150.439 68.0532 149.754 66.7752C149.434 67.7337 148.932 68.6009 148.339 69.4681C147.654 68.8291 147.015 68.2814 146.331 67.8706C146.468 68.9204 146.787 69.4224 147.472 70.5635C148.248 71.8872 150.21 75.1734 150.758 75.4473C151.397 74.6257 151.625 74.2606 151.945 73.3477C151.99 74.4888 151.899 75.7212 151.99 76.7709C152.082 77.5925 153.725 79.1444 156.829 79.1444C159.932 79.1444 161.575 77.6382 161.667 76.7709C161.758 75.6755 161.758 74.5344 161.758 73.3934C161.986 73.9867 162.214 74.3519 162.58 74.4888C163.721 73.7585 165.455 71.7502 166.14 70.5635C166.824 69.3768 167.19 68.9204 167.281 67.8249C166.733 68.2357 166.231 68.7834 165.729 69.4224C164.953 68.8747 164.268 68.0532 163.721 66.9577C163.036 68.1444 162.032 68.4183 161.21 66.9577C160.571 65.6341 159.932 64.1735 159.385 62.6217C158.928 61.6632 157.924 60.9785 156.737 60.9785Z" fill="#41414D"/>
<path fillRule="evenodd" clipRule="evenodd" d="M156.738 73.8945C154.045 73.8945 151.899 75.0812 151.899 76.5418C151.899 78.0024 154.09 79.1891 156.738 79.1891C159.43 79.1891 161.576 78.0024 161.576 76.5418C161.576 75.0812 159.385 73.8945 156.738 73.8945Z" fill="#636473"/>
<path fillRule="evenodd" clipRule="evenodd" d="M156.738 74.3516C154.41 74.3516 152.539 75.3101 152.539 76.5424C152.539 77.7291 154.41 78.7333 156.738 78.7333C159.066 78.7333 160.937 77.7748 160.937 76.5424C160.891 75.3101 159.02 74.3516 156.738 74.3516Z" fill="#212129"/>
<path fillRule="evenodd" clipRule="evenodd" d="M155.962 72.8454C155.323 71.1566 154.82 69.8786 154.09 68.3724C153.771 67.6877 154.045 66.9118 154.592 66.8205C155.277 66.7292 155.962 66.7292 156.737 66.6836C157.513 66.6836 158.198 66.7292 158.883 66.8205C159.476 66.9118 159.704 67.6877 159.385 68.3724C158.654 69.9242 158.152 71.1566 157.513 72.8454C157.513 73.2105 157.513 73.5757 157.513 73.9408C156.966 73.8952 156.464 73.8952 155.962 73.9408C155.916 73.5757 155.916 73.2105 155.962 72.8454Z" fill="#212129"/>
<path fillRule="evenodd" clipRule="evenodd" d="M174.173 61.709C172.667 62.8501 171.663 62.1198 170.293 62.6675L171.115 65.4517C172.256 65.3604 172.895 65.3148 173.671 64.7214C173.854 63.7173 174.036 62.7131 174.173 61.709Z" fill="#41414D"/>
<path fillRule="evenodd" clipRule="evenodd" d="M172.439 65.2697C172.895 65.1784 173.26 64.9959 173.671 64.6764L174.082 62.166C173.762 62.3486 173.443 62.5312 173.078 62.6681C172.986 63.6266 172.758 64.4938 172.439 65.2697Z" fill="#31323D"/>
<path fillRule="evenodd" clipRule="evenodd" d="M154.729 67.3223C154.501 67.3223 154.364 67.5048 154.364 67.7787C154.364 68.0069 154.547 68.1895 154.729 68.1895C154.957 68.1895 155.094 68.0069 155.094 67.733C155.14 67.5048 154.957 67.3223 154.729 67.3223Z" fill="#636473"/>
<path fillRule="evenodd" clipRule="evenodd" d="M158.563 67.3223C158.792 67.3223 158.929 67.5048 158.929 67.7787C158.929 68.0069 158.746 68.1895 158.563 68.1895C158.335 68.1895 158.198 68.0069 158.198 67.733C158.198 67.5048 158.381 67.3223 158.563 67.3223Z" fill="#636473"/>
<path fillRule="evenodd" clipRule="evenodd" d="M176.592 55.8204C177.003 55.7291 177.414 55.9117 177.779 56.2312C178.098 56.6419 178.19 57.2353 177.961 59.3349C177.961 59.4718 178.144 59.5631 178.144 59.7C177.642 61.7083 177.14 63.7166 176.638 65.7249C176.455 66.0444 176.227 66.3639 176.044 66.6834L174.173 66.2726C173.58 66.1357 173.58 64.173 174.036 62.3017C174.447 60.4759 175.268 58.7415 175.771 58.8328L176.273 58.9241C176.82 58.0569 177.322 56.8245 176.181 56.4594C176.318 56.1855 176.455 55.9117 176.592 55.8204Z" fill="#41414D"/>
<path fillRule="evenodd" clipRule="evenodd" d="M176.684 65.5413L176.638 65.7239C176.455 66.0434 176.227 66.3629 176.045 66.6824L174.173 66.2716C173.626 66.1803 173.58 64.5372 173.899 62.8027C173.854 63.3504 173.762 63.8982 173.945 64.4459C174.128 64.4915 174.265 64.5372 174.447 64.5372C174.447 64.4002 174.447 64.2633 174.447 64.172C174.767 64.2633 175.086 64.3089 175.406 64.4002C175.406 64.5372 175.406 64.6284 175.406 64.7654C175.679 64.811 175.999 64.9023 176.273 64.948C176.273 64.9023 176.455 65.1762 176.684 65.5413Z" fill="#212129"/>
<path fillRule="evenodd" clipRule="evenodd" d="M176.273 58.9707C176.775 58.1491 177.277 57.0081 176.364 56.5973C176.455 56.3691 176.592 56.1865 176.729 56.0039C176.729 56.0039 177.642 56.0495 177.688 57.0993C177.733 58.1491 177.551 59.1533 177.551 59.1533L176.273 58.9707Z" fill="#31323D"/>
<path fillRule="evenodd" clipRule="evenodd" d="M175.999 66.6837C176.592 66.9119 177.597 65.497 178.053 63.3974C178.509 61.3891 178.372 59.4265 177.962 59.3352C176.821 59.107 175.314 66.5468 175.999 66.6837Z" fill="#212129"/>
<path fillRule="evenodd" clipRule="evenodd" d="M174.63 64.3555C174.858 64.3555 175.086 64.4011 175.269 64.4924C175.223 65.4965 175.177 66.592 175.588 66.592C175.132 67.6874 174.675 68.7828 174.219 69.8326C173.352 71.6127 171.526 71.2475 169.426 69.4675C169.791 67.9156 170.111 66.3638 170.476 64.8119C171.024 65.314 171.617 65.816 172.165 66.3181C172.849 66.8202 173.488 66.7745 173.808 66.4094C174.264 65.7704 174.401 65.0858 174.63 64.3555Z" fill="#41414D"/>
<path fillRule="evenodd" clipRule="evenodd" d="M175.268 64.4922C175.223 65.4963 175.177 66.5918 175.588 66.5918C175.132 67.6872 174.675 68.7826 174.219 69.8324C174.127 70.0606 173.99 70.2432 173.854 70.3801L174.082 66.9113C174.493 66.5461 174.903 65.6333 175.268 64.4922Z" fill="#31323D"/>
<path fillRule="evenodd" clipRule="evenodd" d="M172.576 71.0191C171.708 71.0191 170.613 70.4714 169.426 69.5129L170.339 65.3594C171.48 66.4092 172.439 67.1394 173.032 67.322L172.576 71.0191Z" fill="#31323D"/>
<path fillRule="evenodd" clipRule="evenodd" d="M167.007 63.5815L166.962 63.9922L168.057 67.096L168.331 67.2785L171.298 65.9549L171.435 65.6354L171.343 65.2246C172.621 64.3574 172.165 62.3491 170.567 62.7142L170.476 62.4404L170.157 62.2578L167.007 63.5815Z" fill="#31323D"/>
<path fillRule="evenodd" clipRule="evenodd" d="M163.903 66.1811C164.907 65.0857 166.049 64.401 167.281 63.9902L168.285 66.8657C167.372 67.4134 166.459 68.2807 165.683 69.1022C164.816 68.3263 164.223 67.3222 163.903 66.1811Z" fill="#212129"/>
<path fillRule="evenodd" clipRule="evenodd" d="M165.683 65.1319C166.277 64.9493 166.916 65.4058 167.144 66.1817C167.372 66.9576 167.098 67.6879 166.505 67.8705C165.912 68.053 165.273 67.5966 165.044 66.8207C164.816 66.0904 165.09 65.3145 165.683 65.1319Z" fill="#636473"/>
<path fillRule="evenodd" clipRule="evenodd" d="M165.866 65.4057C166.323 65.2688 166.825 65.6339 166.962 66.2273C167.144 66.8206 166.916 67.414 166.459 67.5509C166.003 67.6878 165.501 67.3227 165.364 66.7293C165.181 66.136 165.41 65.5426 165.866 65.4057Z" fill="#212129"/>
<path fillRule="evenodd" clipRule="evenodd" d="M166.049 65.6367C166.368 65.5454 166.733 65.8193 166.87 66.2301C167.007 66.6865 166.825 67.0973 166.505 67.1886C166.186 67.2799 165.82 67.006 165.683 66.5952C165.547 66.1844 165.729 65.7737 166.049 65.6367Z" fill="#636473"/>
<path fillRule="evenodd" clipRule="evenodd" d="M167.875 63.8062L168.787 66.636L171.07 65.6319L170.248 62.8477L167.875 63.8062Z" fill="#212129"/>
<path fillRule="evenodd" clipRule="evenodd" d="M168.194 63.9439L168.924 66.3173L170.841 65.4958L170.156 63.168L168.194 63.9439Z" fill="#41414D"/>
<path fillRule="evenodd" clipRule="evenodd" d="M171.252 63.2617C171.48 63.2161 171.663 63.4443 171.708 63.7181C171.754 63.992 171.617 64.2658 171.389 64.3115C171.161 64.3571 170.978 64.1289 170.933 63.8551C170.887 63.5356 171.024 63.3073 171.252 63.2617Z" fill="#212129"/>
<path fillRule="evenodd" clipRule="evenodd" d="M176.409 62.3934C176.638 61.6631 177.459 59.4723 178.007 59.6092C178.189 59.6549 178.281 59.8831 178.372 60.7046C178.372 59.7461 178.372 59.381 178.007 59.2441C177.322 59.1071 176.638 61.4349 176.409 62.3934Z" fill="white"/>
<path fillRule="evenodd" clipRule="evenodd" d="M139.393 61.709C140.9 62.8501 141.904 62.1198 143.273 62.6675L142.451 65.4517C141.31 65.3604 140.671 65.3148 139.895 64.7214C139.713 63.7173 139.53 62.7131 139.393 61.709Z" fill="#41414D"/>
<path fillRule="evenodd" clipRule="evenodd" d="M141.128 65.2697C140.671 65.1784 140.306 64.9959 139.895 64.6764L139.485 62.166C139.804 62.3486 140.124 62.5312 140.489 62.6681C140.58 63.6266 140.808 64.4938 141.128 65.2697Z" fill="#31323D"/>
<path fillRule="evenodd" clipRule="evenodd" d="M136.974 55.8204C136.563 55.7291 136.153 55.9117 135.788 56.2312C135.468 56.6419 135.377 57.2353 135.605 59.3349C135.605 59.4718 135.422 59.5631 135.422 59.7C135.924 61.7083 136.427 63.7166 136.929 65.7249C137.111 66.0444 137.339 66.3639 137.522 66.6834L139.393 66.2726C139.987 66.1357 139.987 64.173 139.53 62.3017C139.119 60.4759 138.298 58.7415 137.796 58.8328L137.294 58.9241C136.746 58.0569 136.244 56.8245 137.385 56.4594C137.248 56.1855 137.111 55.9117 136.974 55.8204Z" fill="#636473"/>
<path fillRule="evenodd" clipRule="evenodd" d="M136.883 65.5413L136.928 65.7239C137.111 66.0434 137.339 66.3629 137.522 66.6824L139.393 66.2716C139.941 66.1803 139.987 64.5372 139.667 62.8027C139.713 63.3504 139.804 63.8982 139.621 64.4459C139.439 64.4915 139.302 64.5372 139.119 64.5372C139.119 64.4002 139.119 64.2633 139.119 64.172C138.8 64.2633 138.48 64.3089 138.161 64.4002C138.161 64.5372 138.161 64.6284 138.161 64.7654C137.887 64.811 137.567 64.9023 137.294 64.948C137.294 64.9023 137.111 65.1762 136.883 65.5413Z" fill="#31323D"/>
<path fillRule="evenodd" clipRule="evenodd" d="M137.294 58.9707C136.792 58.1491 136.29 57.0081 137.203 56.5973C137.111 56.3691 136.974 56.1865 136.837 56.0039C136.837 56.0039 135.925 56.0495 135.879 57.0993C135.833 58.1491 136.016 59.1533 136.016 59.1533L137.294 58.9707Z" fill="#31323D"/>
<path fillRule="evenodd" clipRule="evenodd" d="M137.568 66.6837C136.974 66.9119 135.97 65.497 135.514 63.3974C135.057 61.3891 135.194 59.4265 135.605 59.3352C136.746 59.107 138.252 66.5468 137.568 66.6837Z" fill="#41414D"/>
<path fillRule="evenodd" clipRule="evenodd" d="M138.937 64.3555C138.709 64.3555 138.481 64.4011 138.298 64.4924C138.344 65.4965 138.389 66.592 137.979 66.592C138.435 67.6874 138.891 68.7828 139.348 69.8326C140.215 71.6127 142.041 71.2475 144.14 69.4675C143.775 67.9156 143.456 66.3638 143.091 64.8119C142.543 65.314 141.949 65.816 141.402 66.3181C140.717 66.8202 140.078 66.7745 139.759 66.4094C139.302 65.7704 139.165 65.0858 138.937 64.3555Z" fill="#41414D"/>
<path fillRule="evenodd" clipRule="evenodd" d="M138.298 64.4922C138.344 65.4963 138.389 66.5918 137.979 66.5918C138.435 67.6872 138.891 68.7826 139.348 69.8324C139.439 70.0606 139.576 70.2432 139.713 70.3801L139.485 66.9113C139.074 66.5461 138.663 65.6333 138.298 64.4922Z" fill="#31323D"/>
<path fillRule="evenodd" clipRule="evenodd" d="M140.991 71.0191C141.858 71.0191 142.953 70.4714 144.14 69.5129L143.227 65.3594C142.086 66.4092 141.128 67.1394 140.534 67.322L140.991 71.0191Z" fill="#31323D"/>
<path fillRule="evenodd" clipRule="evenodd" d="M146.559 63.5815L146.605 63.9922L145.51 67.096L145.236 67.2785L142.269 65.9549L142.132 65.6354L142.223 65.2246C140.945 64.3574 141.402 62.3491 142.999 62.7142L143.091 62.4404L143.41 62.2578L146.559 63.5815Z" fill="#31323D"/>
<path fillRule="evenodd" clipRule="evenodd" d="M149.663 66.1811C148.659 65.0857 147.518 64.401 146.286 63.9902L145.281 66.8657C146.194 67.4134 147.107 68.2807 147.883 69.1022C148.75 68.3263 149.344 67.3222 149.663 66.1811Z" fill="#212129"/>
<path fillRule="evenodd" clipRule="evenodd" d="M147.883 65.1319C147.29 64.9493 146.651 65.4058 146.422 66.1817C146.194 66.9576 146.468 67.6879 147.061 67.8705C147.655 68.053 148.294 67.5966 148.522 66.8207C148.75 66.0904 148.476 65.3145 147.883 65.1319Z" fill="#636473"/>
<path fillRule="evenodd" clipRule="evenodd" d="M147.7 65.4057C147.244 65.2688 146.741 65.6339 146.605 66.2273C146.422 66.8206 146.65 67.414 147.107 67.5509C147.563 67.6878 148.065 67.3227 148.202 66.7293C148.385 66.136 148.156 65.5426 147.7 65.4057Z" fill="#212129"/>
<path fillRule="evenodd" clipRule="evenodd" d="M147.518 65.6367C147.198 65.5454 146.833 65.8193 146.696 66.2301C146.559 66.6865 146.742 67.0973 147.061 67.1886C147.381 67.2799 147.746 67.006 147.883 66.5952C148.02 66.1844 147.837 65.7737 147.518 65.6367Z" fill="#636473"/>
<path fillRule="evenodd" clipRule="evenodd" d="M145.692 63.8062L144.779 66.636L142.497 65.6319L143.318 62.8477L145.692 63.8062Z" fill="#212129"/>
<path fillRule="evenodd" clipRule="evenodd" d="M145.373 63.9439L144.642 66.3173L142.725 65.4958L143.41 63.168L145.373 63.9439Z" fill="#41414D"/>
<path fillRule="evenodd" clipRule="evenodd" d="M142.315 63.2617C142.086 63.2161 141.904 63.4443 141.858 63.7181C141.812 63.992 141.949 64.2658 142.178 64.3115C142.406 64.3571 142.588 64.1289 142.634 63.8551C142.68 63.5812 142.543 63.3073 142.315 63.2617Z" fill="#212129"/>
<path fillRule="evenodd" clipRule="evenodd" d="M137.157 62.3934C136.929 61.6631 136.107 59.6549 135.605 59.7918C135.422 59.8374 135.331 60.3395 135.24 61.1154C135.24 60.1569 135.24 59.381 135.605 59.2441C136.244 59.1071 136.929 61.4349 137.157 62.3934Z" fill="white"/>
<path fillRule="evenodd" clipRule="evenodd" d="M153.588 35.0082C153.497 32.087 153.725 30.1244 153.999 29.4397C154.136 29.3941 154.181 29.3941 154.318 29.3941C154.364 29.2572 154.41 29.0289 154.546 28.892C155.277 28.7551 156.007 28.7551 156.783 28.8007C156.007 28.8464 155.368 28.892 154.638 29.029C154.546 29.2115 154.501 29.4854 154.501 29.8049C155.049 29.7136 155.642 29.7136 156.19 29.7136C155.551 29.8049 155.049 29.9418 154.501 30.17C154.273 31.5849 154.409 33.365 154.592 34.8712C154.866 36.3318 155.688 36.2405 156.555 36.5144C155.688 36.5144 154.273 36.2405 154.181 34.9625C154.044 33.1824 153.999 31.3111 154.318 29.5767C154.227 29.5767 154.136 29.5767 154.09 29.6223C153.771 30.7634 153.816 32.9542 153.907 35.0538C153.953 36.2862 152.766 36.7882 151.808 37.1077C152.949 36.4687 153.588 35.8297 153.588 35.0082Z" fill="white"/>
<path fillRule="evenodd" clipRule="evenodd" d="M164.771 31.2656C165.09 32.9544 165.136 34.6432 164.953 36.332C164.771 37.6556 163.128 37.3361 161.85 37.1536C163.356 37.6556 165.045 37.7013 165.318 36.4689C165.501 33.9129 165.318 32.3611 164.771 31.2656Z" fill="white"/>
<path fillRule="evenodd" clipRule="evenodd" d="M147.518 31.8125C145.19 32.9536 143.045 34.4141 141.31 36.3311C139.485 38.3394 137.796 41.4888 136.837 45.5054C137.887 44.2274 139.759 42.8124 141.356 42.0365C140.169 42.4016 139.439 42.8124 138.526 43.4058C139.074 41.078 140.443 38.0656 141.721 36.5594C143.227 34.7336 145.281 33.2731 147.518 31.8125Z" fill="white"/>
<path fillRule="evenodd" clipRule="evenodd" d="M143.319 34.7363C143.501 34.8733 143.593 35.3297 142.315 36.7446C141.037 38.2052 140.535 38.1139 140.352 37.977L141.493 36.7446L143.319 34.7363Z" fill="white"/>
<path fillRule="evenodd" clipRule="evenodd" d="M143.638 36.9708C143.455 36.8338 142.816 37.0621 142.406 37.5641C142.041 38.0206 141.812 38.5683 141.995 38.7508C142.177 38.8878 142.634 38.5683 142.999 38.1118C143.41 37.6098 143.821 37.1077 143.638 36.9708Z" fill="white"/>
<path fillRule="evenodd" clipRule="evenodd" d="M145.555 42.7689C147.381 42.4494 149.069 41.5822 150.53 40.3955C151.397 40.3498 152.219 40.2585 153.132 40.2129C153.04 40.3955 152.995 40.5324 152.903 40.715C152.082 40.7606 151.352 40.8062 150.53 40.8519C148.841 42.0842 147.152 42.632 145.555 42.7689Z" fill="white"/>
<path fillRule="evenodd" clipRule="evenodd" d="M160.389 40.2559L160.526 40.7123L162.945 40.8036L162.899 40.3928L160.389 40.2559Z" fill="white"/>
<path fillRule="evenodd" clipRule="evenodd" d="M148.841 60.8877C150.165 60.9334 150.713 60.2031 152.128 58.1035C151.032 59.4728 149.937 60.6139 148.841 60.8877Z" fill="white"/>
<path fillRule="evenodd" clipRule="evenodd" d="M160.206 58.5605C160.069 59.7473 159.978 60.8883 160.069 62.075C160.297 63.0792 160.891 64.768 161.256 65.4983C161.484 64.129 161.895 62.5315 162.306 61.5273C161.712 60.7514 160.845 59.2908 160.206 58.5605Z" fill="#31323D"/>
<path fillRule="evenodd" clipRule="evenodd" d="M160.389 65.9999C160.435 65.5435 160.937 66.9128 161.256 68.1908C161.211 70.5186 161.028 71.1576 161.667 73.3941C161.713 74.0331 161.85 75.7675 161.576 76.5434C161.622 75.4936 161.165 74.7633 160.298 74.3526C159.933 71.3858 159.978 68.6015 160.389 65.9999Z" fill="#31323D"/>
<path fillRule="evenodd" clipRule="evenodd" d="M137.933 58.9688C137.202 59.06 136.426 59.1513 135.696 59.2426C135.879 59.4252 136.061 59.6077 136.244 59.836C136.928 59.6534 137.567 59.4708 138.252 59.2882C138.161 59.1513 138.069 59.0144 137.933 58.9688Z" fill="white"/>
<path fillRule="evenodd" clipRule="evenodd" d="M167.646 46.2812C167.555 51.1194 167.144 55.6837 164.953 59.7003C168.696 55.9575 169.289 50.5717 167.646 46.2812Z" fill="white"/>
<path fillRule="evenodd" clipRule="evenodd" d="M164.36 45.5976C165.501 46.0084 166.003 46.9669 165.684 47.5603C165.364 48.1536 164.36 48.108 163.265 47.6972C162.123 47.2864 161.348 46.6018 161.621 46.0084C161.895 45.4151 163.219 45.1412 164.36 45.5976Z" fill="white"/>
<path fillRule="evenodd" clipRule="evenodd" d="M153.451 58.2871C153.588 59.4738 153.451 60.8888 153.406 62.0755C153.178 63.0796 152.858 63.9468 152.493 64.7228C152.265 63.3535 151.991 62.0755 151.534 61.0257C152.082 60.2041 152.812 59.0174 153.451 58.2871Z" fill="#636473"/>
<path fillRule="evenodd" clipRule="evenodd" d="M152.949 67.7812C152.812 69.6982 152.265 71.6609 151.854 73.3497C151.808 73.9887 151.671 75.4036 151.854 76.5903C151.808 75.5405 152.493 74.7646 153.36 74.3538C153.543 72.9845 153.178 69.6526 152.949 67.7812Z" fill="#636473"/>
<path fillRule="evenodd" clipRule="evenodd" d="M143.638 47.1504C142.406 47.7437 141.356 48.4284 140.58 49.2956C140.763 51.9429 141.31 55.4574 142.543 55.1835C143.638 54.9553 143.547 51.167 143.638 47.1504Z" fill="white"/>
<path fillRule="evenodd" clipRule="evenodd" d="M143.136 62.8512L143.227 62.623L146.011 63.764L146.559 63.5815L143.455 62.2578L143.09 62.486L142.999 62.7142L143.136 62.8512Z" fill="#636473"/>
<path fillRule="evenodd" clipRule="evenodd" d="M171.252 65.6348L171.161 65.8173L168.559 66.9584L168.331 67.3235L171.298 65.9543L171.435 65.6348H171.252Z" fill="#636473"/>
<path d="M153.588 78.2322C153.543 76.3609 154.866 75.7675 156.555 75.6762C158.244 75.5849 159.659 76.087 159.75 77.9584C159.796 79.5102 159.705 81.1077 159.568 82.9334C159.111 89.3234 158.381 98.8171 165.364 107.717C170.476 114.244 173.854 119.859 175.816 124.971C177.688 129.9 178.327 134.282 177.962 138.481H171.709C172.119 135.149 171.663 131.634 170.111 127.572C168.422 123.145 165.364 118.078 160.663 112.099C151.991 101.054 152.812 89.9168 153.36 82.3857C153.497 80.7426 153.634 79.2364 153.588 78.2322Z" fill="#212129"/>
<path d="M154.045 78.0036C154.136 84.4393 153.497 89.7338 154.684 96.5803C155.505 101.51 157.057 106.074 161.348 111.232C165.182 115.842 168.788 121.364 171.024 127.024C172.485 130.721 173.169 134.555 172.485 138.572H177.505C178.236 133.277 177.186 130.036 175.223 125.016C172.804 118.808 169.198 113.24 164.999 108.174C161.348 103.792 159.796 99.6383 159.248 95.3479C158.472 89.1861 159.02 83.9828 158.883 78.0949C158.837 76.5431 157.788 76.1323 156.555 76.1779C155.232 76.1323 153.999 76.4518 154.045 78.0036Z" fill="#31323D"/>
<path fillRule="evenodd" clipRule="evenodd" d="M123.966 93.0661C123.099 93.3399 122.277 93.2487 121.045 93.5225C120.314 94.7092 118.032 96.3067 118.124 95.3482C118.717 94.0246 119.949 91.1947 120.543 89.8254C121.958 88.2736 122.368 88.5018 122.551 89.0952C124.559 88.3192 126.704 88.8213 128.028 89.2777C126.887 91.6512 125.974 92.4271 123.966 93.0661Z" fill="white"/>
<path d="M154.821 80.5115C154.821 79.9638 155.186 79.5073 155.962 79.3248C156.738 79.1878 157.103 79.5073 157.194 80.0094C157.285 80.5571 156.692 80.5571 156.007 80.6941C155.277 80.831 154.866 81.1048 154.821 80.5115Z" fill="#636473"/>
<path d="M154.684 83.2073C154.455 82.2945 155.368 81.7011 156.099 81.5642C156.829 81.4272 157.513 81.7467 157.605 82.477C157.742 83.3442 156.874 83.116 156.053 83.2986C155.277 83.4812 154.775 83.6637 154.684 83.2073Z" fill="#636473"/>
<path d="M154.501 85.8552C154.273 84.8967 155.14 84.349 155.962 84.1664C156.783 84.0295 157.605 84.3034 157.696 85.1249C157.787 86.0378 156.875 85.627 156.007 85.8096C155.14 85.9922 154.592 86.3116 154.501 85.8552Z" fill="#636473"/>
<path d="M154.364 88.3634C154.136 87.3136 154.957 86.8116 155.825 86.629C156.737 86.4464 157.605 86.9485 157.696 87.8613C157.833 88.8655 156.829 88.2721 155.87 88.4547C154.912 88.6373 154.501 89.0024 154.364 88.3634Z" fill="#636473"/>
<path d="M154.41 91.0149C154.182 89.9195 155.094 89.2348 156.007 89.1892C157.057 89.0979 157.787 89.5543 157.924 90.4672C158.061 91.517 156.966 90.9693 155.962 91.1518C154.912 91.3344 154.547 91.6996 154.41 91.0149Z" fill="#636473"/>
<path d="M154.592 93.6604C154.364 92.565 155.231 91.8803 156.19 91.8347C157.24 91.7434 157.97 92.1542 158.107 93.1127C158.244 94.1625 157.194 93.6148 156.144 93.7973C155.094 94.0255 154.729 94.345 154.592 93.6604Z" fill="#636473"/>
<path d="M154.912 96.3053C154.684 95.2099 155.551 94.6165 156.509 94.5252C157.559 94.3883 158.289 94.6622 158.426 95.6207C158.563 96.6705 157.65 96.3966 156.646 96.6248C155.597 96.853 155.049 96.99 154.912 96.3053Z" fill="#636473"/>
<path d="M155.551 99.138C155.185 98.0883 155.916 97.5405 156.829 97.3123C157.833 97.0841 158.654 97.0841 158.883 97.997C159.156 99.0468 158.244 99.275 157.285 99.5032C156.327 99.6858 155.779 99.777 155.551 99.138Z" fill="#636473"/>
<path d="M156.509 102.01C155.962 101.051 156.646 100.504 157.514 100.139C158.472 99.7278 159.248 99.4539 159.659 100.321C160.115 101.28 159.294 101.69 158.335 102.101C157.377 102.466 156.875 102.603 156.509 102.01Z" fill="#636473"/>
<path d="M157.742 104.706C157.103 103.793 157.742 103.291 158.609 102.834C159.522 102.332 160.206 101.876 160.663 102.697C161.211 103.61 160.572 104.204 159.659 104.706C158.746 105.208 158.152 105.253 157.742 104.706Z" fill="#636473"/>
<path d="M161.941 104.796C162.58 105.709 161.986 106.622 161.165 107.078C160.252 107.626 159.567 107.763 159.065 106.941C158.518 106.028 159.339 105.709 160.161 105.116C160.982 104.522 161.53 104.248 161.941 104.796Z" fill="#636473"/>
<path d="M163.493 107.216C163.995 107.992 163.493 108.676 162.762 109.224C161.895 109.863 161.256 110.046 160.663 109.27C160.024 108.448 160.937 108.22 161.713 107.535C162.534 106.851 163.128 106.668 163.493 107.216Z" fill="#636473"/>
<path d="M162.215 111.186C162.763 112.008 163.721 111.734 164.406 111.232C165.045 110.73 165.456 109.954 164.908 109.315C164.315 108.63 163.995 109.543 163.265 110.091C162.535 110.639 161.941 110.821 162.215 111.186Z" fill="#636473"/>
<path d="M166.231 111.55C166.733 112.189 166.322 113.011 165.683 113.467C165.09 113.878 164.497 113.924 164.086 113.33C163.675 112.783 164.314 112.646 164.953 112.144C165.592 111.55 165.957 111.185 166.231 111.55Z" fill="#636473"/>
<path d="M167.692 113.787C167.966 114.198 167.874 114.609 167.235 115.111C166.596 115.613 166.14 115.522 165.866 115.111C165.592 114.7 166.049 114.563 166.642 114.152C167.144 113.696 167.327 113.376 167.692 113.787Z" fill="#636473"/>
<path fillRule="evenodd" clipRule="evenodd" d="M155.733 124.471H119.995L113.468 126.616L109.314 130.998L97.6299 141.313H155.733H213.563L201.878 130.998L197.725 126.616L191.198 124.471H155.733Z" fill="#636473"/>
<path fillRule="evenodd" clipRule="evenodd" d="M155.733 124.471H132.09L126.841 135.471L119.721 141.313H155.733H187.683L184.717 134.01L181.476 124.471H155.733Z" fill="#41414D"/>
<path fillRule="evenodd" clipRule="evenodd" d="M119.447 135.514L116.024 141.311H124.468L126.842 135.469L119.447 135.514Z" fill="#41414D"/>
<path fillRule="evenodd" clipRule="evenodd" d="M101.236 141.311H97.2191L109.041 130.995L111.505 130.174L101.236 141.311Z" fill="#858494"/>
<path fillRule="evenodd" clipRule="evenodd" d="M108.493 131.495L108.539 129.441L109.223 128.939L132.09 122.777V124.466L128.165 134.005H119.219L114.335 130.171H111.505L109.041 130.993L108.493 131.495Z" fill="#41414D"/>
<path fillRule="evenodd" clipRule="evenodd" d="M109.223 128.939L112.647 126.064L120.954 122.777H132.09L127.846 132.545H119.219L114.335 128.939H109.223Z" fill="#858494"/>
<path fillRule="evenodd" clipRule="evenodd" d="M112.145 126.155L108.539 129.441L109.543 128.939H114.335L110.365 128.62L112.418 126.566L120.908 123.325H131.817L132.091 122.777H120.954L112.145 126.155Z" fill="white"/>
<path fillRule="evenodd" clipRule="evenodd" d="M121.319 136.471H123.555C124.286 136.471 123.829 137.703 122.962 137.703H120.588C119.904 137.703 120.543 136.471 121.319 136.471Z" fill="#636473"/>
<path fillRule="evenodd" clipRule="evenodd" d="M120.04 139.393H122.414C123.19 139.393 122.688 140.671 121.775 140.671H119.31C118.534 140.671 119.219 139.393 120.04 139.393Z" fill="#636473"/>
<path fillRule="evenodd" clipRule="evenodd" d="M133.323 124.471L126.705 141.313H130.31L135.468 124.471H133.323Z" fill="#858494"/>
<path fillRule="evenodd" clipRule="evenodd" d="M192.704 135.514L196.127 141.311H187.683L185.31 135.469L192.704 135.514Z" fill="#41414D"/>
<path fillRule="evenodd" clipRule="evenodd" d="M210.916 141.311H214.932L203.111 130.995L200.646 130.174L210.916 141.311Z" fill="#858494"/>
<path fillRule="evenodd" clipRule="evenodd" d="M203.613 131.495V129.441L202.928 128.939L180.061 122.777V124.466L183.986 134.005H192.932L197.816 130.171H200.646L203.111 130.993L203.613 131.495Z" fill="#41414D"/>
<path fillRule="evenodd" clipRule="evenodd" d="M202.928 128.939L203.613 129.441L199.505 126.064L191.152 122.777H180.061L184.306 132.545H192.932L197.816 128.939H202.928Z" fill="#858494"/>
<path fillRule="evenodd" clipRule="evenodd" d="M199.505 126.064L191.244 123.325H180.746L184.306 132.545L180.289 123.918L180.152 124.649L180.061 124.466V122.777H191.152L199.505 126.064Z" fill="white"/>
<path fillRule="evenodd" clipRule="evenodd" d="M190.833 136.471H188.597C187.866 136.471 188.323 137.703 189.19 137.703H191.563C192.248 137.703 191.609 136.471 190.833 136.471Z" fill="#636473"/>
<path fillRule="evenodd" clipRule="evenodd" d="M192.111 139.393H189.737C188.961 139.393 189.463 140.671 190.376 140.671H192.886C193.617 140.671 192.932 139.393 192.111 139.393Z" fill="#636473"/>
<path fillRule="evenodd" clipRule="evenodd" d="M178.829 124.471L185.447 141.313H181.841L176.684 124.471H178.829Z" fill="#858494"/>
<path fillRule="evenodd" clipRule="evenodd" d="M136.564 131.818L134.464 133.188L132.045 141.312H144.14L144.871 133.142L143.227 131.818H136.564Z" fill="#636473"/>
<path fillRule="evenodd" clipRule="evenodd" d="M175.451 131.818L177.551 133.188L179.97 141.312H167.144L166.414 133.142L168.103 131.818H175.451Z" fill="#636473"/>
<path fillRule="evenodd" clipRule="evenodd" d="M163.949 134.555L166.003 135.924L166.459 141.31H145.007L145.372 135.924L147.061 134.555H163.949Z" fill="#636473"/>
<path fillRule="evenodd" clipRule="evenodd" d="M136.427 91.7422L137.705 129.306H142.223L142.132 127.709H139.667L138.344 91.7422H136.427Z" fill="#212129"/>
<path fillRule="evenodd" clipRule="evenodd" d="M142.771 125.885L142.132 127.71L142.223 129.308L142.862 127.482L142.771 125.885Z" fill="#636473"/>
<path fillRule="evenodd" clipRule="evenodd" d="M140.352 125.885L139.667 127.71H142.132L142.771 125.885H140.352Z" fill="#858494"/>
<path fillRule="evenodd" clipRule="evenodd" d="M140.352 125.883L139.667 127.709L138.343 91.7423L138.8 91.2402L139.393 108.082L139.895 111.186L140.352 125.883Z" fill="#636473"/>
<path fillRule="evenodd" clipRule="evenodd" d="M137.705 129.306L136.427 91.7423L136.929 91.2402H138.8L138.344 91.7423L138.617 99.8211L136.929 98.2236L137.066 103.244L138.8 104.887L138.937 108.676L137.202 107.033L137.933 127.207L137.705 129.306Z" fill="white"/>
<path fillRule="evenodd" clipRule="evenodd" d="M166.825 127.619H168.468L168.879 129.08H142.588L142.954 127.619H166.825Z" fill="#858494"/>
<path fillRule="evenodd" clipRule="evenodd" d="M174.63 91.834L173.763 129.307H169.244L169.29 127.709H171.8L172.713 91.834H174.63Z" fill="#212129"/>
<path fillRule="evenodd" clipRule="evenodd" d="M168.65 125.885L169.289 127.71L169.244 129.308L168.605 127.482L168.65 125.885Z" fill="#636473"/>
<path fillRule="evenodd" clipRule="evenodd" d="M171.069 125.885L171.8 127.71H169.289L168.65 125.885H171.069Z" fill="#858494"/>
<path fillRule="evenodd" clipRule="evenodd" d="M171.07 125.882L171.8 127.708L172.713 91.8329L172.257 91.2852L171.846 108.082L171.389 111.505L171.07 125.882Z" fill="#636473"/>
<path fillRule="evenodd" clipRule="evenodd" d="M174.036 91.2402L172.256 91.2859L172.165 97.2195L172.439 98.4518L172.393 106.85L172.713 91.8336H174.63L174.036 91.2402Z" fill="white"/>
<path opacity="0.1" fillRule="evenodd" clipRule="evenodd" d="M139.85 127.16L138.526 91.513L147.837 82.1562H163.63L172.439 91.513L171.572 127.16H169.107L169.061 128.758H142.406L142.36 127.16H139.85Z" fill="white"/>
<path opacity="0.34" fillRule="evenodd" clipRule="evenodd" d="M138.846 100.504L138.526 91.5123L143.958 86.0352L171.937 112.052L171.572 127.159H170.75L138.846 100.504ZM139.165 108.081L138.983 103.608L169.061 128.483V128.711H164.269L139.165 108.081Z" fill="white"/>
<path fillRule="evenodd" clipRule="evenodd" d="M147.883 82.5202L138.526 92.0595V91.5118L138.8 91.2379L147.883 82.1094L163.63 82.155L163.265 82.4745L147.883 82.5202Z" fill="white"/>
<path fillRule="evenodd" clipRule="evenodd" d="M35.921 113.239L40.0289 109.588C40.2114 109.405 40.8048 109.04 41.0786 108.903L58.2403 102.559C50.7093 105.069 48.062 105.799 40.5309 108.31C40.2114 108.447 39.755 108.812 39.5268 108.994L35.3276 112.737L35.921 113.239Z" fill="#31323D"/>
<path fillRule="evenodd" clipRule="evenodd" d="M234.787 135.513L240.994 134.189L234.422 128.894L224.563 126.795L234.787 135.513Z" fill="#212129"/>
<path fillRule="evenodd" clipRule="evenodd" d="M156.509 96.9465C156.783 96.9922 156.92 97.2204 156.875 97.4486C156.829 97.7225 156.601 97.8594 156.327 97.8138C156.053 97.7681 155.916 97.5399 155.962 97.266C156.007 97.0835 156.236 96.9009 156.509 96.9465Z" fill="#A5CE39"/>
<path fillRule="evenodd" clipRule="evenodd" d="M159.02 98.041C159.202 98.2235 159.248 98.4974 159.066 98.68C158.883 98.8625 158.609 98.9082 158.427 98.7256C158.244 98.543 158.198 98.2692 158.381 98.0866C158.518 97.904 158.792 97.904 159.02 98.041Z" fill="#A5CE39"/>
<path fillRule="evenodd" clipRule="evenodd" d="M160.572 100.279C160.663 100.507 160.526 100.781 160.298 100.872C160.07 100.963 159.796 100.872 159.704 100.598C159.613 100.37 159.75 100.096 159.978 100.005C160.206 99.9136 160.48 100.005 160.572 100.279Z" fill="#A5CE39"/>
<path fillRule="evenodd" clipRule="evenodd" d="M160.8 102.97C160.754 103.243 160.526 103.38 160.252 103.38C159.978 103.335 159.841 103.107 159.887 102.833C159.932 102.559 160.161 102.422 160.435 102.422C160.663 102.513 160.845 102.741 160.8 102.97Z" fill="#A5CE39"/>
<path fillRule="evenodd" clipRule="evenodd" d="M159.613 105.48C159.431 105.662 159.157 105.708 158.974 105.525C158.792 105.343 158.746 105.069 158.928 104.886C159.111 104.704 159.385 104.658 159.567 104.841C159.75 104.978 159.796 105.297 159.613 105.48Z" fill="#A5CE39"/>
<path fillRule="evenodd" clipRule="evenodd" d="M157.331 107.079C157.103 107.171 156.829 107.034 156.738 106.806C156.646 106.577 156.783 106.303 157.011 106.212C157.24 106.121 157.514 106.258 157.605 106.486C157.696 106.714 157.605 106.988 157.331 107.079Z" fill="#A5CE39"/>
<path fillRule="evenodd" clipRule="evenodd" d="M154.638 107.351C154.41 107.306 154.227 107.077 154.273 106.803C154.319 106.53 154.547 106.393 154.821 106.438C155.094 106.484 155.231 106.712 155.186 106.986C155.14 107.214 154.866 107.397 154.638 107.351Z" fill="#A5CE39"/>
<path fillRule="evenodd" clipRule="evenodd" d="M152.128 106.211C151.945 106.028 151.899 105.755 152.082 105.572C152.265 105.389 152.538 105.344 152.721 105.526C152.904 105.709 152.949 105.983 152.767 106.165C152.63 106.348 152.356 106.394 152.128 106.211Z" fill="#A5CE39"/>
<path fillRule="evenodd" clipRule="evenodd" d="M150.576 104.02C150.485 103.792 150.622 103.518 150.85 103.427C151.078 103.336 151.352 103.473 151.443 103.701C151.534 103.929 151.398 104.203 151.169 104.294C150.941 104.386 150.667 104.249 150.576 104.02Z" fill="#A5CE39"/>
<path fillRule="evenodd" clipRule="evenodd" d="M150.302 101.327C150.348 101.053 150.576 100.916 150.85 100.962C151.124 101.007 151.26 101.236 151.215 101.509C151.169 101.783 150.941 101.92 150.667 101.875C150.439 101.783 150.256 101.555 150.302 101.327Z" fill="#A5CE39"/>
<path fillRule="evenodd" clipRule="evenodd" d="M151.488 98.8162C151.671 98.6336 151.945 98.5879 152.127 98.7705C152.31 98.9531 152.356 99.227 152.173 99.4095C151.99 99.5921 151.717 99.6377 151.534 99.4552C151.351 99.3182 151.306 99.0444 151.488 98.8162Z" fill="#A5CE39"/>
<path fillRule="evenodd" clipRule="evenodd" d="M153.725 97.218C153.953 97.1268 154.227 97.2637 154.318 97.4919C154.41 97.7201 154.273 97.994 154.045 98.0853C153.816 98.1765 153.542 98.0396 153.451 97.8114C153.36 97.5832 153.497 97.3093 153.725 97.218Z" fill="#A5CE39"/>
<path d="M154.775 101.828C154.638 101.645 154.683 101.326 154.912 101.189C155.14 101.052 155.414 101.098 155.551 101.28C155.825 101.645 156.098 102.056 156.372 102.421C156.509 102.604 156.464 102.923 156.235 103.06C156.007 103.197 155.733 103.152 155.596 102.969C155.322 102.604 155.049 102.239 154.775 101.828Z" fill="#A5CE39"/>
<path d="M155.871 101.371C156.099 101.234 156.373 101.279 156.51 101.462C156.647 101.69 156.601 101.964 156.418 102.101C156.008 102.375 155.642 102.649 155.277 102.922C155.049 103.059 154.775 103.014 154.638 102.831C154.501 102.649 154.547 102.329 154.775 102.192C155.095 101.918 155.46 101.644 155.871 101.371Z" fill="#A5CE39"/>
<path d="M166.779 92.2891C166.733 96.1231 166.688 99.9571 166.596 103.791C166.551 107.625 166.505 111.459 166.414 115.293C166.231 115.293 166.003 115.293 165.821 115.293C165.866 111.459 165.912 107.625 165.957 103.791C166.003 99.9571 166.049 96.1231 166.094 92.2891C166.368 92.2891 166.596 92.2891 166.779 92.2891Z" fill="#A5CE39"/>
<path d="M164.588 114.975C165.638 114.975 166.688 114.975 167.737 114.93C167.737 115.112 167.737 115.34 167.737 115.523C166.688 115.523 165.638 115.523 164.588 115.569C164.588 115.386 164.588 115.204 164.588 114.975Z" fill="#A5CE39"/>
<path d="M164.634 109.682C165.182 109.682 165.684 109.682 166.231 109.682C166.231 109.864 166.231 110.092 166.231 110.275C165.684 110.275 165.182 110.275 164.634 110.275C164.634 110.092 164.634 109.91 164.634 109.682Z" fill="#A5CE39"/>
<path d="M167.92 108.539C167.509 108.31 167.099 108.082 166.688 107.808C167.099 107.58 167.509 107.306 167.92 107.078C167.92 107.261 167.92 107.443 167.92 107.626C167.783 107.671 167.692 107.763 167.555 107.854C167.646 107.9 167.783 107.991 167.92 108.037C167.92 108.219 167.92 108.402 167.92 108.539Z" fill="#A5CE39"/>
<path fillRule="evenodd" clipRule="evenodd" d="M168.331 107.305C169.198 107.305 170.065 107.26 170.932 107.26C170.932 107.625 170.932 107.99 170.932 108.355C170.065 108.355 169.198 108.401 168.331 108.401C168.331 107.99 168.331 107.671 168.331 107.305Z" fill="#A5CE39"/>
<path fillRule="evenodd" clipRule="evenodd" d="M168.331 108.721C168.741 108.721 169.198 108.721 169.609 108.721C169.609 109.086 169.609 109.451 169.609 109.77C169.198 109.77 168.741 109.77 168.331 109.77C168.285 109.451 168.285 109.086 168.331 108.721Z" fill="#A5CE39"/>
<path fillRule="evenodd" clipRule="evenodd" d="M140.215 95.4382C140.899 95.4382 141.63 95.3926 142.314 95.3926C142.314 95.7577 142.314 96.0772 142.36 96.4424C141.675 96.4424 140.945 96.488 140.26 96.488C140.26 96.1229 140.26 95.8034 140.215 95.4382Z" fill="#A5CE39"/>
<path fillRule="evenodd" clipRule="evenodd" d="M139.758 96.8523C140.626 96.8523 141.493 96.8066 142.406 96.8066C142.406 97.1718 142.406 97.4913 142.451 97.8564C141.584 97.8564 140.717 97.9021 139.804 97.9021C139.758 97.5369 139.758 97.2174 139.758 96.8523Z" fill="#A5CE39"/>
<path fillRule="evenodd" clipRule="evenodd" d="M142.725 95.3953C143.182 95.3953 143.684 95.3496 144.14 95.3496C144.14 95.7148 144.14 96.0343 144.186 96.3994C143.729 96.3994 143.227 96.445 142.771 96.445C142.771 96.0799 142.771 95.7148 142.725 95.3953Z" fill="#A5CE39"/>
<path fillRule="evenodd" clipRule="evenodd" d="M142.771 96.7624C143.227 96.7624 143.729 96.7168 144.186 96.7168C144.186 97.0819 144.186 97.4014 144.232 97.7666C143.775 97.7666 143.273 97.7666 142.817 97.8122C142.817 97.4927 142.771 97.1276 142.771 96.7624Z" fill="#A5CE39"/>
<path fillRule="evenodd" clipRule="evenodd" d="M144.597 97.0359C145.053 97.0359 145.555 96.9902 146.012 96.9902C146.012 97.2641 146.012 97.4923 146.012 97.7662C145.555 97.7662 145.053 97.8118 144.597 97.8118C144.597 97.538 144.597 97.2641 144.597 97.0359Z" fill="#A5CE39"/>
<path fillRule="evenodd" clipRule="evenodd" d="M142.862 99.3191C143.319 99.3191 143.821 99.3191 144.277 99.2734C144.277 99.6386 144.277 99.9581 144.323 100.323C143.866 100.323 143.364 100.323 142.908 100.369C142.862 100.049 142.862 99.6842 142.862 99.3191Z" fill="#A5CE39"/>
<path fillRule="evenodd" clipRule="evenodd" d="M144.642 99.5925C145.099 99.5925 145.601 99.5925 146.057 99.5469C146.057 99.8207 146.057 100.049 146.057 100.323C145.601 100.323 145.099 100.323 144.642 100.368C144.688 100.095 144.642 99.8664 144.642 99.5925Z" fill="#A5CE39"/>
<path fillRule="evenodd" clipRule="evenodd" d="M162.763 123.736C163.584 123.736 164.451 123.736 165.273 123.736C165.273 124.101 165.273 124.467 165.273 124.832C164.451 124.832 163.63 124.832 162.763 124.832C162.763 124.421 162.763 124.101 162.763 123.736Z" fill="#A5CE39"/>
<path fillRule="evenodd" clipRule="evenodd" d="M165.638 123.736C166.094 123.736 166.551 123.736 166.962 123.736C166.962 124.101 166.962 124.467 166.962 124.832C166.505 124.832 166.049 124.832 165.638 124.832C165.638 124.421 165.638 124.101 165.638 123.736Z" fill="#A5CE39"/>
<path d="M167.418 123.555C167.418 123.464 167.418 123.373 167.418 123.236C165.729 123.236 164.04 123.236 162.397 123.236C162.397 123.327 162.397 123.464 162.397 123.601C162.215 123.601 162.032 123.601 161.804 123.601C161.804 123.282 161.804 122.962 161.804 122.643C163.858 122.643 165.957 122.643 168.011 122.643C168.011 122.962 168.011 123.236 168.011 123.555C167.783 123.555 167.601 123.555 167.418 123.555Z" fill="#A5CE39"/>
<path d="M167.966 124.969C167.966 125.289 167.966 125.563 167.966 125.882C165.912 125.882 163.858 125.882 161.804 125.882C161.804 125.563 161.804 125.243 161.804 124.924C161.987 124.924 162.169 124.924 162.397 124.924C162.397 125.061 162.397 125.152 162.397 125.289C164.086 125.289 165.729 125.289 167.418 125.289C167.418 125.198 167.418 125.106 167.418 124.969C167.555 124.969 167.783 124.969 167.966 124.969Z" fill="#A5CE39"/>
<path fillRule="evenodd" clipRule="evenodd" d="M140.991 93.9773C141.447 93.9773 141.858 93.9773 142.315 93.9316C142.315 94.2968 142.315 94.6163 142.36 94.9814C141.904 94.9814 141.493 95.0271 141.037 95.0271C140.991 94.7076 140.991 94.3424 140.991 93.9773Z" fill="#A5CE39"/>
<path fillRule="evenodd" clipRule="evenodd" d="M142.679 93.9304C143.136 93.9304 143.638 93.8848 144.094 93.8848C144.094 94.2499 144.094 94.5694 144.14 94.9346C143.684 94.9346 143.182 94.9345 142.725 94.9802C142.725 94.6607 142.725 94.2956 142.679 93.9304Z" fill="#A5CE39"/>
<path fillRule="evenodd" clipRule="evenodd" d="M139.85 92.6101C140.671 92.5644 141.447 92.5645 142.269 92.5645C142.269 92.9296 142.269 93.2491 142.314 93.6142C141.493 93.6142 140.717 93.6599 139.895 93.6599C139.85 93.2947 139.85 92.9752 139.85 92.6101Z" fill="#A5CE39"/>
<path fillRule="evenodd" clipRule="evenodd" d="M142.679 92.5183C143.136 92.5183 143.638 92.4727 144.094 92.4727C144.094 92.8378 144.094 93.1573 144.14 93.5224C143.684 93.5224 143.182 93.5681 142.725 93.5681C142.679 93.2486 142.679 92.8834 142.679 92.5183Z" fill="#A5CE39"/>
<path fillRule="evenodd" clipRule="evenodd" d="M144.505 94.2058C144.962 94.2058 145.464 94.1602 145.92 94.1602C145.92 94.434 145.92 94.6622 145.92 94.9361C145.464 94.9361 144.962 94.9817 144.505 94.9817C144.551 94.7079 144.551 94.434 144.505 94.2058Z" fill="#A5CE39"/>
<path fillRule="evenodd" clipRule="evenodd" d="M155.733 16.9316C136.198 16.9316 123.281 28.7988 117.302 44.4999C113.194 55.3173 113.012 68.8276 113.97 80.4209H114.609L118.261 79.508L118.808 78.3669L119.036 78.1844C117.667 61.4791 119.812 43.8153 129.58 33.0892C135.468 26.5623 144.323 21.359 155.779 21.4503C167.281 21.359 175.907 26.4254 181.795 32.9523C191.609 43.7696 194.621 61.8898 193.252 78.6864L193.663 79.508L197.314 80.4209H197.77C198.592 68.8732 198.364 55.2716 194.256 44.4999C188.185 28.8444 175.268 16.9316 155.733 16.9316Z" fill="#41414D"/>
<path fillRule="evenodd" clipRule="evenodd" d="M198.774 86.2664C198.774 86.5402 198.729 86.7684 198.729 87.0423L198.181 86.2664H198.774ZM155.733 17.3913C138.024 17.3913 124.285 28.6194 118.123 44.8226C114.335 54.7728 113.787 69.059 114.563 80.4697H112.555C111.87 67.6441 112.829 53.723 116.435 44.2749C119.63 35.8766 124.787 28.5281 131.862 23.4618C138.252 18.8519 146.239 16.1133 155.733 16.1133C165.227 16.1133 173.169 18.8519 179.604 23.4618C186.679 28.5281 191.837 35.8766 195.032 44.2749C198.546 53.4491 199.779 65.4989 199.14 80.4697H197.268C198.044 68.6939 197.314 55.9139 193.343 44.9596C187.683 29.3497 175.816 17.3913 155.733 17.3913ZM118.762 78.4158C118.306 68.1461 119.128 56.9636 122.368 47.333C127.115 33.0924 137.02 22.1381 155.733 22.3207C173.169 22.3207 183.667 32.7273 188.916 46.4658C192.704 56.3246 193.617 68.0092 193.023 78.4158L193.571 79.5569C194.712 68.7395 193.799 56.5072 189.828 46.0094C184.579 32.2709 174.036 21.5904 155.733 21.2253C136.883 21.2709 126.522 32.1796 121.592 46.5114C118.078 56.6898 117.302 68.6026 118.26 79.5569L118.762 78.4158Z" fill="#636473"/>
<path fillRule="evenodd" clipRule="evenodd" d="M112.875 61.1159C115.705 42.8587 123.099 29.0746 136.153 20.7676C134.646 21.5891 133.231 22.4564 131.862 23.4605C124.788 28.5269 119.63 35.8754 116.435 44.2736C114.655 48.9749 113.468 54.8628 112.875 61.1159Z" fill="white"/>
<path fillRule="evenodd" clipRule="evenodd" d="M122.87 80.6045V75.2187L123.829 75.5382L122.733 74.8535V80.7414L123.601 81.3348L122.87 80.6045Z" fill="white"/>
<path fillRule="evenodd" clipRule="evenodd" d="M37.701 34.1876L38.5226 33.6855L54.6345 40.1212L53.4935 40.395L39.1616 36.2872L37.701 34.1876Z" fill="#41414D"/>
<path fillRule="evenodd" clipRule="evenodd" d="M38.5225 33.6855L55.319 39.0258L54.6344 40.1212L39.9374 35.7395L38.5225 33.6855Z" fill="#737473"/>
<path fillRule="evenodd" clipRule="evenodd" d="M31.7218 3.05723C31.7218 3.05723 33.6844 7.48459 37.6097 9.26466C41.1699 10.8622 49.6594 14.7874 49.6594 14.7874L52.9001 16.6132C50.8462 18.7127 52.4437 20.9036 53.1739 21.2687L57.8295 23.6422L44.3192 35.8744L52.8544 39.0694L76.5887 29.028L78.0037 29.4388L68.2361 37.6089L74.124 40.53L86.5389 34.5508L84.987 30.3973L88.0451 31.1732C89.1405 31.6297 90.6467 30.2147 91.0575 29.2106C91.4683 28.2064 91.3314 27.7957 91.2401 27.2023L95.2567 27.5674L104.066 19.8082L99.7297 17.6629L90.5554 20.9036L90.0534 20.721L104.385 9.3103L98.4973 5.7958L78.9622 12.6879L71.8419 9.08209C71.8419 9.08209 68.9207 7.57587 67.1863 7.48459C66.1822 7.43894 65.0411 8.0323 64.2652 8.58001C63.1697 8.21487 62.1199 7.80409 61.0245 7.43894C58.1034 4.56344 55.1822 3.28544 52.2154 4.5178C48.2445 3.33109 44.1823 2.37259 39.8919 1.82487C37.4728 1.55102 35.145 1.68794 31.7218 3.05723Z" fill="#737473"/>
<path fillRule="evenodd" clipRule="evenodd" d="M57.9663 24.1443C52.9456 28.6629 48.3813 33.2729 45.1407 36.2396C47.8336 37.3351 50.3896 38.2479 52.7174 38.75L76.3604 28.9824C71.5222 27.7501 64.904 25.6049 57.9663 24.1443ZM32.7258 3.46807C33.9125 5.75021 39.481 9.44728 41.9457 10.634C45.5971 12.4597 50.344 14.2854 50.344 14.2854C51.1199 14.7875 54.9995 17.2066 56.7796 18.3933C54.5431 17.663 53.0369 16.7045 52.9456 16.7958C50.7091 19.2605 52.9913 21.9991 54.7257 20.5841C57.4186 24.1443 79.5554 28.8455 84.3023 30.1691C81.7919 29.6214 80.2857 29.804 78.1405 29.6214L68.6924 37.6089L74.1695 40.1193L85.8541 34.3226L84.8956 30.3061L88.2275 30.5799C89.5968 30.8081 90.3727 30.0322 90.7835 29.0281C91.0117 28.3891 91.0574 27.3393 90.6922 26.6546C90.4184 26.4721 89.825 26.1526 89.2773 25.8787L95.1653 27.0198L103.472 19.7626L99.8208 17.9369L90.7379 21.1319L87.0865 19.4887L89.7794 20.3103L96.2607 15.0157L94.2067 13.8746L96.5345 14.8331L103.7 9.356C104.522 8.717 100.232 6.75436 98.132 5.79586L77.5471 13.6008C74.7629 12.5054 72.0243 11.4099 69.2401 10.3601C68.8293 11.5012 68.1447 12.0946 67.46 12.6423C69.0119 10.8166 69.2858 8.078 66.958 7.98671C65.9538 7.94107 64.3563 9.08214 63.5348 9.58421C55.6842 6.84564 49.1116 5.29379 40.759 4.10707C41.5805 4.47221 44.456 5.79586 46.0535 7.16514C43.315 6.66307 34.9167 3.2855 32.7258 3.46807Z" fill="#41414D"/>
<path fillRule="evenodd" clipRule="evenodd" d="M77.6386 12.5966C77.6386 12.5966 70.4727 8.76265 69.2404 8.48879C68.008 8.21493 69.1491 9.08215 69.5142 9.17343C72.481 9.90372 74.7631 11.3186 77.6386 12.5966Z" fill="white"/>
<path fillRule="evenodd" clipRule="evenodd" d="M59.8835 7.85017C59.8835 7.85017 53.4935 5.7506 47.7881 4.56389C47.7425 4.74646 47.286 4.70082 46.9665 4.38132C41.3981 3.33153 35.784 2.82946 35.1907 2.69253C34.8712 2.64689 40.3483 2.73818 46.8296 3.87925C46.8296 3.69667 47.2404 3.74232 47.5142 4.01617C51.257 4.88339 56.5059 6.34396 59.8835 7.85017Z" fill="white"/>
<path fillRule="evenodd" clipRule="evenodd" d="M90.8748 0.867215L92.3353 0L108.447 9.72193L107.534 10.6348L93.2938 2.09957L92.2897 2.73857L90.8748 0.867215Z" fill="#737473"/>
<path fillRule="evenodd" clipRule="evenodd" d="M106.713 11.0019L107.535 10.6368L93.2939 2.10156L92.2898 2.74056L106.713 11.0019Z" fill="#41414D"/>
<path fillRule="evenodd" clipRule="evenodd" d="M255.281 32.725L254.824 32.4512L245.285 36.6047L245.97 36.7416L254.413 33.9574L255.281 32.725Z" fill="#41414D"/>
<path fillRule="evenodd" clipRule="evenodd" d="M254.824 32.4512L244.874 35.9657L245.285 36.6047L253.957 33.6835L254.824 32.4512Z" fill="#737473"/>
<path fillRule="evenodd" clipRule="evenodd" d="M260.484 13.7382C260.484 13.7382 258.795 16.3399 255.965 17.5722C253.455 18.6677 247.43 21.3606 247.43 21.3606C246.654 21.7714 245.878 22.1822 245.102 22.593C246.289 23.5971 245.011 24.9664 244.509 25.1946C243.413 25.7423 242.318 26.2444 241.222 26.7921C244.691 29.0742 248.16 31.402 251.629 33.6842C249.986 34.4601 248.343 35.1904 246.654 35.9207C243.596 35.0991 240.492 34.2319 237.434 33.4103C234.376 32.5887 231.272 31.7215 228.214 30.9C227.895 30.9912 227.575 31.0825 227.256 31.2195L233.144 35.2817L228.716 36.9705C226.115 36.1489 223.787 35.373 221.185 34.5057C221.642 33.7298 222.098 32.9082 222.554 32.1323C221.87 32.3149 221.139 32.5431 220.455 32.7257C219.679 33.0452 218.812 32.3605 218.583 31.8128C218.401 31.2651 218.538 31.0369 218.629 30.7174C217.716 30.8543 216.803 31.0369 215.891 31.1738C214.156 29.9415 212.376 28.6635 210.642 27.4311C211.646 26.929 212.696 26.4726 213.7 25.9705C215.662 26.3813 217.625 26.8377 219.588 27.2485C219.725 27.2029 219.816 27.1572 219.953 27.1116C217.077 25.2859 214.156 23.5058 211.281 21.6801C212.696 20.9042 214.11 20.1282 215.48 19.398C219.679 20.2652 223.832 21.1324 227.986 21.9996C229.675 21.178 231.363 20.3565 233.052 19.5805C233.052 19.5805 235.106 18.5764 236.293 18.3938C236.978 18.3025 237.708 18.5764 238.164 18.8046C238.94 18.5307 239.67 18.2569 240.446 17.983C242.637 16.203 244.691 15.2901 246.608 15.7922C249.392 14.8793 252.177 14.1034 255.143 13.51C256.741 13.2362 258.293 13.1449 260.484 13.7382Z" fill="#737473"/>
<path fillRule="evenodd" clipRule="evenodd" d="M241.086 26.9772C244.098 29.0311 248.982 32.5456 250.853 33.8692C249.529 34.4169 248.297 35.1016 246.061 35.558C243.139 34.7821 240.036 33.9149 237.115 33.1389L228.397 30.8112C231.729 29.8527 236.293 28.2552 241.086 26.9772ZM226.845 31.3132L232.779 35.2385L228.808 36.6534C226.389 35.8319 224.015 34.9647 221.596 34.1431L222.874 32.2717L226.845 31.3132ZM259.799 13.832C259.799 13.832 258.475 15.6121 255.372 17.027C254.87 17.2552 252.953 18.0768 252.314 18.3963C252.542 18.4876 252.724 18.4876 252.953 18.4419C250.305 19.6743 246.973 21.0436 246.973 21.0436C246.426 21.3631 243.596 22.9606 242.318 23.7365C243.733 23.0975 244.965 22.5498 245.011 22.5954C246.061 23.5996 245.102 24.6037 244.6 24.8319C243.824 25.0602 243.231 24.8319 242.774 24.1929C241.907 25.334 237.799 27.1141 233.418 28.529C229.127 29.8983 224.243 31.5414 220.272 32.4999C219.496 32.8194 218.857 32.1348 218.675 31.5871C218.492 31.0394 218.812 30.6286 218.857 30.4004C217.899 30.5373 216.895 30.7655 215.936 30.9024C214.293 29.7157 212.833 28.6659 211.235 27.5249C212.011 27.1597 213.198 26.612 213.974 26.2469C215.891 26.6577 217.443 26.9772 219.36 27.3879C220.227 27.0228 221.094 26.6577 221.916 26.2469C221.231 26.4751 220.501 26.7033 219.77 26.9315C218.218 25.5166 214.156 23.417 212.604 22.2759C213.517 21.8652 214.613 21.2262 216.986 19.9025C221.003 20.7241 226.571 21.8652 230.588 22.6867C231.364 22.5954 234.148 21.6369 235.38 21.1349C235.654 21.2718 235.882 21.5457 236.293 21.6826C235.38 20.6328 234.924 18.5332 236.339 18.3507C237.023 18.2594 238.21 18.8527 238.666 19.0809C239.534 18.944 240.401 18.6702 241.588 18.2594C243.733 17.5747 246.426 16.5249 248.617 15.9316C253.181 14.6992 256.376 13.5125 259.799 13.832Z" fill="#41414D"/>
<path fillRule="evenodd" clipRule="evenodd" d="M220.957 16.8426L219.999 16.2949L209.82 22.1372L210.185 22.7306L219.314 17.5273L220.044 18.0294L220.957 16.8426Z" fill="#737473"/>
<path fillRule="evenodd" clipRule="evenodd" d="M210.825 23.0958L210.186 22.7306L219.314 17.5273L220.044 18.0294L210.825 23.0958Z" fill="#41414D"/>
<path fillRule="evenodd" clipRule="evenodd" d="M209.911 22.0916L219.998 16.2949L219.359 17.5729L210.277 22.2741L209.911 22.0916Z" fill="white"/>
<path fillRule="evenodd" clipRule="evenodd" d="M229.721 21.7701C231.501 21.0398 233.326 20.0813 235.107 19.5793C235.426 19.4423 235.38 19.1228 235.107 19.1685C234.102 19.4423 231.501 20.9029 229.721 21.7701Z" fill="white"/>
<path fillRule="evenodd" clipRule="evenodd" d="M242.455 17.6195C251.857 14.105 257.152 13.0095 259.206 13.7855C254.139 13.7855 248.708 15.5655 242.455 17.6195Z" fill="white"/>
</svg>
