<svg width="404" height="181" viewBox="0 0 404 181" fill="none" xmlns="http://www.w3.org/2000/svg">
<path d="M367.031 56.8939C360.897 45.1306 346.316 37.4452 329.639 37.1698C309.481 36.8272 288.779 46.4043 268.216 48.6328C241.544 51.513 218.268 41.8792 192.899 39.0413C162.664 35.6566 130.013 41.9706 98.2828 48.2432C77.2063 52.407 54.9174 57.0657 37.6498 69.2906C14.0767 85.982 6.64139 115.477 21.5858 132.889C46.9441 162.433 113.665 149.754 143.582 176.137C159.081 189.806 162.582 212.543 183.142 221.308C207.501 231.674 241.391 217.04 268.045 202.151C288.331 190.825 308.242 178.993 328.158 167.174C344.277 157.591 361.09 147.405 370.872 133.462C382.946 116.25 373.546 109.231 368.908 95.4845C364.845 83.35 373.581 69.4471 367.031 56.8939Z" fill="#CEB1FF"/>
</svg>
