<svg width="151" height="117" viewBox="0 0 151 117" fill="none" xmlns="http://www.w3.org/2000/svg">
<g filter="url(#filter0_f)">
<path d="M132.572 55.0646L141.168 64.1055L134.428 44.626L125.831 35.585L132.572 55.0646Z" fill="url(#paint0_linear)"/>
<path d="M112.64 81.0467L121.218 90.0976L141.168 64.1064L132.571 55.0655L112.64 81.0467Z" fill="url(#paint1_linear)"/>
<path d="M85.9294 87.5215L94.5261 96.5624L121.218 90.098L112.64 81.0471L85.9294 87.5215Z" fill="url(#paint2_linear)"/>
<path d="M132.572 55.0659L125.832 35.5863L99.1406 42.0508L79.1902 68.0419L85.9304 87.5215L112.641 81.0471L132.572 55.0659Z" fill="url(#paint3_linear)"/>
<path d="M86.4807 86.5335L80.1168 68.167L99.6295 42.7902L125.299 36.5583L131.653 54.9061L112.15 80.3016L86.4807 86.5335Z" fill="url(#paint4_linear)"/>
<path d="M82.2755 70.4341L101.778 45.0386L126.182 39.1207L125.299 36.5583L99.6295 42.7902L80.1168 68.167L86.4807 86.5335L87.7462 86.2195L82.2755 70.4341Z" fill="url(#paint5_linear)"/>
<path d="M122.682 42.5579L126.915 54.7994L126.965 54.8925L123.364 59.5738L120.384 63.4476L110.752 76.0103L109.847 77.1831L107.325 77.7826L98.3155 79.9653L89.5688 82.1039L85.3048 69.7595L86.7579 67.8659L91.7113 61.4161L93.9959 58.4364L102.404 47.4787L104.626 46.9432L110.064 45.6309L116.654 44.0168L122.682 42.5579Z" fill="url(#paint6_linear)"/>
<path d="M93.996 58.4335L110.752 76.0074L120.394 63.4633L104.626 46.9403L102.404 47.4758L93.996 58.4335ZM98.3156 79.9624L107.344 77.7698L91.7201 61.3847L86.7667 67.8345L98.3156 79.9624ZM110.064 45.628L123.364 59.5709L126.946 54.8995L126.916 54.7965L116.645 44.0424L110.064 45.628Z" fill="url(#paint7_linear)"/>
<path d="M105.228 72.2591C104.816 72.3824 104.357 72.5068 103.87 72.6225C102.913 72.8441 101.824 73.0406 100.658 73.1823C99.4263 73.3352 98.3436 73.4089 97.4569 73.4023C96.853 73.3889 96.3148 73.3644 95.8982 73.2991C95.1879 73.1751 94.8051 72.9487 94.6009 72.6991C93.8108 72.7845 92.4255 72.8279 91.8874 72.0395C91.7106 71.7514 91.5576 71.2836 91.8975 70.5302C93.8438 66.0593 99.2517 62.7578 100.321 62.1185C100.525 62.0098 100.72 61.8824 100.925 61.7736L102.506 60.4805C102.361 60.3426 102.244 60.1663 102.126 59.99C101.399 58.8006 101.45 57.0075 102.299 55.1004C103.915 51.4015 107.992 48.0666 111.396 47.6436C113.051 47.4332 114.346 47.939 115.033 49.0539C115.76 50.2432 115.71 52.0364 114.871 53.962C114.049 55.8307 112.622 57.6387 110.827 59.0691C110.476 59.3513 110.096 59.6247 109.725 59.8695L110.18 60.726C110.247 60.7621 110.313 60.7982 110.38 60.8343C110.38 60.8343 110.39 60.8529 110.409 60.843C112.226 61.883 113.733 64.4962 112.011 68.49C111.27 70.1964 109.034 70.9303 107.681 71.1238C107.265 71.4641 106.595 71.8201 105.706 72.1248L105.687 72.1347C105.527 72.148 105.387 72.1986 105.228 72.2591ZM96.8712 72.2095C97.1167 72.2224 97.3908 72.2439 97.702 72.2457C98.5416 72.2534 99.5772 72.1809 100.762 72.0292C101.899 71.8787 102.933 71.7119 103.871 71.5002C104.358 71.3845 104.836 71.2502 105.248 71.1269L109.354 61.6894C109.316 61.662 109.286 61.6062 109.267 61.5689L108.802 60.6938C108.167 61.3413 107.067 62.2359 105.678 62.5435L104.634 64.9363L106.919 64.6539C107.229 64.6086 107.451 64.8483 107.403 65.1608C107.382 65.4819 107.106 65.7716 106.786 65.7983L103.693 66.176C103.514 66.1993 103.352 66.1184 103.254 65.9793C103.156 65.8402 103.17 65.6419 103.241 65.4609L104.473 62.6108C103.991 62.5566 103.59 62.3873 103.299 62.0643C103.096 61.8618 102.996 61.6285 102.906 61.4138L101.4 62.6674C101.363 62.6871 101.317 62.7354 101.279 62.7552C101.149 62.8244 101.019 62.8936 100.87 62.9727L96.8712 72.2095ZM110.235 62.2242L106.592 70.5564C106.852 70.4179 106.992 70.3202 107.075 70.2522L108.726 66.4392C108.869 66.1245 109.194 65.9279 109.461 66.0251C109.736 66.0938 109.838 66.4213 109.714 66.7262L108.365 69.8055C109.396 69.5445 110.619 69.0146 111.003 68.1658C112.495 64.7717 111.102 62.9574 110.235 62.2242ZM95.6291 71.9382C95.6675 71.9656 95.7344 72.0017 95.8484 72.0366L99.3935 63.9238C96.8792 65.617 94.0745 68.1568 92.904 70.8073C92.7795 71.1122 92.8289 71.2053 92.8586 71.2611C93.054 71.5393 93.8115 71.6622 94.6959 71.5744L96.24 68.0093C96.3832 67.6946 96.7084 67.498 96.9749 67.5952C97.2501 67.6639 97.3524 67.9915 97.2279 68.2963L95.6291 71.9382ZM105.855 60.1342C105.958 60.1034 106.052 60.1011 106.156 60.1174C106.432 60.1861 106.534 60.5137 106.409 60.8185L106.24 61.2188C107.445 60.746 108.298 59.7442 108.518 59.4842L109.053 58.245C108.244 58.3403 107.703 58.1744 107.401 57.7857C107.381 57.7485 107.371 57.7298 107.333 57.7025C106.604 58.3523 105.708 58.7326 104.652 58.768L103.929 60.4173C103.942 60.5773 103.96 60.9258 104.201 61.1557C104.376 61.3494 104.661 61.4367 105.001 61.4473L105.403 60.5414C105.493 60.3506 105.668 60.186 105.855 60.1342ZM110.273 57.9793L110.121 58.3226C110.167 58.2743 110.222 58.2446 110.287 58.1864C110.435 58.0602 110.601 57.9241 110.749 57.7979C110.582 57.8869 110.431 57.9188 110.273 57.9793ZM102.796 58.4646C102.85 58.7462 102.96 58.9981 103.097 59.2116C103.137 59.2861 103.195 59.3507 103.253 59.4153L103.575 58.6718C103.356 58.6206 103.148 58.588 102.939 58.5082C102.883 58.5379 102.844 58.5105 102.796 58.4646ZM104.678 53.2879C104.697 53.278 104.715 53.2681 104.725 53.2867L109.33 52.2495C109.377 52.2483 109.415 52.2285 109.443 52.2373L113.47 52.2234C113.64 52.2286 113.783 52.3194 113.853 52.4497C113.932 52.5987 113.918 52.7971 113.837 52.9594L112.249 56.2615C112.936 55.443 113.489 54.5524 113.883 53.675C114.561 52.1211 114.621 50.705 114.071 49.8037C113.56 48.9769 112.58 48.6142 111.282 48.7781C108.302 49.1436 104.715 52.0987 103.295 55.3589C102.912 56.2548 102.706 57.0804 102.733 57.8059L104.227 53.7422C104.307 53.5328 104.482 53.3681 104.678 53.2879ZM109.899 56.9605C110.236 56.8768 110.619 56.7448 110.965 56.5854L112.508 53.3787L109.264 53.3828L105.09 54.334L103.915 57.56C104.095 57.5839 104.285 57.6264 104.473 57.6218L104.492 57.6119C105.464 57.6446 106.778 57.3766 107.456 55.8227C107.599 55.5079 107.925 55.3113 108.191 55.4085C108.466 55.4772 108.569 55.8048 108.444 56.1097C108.256 56.5198 108.207 56.8322 108.305 56.9713C108.431 57.1191 108.915 57.2204 109.899 56.9605Z" fill="white"/>
</g>
<path d="M95.5708 41.3413L108.701 55.1503L98.4063 25.3976L85.276 11.5886L95.5708 41.3413Z" fill="url(#paint8_linear)"/>
<path d="M65.1276 81.0229L78.2294 94.847L108.701 55.1486L95.5708 41.3396L65.1276 81.0229Z" fill="url(#paint9_linear)"/>
<path d="M24.3308 90.9121L37.4611 104.721L78.2295 94.8474L65.1276 81.0233L24.3308 90.9121Z" fill="url(#paint10_linear)"/>
<path d="M95.5714 41.3391L85.2766 11.5864L44.5082 21.4601L14.0365 61.1584L24.3313 90.9111L65.1281 81.0223L95.5714 41.3391Z" fill="url(#paint11_linear)"/>
<path d="M25.1725 89.4056L15.4523 61.353L45.2557 22.5929L84.4626 13.0745L94.1676 41.0986L64.3794 79.8872L25.1725 89.4056Z" fill="url(#paint12_linear)"/>
<path d="M18.7496 64.8157L48.5378 26.0272L85.8118 16.9883L84.4626 13.0745L45.2557 22.5929L15.4523 61.353L25.1725 89.4056L27.1054 88.9261L18.7496 64.8157Z" fill="url(#paint13_linear)"/>
<path d="M80.4667 22.2338L86.9323 40.9311L87.0078 41.0733L81.5077 48.2234L76.9569 54.1402L62.245 73.3283L60.8629 75.1196L57.0105 76.0352L43.2492 79.3691L29.8896 82.6355L23.377 63.7809L25.5964 60.8887L33.1621 51.0374L36.6516 46.4863L49.4934 29.7496L52.8873 28.9317L61.1929 26.9273L71.2591 24.462L80.4667 22.2338Z" fill="url(#paint14_linear)"/>
<path d="M36.6517 46.4853L62.2451 73.3274L76.9721 54.1677L52.8873 28.9308L49.4935 29.7487L36.6517 46.4853ZM43.2492 79.3681L57.0389 76.0192L33.1755 50.9929L25.6097 60.8442L43.2492 79.3681ZM61.193 26.9264L81.5078 48.2225L86.9794 41.0874L86.9323 40.9301L71.2458 24.5046L61.193 26.9264Z" fill="url(#paint15_linear)"/>
<path d="M53.8073 67.6004C53.1781 67.7887 52.4769 67.9788 51.7322 68.1555C50.2712 68.4939 48.6076 68.794 46.8267 69.0105C44.9454 69.2439 43.2916 69.3565 41.9373 69.3466C41.0149 69.326 40.1929 69.2885 39.5566 69.1889C38.4716 68.9995 37.887 68.6537 37.5751 68.2724C36.3683 68.4028 34.2524 68.4692 33.4306 67.2649C33.1605 66.825 32.9269 66.1105 33.446 64.9598C36.4188 58.1309 44.6786 53.0882 46.3112 52.1119C46.6241 51.9457 46.9218 51.7512 47.2346 51.585L49.6494 49.61C49.4282 49.3993 49.2487 49.13 49.0692 48.8607C47.9587 47.0442 48.0355 44.3054 49.3325 41.3926C51.8012 35.7429 58.0287 30.6492 63.2274 30.0031C65.7548 29.6818 67.7328 30.4544 68.783 32.1572C69.8935 33.9737 69.8166 36.7125 68.5348 39.6538C67.2795 42.5079 65.1001 45.2695 62.3592 47.4543C61.8224 47.8852 61.242 48.3028 60.675 48.6768L61.3697 49.985C61.4719 50.0401 61.5741 50.0952 61.6763 50.1503C61.6763 50.1503 61.6914 50.1788 61.7198 50.1637C64.4957 51.7521 66.7976 55.7434 64.1672 61.8436C63.0355 64.4498 59.6202 65.5708 57.5532 65.8664C56.9177 66.3861 55.8939 66.9298 54.5369 67.3953L54.5085 67.4104C54.2641 67.4308 54.0499 67.508 53.8073 67.6004ZM41.0427 67.5247C41.4177 67.5443 41.8363 67.5772 42.3117 67.58C43.594 67.5917 45.1758 67.4809 46.9852 67.2492C48.7225 67.0193 50.3008 66.7646 51.7333 66.4413C52.4781 66.2646 53.2077 66.0594 53.8369 65.8711L60.1094 51.4564C60.0508 51.4146 60.0055 51.3293 59.9753 51.2724L59.2654 49.9358C58.2958 50.9247 56.6151 52.2912 54.4947 52.761L52.899 56.4157L56.3888 55.9844C56.8625 55.9151 57.2028 56.2813 57.1281 56.7585C57.0969 57.2491 56.6756 57.6915 56.1868 57.7323L51.4618 58.3092C51.189 58.3447 50.9411 58.2212 50.7918 58.0088C50.6425 57.7964 50.6639 57.4933 50.7724 57.217L52.6534 52.8638C51.9167 52.781 51.3054 52.5223 50.8611 52.029C50.5511 51.7197 50.3983 51.3634 50.2606 51.0354L47.9596 52.9501C47.9027 52.9803 47.8325 53.0541 47.7756 53.0843C47.5765 53.19 47.3774 53.2957 47.1499 53.4165L41.0427 67.5247ZM61.4547 52.2733L55.8898 64.9997C56.2879 64.7882 56.5003 64.639 56.6274 64.535L59.1494 58.7112C59.3681 58.2305 59.8649 57.9302 60.2719 58.0787C60.6922 58.1836 60.8485 58.6839 60.6583 59.1495L58.5986 63.8528C60.1733 63.4541 62.0405 62.6448 62.6281 61.3484C64.9065 56.1643 62.7786 53.3932 61.4547 52.2733ZM39.1455 67.1103C39.2042 67.1521 39.3063 67.2072 39.4805 67.2605L44.8952 54.8691C41.0549 57.4554 36.7711 61.3346 34.9833 65.383C34.7931 65.8486 34.8686 65.9908 34.9139 66.0761C35.2124 66.501 36.3694 66.6886 37.7202 66.5547L40.0786 61.1094C40.2973 60.6287 40.7941 60.3284 41.2011 60.4768C41.6214 60.5818 41.7777 61.0821 41.5875 61.5477L39.1455 67.1103ZM54.7646 49.0811C54.9219 49.034 55.0658 49.0305 55.2249 49.0554C55.6452 49.1603 55.8015 49.6607 55.6113 50.1263L55.3526 50.7376C57.1931 50.0155 58.4952 48.4854 58.8312 48.0882L59.649 46.1955C58.4138 46.3411 57.5865 46.0877 57.1254 45.494C57.0952 45.4371 57.0801 45.4087 57.0214 45.3669C55.9078 46.3594 54.5392 46.9403 52.9271 46.9943L51.8222 49.5134C51.8426 49.7578 51.87 50.2901 52.2388 50.6412C52.5053 50.9372 52.9407 51.0705 53.4597 51.0866L54.074 49.7031C54.2109 49.4116 54.4784 49.1602 54.7646 49.0811ZM61.5117 45.7897L61.2797 46.314C61.3499 46.2402 61.4352 46.1949 61.5339 46.1061C61.7596 45.9133 62.0138 45.7054 62.2395 45.5126C61.9836 45.6485 61.7543 45.6973 61.5117 45.7897ZM50.0924 46.5309C50.175 46.961 50.3429 47.3458 50.5526 47.6719C50.613 47.7857 50.7018 47.8844 50.7907 47.983L51.2814 46.8474C50.9482 46.7691 50.63 46.7193 50.3101 46.5975C50.2248 46.6428 50.1662 46.6011 50.0924 46.5309ZM52.9667 38.6241C52.9951 38.609 53.0235 38.5939 53.0386 38.6223L60.0725 37.0381C60.1445 37.0363 60.2014 37.0061 60.2449 37.0194L66.3953 36.9982C66.6548 37.0062 66.8743 37.1449 66.98 37.3439C67.1008 37.5715 67.0794 37.8745 66.9559 38.1224L64.53 43.166C65.5796 41.9158 66.425 40.5554 67.0259 39.2154C68.0624 36.842 68.1534 34.6791 67.3129 33.3024C66.5329 32.0395 65.0356 31.4857 63.0539 31.7359C58.5013 32.2942 53.0229 36.8077 50.8547 41.7874C50.2689 43.1558 49.9541 44.4167 49.9957 45.5249L52.2778 39.318C52.3996 38.9981 52.6672 38.7467 52.9667 38.6241ZM60.9405 44.2336C61.456 44.1057 62.0416 43.9041 62.5686 43.6607L64.9261 38.7628L59.971 38.7691L53.5965 40.222L51.8015 45.1493C52.0761 45.1857 52.3658 45.2507 52.6537 45.2436L52.6822 45.2285C54.1671 45.2785 56.1737 44.8691 57.2102 42.4957C57.4289 42.015 57.9257 41.7147 58.3327 41.8632C58.753 41.9681 58.9093 42.4684 58.7191 42.934C58.432 43.5605 58.3573 44.0377 58.5065 44.2501C58.6993 44.4759 59.4378 44.6306 60.9405 44.2336Z" fill="white"/>
<defs>
<filter id="filter0_f" x="78.1902" y="34.5859" width="63.9779" height="62.9762" filterUnits="userSpaceOnUse" color-interpolation-filters="sRGB">
<feFlood flood-opacity="0" result="BackgroundImageFix"/>
<feBlend mode="normal" in="SourceGraphic" in2="BackgroundImageFix" result="shape"/>
<feGaussianBlur stdDeviation="0.5" result="effect1_foregroundBlur"/>
</filter>
<linearGradient id="paint0_linear" x1="126.148" y1="30.1668" x2="136.551" y2="58.0231" gradientUnits="userSpaceOnUse">
<stop stop-color="#FED43A"/>
<stop offset="1" stop-color="#FEC803"/>
</linearGradient>
<linearGradient id="paint1_linear" x1="158.927" y1="51.2026" x2="124.549" y2="74.1481" gradientUnits="userSpaceOnUse">
<stop stop-color="#FED43A"/>
<stop offset="1" stop-color="#FEC803"/>
</linearGradient>
<linearGradient id="paint2_linear" x1="142.941" y1="95.6804" x2="107.353" y2="89.4659" gradientUnits="userSpaceOnUse">
<stop stop-color="#FED43A"/>
<stop offset="1" stop-color="#FEC803"/>
</linearGradient>
<linearGradient id="paint3_linear" x1="80.6251" y1="67.0659" x2="131.758" y2="55.9002" gradientUnits="userSpaceOnUse">
<stop stop-color="#FEDE68"/>
<stop offset="1" stop-color="#FFECA9"/>
</linearGradient>
<linearGradient id="paint4_linear" x1="81.4267" y1="66.8877" x2="130.935" y2="56.0766" gradientUnits="userSpaceOnUse">
<stop stop-color="#FED94F"/>
<stop offset="1" stop-color="#FECC15"/>
</linearGradient>
<linearGradient id="paint5_linear" x1="81.3705" y1="66.8999" x2="129.044" y2="56.4896" gradientUnits="userSpaceOnUse">
<stop stop-color="#FED43A"/>
<stop offset="1" stop-color="#FEC803"/>
</linearGradient>
<linearGradient id="paint6_linear" x1="85.9457" y1="66.7385" x2="126.793" y2="57.8188" gradientUnits="userSpaceOnUse">
<stop stop-color="#FFEA9D"/>
<stop offset="1" stop-color="#FEDD63"/>
</linearGradient>
<linearGradient id="paint7_linear" x1="87.6935" y1="41.2529" x2="112.075" y2="66.8145" gradientUnits="userSpaceOnUse">
<stop stop-color="#FED645"/>
<stop offset="1" stop-color="white" stop-opacity="0"/>
</linearGradient>
<linearGradient id="paint8_linear" x1="85.7595" y1="3.31284" x2="101.649" y2="45.8601" gradientUnits="userSpaceOnUse">
<stop stop-color="#FED43A"/>
<stop offset="1" stop-color="#FEC803"/>
</linearGradient>
<linearGradient id="paint9_linear" x1="135.826" y1="35.4396" x2="83.3167" y2="70.4862" gradientUnits="userSpaceOnUse">
<stop stop-color="#FED43A"/>
<stop offset="1" stop-color="#FEC803"/>
</linearGradient>
<linearGradient id="paint10_linear" x1="111.41" y1="103.374" x2="57.0521" y2="93.882" gradientUnits="userSpaceOnUse">
<stop stop-color="#FED43A"/>
<stop offset="1" stop-color="#FEC803"/>
</linearGradient>
<linearGradient id="paint11_linear" x1="16.2281" y1="59.6677" x2="94.3272" y2="42.6134" gradientUnits="userSpaceOnUse">
<stop stop-color="#FEDE68"/>
<stop offset="1" stop-color="#FFECA9"/>
</linearGradient>
<linearGradient id="paint12_linear" x1="17.453" y1="59.399" x2="93.0714" y2="42.8864" gradientUnits="userSpaceOnUse">
<stop stop-color="#FED94F"/>
<stop offset="1" stop-color="#FECC15"/>
</linearGradient>
<linearGradient id="paint13_linear" x1="17.3672" y1="59.4177" x2="90.1827" y2="43.5173" gradientUnits="userSpaceOnUse">
<stop stop-color="#FED43A"/>
<stop offset="1" stop-color="#FEC803"/>
</linearGradient>
<linearGradient id="paint14_linear" x1="24.3558" y1="59.1667" x2="86.745" y2="45.543" gradientUnits="userSpaceOnUse">
<stop stop-color="#FFEA9D"/>
<stop offset="1" stop-color="#FEDD63"/>
</linearGradient>
<linearGradient id="paint15_linear" x1="27.0253" y1="20.244" x2="64.2656" y2="59.2863" gradientUnits="userSpaceOnUse">
<stop stop-color="#FED645"/>
<stop offset="1" stop-color="white" stop-opacity="0"/>
</linearGradient>
</defs>
</svg>
