<svg width="26" height="24" viewBox="0 0 26 24" fill="none" xmlns="http://www.w3.org/2000/svg">
<g clip-path="url(#clip0)">
<path d="M25.9999 11.9657C25.9999 5.49793 20.8139 0.23133 14.3198 0.0234375H11.61V0.254429C6.02688 1.29389 1.82202 6.14471 1.82202 11.9657C1.82202 17.7867 6.02688 22.6375 11.61 23.7001V24.0003H14.4833C20.9074 23.7232 25.9999 18.3872 25.9999 11.9657Z" fill="#FEC803"/>
<path d="M19.1087 1.17839C17.637 0.48542 16.0252 0.0696358 14.3198 0.0234375H11.6101V0.254429C10.5822 0.439222 9.62443 0.76261 8.71338 1.20149H19.1087V1.17839Z" fill="#FFECA9"/>
<path d="M22.6362 3.69623C22.1923 3.23425 21.7018 2.79537 21.1878 2.42578H6.63437C6.12045 2.81847 5.62988 3.23425 5.18604 3.69623H22.6362Z" fill="#FFECA9"/>
<path d="M4.13469 4.94336C2.68635 6.90679 1.82202 9.33219 1.82202 11.9655C1.82202 14.0444 2.35931 15.9847 3.31708 17.6941C10.2784 17.9713 17.2398 17.902 24.2012 18.3178C25.3692 16.4698 26.0466 14.2754 26.0466 11.9655C26.0466 9.33219 25.1823 6.90679 23.734 4.94336H4.13469Z" fill="#FFECA9"/>
<path d="M4.11145 18.9648C4.62538 19.6578 5.18602 20.2815 5.84011 20.859H22.0522C22.496 20.4432 22.9398 20.0043 23.3136 19.5192C16.9129 19.1727 10.5122 19.1958 4.11145 18.9648Z" fill="#FFECA9"/>
<path d="M7.49866 22.1074C8.73675 22.8697 10.115 23.4241 11.6101 23.7013V24.0016H14.4834C16.6792 23.9092 18.6882 23.2162 20.4403 22.1074H7.49866Z" fill="#FFECA9"/>
<path d="M24.2013 11.9654C24.2013 18.5717 18.7817 23.9307 12.1006 23.9307C5.41959 23.9307 0 18.5717 0 11.9654C0 5.359 5.41959 0 12.1006 0C18.7817 0 24.2013 5.359 24.2013 11.9654Z" fill="#FEE072"/>
<path d="M22.7996 11.9661C22.7996 17.8102 18.0108 22.5455 12.1006 22.5455C6.19047 22.5455 1.40161 17.8102 1.40161 11.9661C1.40161 6.12204 6.19047 1.38672 12.1006 1.38672C18.0108 1.38672 22.7996 6.12204 22.7996 11.9661Z" fill="#FFECA9"/>
<path d="M21.8186 11.9667C21.8186 17.2795 17.4736 21.5759 12.1007 21.5759C6.72783 21.5759 2.38281 17.2795 2.38281 11.9667C2.38281 6.65386 6.72783 2.35742 12.1007 2.35742C17.4736 2.35742 21.8186 6.65386 21.8186 11.9667Z" fill="#FECC15"/>
<path opacity="0.4" d="M18.1742 4.48047C19.2254 6.00501 19.8328 7.85294 19.8328 9.86257C19.8328 15.1754 15.4878 19.4718 10.1149 19.4718C7.82563 19.4718 5.69984 18.6864 4.04126 17.3698C5.79328 19.9107 8.73668 21.5969 12.1006 21.5969C17.4734 21.5969 21.8184 17.3005 21.8184 11.9877C21.8184 8.9386 20.3935 6.236 18.1742 4.48047Z" fill="#FECC15"/>
<path d="M12.0072 17.2782C11.3998 17.2782 10.8392 17.2551 10.3954 17.2089C10.0683 17.1627 9.78799 17.1165 9.55439 17.0703C9.18062 16.9779 8.92366 16.8625 8.76014 16.7239C8.40973 16.7239 7.63884 16.6777 7.195 16.285C7.00811 16.1233 6.91467 15.8923 6.91467 15.6613C6.91467 13.6517 9.04046 12.3812 9.46094 12.1271C9.53102 12.0809 9.62447 12.0578 9.69455 12.0116L10.1618 11.5497C10.045 11.4573 9.92815 11.388 9.83471 11.2725C9.20398 10.695 8.85358 9.88651 8.85358 9.05495C8.85358 7.36871 10.2552 6.00586 12.0072 6.00586C13.7359 6.00586 15.1609 7.36871 15.1609 9.05495C15.1609 9.88651 14.8105 10.7181 14.1797 11.2725C14.0629 11.3649 13.9695 11.4573 13.8527 11.5497L14.3199 12.0116C14.3666 12.0347 14.4133 12.0578 14.4834 12.0809C15.6281 12.6584 16.983 13.9289 16.983 15.6613C16.983 15.8923 16.8895 16.1002 16.726 16.2619C16.3289 16.6546 15.5813 16.7239 15.2543 16.7239C15.0908 16.8625 14.8104 16.9779 14.4367 17.0703C14.2031 17.1165 13.9228 17.1627 13.6191 17.2089C13.1285 17.232 12.5912 17.2782 12.0072 17.2782ZM9.88143 16.5853C10.045 16.6084 10.2318 16.6546 10.4421 16.6777C10.8859 16.7239 11.3998 16.747 12.0072 16.747C12.5679 16.747 13.0818 16.7239 13.5023 16.6777C13.7125 16.6546 13.8994 16.6315 14.0629 16.5853V12.4505H14.0396C14.0162 12.4274 13.9695 12.4274 13.9461 12.4043L13.4322 11.9192C13.2453 12.1964 12.8715 12.5198 12.2642 12.5891V13.6286H13.549C13.6892 13.6286 13.8293 13.7441 13.8293 13.9058C13.8293 14.0444 13.7125 14.183 13.549 14.183H12.0072C11.8671 14.183 11.7269 14.0675 11.7269 13.9058V12.566C11.1195 12.4967 10.7458 12.1502 10.5589 11.8961L10.045 12.3812C10.0216 12.4043 9.99823 12.4274 9.97487 12.4274C9.95151 12.4505 9.90479 12.4505 9.88143 12.4736V16.5853ZM14.6236 12.7277V16.4236C14.7404 16.3774 14.8104 16.3543 14.8572 16.3081V14.668C14.8572 14.5294 14.974 14.3908 15.1375 14.3908C15.2777 14.3908 15.4178 14.5063 15.4178 14.668V16.1233C15.7916 16.1002 16.1887 16.0078 16.3756 15.823C16.4457 15.7537 16.469 15.6844 16.469 15.592C16.4223 14.3215 15.5113 13.3052 14.6236 12.7277ZM9.18062 16.3312C9.20398 16.3543 9.27406 16.3774 9.3675 16.4236V12.797C8.69005 13.259 7.49868 14.2523 7.49868 15.6151C7.49868 15.7075 7.52204 15.7999 7.61548 15.8692C7.82572 16.054 8.26957 16.1464 8.66669 16.1695V14.6911C8.66669 14.5525 8.7835 14.4139 8.94702 14.4139C9.08718 14.4139 9.22734 14.5294 9.22734 14.6911V16.3312H9.18062ZM10.9093 11.4111C10.9794 11.5266 11.1896 11.9423 11.7503 12.0347V11.7344C11.7503 11.5958 11.8671 11.4573 12.0306 11.4573C12.1707 11.4573 12.3109 11.5728 12.3109 11.7344V12.0347C12.8715 11.9423 13.1051 11.5266 13.1519 11.4111V10.7874C12.8015 10.8105 12.4043 10.7412 12.124 10.5102C12.1007 10.4871 12.0773 10.464 12.0306 10.4409C12.0072 10.464 11.9839 10.4871 11.9605 10.5102C11.6802 10.7643 11.283 10.8105 10.9326 10.7874V11.4111H10.9093ZM9.99823 10.6257C10.0683 10.695 10.1384 10.7874 10.2318 10.8567C10.2786 10.9029 10.3253 10.926 10.372 10.9722V10.7181C10.2318 10.6719 10.115 10.6488 9.99823 10.6257ZM13.6658 10.695V10.9491C13.7125 10.9029 13.7592 10.8798 13.806 10.8336C13.8994 10.7643 13.9695 10.6719 14.0396 10.6026C13.9228 10.6488 13.7826 10.6719 13.6658 10.695ZM12.0072 9.37833C12.1474 9.37833 12.2875 9.49383 12.2875 9.65552C12.2875 9.86342 12.3343 10.002 12.4511 10.0944C12.6146 10.233 12.9416 10.2792 13.3621 10.233C13.5023 10.2099 13.6424 10.1868 13.7592 10.1406L13.8293 8.73156L12.0072 8.54676L10.115 8.73156L10.2318 10.1406C10.372 10.1868 10.5122 10.2099 10.6523 10.233C11.0728 10.3023 11.3998 10.2561 11.5634 10.0944C11.6802 10.002 11.7269 9.86342 11.7269 9.65552C11.7503 9.49383 11.8671 9.37833 12.0072 9.37833ZM12.0072 7.99238H12.0306L14.133 8.22338C14.2732 8.24648 14.39 8.36197 14.3666 8.50057L14.2732 10.233C14.4834 9.86342 14.6002 9.44763 14.6002 9.00875C14.6002 7.6228 13.4322 6.49094 11.9839 6.49094C10.5355 6.49094 9.3675 7.6228 9.3675 9.00875C9.3675 9.42453 9.46094 9.81722 9.67119 10.1637L9.53102 8.47747C9.53102 8.33887 9.62447 8.20028 9.76463 8.20028L11.9371 7.96929C11.9839 7.99239 12.0072 7.99238 12.0072 7.99238Z" fill="white"/>
</g>
<defs>
<clipPath id="clip0">
<rect width="26" height="24" fill="white"/>
</clipPath>
</defs>
</svg>
