<?xml version="1.0" encoding="utf-8"?>
<!-- Generator: Adobe Illustrator 25.2.1, SVG Export Plug-In . SVG Version: 6.00 Build 0)  -->
<svg version="1.1" id="Layer_1" xmlns:v="https://vecta.io/nano"
	 xmlns="http://www.w3.org/2000/svg" xmlns:xlink="http://www.w3.org/1999/xlink" x="0px" y="0px" viewBox="0 0 186 171"
	 style="enable-background:new 0 0 186 171;" xml:space="preserve">
<style type="text/css">
	.st0{fill:#2A6FF6;}
	.st1{fill:#323232;}
	.st2{opacity:0.4;fill:none;stroke:#565656;stroke-width:2.837;enable-background:new    ;}
	.st3{fill:none;stroke:#FFFFFF;stroke-width:2;stroke-linecap:round;stroke-linejoin:round;}
</style>
<g>
	<path class="st0" d="M172.4,95c-1-7.8-6.2-14.9-13.3-18.2c-8.6-4-18.7-2.6-27.8-5.3c-11.8-3.5-20.4-13.3-30.9-19.8
		C88,44.1,73.2,41.4,58.8,38.8c-9.6-1.7-19.7-3.3-28.8,0.2c-12.3,4.9-19.5,20-15.5,32.6c6.8,21.4,37,27.1,46.2,47.6
		c4.8,10.6,3.2,24.1,10.7,32.9c9,10.5,25.5,8.7,38.9,5.5c10.2-2.5,20.3-5.3,30.4-8.2c8.2-2.3,16.8-4.8,22.8-10.8
		c7.5-7.4,4.4-13.1,4.3-21.7C167.9,109.5,173.5,103.3,172.4,95z"/>
</g>
<circle class="st1" cx="93" cy="83.3" r="43.5"/>
<circle class="st2" cx="93" cy="83.3" r="42.1"/>
<g>
	<path class="st3" d="M71.5,102.8c0,0,10.4-5,21.5-5s21.5,5,21.5,5 M100.5,80.3c0,5.5-3.5,9.5-7.5,9.5s-7.5-4-7.5-9.5
		c0-5.5,3.5-9.5,7.5-9.5S100.5,74.9,100.5,80.3z M85.5,84.8h-21 M87.5,73.8h-9 M97.5,77.8h-9 M107.5,73.8h-9 M93,70.8v-7
		 M121.5,84.8h-21"/>
	<circle class="st3" cx="107" cy="88.3" r="3.5"/>
	<circle class="st3" cx="79" cy="88.3" r="3.5"/>
</g>
</svg>
